<?xml version="1.0" encoding="UTF-8" standalone="no"?>
<!-- Created with Inkscape (http://www.inkscape.org/) -->

<svg
   xmlns:dc="http://purl.org/dc/elements/1.1/"
   xmlns:cc="http://creativecommons.org/ns#"
   xmlns:rdf="http://www.w3.org/1999/02/22-rdf-syntax-ns#"
   xmlns:svg="http://www.w3.org/2000/svg"
   xmlns="http://www.w3.org/2000/svg"
   xmlns:xlink="http://www.w3.org/1999/xlink"
   xmlns:sodipodi="http://sodipodi.sourceforge.net/DTD/sodipodi-0.dtd"
   xmlns:inkscape="http://www.inkscape.org/namespaces/inkscape"
   width="26.289406mm"
   height="26.289406mm"
   viewBox="0 0 26.289406 26.289406"
   version="1.1"
   id="svg190"
   inkscape:version="0.92.4 (5da689c313, 2019-01-14)"
   sodipodi:docname="PulAssVirtNoPress.svg">
  <defs
     id="defs184">
    <radialGradient
       inkscape:collect="always"
       xlink:href="#linearGradient5665"
       id="radialGradient3180"
       gradientUnits="userSpaceOnUse"
       gradientTransform="matrix(1.4273348,-2.2252957e-7,2.224779e-7,1.4270034,388.99596,-496.76688)"
       cx="33.965763"
       cy="240.37494"
       fx="33.965763"
       fy="240.37494"
       r="13.144703" />
    <linearGradient
       inkscape:collect="always"
       id="linearGradient5665">
      <stop
         style="stop-color:#000000;stop-opacity:1"
         offset="0"
         id="stop5661" />
      <stop
         style="stop-color:#2a2aff;stop-opacity:1"
         offset="1"
         id="stop5663" />
    </linearGradient>
  </defs>
  <sodipodi:namedview
     id="base"
     pagecolor="#ffffff"
     bordercolor="#666666"
     borderopacity="1.0"
     inkscape:pageopacity="0.0"
     inkscape:pageshadow="2"
     inkscape:zoom="0.7"
     inkscape:cx="84.860289"
     inkscape:cy="115.38628"
     inkscape:document-units="mm"
     inkscape:current-layer="layer1"
     showgrid="false"
     inkscape:window-width="958"
     inkscape:window-height="1008"
     inkscape:window-x="953"
     inkscape:window-y="0"
     inkscape:window-maximized="0" />
  <metadata
     id="metadata187">
    <rdf:RDF>
      <cc:Work
         rdf:about="">
        <dc:format>image/svg+xml</dc:format>
        <dc:type
           rdf:resource="http://purl.org/dc/dcmitype/StillImage" />
        <dc:title></dc:title>
      </cc:Work>
    </rdf:RDF>
  </metadata>
  <g
     inkscape:label="Livello 1"
     inkscape:groupmode="layer"
     id="layer1"
     transform="translate(64.697958,-62.172081)">
    <g
       style="display:inline"
       id="g3255"
       transform="translate(-489.02982,229.06785)"
       inkscape:export-filename="X:\Librerie\Libreria Immagini\Grafica UNIQO\Menu\Sfumati\PNG\PulAssVirtNoPress.png"
       inkscape:export-xdpi="96"
       inkscape:export-ydpi="96">
      <rect
         ry="5.2916665"
         y="-166.41327"
         x="424.81436"
         height="25.324406"
         width="25.324406"
         id="rect3155"
         style="opacity:1;fill:url(#radialGradient3180);fill-opacity:1;stroke:#ffffff;stroke-width:0.96499997;stroke-linecap:round;stroke-linejoin:bevel;stroke-miterlimit:4;stroke-dasharray:none;stroke-dashoffset:0;stroke-opacity:1;paint-order:stroke fill markers"
         inkscape:export-filename="X:\Librerie\Libreria GOT\Immagini\Menu\PulAlmNoPress.png"
         inkscape:export-xdpi="96"
         inkscape:export-ydpi="96" />
      <g
         transform="translate(-1.6986597,-38.165436)"
         id="g3109">
        <g
           id="g3092">
          <path
             inkscape:connector-curvature="0"
             style="opacity:1;fill:none;fill-opacity:1;stroke:#ffffff;stroke-width:0.7849189;stroke-linecap:square;stroke-linejoin:miter;stroke-miterlimit:4;stroke-dasharray:none;stroke-dashoffset:0;stroke-opacity:1"
             d="m 439.16726,-123.21031 a 8.0532511,7.9099707 0 0 0 -8.05316,7.90996 8.0532511,7.9099707 0 0 0 2.41383,5.63707 l -0.316,3.26511 3.59273,-1.34124 a 8.0532511,7.9099707 0 0 0 2.3626,0.34902 8.0532511,7.9099707 0 0 0 8.0534,-7.90996 8.0532511,7.9099707 0 0 0 -8.0534,-7.90996 z"
             id="path2924" />
          <g
             id="g3086">
            <path
               inkscape:connector-curvature="0"
               id="path2926"
               d="m 439.18872,-121.22011 a 0.93889077,0.93889077 0 0 0 -0.93884,0.93885 0.93889077,0.93889077 0 0 0 0.69059,0.90427 v 0.99393 c 0,0.11415 0.0919,0.20604 0.20604,0.20604 h 0.0844 c 0.11414,0 0.20602,-0.0919 0.20602,-0.20604 v -0.99298 a 0.93889077,0.93889077 0 0 0 0.69062,-0.90522 0.93889077,0.93889077 0 0 0 -0.93886,-0.93885 z"
               style="opacity:1;fill:#ffffff;fill-opacity:1;stroke:none;stroke-width:0.10844416;stroke-linecap:square;stroke-linejoin:miter;stroke-miterlimit:4;stroke-dasharray:none;stroke-dashoffset:0;stroke-opacity:1" />
            <path
               inkscape:connector-curvature="0"
               style="fill:#ffffff;stroke:none;stroke-width:0.46146452px;stroke-linecap:butt;stroke-linejoin:miter;stroke-opacity:1"
               d="m 1660.3066,-448.61914 c -11.737,0.12884 -23.5959,8.64373 -23.5468,23.66602 -0.3326,10.41227 45.9416,11.35822 46.334,-0.082 -0.7328,-15.80871 -10.9807,-23.19308 -21.6524,-23.57031 -0.3779,-0.0134 -0.7561,-0.0178 -1.1348,-0.0137 z m -11.7382,10.67187 a 3.8156427,3.8156427 0 0 1 3.8164,3.81641 3.8156427,3.8156427 0 0 1 -3.8164,3.81641 3.8156427,3.8156427 0 0 1 -3.8145,-3.81641 3.8156427,3.8156427 0 0 1 3.8145,-3.81641 z m 22.7148,0 a 3.8156427,3.8156427 0 0 1 3.8164,3.81641 3.8156427,3.8156427 0 0 1 -3.8164,3.81641 3.8156427,3.8156427 0 0 1 -3.8164,-3.81641 3.8156427,3.8156427 0 0 1 3.8164,-3.81641 z m -17.0254,9.4043 h 5.668 5.668 a 5.6671753,5.6671753 0 0 1 -2.834,4.9082 5.6671753,5.6671753 0 0 1 -5.668,0 5.6671753,5.6671753 0 0 1 -2.834,-4.9082 z"
               transform="scale(0.26458333)"
               id="path2928" />
          </g>
        </g>
        <g
           id="g2963"
           transform="matrix(0.46146452,0,0,0.46146452,219.93754,-53.843015)"
           style="fill:#ffffff;stroke:none">
          <path
             style="fill:#ffffff;fill-opacity:1;stroke:none;stroke-width:0.26458332px;stroke-linecap:butt;stroke-linejoin:miter;stroke-opacity:1"
             d="m 455.38294,-121.8028 c -1.0289,-1.84811 -1.75451,-3.69823 -1.9761,-5.57758 l 0.91205,-0.0468 c 0.313,1.95406 0.94292,3.61103 1.75396,5.09818 z"
             id="path2945"
             inkscape:connector-curvature="0"
             sodipodi:nodetypes="ccccc" />
          <rect
             style="opacity:1;fill:#ffffff;fill-opacity:1;stroke:none;stroke-width:0.27144095;stroke-linecap:square;stroke-linejoin:miter;stroke-miterlimit:4;stroke-dasharray:none;stroke-dashoffset:0;stroke-opacity:1"
             id="rect2947"
             width="3.0254018"
             height="6.0508037"
             x="450.15741"
             y="135.40686"
             ry="0.86224681"
             transform="rotate(-31.746615)" />
          <path
             style="fill:#ffffff;fill-opacity:1;stroke:none;stroke-width:0.26458332px;stroke-linecap:butt;stroke-linejoin:miter;stroke-opacity:1"
             d="m 455.24263,-137.86904 c 5.48109,-18.86374 31.96714,-21.50325 39.28862,-0.88867 l 2.01121,-0.0468 c -7.38696,-23.38511 -38.67311,-19.93773 -43.07716,0.8887 z"
             id="path2949"
             inkscape:connector-curvature="0"
             sodipodi:nodetypes="ccccc" />
          <g
             id="g2955"
             style="fill:#ffffff;stroke:none">
            <rect
               ry="1.026605"
               y="-137.86903"
               x="451.5708"
               height="10.68262"
               width="3.6222768"
               id="rect2951"
               style="opacity:1;fill:#ffffff;fill-opacity:1;stroke:none;stroke-width:0.24718755;stroke-linecap:square;stroke-linejoin:miter;stroke-miterlimit:4;stroke-dasharray:none;stroke-dashoffset:0;stroke-opacity:1" />
            <rect
               ry="0"
               y="-137.88361"
               x="454.37646"
               height="10.71177"
               width="1.7081286"
               id="rect2953"
               style="opacity:1;fill:#ffffff;fill-opacity:1;stroke:none;stroke-width:0.2340555;stroke-linecap:square;stroke-linejoin:miter;stroke-miterlimit:4;stroke-dasharray:none;stroke-dashoffset:0;stroke-opacity:1" />
          </g>
          <g
             id="g2961"
             style="fill:#ffffff;stroke:none">
            <rect
               transform="scale(-1,1)"
               style="opacity:1;fill:#ffffff;fill-opacity:1;stroke:none;stroke-width:0.24718755;stroke-linecap:square;stroke-linejoin:miter;stroke-miterlimit:4;stroke-dasharray:none;stroke-dashoffset:0;stroke-opacity:1"
               id="rect2957"
               width="3.6222768"
               height="10.68262"
               x="-498.61139"
               y="-138.79842"
               ry="1.026605" />
            <rect
               transform="scale(-1,1)"
               style="opacity:1;fill:#ffffff;fill-opacity:1;stroke:none;stroke-width:0.2340555;stroke-linecap:square;stroke-linejoin:miter;stroke-miterlimit:4;stroke-dasharray:none;stroke-dashoffset:0;stroke-opacity:1"
               id="rect2959"
               width="1.7081286"
               height="10.71177"
               x="-495.80573"
               y="-138.81299"
               ry="0" />
          </g>
        </g>
      </g>
    </g>
  </g>
</svg>
