<?xml version="1.0" encoding="UTF-8" standalone="no"?>
<!-- Created with Inkscape (http://www.inkscape.org/) -->

<svg
   xmlns:dc="http://purl.org/dc/elements/1.1/"
   xmlns:cc="http://creativecommons.org/ns#"
   xmlns:rdf="http://www.w3.org/1999/02/22-rdf-syntax-ns#"
   xmlns:svg="http://www.w3.org/2000/svg"
   xmlns="http://www.w3.org/2000/svg"
   xmlns:xlink="http://www.w3.org/1999/xlink"
   xmlns:sodipodi="http://sodipodi.sourceforge.net/DTD/sodipodi-0.dtd"
   xmlns:inkscape="http://www.inkscape.org/namespaces/inkscape"
   width="26.289406mm"
   height="26.289406mm"
   viewBox="0 0 26.289406 26.289406"
   version="1.1"
   id="svg190"
   inkscape:version="0.92.4 (5da689c313, 2019-01-14)"
   sodipodi:docname="PulCarParNoPress.svg">
  <defs
     id="defs184">
    <radialGradient
       inkscape:collect="always"
       xlink:href="#linearGradient2065"
       id="radialGradient2057"
       gradientUnits="userSpaceOnUse"
       gradientTransform="matrix(1.4273348,-2.2252957e-7,2.224779e-7,1.4270034,393.57065,-396.98727)"
       cx="33.965763"
       cy="240.37494"
       fx="33.965763"
       fy="240.37494"
       r="13.144703" />
    <linearGradient
       id="linearGradient2065"
       inkscape:collect="always">
      <stop
         id="stop2061"
         offset="0"
         style="stop-color:#000000;stop-opacity:1" />
      <stop
         id="stop2063"
         offset="1"
         style="stop-color:#dde9af;stop-opacity:1" />
    </linearGradient>
  </defs>
  <sodipodi:namedview
     id="base"
     pagecolor="#ffffff"
     bordercolor="#666666"
     borderopacity="1.0"
     inkscape:pageopacity="0.0"
     inkscape:pageshadow="2"
     inkscape:zoom="0.7"
     inkscape:cx="127.92892"
     inkscape:cy="60.597764"
     inkscape:document-units="mm"
     inkscape:current-layer="layer1"
     showgrid="false"
     inkscape:window-width="958"
     inkscape:window-height="1008"
     inkscape:window-x="953"
     inkscape:window-y="0"
     inkscape:window-maximized="0" />
  <metadata
     id="metadata187">
    <rdf:RDF>
      <cc:Work
         rdf:about="">
        <dc:format>image/svg+xml</dc:format>
        <dc:type
           rdf:resource="http://purl.org/dc/dcmitype/StillImage" />
        <dc:title></dc:title>
      </cc:Work>
    </rdf:RDF>
  </metadata>
  <g
     inkscape:label="Livello 1"
     inkscape:groupmode="layer"
     id="layer1"
     transform="translate(22.609572,-47.675954)">
    <g
       transform="translate(-451.51611,114.79209)"
       style="display:inline"
       id="g2492"
       inkscape:export-filename="X:\Librerie\Libreria Immagini\Immagini\Grafica 2019\Menu\Sfumati\PulCarParNoPress.png"
       inkscape:export-xdpi="96"
       inkscape:export-ydpi="96">
      <rect
         inkscape:export-ydpi="96"
         inkscape:export-xdpi="96"
         inkscape:export-filename="X:\Librerie\Libreria GOT\Immagini\Menu\PulAlmNoPress.png"
         style="opacity:1;fill:url(#radialGradient2057);fill-opacity:1;stroke:#ffffff;stroke-width:0.96499997;stroke-linecap:round;stroke-linejoin:bevel;stroke-miterlimit:4;stroke-dasharray:none;stroke-dashoffset:0;stroke-opacity:1;paint-order:stroke fill markers"
         id="rect2053"
         width="25.324406"
         height="25.324406"
         x="429.38904"
         y="-66.633636"
         ry="5.2916665" />
      <g
         transform="translate(-0.10237024,2.0614417)"
         id="g2374">
        <g
           id="g2334">
          <path
             inkscape:connector-curvature="0"
             id="path2127"
             transform="scale(0.26458333)"
             d="m 1678.8594,-244.67383 c -5.5696,0.0284 -6.507,2.70807 -7.8574,4.72656 -3.2138,-3.4814 -5.948,-8.06051 -27.5235,0 l -3.4824,0.11133 c -2.4451,0.25969 -3.3477,1.62162 -3.707,3.3711 v 34.49023 c 0.2551,3.2734 1.8662,3.55958 3.5937,3.59375 h 23.627 v -5.22656 h 15.2461 v 5.22656 h 23.9277 c 1.7565,0.1801 2.9959,-0.67335 3.2578,-3.48242 v -34.48828 c 0.217,-1.86856 -0.599,-3.22172 -3.3711,-3.59571 h -4.1562 c -9.7647,-3.52318 -15.744,-4.74583 -19.5547,-4.72656 z m -17.2207,2.01367 c 4.8968,-0.0395 7.3535,2.01325 8.3535,4.95899 v 32.58008 c -6.2131,-6.07318 -18.8799,-1.48278 -29.4356,2.80859 v -33.70312 c 9.7273,-4.72331 16.482,-6.60736 21.0821,-6.64454 z m 18.7031,0.0684 c 4.8352,-0.0159 11.6908,2.0285 20.8887,6.46094 v 33.92774 c -11.9764,-5.07739 -23.0863,-8.46461 -29.4356,-2.58399 v -32.57812 c 1.2439,-3.3778 4.0047,-5.2118 8.5469,-5.22657 z"
             style="fill:#ffffff;stroke:#ffffff;stroke-width:0.11121415px;stroke-linecap:butt;stroke-linejoin:miter;stroke-opacity:1" />
          <g
             transform="matrix(0.11121417,0,0,0.11121417,445.27195,-80.525699)"
             id="g2137">
            <path
               sodipodi:nodetypes="ccccc"
               inkscape:connector-curvature="0"
               id="path2129"
               d="m -94.88068,169.7797 c 23.699506,-11.30524 45.0142,-17.32984 58.799295,-6.68174 l -1e-6,3.74178 c -17.763129,-12.3048 -38.549647,-1.93417 -59.066566,6.41446 z"
               style="fill:#ffffff;stroke:#ffffff;stroke-width:0.26458332px;stroke-linecap:butt;stroke-linejoin:miter;stroke-opacity:1" />
            <path
               style="fill:#ffffff;stroke:#ffffff;stroke-width:0.26458332px;stroke-linecap:butt;stroke-linejoin:miter;stroke-opacity:1"
               d="m -94.88068,187.24131 c 23.699506,-11.30524 45.0142,-17.32984 58.799295,-6.68174 l -1e-6,3.74178 c -17.763129,-12.3048 -38.549647,-1.93417 -59.066566,6.41446 z"
               id="path2131"
               inkscape:connector-curvature="0"
               sodipodi:nodetypes="ccccc" />
            <path
               sodipodi:nodetypes="ccccc"
               inkscape:connector-curvature="0"
               id="path2133"
               d="m -94.88068,204.70292 c 23.699506,-11.30524 45.0142,-17.32984 58.799295,-6.68174 l -1e-6,3.74178 c -17.763129,-12.3048 -38.549647,-1.93417 -59.066566,6.41446 z"
               style="fill:#ffffff;stroke:#ffffff;stroke-width:0.26458332px;stroke-linecap:butt;stroke-linejoin:miter;stroke-opacity:1" />
            <path
               style="fill:#ffffff;stroke:#ffffff;stroke-width:0.26458332px;stroke-linecap:butt;stroke-linejoin:miter;stroke-opacity:1"
               d="m -94.88068,222.16453 c 23.699506,-11.30524 45.0142,-17.32984 58.799295,-6.68174 l -1e-6,3.74178 c -17.763129,-12.3048 -38.549647,-1.93417 -59.066566,6.41446 z"
               id="path2135"
               inkscape:connector-curvature="0"
               sodipodi:nodetypes="ccccc" />
          </g>
          <path
             sodipodi:nodetypes="ccccc"
             inkscape:connector-curvature="0"
             id="path2139"
             d="m 442.98142,-60.39476 c 1.03062,-1.346475 4.88732,-0.916703 6.42042,0.267517 v 0.416139 c -1.97551,-1.368468 -5.32761,-1.582419 -6.45014,-0.297242 z"
             style="fill:#ffffff;stroke:#ffffff;stroke-width:0.02942541px;stroke-linecap:butt;stroke-linejoin:miter;stroke-opacity:1" />
          <path
             style="fill:#ffffff;stroke:#ffffff;stroke-width:0.02942541px;stroke-linecap:butt;stroke-linejoin:miter;stroke-opacity:1"
             d="m 442.98142,-58.551862 c 1.03062,-1.346476 4.88732,-0.916703 6.42042,0.267517 v 0.416139 c -1.97551,-1.368468 -5.32761,-1.582419 -6.45014,-0.297242 z"
             id="path2141"
             inkscape:connector-curvature="0"
             sodipodi:nodetypes="ccccc" />
          <path
             sodipodi:nodetypes="ccccc"
             inkscape:connector-curvature="0"
             id="path2143"
             d="m 442.98142,-56.67924 c 1.03062,-1.346476 4.88732,-0.916703 6.42042,0.267517 v 0.416139 c -1.97551,-1.368468 -5.32761,-1.582419 -6.45014,-0.297242 z"
             style="fill:#ffffff;stroke:#ffffff;stroke-width:0.02942541px;stroke-linecap:butt;stroke-linejoin:miter;stroke-opacity:1" />
          <path
             style="fill:#ffffff;stroke:#ffffff;stroke-width:0.02942541px;stroke-linecap:butt;stroke-linejoin:miter;stroke-opacity:1"
             d="m 442.98142,-62.207933 c 1.03062,-1.346476 4.88732,-0.916703 6.42042,0.267516 v 0.416139 c -1.97551,-1.368468 -5.32761,-1.582418 -6.45014,-0.297242 z"
             id="path2145"
             inkscape:connector-curvature="0"
             sodipodi:nodetypes="ccccc" />
        </g>
        <path
           style="opacity:1;fill:#ffffff;fill-opacity:1;stroke:none;stroke-width:0.75903451;stroke-linecap:round;stroke-linejoin:round;stroke-miterlimit:4;stroke-dasharray:none;stroke-dashoffset:5.37312746;stroke-opacity:1;paint-order:stroke fill markers"
           d="m 440.72197,-53.087378 v 3.094673 h -1.07089 l 2.50252,2.678343 2.50255,-2.678343 h -1.07038 v -3.094673 z"
           id="path2300"
           inkscape:connector-curvature="0" />
      </g>
    </g>
  </g>
</svg>
