<?xml version="1.0" encoding="UTF-8" standalone="no"?>
<!-- Created with Inkscape (http://www.inkscape.org/) -->

<svg
   xmlns:dc="http://purl.org/dc/elements/1.1/"
   xmlns:cc="http://creativecommons.org/ns#"
   xmlns:rdf="http://www.w3.org/1999/02/22-rdf-syntax-ns#"
   xmlns:svg="http://www.w3.org/2000/svg"
   xmlns="http://www.w3.org/2000/svg"
   xmlns:xlink="http://www.w3.org/1999/xlink"
   xmlns:sodipodi="http://sodipodi.sourceforge.net/DTD/sodipodi-0.dtd"
   xmlns:inkscape="http://www.inkscape.org/namespaces/inkscape"
   width="26.289406mm"
   height="26.289406mm"
   viewBox="0 0 26.289406 26.289406"
   version="1.1"
   id="svg8"
   inkscape:version="0.92.4 (5da689c313, 2019-01-14)"
   sodipodi:docname="PulCntNoPress.svg">
  <defs
     id="defs2">
    <radialGradient
       inkscape:collect="always"
       xlink:href="#linearGradient5168"
       id="radialGradient5145"
       gradientUnits="userSpaceOnUse"
       gradientTransform="matrix(1.4273348,-2.2252957e-7,2.224779e-7,1.4270034,205.78518,-287.64844)"
       cx="33.965763"
       cy="240.37494"
       fx="33.965763"
       fy="240.37494"
       r="13.144703" />
    <linearGradient
       id="linearGradient5168"
       inkscape:collect="always">
      <stop
         id="stop5164"
         offset="0"
         style="stop-color:#000000;stop-opacity:1" />
      <stop
         id="stop5166"
         offset="1"
         style="stop-color:#b3b3b3;stop-opacity:1" />
    </linearGradient>
  </defs>
  <sodipodi:namedview
     id="base"
     pagecolor="#ffffff"
     bordercolor="#666666"
     borderopacity="1.0"
     inkscape:pageopacity="0.0"
     inkscape:pageshadow="2"
     inkscape:zoom="1.4"
     inkscape:cx="225.93449"
     inkscape:cy="-31.778434"
     inkscape:document-units="mm"
     inkscape:current-layer="layer1"
     showgrid="false"
     inkscape:window-width="958"
     inkscape:window-height="1008"
     inkscape:window-x="953"
     inkscape:window-y="0"
     inkscape:window-maximized="0" />
  <metadata
     id="metadata5">
    <rdf:RDF>
      <cc:Work
         rdf:about="">
        <dc:format>image/svg+xml</dc:format>
        <dc:type
           rdf:resource="http://purl.org/dc/dcmitype/StillImage" />
        <dc:title></dc:title>
      </cc:Work>
    </rdf:RDF>
  </metadata>
  <g
     inkscape:label="Livello 1"
     inkscape:groupmode="layer"
     id="layer1"
     transform="translate(-52.583036,5.0673722)">
    <g
       transform="translate(-188.53801,-47.290061)"
       style="display:inline"
       id="g5259"
       inkscape:export-filename="X:\Librerie\Libreria GOT\Immagini\Menu\Sfumati\PulCntNoPress.png"
       inkscape:export-xdpi="96"
       inkscape:export-ydpi="96">
      <rect
         inkscape:export-ydpi="96"
         inkscape:export-xdpi="96"
         inkscape:export-filename="X:\Librerie\Libreria GOT\Immagini\Menu\PulAlmNoPress.png"
         style="opacity:1;fill:url(#radialGradient5145);fill-opacity:1;stroke:#ffffff;stroke-width:0.96499997;stroke-linecap:round;stroke-linejoin:bevel;stroke-miterlimit:4;stroke-dasharray:none;stroke-dashoffset:0;stroke-opacity:1;paint-order:stroke fill markers"
         id="rect5133"
         width="25.324406"
         height="25.324406"
         x="241.60355"
         y="42.705189"
         ry="5.2916665" />
      <g
         id="g5162"
         transform="matrix(0.33058037,0,0,0.33058037,196.23971,3.6959343)"
         inkscape:export-xdpi="96"
         inkscape:export-ydpi="96">
        <path
           inkscape:connector-curvature="0"
           id="path5152"
           d="m 145.54745,145.2243 v 22.16196 h 59.96068 V 145.2243 Z m 2.57129,2.72593 h 54.81811 v 16.71009 h -54.81811 z"
           style="fill:#ffffff;stroke:#ffffff;stroke-width:0.1963529" />
        <g
           transform="translate(0.52916667,0.130485)"
           id="g5160">
          <text
             xml:space="preserve"
             style="font-style:normal;font-weight:normal;font-size:18.76959038px;line-height:1.25;font-family:sans-serif;letter-spacing:0px;word-spacing:0px;fill:#ffffff;fill-opacity:1;stroke:none;stroke-width:0.46923974"
             x="134.95245"
             y="178.35394"
             id="text5156"
             transform="scale(1.0994655,0.90953285)"><tspan
               sodipodi:role="line"
               id="tspan5154"
               x="134.95245"
               y="178.35394"
               style="fill:#ffffff;stroke-width:0.46923974">053</tspan></text>
          <path
             style="fill:#ffffff;stroke:#ffffff;stroke-width:0.12734818"
             d="m 189.34323,146.63093 v 19.08773 h 13.52889 v -19.08773 z m 9.14673,3.1316 c 0.39634,0 0.72916,0.0141 0.99787,0.0419 0.2687,0.0278 0.54055,0.0776 0.81597,0.14987 v 1.59215 h -0.10077 c -0.18809,-0.0834 -0.47338,-0.16134 -0.85628,-0.23358 -0.37619,-0.0778 -0.76276,-0.11679 -1.1591,-0.11679 -1.44429,0 -2.59627,0.3753 -3.45612,1.12551 -0.85986,0.74466 -1.36013,1.75307 -1.5012,3.02566 0.56428,-0.28342 1.1183,-0.49734 1.66243,-0.64182 0.55084,-0.15004 1.18601,-0.22479 1.90479,-0.22479 0.63818,0 1.19892,0.0498 1.68259,0.14986 0.49038,0.0945 0.99066,0.28889 1.5012,0.58342 0.59115,0.33899 1.03457,0.76683 1.33015,1.28365 0.30229,0.51681 0.45372,1.14502 0.45372,1.88412 0,1.26147 -0.5039,2.29209 -1.51154,3.09232 -1.00092,0.79467 -2.23042,1.19217 -3.68814,1.19217 -0.73894,0 -1.4108,-0.0942 -2.01539,-0.28318 -0.60458,-0.18895 -1.13845,-0.47 -1.60197,-0.84233 -0.57771,-0.46124 -1.02475,-1.07215 -1.34048,-1.83348 -0.30901,-0.76133 -0.46302,-1.67821 -0.46302,-2.75074 0,-1.10031 0.14057,-2.07567 0.42271,-2.92592 0.28886,-0.85024 0.74572,-1.60626 1.37046,-2.26756 0.59115,-0.62796 1.35397,-1.11699 2.28772,-1.46709 0.93374,-0.35566 2.02164,-0.5333 3.2644,-0.5333 z m -2.16628,6.0849 c -0.571,0 -1.10177,0.0558 -1.59215,0.16691 -0.49039,0.11114 -0.99428,0.28337 -1.51154,0.51677 -0.0134,0.12225 -0.0233,0.24193 -0.03,0.35863 -0.007,0.11114 -0.0103,0.25251 -0.0103,0.42478 0,0.87803 0.10749,1.57285 0.32246,2.08411 0.22168,0.5057 0.52402,0.90592 0.90692,1.20044 0.30901,0.24452 0.64184,0.42487 0.99787,0.54157 0.36275,0.11115 0.75553,0.16692 1.17874,0.16692 0.97406,0 1.73997,-0.24478 2.29753,-0.73381 0.55757,-0.49458 0.83613,-1.20296 0.83613,-2.12545 0,-0.51681 -0.0941,-0.94465 -0.28215,-1.28364 -0.18138,-0.33899 -0.48372,-0.6336 -0.90692,-0.88367 -0.30901,-0.17783 -0.65166,-0.29427 -1.02785,-0.34985 -0.37618,-0.0556 -0.76896,-0.0837 -1.17874,-0.0837 z"
             id="path5158"
             inkscape:connector-curvature="0" />
        </g>
      </g>
    </g>
  </g>
</svg>
