<?xml version="1.0" encoding="UTF-8" standalone="no"?>
<!-- Created with Inkscape (http://www.inkscape.org/) -->

<svg
   xmlns:dc="http://purl.org/dc/elements/1.1/"
   xmlns:cc="http://creativecommons.org/ns#"
   xmlns:rdf="http://www.w3.org/1999/02/22-rdf-syntax-ns#"
   xmlns:svg="http://www.w3.org/2000/svg"
   xmlns="http://www.w3.org/2000/svg"
   xmlns:xlink="http://www.w3.org/1999/xlink"
   xmlns:sodipodi="http://sodipodi.sourceforge.net/DTD/sodipodi-0.dtd"
   xmlns:inkscape="http://www.inkscape.org/namespaces/inkscape"
   width="26.289406mm"
   height="26.289406mm"
   viewBox="0 0 26.289406 26.289406"
   version="1.1"
   id="svg8"
   inkscape:version="0.92.4 (5da689c313, 2019-01-14)"
   sodipodi:docname="PulDiagNoPress.svg">
  <defs
     id="defs2">
    <radialGradient
       inkscape:collect="always"
       xlink:href="#linearGradient4972"
       id="radialGradient4966"
       gradientUnits="userSpaceOnUse"
       gradientTransform="matrix(1.4273348,-2.2252957e-7,2.224779e-7,1.4270034,314.11705,-255.6108)"
       cx="33.965763"
       cy="240.37494"
       fx="33.965763"
       fy="240.37494"
       r="13.144703" />
    <linearGradient
       id="linearGradient4972"
       inkscape:collect="always">
      <stop
         id="stop4968"
         offset="0"
         style="stop-color:#000000;stop-opacity:1" />
      <stop
         id="stop4970"
         offset="1"
         style="stop-color:#00d4aa;stop-opacity:1" />
    </linearGradient>
  </defs>
  <sodipodi:namedview
     id="base"
     pagecolor="#ffffff"
     bordercolor="#666666"
     borderopacity="1.0"
     inkscape:pageopacity="0.0"
     inkscape:pageshadow="2"
     inkscape:zoom="1.4"
     inkscape:cx="140.75089"
     inkscape:cy="57.323697"
     inkscape:document-units="mm"
     inkscape:current-layer="layer1"
     showgrid="false"
     inkscape:window-width="958"
     inkscape:window-height="1008"
     inkscape:window-x="953"
     inkscape:window-y="0"
     inkscape:window-maximized="0" />
  <metadata
     id="metadata5">
    <rdf:RDF>
      <cc:Work
         rdf:about="">
        <dc:format>image/svg+xml</dc:format>
        <dc:type
           rdf:resource="http://purl.org/dc/dcmitype/StillImage" />
        <dc:title></dc:title>
      </cc:Work>
    </rdf:RDF>
  </metadata>
  <g
     inkscape:label="Livello 1"
     inkscape:groupmode="layer"
     id="layer1"
     transform="translate(-75.121195,-18.50757)">
    <g
       transform="translate(-274.33173,-55.752713)"
       style="display:inline"
       id="g4980"
       inkscape:export-filename="X:\Librerie\Libreria GOT\Immagini\Menu\Sfumati\PulDiagNoPress.png"
       inkscape:export-xdpi="96"
       inkscape:export-ydpi="96">
      <rect
         inkscape:export-ydpi="96"
         inkscape:export-xdpi="96"
         inkscape:export-filename="X:\Librerie\Libreria GOT\Immagini\Menu\PulAlmNoPress.png"
         style="opacity:1;fill:url(#radialGradient4966);fill-opacity:1;stroke:#ffffff;stroke-width:0.96499997;stroke-linecap:round;stroke-linejoin:bevel;stroke-miterlimit:4;stroke-dasharray:none;stroke-dashoffset:0;stroke-opacity:1;paint-order:stroke fill markers"
         id="rect4964"
         width="25.324406"
         height="25.324406"
         x="349.93542"
         y="74.742783"
         ry="5.2916665" />
      <g
         transform="matrix(0.63670443,0,0,0.63670443,25.321469,64.717461)"
         id="g4962">
        <path
           style="fill:#ffffff;stroke:#ffffff;stroke-width:0.26458332px;stroke-linecap:butt;stroke-linejoin:miter;stroke-opacity:1"
           d="m 526.92188,22.814872 c -1.6941,0.3002 -2.02629,1.445722 -1.90431,2.873147 0.0932,4.809404 0.71479,9.507562 2.00453,14.06506 1.33635,4.409947 8.15756,2.658354 8.4524,0.200452 0.79802,-4.922214 2.00977,-9.844428 2.3052,-14.766642 0.16196,-1.616184 -0.53626,-2.464347 -2.13816,-2.505652 l -0.12553,0.84095 c -1.10391,-0.683782 -1.86211,-1.431672 0.0709,-2.486082 l 0.0547,0.709689 c 1.79788,0.08114 3.42063,0.443568 3.17383,3.808591 -0.36596,5.167211 -1.51575,10.334421 -2.47224,15.501632 -0.7464,2.087372 -1.83865,3.31011 -3.34087,3.507913 -1.9123,0.129521 -0.93613,1.402069 -0.73499,1.904295 3.66578,6.017515 14.96844,-1.998207 8.53604,-11.751312 -5.95878,-5.865726 -14.33047,-3.423905 -20.26249,0.32554 l -0.90204,-0.367496 v -1.00226 c 5.13918,-4.767386 22.46705,-6.973163 24.41629,5.467094 0.30869,1.970113 -0.0596,5.348946 -1.7859,7.562434 -3.13008,4.013513 -9.04934,5.762973 -11.62104,-0.558302 -0.31882,-1.598642 -1.26707,-1.723508 -2.28968,-1.980897 0,0 -3.00678,-0.282379 -4.51017,-19.209998 0.18228,-2.55396 1.54142,-2.989556 3.04019,-3.173825 l 0.10022,-0.567948 c 0.83638,0.286556 2.16463,1.557994 0.0468,2.332852 -0.13532,0.04951 0.0967,-0.775584 -0.11358,-0.729235 z"
           id="path4948"
           inkscape:connector-curvature="0"
           sodipodi:nodetypes="cccccccccccccccccsscccccsc" />
        <g
           id="g4956"
           transform="translate(-4.7440341,-2.271791)">
          <ellipse
             ry="3.1237125"
             rx="2.5390604"
             cy="38.33321"
             cx="522.64557"
             id="path4950"
             style="opacity:1;fill:#ffffff;fill-opacity:1;stroke:#ffffff;stroke-width:0.41300002;stroke-linecap:round;stroke-linejoin:miter;stroke-miterlimit:4;stroke-dasharray:none;stroke-dashoffset:0;stroke-opacity:1;paint-order:stroke fill markers" />
          <ellipse
             ry="1.4198694"
             rx="1.2194172"
             cy="38.33321"
             cx="522.64557"
             id="path4952"
             style="opacity:1;fill:#b3b3b3;fill-opacity:1;stroke:#b3b3b3;stroke-width:0.41300002;stroke-linecap:round;stroke-linejoin:miter;stroke-miterlimit:4;stroke-dasharray:none;stroke-dashoffset:0;stroke-opacity:1;paint-order:stroke fill markers" />
        </g>
      </g>
    </g>
  </g>
</svg>
