<?xml version="1.0" encoding="UTF-8" standalone="no"?>
<!-- Created with Inkscape (http://www.inkscape.org/) -->

<svg
   xmlns:dc="http://purl.org/dc/elements/1.1/"
   xmlns:cc="http://creativecommons.org/ns#"
   xmlns:rdf="http://www.w3.org/1999/02/22-rdf-syntax-ns#"
   xmlns:svg="http://www.w3.org/2000/svg"
   xmlns="http://www.w3.org/2000/svg"
   xmlns:xlink="http://www.w3.org/1999/xlink"
   xmlns:sodipodi="http://sodipodi.sourceforge.net/DTD/sodipodi-0.dtd"
   xmlns:inkscape="http://www.inkscape.org/namespaces/inkscape"
   width="26.289406mm"
   height="26.289406mm"
   viewBox="0 0 26.289406 26.289406"
   version="1.1"
   id="svg190"
   inkscape:version="0.92.4 (5da689c313, 2019-01-14)"
   sodipodi:docname="PulManPulizTappPress.svg">
  <defs
     id="defs184">
    <radialGradient
       inkscape:collect="always"
       xlink:href="#linearGradient5700"
       id="radialGradient6911"
       gradientUnits="userSpaceOnUse"
       gradientTransform="matrix(1.4273348,-2.2252957e-7,2.224779e-7,1.4270034,202.95567,-431.6328)"
       cx="33.965763"
       cy="240.37494"
       fx="33.965763"
       fy="240.37494"
       r="13.144703" />
    <linearGradient
       id="linearGradient5700"
       inkscape:collect="always">
      <stop
         id="stop5696"
         offset="0"
         style="stop-color:#000000;stop-opacity:1" />
      <stop
         id="stop5698"
         offset="1"
         style="stop-color:#808080;stop-opacity:1" />
    </linearGradient>
  </defs>
  <sodipodi:namedview
     id="base"
     pagecolor="#ffffff"
     bordercolor="#666666"
     borderopacity="1.0"
     inkscape:pageopacity="0.0"
     inkscape:pageshadow="2"
     inkscape:zoom="0.7"
     inkscape:cx="52.063005"
     inkscape:cy="114.73188"
     inkscape:document-units="mm"
     inkscape:current-layer="layer1"
     showgrid="false"
     inkscape:window-width="1597"
     inkscape:window-height="1008"
     inkscape:window-x="953"
     inkscape:window-y="0"
     inkscape:window-maximized="0" />
  <metadata
     id="metadata187">
    <rdf:RDF>
      <cc:Work
         rdf:about="">
        <dc:format>image/svg+xml</dc:format>
        <dc:type
           rdf:resource="http://purl.org/dc/dcmitype/StillImage" />
        <dc:title></dc:title>
      </cc:Work>
    </rdf:RDF>
  </metadata>
  <g
     inkscape:label="Livello 1"
     inkscape:groupmode="layer"
     id="layer1"
     transform="translate(102.70041,-61.998938)">
    <g
       transform="translate(-340.99197,163.76062)"
       style="display:inline"
       id="g7475"
       inkscape:export-filename="X:\Librerie\Libreria Immagini\Grafica UNIQO\Menu\Sfumati\PNG\PulManPulizTapPress.png"
       inkscape:export-xdpi="96"
       inkscape:export-ydpi="96">
      <rect
         inkscape:export-ydpi="96"
         inkscape:export-xdpi="96"
         inkscape:export-filename="X:\Librerie\Libreria GOT\Immagini\Menu\PulAlmNoPress.png"
         style="display:inline;opacity:1;fill:url(#radialGradient6911);fill-opacity:1;stroke:#ffffff;stroke-width:0.96499997;stroke-linecap:round;stroke-linejoin:bevel;stroke-miterlimit:4;stroke-dasharray:none;stroke-dashoffset:0;stroke-opacity:1;paint-order:stroke fill markers"
         id="rect6853"
         width="25.324406"
         height="25.324406"
         x="238.77406"
         y="-101.27918"
         ry="5.2916665" />
      <g
         id="g7423"
         transform="translate(0.72302515,33.073934)">
        <g
           id="g7385"
           transform="matrix(1.1330717,0,0,1.1330717,-90.330461,-53.38597)">
          <path
             sodipodi:nodetypes="ccccc"
             inkscape:connector-curvature="0"
             id="path7381"
             d="m 305.73817,-63.612916 2.13075,3.277525 0.0137,-6.341678 -2.15506,2.580599 z"
             style="fill:#ffffff;stroke:none;stroke-width:0.21997091;stroke-linecap:butt;stroke-linejoin:bevel;stroke-miterlimit:4;stroke-dasharray:none;stroke-opacity:1" />
          <path
             id="path7383"
             d="m 304.54026,-69.554589 c -0.26535,-0.0097 -0.53049,0.09127 -0.79582,0.238744 l 1.41645,1.463995 -0.0501,0.04857 -1.43092,-1.477947 c -0.003,7.94e-4 -0.003,0.0013 -0.004,0.0021 -0.49546,-0.03362 -0.74796,0.10301 -0.92398,0.293007 l 1.43145,1.479495 -0.0501,0.04858 -1.43142,-1.478462 c 0,0 0,5.29e-4 0,5.29e-4 -0.47993,-0.114631 -0.75536,0.07783 -1.03611,0.261998 l 1.40972,1.438156 -0.0501,0.04909 -1.41954,-1.448491 c 0,5.29e-4 -0.003,0.0011 -0.003,0.0016 -0.41325,-0.135917 -0.53099,-0.01852 -0.70019,0.05478 l -1.94924,1.345137 c -0.11382,0.212674 -0.29316,0.3972 -0.16486,0.713652 l 0.30231,0.302308 c 0.15896,0.17549 0.33102,0.314743 0.63408,0.09405 l 0.89297,-0.737939 c 0.26484,-0.232169 0.55279,-0.164907 0.8542,0.07803 l 0.62116,0.543121 c 0.17188,0.711991 -0.0933,0.956188 -0.42738,1.126029 l -1.86343,0.388607 v 1.00924 h 5.76397 l -0.0103,-0.48369 2.15492,-2.580722 -2.88253,-2.717663 c -0.0961,-0.03467 -0.19225,-0.0523 -0.28834,-0.05581 z"
             style="fill:#ffffff;fill-opacity:1;stroke:none;stroke-width:0.21962504px;stroke-linecap:butt;stroke-linejoin:bevel;stroke-opacity:1"
             inkscape:connector-curvature="0" />
        </g>
        <g
           id="g7421">
          <g
             id="g7407"
             transform="matrix(0.91125469,0,0,0.91125469,25.015518,-9.867129)">
            <path
               inkscape:connector-curvature="0"
               id="path7387"
               d="m 249.91671,-118.20929 a 2.9676154,2.9676154 0 0 0 -2.96762,2.96761 2.9676154,2.9676154 0 0 0 2.96762,2.96762 2.9676154,2.9676154 0 0 0 2.96761,-2.96762 2.9676154,2.9676154 0 0 0 -2.96761,-2.96761 z m 0,2.05237 a 0.91524593,0.91524593 0 0 1 0.91524,0.91524 0.91524593,0.91524593 0 0 1 -0.91524,0.91525 0.91524593,0.91524593 0 0 1 -0.91525,-0.91525 0.91524593,0.91524593 0 0 1 0.91525,-0.91524 z"
               style="opacity:1;fill:#ffffff;fill-opacity:1;stroke:none;stroke-width:0.36269158;stroke-linecap:round;stroke-linejoin:round;stroke-miterlimit:4;stroke-dasharray:none;stroke-dashoffset:0;stroke-opacity:1" />
            <g
               transform="matrix(0.4632722,0,0,0.4632722,109.66129,-70.596453)"
               style="stroke-width:1.2951349;stroke-miterlimit:4;stroke-dasharray:none"
               id="g7405">
              <path
                 style="opacity:1;fill:none;fill-opacity:1;stroke:#ffffff;stroke-width:4.89499807;stroke-linecap:round;stroke-linejoin:round;stroke-miterlimit:4;stroke-dasharray:none;stroke-dashoffset:0;stroke-opacity:1"
                 d="m 1217,-394.85547 h -72.75 c -16.9137,0 -30.625,13.71129 -30.625,30.625 0,16.91372 13.7113,30.62499 30.625,30.625"
                 transform="scale(0.26458333)"
                 id="path7389"
                 inkscape:connector-curvature="0"
                 sodipodi:nodetypes="cssc" />
              <path
                 sodipodi:nodetypes="cssc"
                 inkscape:connector-curvature="0"
                 id="path7391"
                 d="M 318.12201,-108.57321 H 299.1776 c -4.47509,0 -8.10287,3.62777 -8.10287,8.10286 0,1.791077 0.58112,3.446426 1.5651,4.787787"
                 style="opacity:1;fill:none;fill-opacity:1;stroke:#ffffff;stroke-width:1.2951349;stroke-linecap:round;stroke-linejoin:round;stroke-miterlimit:4;stroke-dasharray:none;stroke-dashoffset:0;stroke-opacity:1" />
              <path
                 style="fill:none;stroke:#ffffff;stroke-width:1.2951349;stroke-linecap:round;stroke-linejoin:miter;stroke-miterlimit:4;stroke-dasharray:none;stroke-opacity:1"
                 d="m 321.99791,-104.47218 -3.8759,-4.10103"
                 id="path7393"
                 inkscape:connector-curvature="0"
                 sodipodi:nodetypes="cc" />
              <path
                 style="fill:none;stroke:#ffffff;stroke-width:1.2951349;stroke-linecap:round;stroke-linejoin:miter;stroke-miterlimit:4;stroke-dasharray:none;stroke-opacity:1"
                 d="m 296.63099,-90.978386 -3.99116,-4.704177"
                 id="path7395"
                 inkscape:connector-curvature="0"
                 sodipodi:nodetypes="cc" />
              <path
                 inkscape:connector-curvature="0"
                 style="fill:none;stroke:#ffffff;stroke-width:1.2951349;stroke-linecap:round;stroke-linejoin:miter;stroke-miterlimit:4;stroke-dasharray:none;stroke-opacity:1"
                 d="m 321.99791,-88.266446 -19.28151,4e-5"
                 id="path7397" />
              <path
                 style="fill:none;stroke:#ffffff;stroke-width:1.2951349;stroke-linecap:round;stroke-linejoin:miter;stroke-miterlimit:4;stroke-dasharray:none;stroke-opacity:1"
                 d="m 309.76446,-92.367485 h 8.19386"
                 id="path7399"
                 inkscape:connector-curvature="0"
                 sodipodi:nodetypes="cc" />
              <path
                 style="fill:none;stroke:#ffffff;stroke-width:1.2951349;stroke-linecap:round;stroke-linejoin:miter;stroke-miterlimit:4;stroke-dasharray:none;stroke-opacity:1"
                 d="m 309.76446,-92.367485 c -1.88744,3.024324 -4.6469,3.782231 -7.04806,4.101079"
                 id="path7401"
                 inkscape:connector-curvature="0"
                 sodipodi:nodetypes="cc" />
              <path
                 sodipodi:nodetypes="cc"
                 inkscape:connector-curvature="0"
                 style="fill:none;stroke:#ffffff;stroke-width:1.2951349;stroke-linecap:round;stroke-linejoin:miter;stroke-miterlimit:4;stroke-dasharray:none;stroke-opacity:1"
                 d="m 321.99791,-88.266446 -4.03959,-4.101039"
                 id="path7403" />
            </g>
          </g>
          <g
             id="g7419"
             transform="translate(0.52916667,7.4083337)">
            <path
               style="fill:#ffffff;fill-opacity:1;stroke:#ffffff;stroke-width:0.06018767;stroke-linecap:butt;stroke-linejoin:miter;stroke-miterlimit:4;stroke-dasharray:none;stroke-opacity:1"
               d="m 244.62281,-127.42607 1.63754,-4.88632 c 0.0566,-0.1491 0.13989,-0.2625 0.33051,-0.23286 l 0.2629,0.0977 c 0.14763,0.08 0.16541,0.20449 0.11268,0.35305 l -1.70514,5.0403 z"
               id="path7409"
               inkscape:connector-curvature="0"
               sodipodi:nodetypes="ccccccc" />
            <g
               id="g7417">
              <path
                 sodipodi:nodetypes="cccccccccccccccc"
                 inkscape:connector-curvature="0"
                 id="path7411"
                 d="m 240.42381,-120.27876 1.83284,-3.57554 -1.39717,3.79338 c 0.36897,0.25468 0.86763,0.4056 1.32956,0.5859 l 1.5474,-3.91355 -1.11172,4.01121 c 0.37194,0.11994 0.75736,0.21295 1.14928,0.29295 l 1.17181,-3.89854 -0.69107,3.95863 0.63098,0.0751 c 0.37671,0.0712 0.4738,-0.13714 0.55586,-0.36056 l 0.52581,-4.73984 -3.73328,-1.2319 -2.35865,3.98867 c -0.13126,0.24186 -0.22824,0.4783 0.015,0.66102 z"
                 style="fill:#ffffff;stroke:none;stroke-width:0.06009303px;stroke-linecap:butt;stroke-linejoin:miter;stroke-opacity:1" />
              <path
                 inkscape:connector-curvature="0"
                 id="path7413"
                 d="m 242.41093,-125.55193 0.2602,-0.45069 3.36757,1.11463 -0.0425,0.53115 z"
                 style="fill:#ffffff;stroke:none;stroke-width:0.06009303px;stroke-linecap:butt;stroke-linejoin:miter;stroke-opacity:1" />
              <path
                 sodipodi:nodetypes="ccccccc"
                 inkscape:connector-curvature="0"
                 id="path7415"
                 d="m 242.8571,-126.27961 c 0.2945,-0.25136 0.48785,-0.53509 1.11541,-0.67987 0.0185,-0.29419 0.13257,-0.5573 0.71175,-0.66925 0.20642,0.38361 0.4531,0.31095 0.70112,0.22308 0.34962,0.30944 0.39213,0.63424 0.17528,0.97201 0.43022,0.40721 0.44821,0.81443 0.50991,1.22165 z"
                 style="fill:#ffffff;stroke:none;stroke-width:0.06009303px;stroke-linecap:butt;stroke-linejoin:miter;stroke-opacity:1" />
            </g>
          </g>
        </g>
      </g>
    </g>
  </g>
</svg>
