<?xml version="1.0" encoding="UTF-8" standalone="no"?>
<!-- Created with Inkscape (http://www.inkscape.org/) -->

<svg
   xmlns:dc="http://purl.org/dc/elements/1.1/"
   xmlns:cc="http://creativecommons.org/ns#"
   xmlns:rdf="http://www.w3.org/1999/02/22-rdf-syntax-ns#"
   xmlns:svg="http://www.w3.org/2000/svg"
   xmlns="http://www.w3.org/2000/svg"
   xmlns:xlink="http://www.w3.org/1999/xlink"
   xmlns:sodipodi="http://sodipodi.sourceforge.net/DTD/sodipodi-0.dtd"
   xmlns:inkscape="http://www.inkscape.org/namespaces/inkscape"
   width="26.289406mm"
   height="26.289406mm"
   viewBox="0 0 26.289406 26.289406"
   version="1.1"
   id="svg8"
   inkscape:version="0.92.4 (5da689c313, 2019-01-14)"
   sodipodi:docname="PulSetupNoPress.svg">
  <defs
     id="defs2">
    <radialGradient
       inkscape:collect="always"
       xlink:href="#linearGradient5340"
       id="radialGradient5277"
       gradientUnits="userSpaceOnUse"
       gradientTransform="matrix(1.4273348,-2.2252957e-7,2.224779e-7,1.4270034,314.11705,-288.34358)"
       cx="33.965763"
       cy="240.37494"
       fx="33.965763"
       fy="240.37494"
       r="13.144703" />
    <linearGradient
       inkscape:collect="always"
       id="linearGradient5340">
      <stop
         style="stop-color:#000000;stop-opacity:1"
         offset="0"
         id="stop5336" />
      <stop
         style="stop-color:#00aad4;stop-opacity:1"
         offset="1"
         id="stop5338" />
    </linearGradient>
  </defs>
  <sodipodi:namedview
     id="base"
     pagecolor="#ffffff"
     bordercolor="#666666"
     borderopacity="1.0"
     inkscape:pageopacity="0.0"
     inkscape:pageshadow="2"
     inkscape:zoom="1.4"
     inkscape:cx="163.30477"
     inkscape:cy="-17.265258"
     inkscape:document-units="mm"
     inkscape:current-layer="layer1"
     showgrid="false"
     inkscape:window-width="958"
     inkscape:window-height="1008"
     inkscape:window-x="953"
     inkscape:window-y="0"
     inkscape:window-maximized="0" />
  <metadata
     id="metadata5">
    <rdf:RDF>
      <cc:Work
         rdf:about="">
        <dc:format>image/svg+xml</dc:format>
        <dc:type
           rdf:resource="http://purl.org/dc/dcmitype/StillImage" />
        <dc:title></dc:title>
      </cc:Work>
    </rdf:RDF>
  </metadata>
  <g
     inkscape:label="Livello 1"
     inkscape:groupmode="layer"
     id="layer1"
     transform="translate(-69.153815,1.2274267)">
    <g
       transform="translate(-280.29911,-42.754967)"
       style="display:inline"
       id="g5151"
       inkscape:export-filename="X:\Librerie\Libreria GOT\Immagini\Menu\Sfumati\PulSetupNoPress.png"
       inkscape:export-xdpi="96"
       inkscape:export-ydpi="96">
      <rect
         ry="5.2916665"
         y="42.01004"
         x="349.93542"
         height="25.324406"
         width="25.324406"
         id="rect5261"
         style="opacity:1;fill:url(#radialGradient5277);fill-opacity:1;stroke:#ffffff;stroke-width:0.96499997;stroke-linecap:round;stroke-linejoin:bevel;stroke-miterlimit:4;stroke-dasharray:none;stroke-dashoffset:0;stroke-opacity:1;paint-order:stroke fill markers"
         inkscape:export-filename="X:\Librerie\Libreria GOT\Immagini\Menu\PulAlmNoPress.png"
         inkscape:export-xdpi="96"
         inkscape:export-ydpi="96" />
      <g
         inkscape:export-ydpi="96"
         inkscape:export-xdpi="96"
         transform="matrix(0.12898243,0,0,0.12898243,348.32816,27.327571)"
         id="g5350">
        <path
           style="fill:#ffffff;stroke:#ffffff;stroke-width:0.26458332px;stroke-linecap:butt;stroke-linejoin:miter;stroke-opacity:1"
           d="m 51.688243,171.6064 16.725447,9.35491 10.110864,-18.23735 -16.583706,-9.5439 1.606399,-3.1183 c 7.80034,0.3133 29.55229,-1.68343 29.293155,22.63132 0.360558,3.0591 1.710776,5.30438 3.827009,7.74851 l 17.055769,18.06959 -12.6953,12.82894 -17.506153,-16.30344 c -2.037536,-1.47217 -4.527284,-2.5675 -8.686259,-2.2718 -11.77572,-1.2897 -20.379166,-7.04942 -24.321527,-19.37704 z"
           id="path5344"
           inkscape:connector-curvature="0"
           sodipodi:nodetypes="ccccccccccccc" />
        <path
           sodipodi:nodetypes="ccccccccccccc"
           inkscape:connector-curvature="0"
           id="path5346"
           d="m 172.45831,247.85161 -16.72545,-9.35491 -10.11086,18.23735 16.5837,9.5439 -1.6064,3.1183 c -7.80034,-0.3133 -29.55229,1.68343 -29.29315,-22.63132 -0.36056,-3.0591 -1.71078,-5.30438 -3.82701,-7.74851 l -17.05577,-18.06959 12.6953,-12.82894 17.50615,16.30344 c 2.03754,1.47217 4.52729,2.5675 8.68626,2.2718 11.77572,1.2897 20.37917,7.04942 24.32153,19.37704 z"
           style="fill:#ffffff;stroke:#ffffff;stroke-width:0.26458332px;stroke-linecap:butt;stroke-linejoin:miter;stroke-opacity:1" />
        <path
           style="fill:#ffffff;stroke:#ffffff;stroke-width:0.26458332px;stroke-linecap:butt;stroke-linejoin:miter;stroke-opacity:1"
           d="m 47.624999,257.218 26.080358,-26.17485 c 13.525506,-2.53473 14.112583,-8.57362 15.969494,-14.2686 l 3.02381,-3.21279 6.331101,3.96875 46.113098,-45.78237 1.79538,-6.61458 15.78051,-10.91407 4.67746,4.53572 -10.72508,15.73326 -6.52009,1.70089 -46.11309,46.06585 3.96875,6.3311 -2.92932,3.30729 c -5.934983,0.28334 -11.451498,2.54489 -14.646576,15.78051 L 64.539435,273.94345 C 55.77349,273.28341 49.353718,268.93653 47.624999,257.218 Z"
           id="path5348"
           inkscape:connector-curvature="0"
           sodipodi:nodetypes="ccccccccccccccccc" />
      </g>
    </g>
  </g>
</svg>
