<?xml version="1.0" encoding="UTF-8" standalone="no"?>
<!-- Created with Inkscape (http://www.inkscape.org/) -->

<svg
   xmlns:dc="http://purl.org/dc/elements/1.1/"
   xmlns:cc="http://creativecommons.org/ns#"
   xmlns:rdf="http://www.w3.org/1999/02/22-rdf-syntax-ns#"
   xmlns:svg="http://www.w3.org/2000/svg"
   xmlns="http://www.w3.org/2000/svg"
   xmlns:xlink="http://www.w3.org/1999/xlink"
   xmlns:sodipodi="http://sodipodi.sourceforge.net/DTD/sodipodi-0.dtd"
   xmlns:inkscape="http://www.inkscape.org/namespaces/inkscape"
   width="26.289406mm"
   height="26.289406mm"
   viewBox="0 0 26.289406 26.289406"
   version="1.1"
   id="svg190"
   inkscape:version="0.92.4 (5da689c313, 2019-01-14)"
   sodipodi:docname="PulsXringPress.svg">
  <defs
     id="defs184">
    <radialGradient
       inkscape:collect="always"
       xlink:href="#linearGradient5700"
       id="radialGradient2019"
       gradientUnits="userSpaceOnUse"
       gradientTransform="matrix(1.4273348,-2.2252957e-7,2.224779e-7,1.4270034,363.10495,-364.05171)"
       cx="33.965763"
       cy="240.37494"
       fx="33.965763"
       fy="240.37494"
       r="13.144703" />
    <linearGradient
       id="linearGradient5700"
       inkscape:collect="always">
      <stop
         id="stop5696"
         offset="0"
         style="stop-color:#000000;stop-opacity:1" />
      <stop
         id="stop5698"
         offset="1"
         style="stop-color:#808080;stop-opacity:1" />
    </linearGradient>
  </defs>
  <sodipodi:namedview
     id="base"
     pagecolor="#ffffff"
     bordercolor="#666666"
     borderopacity="1.0"
     inkscape:pageopacity="0.0"
     inkscape:pageshadow="2"
     inkscape:zoom="0.7"
     inkscape:cx="65.391001"
     inkscape:cy="-0.51157455"
     inkscape:document-units="mm"
     inkscape:current-layer="layer1"
     showgrid="false"
     inkscape:window-width="958"
     inkscape:window-height="1008"
     inkscape:window-x="953"
     inkscape:window-y="0"
     inkscape:window-maximized="0" />
  <metadata
     id="metadata187">
    <rdf:RDF>
      <cc:Work
         rdf:about="">
        <dc:format>image/svg+xml</dc:format>
        <dc:type
           rdf:resource="http://purl.org/dc/dcmitype/StillImage" />
        <dc:title></dc:title>
      </cc:Work>
    </rdf:RDF>
  </metadata>
  <g
     inkscape:label="Livello 1"
     inkscape:groupmode="layer"
     id="layer1"
     transform="translate(6.0630801,-31.507441)">
    <g
       transform="translate(-404.50392,65.688031)"
       style="display:inline"
       id="g2123"
       inkscape:export-filename="X:\Librerie\Libreria Immagini\Immagini\Grafica 2019\Menu\Sfumati\PulsXringPress.png"
       inkscape:export-xdpi="96"
       inkscape:export-ydpi="96">
      <rect
         ry="5.2916665"
         y="-33.69809"
         x="398.92334"
         height="25.324406"
         width="25.324406"
         id="rect1999"
         style="display:inline;opacity:1;fill:url(#radialGradient2019);fill-opacity:1;stroke:#ffffff;stroke-width:0.96499997;stroke-linecap:round;stroke-linejoin:bevel;stroke-miterlimit:4;stroke-dasharray:none;stroke-dashoffset:0;stroke-opacity:1;paint-order:stroke fill markers"
         inkscape:export-filename="X:\Librerie\Libreria GOT\Immagini\Menu\PulAlmNoPress.png"
         inkscape:export-xdpi="96"
         inkscape:export-ydpi="96" />
      <g
         id="g2108"
         transform="matrix(0.99627032,0,0,0.99627032,-64.206188,23.111338)">
        <path
           sodipodi:nodetypes="cccccc"
           inkscape:connector-curvature="0"
           id="path2102"
           d="m 471.02305,-35.07393 h 10.38164 c 5.96823,-0.0616 4.3617,-7.29984 0,-6.97198 h -7.68444 c -4.73736,-0.0987 -3.85305,-6.00565 0,-5.90329 h 11.39944"
           style="fill:none;stroke:#ffffff;stroke-width:0.88730347;stroke-linecap:round;stroke-linejoin:miter;stroke-miterlimit:4;stroke-dasharray:1.77460702, 1.77460702;stroke-dashoffset:0;stroke-opacity:1" />
        <path
           inkscape:connector-curvature="0"
           id="path2104"
           d="m 469.06377,-41.95501 c -1.03634,0.0266 -2.06324,1.00131 -1.32323,2.42804 l 2.7736,3.33328 0.12713,-4.32552 c -0.15498,-1.02827 -0.86843,-1.45401 -1.5775,-1.4358 z m -0.01,0.72933 a 0.82696848,0.82696848 0 0 1 0.82692,0.82692 0.82696848,0.82696848 0 0 1 -0.82692,0.82692 0.82696848,0.82696848 0 0 1 -0.82692,-0.82692 0.82696848,0.82696848 0 0 1 0.82692,-0.82692 z"
           style="fill:#ffffff;fill-opacity:1;stroke:#ffffff;stroke-width:0.20151563px;stroke-linecap:butt;stroke-linejoin:round;stroke-opacity:1" />
        <path
           style="fill:#ffffff;stroke:#ffffff;stroke-width:0.16615073px;stroke-linecap:butt;stroke-linejoin:round;stroke-opacity:1"
           d="m 487.27103,-53.52828 c -0.62506,-0.583 -1.79222,-0.60285 -2.1811,0.66397 l -0.29392,3.56321 2.5736,-2.47121 c 0.50285,-0.69445 0.32908,-1.35706 -0.0986,-1.75597 z m -0.42715,0.42333 a 0.68184,0.68184 0 0 1 0.009,0.96418 0.68184,0.68184 0 0 1 -0.96417,0.008 0.68184,0.68184 0 0 1 -0.009,-0.96416 0.68184,0.68184 0 0 1 0.96416,-0.008 z"
           id="path2106"
           inkscape:connector-curvature="0" />
      </g>
    </g>
  </g>
</svg>
