<?xml version="1.0" encoding="UTF-8" standalone="no"?>
<!-- Created with Inkscape (http://www.inkscape.org/) -->

<svg
   xmlns:dc="http://purl.org/dc/elements/1.1/"
   xmlns:cc="http://creativecommons.org/ns#"
   xmlns:rdf="http://www.w3.org/1999/02/22-rdf-syntax-ns#"
   xmlns:svg="http://www.w3.org/2000/svg"
   xmlns="http://www.w3.org/2000/svg"
   xmlns:xlink="http://www.w3.org/1999/xlink"
   xmlns:sodipodi="http://sodipodi.sourceforge.net/DTD/sodipodi-0.dtd"
   xmlns:inkscape="http://www.inkscape.org/namespaces/inkscape"
   width="26.289406mm"
   height="26.289406mm"
   viewBox="0 0 26.289406 26.289406"
   version="1.1"
   id="svg190"
   inkscape:version="0.92.4 (5da689c313, 2019-01-14)"
   sodipodi:docname="PulSimuPress.svg">
  <defs
     id="defs184">
    <radialGradient
       inkscape:collect="always"
       xlink:href="#linearGradient5700"
       id="radialGradient2208"
       gradientUnits="userSpaceOnUse"
       gradientTransform="matrix(1.4273348,-2.2252957e-7,2.224779e-7,1.4270034,489.52906,-362.555)"
       cx="33.965763"
       cy="240.37494"
       fx="33.965763"
       fy="240.37494"
       r="13.144703" />
    <linearGradient
       id="linearGradient5700"
       inkscape:collect="always">
      <stop
         id="stop5696"
         offset="0"
         style="stop-color:#000000;stop-opacity:1" />
      <stop
         id="stop5698"
         offset="1"
         style="stop-color:#808080;stop-opacity:1" />
    </linearGradient>
  </defs>
  <sodipodi:namedview
     id="base"
     pagecolor="#ffffff"
     bordercolor="#666666"
     borderopacity="1.0"
     inkscape:pageopacity="0.0"
     inkscape:pageshadow="2"
     inkscape:zoom="0.70710678"
     inkscape:cx="49.680765"
     inkscape:cy="49.680768"
     inkscape:document-units="mm"
     inkscape:current-layer="layer1"
     showgrid="false"
     inkscape:window-width="1630"
     inkscape:window-height="1008"
     inkscape:window-x="953"
     inkscape:window-y="0"
     inkscape:window-maximized="0" />
  <metadata
     id="metadata187">
    <rdf:RDF>
      <cc:Work
         rdf:about="">
        <dc:format>image/svg+xml</dc:format>
        <dc:type
           rdf:resource="http://purl.org/dc/dcmitype/StillImage" />
        <dc:title></dc:title>
      </cc:Work>
    </rdf:RDF>
  </metadata>
  <g
     inkscape:label="Livello 1"
     inkscape:groupmode="layer"
     id="layer1"
     transform="translate(110.49854,2.0713229)">
    <g
       transform="translate(-635.36351,30.612555)"
       style="display:inline"
       id="g2422"
       inkscape:export-filename="X:\Librerie\Libreria Immagini\Grafica UNIQO\Menu\Sfumati\PNG\PulSimuPress.png"
       inkscape:export-xdpi="96"
       inkscape:export-ydpi="96">
      <rect
         ry="5.2916665"
         y="-32.201378"
         x="525.34747"
         height="25.324406"
         width="25.324406"
         id="rect2181"
         style="display:inline;opacity:1;fill:url(#radialGradient2208);fill-opacity:1;stroke:#ffffff;stroke-width:0.96499997;stroke-linecap:round;stroke-linejoin:bevel;stroke-miterlimit:4;stroke-dasharray:none;stroke-dashoffset:0;stroke-opacity:1;paint-order:stroke fill markers"
         inkscape:export-filename="X:\Librerie\Libreria GOT\Immagini\Menu\PulAlmNoPress.png"
         inkscape:export-xdpi="96"
         inkscape:export-ydpi="96" />
      <path
         sodipodi:nodetypes="cccscccccccccccccccccccccccccc"
         inkscape:connector-curvature="0"
         id="path2108"
         d="m 529.69796,-23.838127 -0.0173,9.752702 -2.30807,1.353628 c 0.0106,0.746445 -0.13307,1.023846 0.538,1.023846 h 20.32101 c 0.4971,-0.03369 0.41643,-0.413798 0.41643,-0.919929 l -2.32533,-1.422661 v -9.85699 c -0.0466,-0.578755 -0.33012,-0.831632 -0.74623,-0.90229 h -1.12354 v 0.94409 h 0.72052 c 0.16768,0.0067 0.46159,-0.03035 0.43332,0.559106 v 8.060824 h -15.17564 l -0.0218,-8.038978 c 0.009,-0.280896 0.0678,-0.537126 0.56867,-0.568285 l 0.74183,0.0037 v -0.945329 l -1.0908,-1.41e-4 c -0.5879,0.01217 -0.93473,0.269728 -0.93047,0.956504 z m 0.0782,10.23013 h 16.35557 l 1.45794,0.893475 h -7.6532 v 0.442523 h -4.0172 v -0.450968 l -7.60949,0.01729 z"
         style="fill:#ffffff;stroke:none;stroke-width:0.19633445px;stroke-linecap:butt;stroke-linejoin:round;stroke-opacity:1" />
      <g
         id="g2370">
        <path
           style="opacity:1;fill:none;fill-opacity:1;stroke:#ffffff;stroke-width:0.39996576;stroke-linecap:round;stroke-linejoin:bevel;stroke-miterlimit:4;stroke-dasharray:none;stroke-dashoffset:0;stroke-opacity:1"
           d="m 541.9716,-22.910333 c -0.22251,0.234793 -0.46663,0.462127 -0.73422,0.684783 m -4.44141,2.519304 c -0.39067,0.143912 -0.76616,0.260764 -1.11952,0.349302 -1.38612,0.34731 -2.4313,0.259398 -2.71185,-0.333287 -0.25663,-0.542146 0.17929,-1.395182 1.07752,-2.307165 0.25562,-0.259534 0.54868,-0.523838 0.87387,-0.787114 m 4.22073,-2.410844 c 0.44452,-0.16751 0.87038,-0.300323 1.26734,-0.396884 m 0,0 c 1.35643,-0.329958 2.37575,-0.236173 2.65227,0.347984 0.24597,0.519581 -0.26112,1.465022 -1.08472,2.333948"
           id="ellipse2127"
           inkscape:connector-curvature="0"
           sodipodi:nodetypes="cccscscccccc" />
        <g
           id="g2361"
           transform="translate(0.21049055,0.15734298)">
          <path
             sodipodi:nodetypes="ccccc"
             inkscape:connector-curvature="0"
             id="path2132"
             d="m 535.34046,-23.46688 1.55134,-1.498573 0.70561,2.235378 -1.55246,1.620983 z"
             style="fill:#ffffff;stroke:none;stroke-width:0.1495682px;stroke-linecap:butt;stroke-linejoin:round;stroke-opacity:1" />
          <path
             sodipodi:nodetypes="ccccc"
             style="fill:#ffffff;stroke:none;stroke-width:0.14964744px;stroke-linecap:butt;stroke-linejoin:round;stroke-opacity:1"
             d="m 539.5109,-24.318062 0.74026,2.195679 -2.2408,-0.664476 -0.70941,-2.225767 z"
             id="path2230"
             inkscape:connector-curvature="0" />
          <path
             inkscape:connector-curvature="0"
             id="path2232"
             d="m 539.98278,-21.739673 -1.58594,1.503115 -2.10784,-0.563398 1.52235,-1.573863 z"
             style="fill:#ffffff;stroke:none;stroke-width:0.14222769px;stroke-linecap:butt;stroke-linejoin:round;stroke-opacity:1"
             sodipodi:nodetypes="ccccc" />
        </g>
        <path
           sodipodi:nodetypes="cccscscccccc"
           inkscape:connector-curvature="0"
           id="path2261"
           d="m 540.37062,-19.248307 c -0.31459,-0.0753 -0.63353,-0.17305 -0.96015,-0.293459 m -4.40249,-2.58672 c -0.31996,-0.266373 -0.60891,-0.533134 -0.86226,-0.794883 -0.99384,-1.02676 -1.4403,-1.975868 -1.06729,-2.515173 0.34119,-0.493326 1.29791,-0.542321 2.53682,-0.220421 0.35258,0.09161 0.728,0.213251 1.1186,0.363232 m 4.19821,2.449841 c 0.36733,0.30121 0.69528,0.603608 0.97739,0.899105 m 0,0 c 0.96396,1.009727 1.3924,1.939371 1.02477,2.470925 -0.32699,0.472802 -1.39931,0.506371 -2.56362,0.227578"
           style="opacity:1;fill:none;fill-opacity:1;stroke:#ffffff;stroke-width:0.39996576;stroke-linecap:round;stroke-linejoin:bevel;stroke-miterlimit:4;stroke-dasharray:none;stroke-dashoffset:0;stroke-opacity:1" />
        <path
           style="opacity:1;fill:none;fill-opacity:1;stroke:#ffffff;stroke-width:0.39996576;stroke-linecap:round;stroke-linejoin:bevel;stroke-miterlimit:4;stroke-dasharray:none;stroke-dashoffset:0;stroke-opacity:1"
           d="m 536.40987,-18.815259 c -0.0921,-0.310093 -0.1669,-0.635178 -0.22593,-0.978244 m 0.0389,-5.106028 c 0.0707,-0.41028 0.15725,-0.793898 0.25726,-1.14418 0.39228,-1.374071 0.991,-2.235271 1.64456,-2.181887 0.59783,0.04882 1.11862,0.852862 1.4593,2.08674 0.097,0.351148 0.17932,0.737092 0.24473,1.150352 m -0.0225,4.860677 c -0.0772,0.468722 -0.1751,0.903934 -0.28995,1.295997 m 0,0 c -0.39247,1.339677 -0.98335,2.175539 -1.6275,2.122939 -0.57295,-0.04678 -1.13819,-0.958652 -1.4789,-2.106371"
           id="path2263"
           inkscape:connector-curvature="0"
           sodipodi:nodetypes="cccscscccccc" />
      </g>
    </g>
  </g>
</svg>
