<?xml version="1.0" encoding="UTF-8" standalone="no"?>
<!-- Created with Inkscape (http://www.inkscape.org/) -->

<svg
   xmlns:dc="http://purl.org/dc/elements/1.1/"
   xmlns:cc="http://creativecommons.org/ns#"
   xmlns:rdf="http://www.w3.org/1999/02/22-rdf-syntax-ns#"
   xmlns:svg="http://www.w3.org/2000/svg"
   xmlns="http://www.w3.org/2000/svg"
   xmlns:xlink="http://www.w3.org/1999/xlink"
   xmlns:sodipodi="http://sodipodi.sourceforge.net/DTD/sodipodi-0.dtd"
   xmlns:inkscape="http://www.inkscape.org/namespaces/inkscape"
   width="26.289406mm"
   height="26.289406mm"
   viewBox="0 0 26.289406 26.289406"
   version="1.1"
   id="svg190"
   inkscape:version="0.92.4 (5da689c313, 2019-01-14)"
   sodipodi:docname="Simb_CmdManuPress.svg">
  <defs
     id="defs184">
    <radialGradient
       inkscape:collect="always"
       xlink:href="#linearGradient5700"
       id="radialGradient1937"
       gradientUnits="userSpaceOnUse"
       gradientTransform="matrix(1.4273348,-2.2252957e-7,2.224779e-7,1.4270034,170.21411,-364.165)"
       cx="33.965763"
       cy="240.37494"
       fx="33.965763"
       fy="240.37494"
       r="13.144703" />
    <linearGradient
       id="linearGradient5700"
       inkscape:collect="always">
      <stop
         id="stop5696"
         offset="0"
         style="stop-color:#000000;stop-opacity:1" />
      <stop
         id="stop5698"
         offset="1"
         style="stop-color:#808080;stop-opacity:1" />
    </linearGradient>
  </defs>
  <sodipodi:namedview
     id="base"
     pagecolor="#ffffff"
     bordercolor="#666666"
     borderopacity="1.0"
     inkscape:pageopacity="0.0"
     inkscape:pageshadow="2"
     inkscape:zoom="0.7"
     inkscape:cx="95.650405"
     inkscape:cy="77.604965"
     inkscape:document-units="mm"
     inkscape:current-layer="layer1"
     showgrid="false"
     inkscape:window-width="958"
     inkscape:window-height="1008"
     inkscape:window-x="953"
     inkscape:window-y="0"
     inkscape:window-maximized="0" />
  <metadata
     id="metadata187">
    <rdf:RDF>
      <cc:Work
         rdf:about="">
        <dc:format>image/svg+xml</dc:format>
        <dc:type
           rdf:resource="http://purl.org/dc/dcmitype/StillImage" />
        <dc:title></dc:title>
      </cc:Work>
    </rdf:RDF>
  </metadata>
  <g
     inkscape:label="Livello 1"
     inkscape:groupmode="layer"
     id="layer1"
     transform="translate(-32.610846,-52.175774)">
    <g
       transform="translate(-172.93917,86.469656)"
       style="display:inline"
       id="g2039"
       inkscape:export-filename="X:\Librerie\Libreria Immagini\Immagini\Grafica 2019\Menu\Sfumati\Simb_CmdManuPress.png"
       inkscape:export-xdpi="96"
       inkscape:export-ydpi="96">
      <rect
         ry="5.2916665"
         y="-33.811382"
         x="206.03252"
         height="25.324406"
         width="25.324406"
         id="rect1893"
         style="display:inline;opacity:1;fill:url(#radialGradient1937);fill-opacity:1;stroke:#ffffff;stroke-width:0.96499997;stroke-linecap:round;stroke-linejoin:bevel;stroke-miterlimit:4;stroke-dasharray:none;stroke-dashoffset:0;stroke-opacity:1;paint-order:stroke fill markers"
         inkscape:export-filename="X:\Librerie\Libreria GOT\Immagini\Menu\PulAlmNoPress.png"
         inkscape:export-xdpi="96"
         inkscape:export-ydpi="96" />
      <g
         id="g2001"
         transform="matrix(1.8279334,0,0,1.8279334,-335.74191,97.566525)">
        <path
           sodipodi:nodetypes="ccccc"
           inkscape:connector-curvature="0"
           id="path1997"
           d="m 305.73817,-63.612916 2.13075,3.277525 0.0137,-6.341678 -2.15506,2.580599 z"
           style="fill:#ffffff;stroke:none;stroke-width:0.21997091;stroke-linecap:butt;stroke-linejoin:bevel;stroke-miterlimit:4;stroke-dasharray:none;stroke-opacity:1" />
        <path
           id="path1999"
           d="m 304.54026,-69.554589 c -0.26535,-0.0097 -0.53049,0.09127 -0.79582,0.238744 l 1.41645,1.463995 -0.0501,0.04857 -1.43092,-1.477947 c -0.003,7.94e-4 -0.003,0.0013 -0.004,0.0021 -0.49546,-0.03362 -0.74796,0.10301 -0.92398,0.293007 l 1.43145,1.479495 -0.0501,0.04858 -1.43142,-1.478462 c 0,0 0,5.29e-4 0,5.29e-4 -0.47993,-0.114631 -0.75536,0.07783 -1.03611,0.261998 l 1.40972,1.438156 -0.0501,0.04909 -1.41954,-1.448491 c 0,5.29e-4 -0.003,0.0011 -0.003,0.0016 -0.41325,-0.135917 -0.53099,-0.01852 -0.70019,0.05478 l -1.94924,1.345137 c -0.11382,0.212674 -0.29316,0.3972 -0.16486,0.713652 l 0.30231,0.302308 c 0.15896,0.17549 0.33102,0.314743 0.63408,0.09405 l 0.89297,-0.737939 c 0.26484,-0.232169 0.55279,-0.164907 0.8542,0.07803 l 0.62116,0.543121 c 0.17188,0.711991 -0.0933,0.956188 -0.42738,1.126029 l -1.86343,0.388607 v 1.00924 h 5.76397 l -0.0103,-0.48369 2.15492,-2.580722 -2.88253,-2.717663 c -0.0961,-0.03467 -0.19225,-0.0523 -0.28834,-0.05581 z"
           style="fill:#ffffff;fill-opacity:1;stroke:none;stroke-width:0.21962504px;stroke-linecap:butt;stroke-linejoin:bevel;stroke-opacity:1"
           inkscape:connector-curvature="0" />
      </g>
    </g>
  </g>
</svg>
