<?xml version="1.0" encoding="UTF-8" standalone="no"?>
<!-- Created with Inkscape (http://www.inkscape.org/) -->

<svg
   xmlns:dc="http://purl.org/dc/elements/1.1/"
   xmlns:cc="http://creativecommons.org/ns#"
   xmlns:rdf="http://www.w3.org/1999/02/22-rdf-syntax-ns#"
   xmlns:svg="http://www.w3.org/2000/svg"
   xmlns="http://www.w3.org/2000/svg"
   xmlns:xlink="http://www.w3.org/1999/xlink"
   xmlns:sodipodi="http://sodipodi.sourceforge.net/DTD/sodipodi-0.dtd"
   xmlns:inkscape="http://www.inkscape.org/namespaces/inkscape"
   width="25mm"
   height="25mm"
   viewBox="0 0 25.000001 25.000002"
   version="1.1"
   id="svg11690"
   inkscape:version="0.92.4 (5da689c313, 2019-01-14)"
   sodipodi:docname="SimbEnabPotlife.svg">
  <defs
     id="defs11684">
    <linearGradient
       inkscape:collect="always"
       xlink:href="#linearGradient5543"
       id="linearGradient9589"
       gradientUnits="userSpaceOnUse"
       gradientTransform="matrix(1.2074196,0,0,1.2074196,51.254376,-322.47615)"
       x1="314.97711"
       y1="295.93094"
       x2="334.62143"
       y2="276.28662" />
    <linearGradient
       inkscape:collect="always"
       id="linearGradient5543">
      <stop
         style="stop-color:#aaccff;stop-opacity:1"
         offset="0"
         id="stop5539" />
      <stop
         style="stop-color:#ffffff;stop-opacity:1"
         offset="1"
         id="stop5541" />
    </linearGradient>
  </defs>
  <sodipodi:namedview
     id="base"
     pagecolor="#ffffff"
     bordercolor="#666666"
     borderopacity="1.0"
     inkscape:pageopacity="0.0"
     inkscape:pageshadow="2"
     inkscape:zoom="3.959798"
     inkscape:cx="93.441697"
     inkscape:cy="60.074275"
     inkscape:document-units="mm"
     inkscape:current-layer="layer1"
     showgrid="false"
     inkscape:window-width="958"
     inkscape:window-height="1008"
     inkscape:window-x="953"
     inkscape:window-y="0"
     inkscape:window-maximized="0" />
  <metadata
     id="metadata11687">
    <rdf:RDF>
      <cc:Work
         rdf:about="">
        <dc:format>image/svg+xml</dc:format>
        <dc:type
           rdf:resource="http://purl.org/dc/dcmitype/StillImage" />
        <dc:title></dc:title>
      </cc:Work>
    </rdf:RDF>
  </metadata>
  <g
     inkscape:label="Livello 1"
     inkscape:groupmode="layer"
     id="layer1"
     transform="translate(50.626031,-86.93012)">
    <g
       transform="translate(-481.54949,76.452995)"
       id="g10792"
       inkscape:export-filename="X:\Librerie\Libreria Immagini\Immagini\Grafica 2019\Simboli per variabili\SimbEnabPotlife.png"
       inkscape:export-xdpi="275"
       inkscape:export-ydpi="275">
      <rect
         inkscape:export-ydpi="275"
         inkscape:export-xdpi="275"
         inkscape:export-filename="X:\Librerie\Libreria Immagini\Immagini\Grafica 2019\Simboli per variabili\SimbVuoto.png"
         y="11.117661"
         x="431.564"
         height="23.718927"
         width="23.718927"
         id="rect9511"
         style="display:inline;opacity:1;fill:url(#linearGradient9589);fill-opacity:1;stroke:#80b3ff;stroke-width:1.28107226;stroke-linecap:round;stroke-linejoin:miter;stroke-miterlimit:4;stroke-dasharray:none;stroke-dashoffset:0;stroke-opacity:1;paint-order:stroke fill markers" />
      <g
         transform="translate(-0.46771518,-0.2226474)"
         id="g10766">
        <path
           style="fill:#ff6600;fill-opacity:1;stroke:#000000;stroke-width:0.29042971;stroke-linecap:butt;stroke-linejoin:round;stroke-miterlimit:4;stroke-dasharray:none;stroke-opacity:1"
           d="m 436.98206,17.473093 c 1.5709,1.206497 2.64977,2.071487 5.5138,5.484516 1.44817,-2.479853 2.5176,-6.657345 8.30449,-10.195331 -1.90272,0.572346 -5.13619,1.717114 -8.65369,7.289391 -0.63494,-1.073654 -1.51738,-2.225707 -2.19784,-3.026015 z"
           id="path9761"
           inkscape:connector-curvature="0"
           sodipodi:nodetypes="cccccc" />
        <g
           transform="translate(31.80018,-0.46772168)"
           id="g10686">
          <g
             id="g10670"
             transform="matrix(0.54310237,0,0,0.54310237,171.38955,10.704646)">
            <g
               transform="translate(0,0.050113)"
               id="g10652">
              <path
                 style="opacity:1;fill:none;fill-opacity:1;stroke:#000000;stroke-width:0.5;stroke-linecap:round;stroke-linejoin:round;stroke-miterlimit:4;stroke-dasharray:none;stroke-dashoffset:0;stroke-opacity:1"
                 d="m 443.93303,28.719632 c -1.09934,0 -1.98438,0.885029 -1.98438,1.984375 v 6.465239 a 3.2782615,3.2782615 0 0 0 -1.29397,2.606043 3.2782615,3.2782615 0 0 0 3.27835,3.278351 3.2782615,3.2782615 0 0 0 3.27835,-3.278351 3.2782615,3.2782615 0 0 0 -1.29398,-2.603977 v -6.467305 c 0,-1.099346 -0.88503,-1.984375 -1.98437,-1.984375 z"
                 id="path10646"
                 inkscape:connector-curvature="0" />
              <path
                 style="opacity:1;fill:#ffe6d5;fill-opacity:1;stroke:#d45500;stroke-width:0.27302259;stroke-linecap:round;stroke-linejoin:round;stroke-miterlimit:4;stroke-dasharray:none;stroke-dashoffset:0;stroke-opacity:1"
                 d="m 443.93391,33.730805 c -0.67691,0 -1.22215,0.545247 -1.22215,1.222166 v 2.659899 c 0,0.01232 0.003,0.02369 0.003,0.03594 a 2.4667501,2.4667501 0 0 0 -1.24851,2.141333 2.4667501,2.4667501 0 0 0 2.46708,2.467085 2.4667501,2.4667501 0 0 0 2.46648,-2.467085 2.4667501,2.4667501 0 0 0 -1.24851,-2.14313 c 3.3e-4,-0.01164 0.003,-0.02243 0.003,-0.03414 v -2.659898 c 0,-0.676919 -0.54466,-1.222166 -1.22159,-1.222166 z"
                 id="path10648"
                 inkscape:connector-curvature="0" />
              <path
                 inkscape:connector-curvature="0"
                 id="path10650"
                 d="m 443.93303,28.719632 c -1.09934,0 -1.98438,0.885029 -1.98438,1.984375 v 6.465239 a 3.2782615,3.2782615 0 0 0 -1.29397,2.606043 3.2782615,3.2782615 0 0 0 3.27835,3.278351 3.2782615,3.2782615 0 0 0 3.27835,-3.278351 3.2782615,3.2782615 0 0 0 -1.29398,-2.603977 v -6.467305 c 0,-1.099346 -0.88503,-1.984375 -1.98437,-1.984375 z"
                 style="opacity:1;fill:none;fill-opacity:1;stroke:#afc6e9;stroke-width:0.2;stroke-linecap:round;stroke-linejoin:round;stroke-miterlimit:4;stroke-dasharray:none;stroke-dashoffset:0;stroke-opacity:1" />
            </g>
            <g
               transform="translate(-0.03339589,-0.016704)"
               id="g10660">
              <path
                 inkscape:connector-curvature="0"
                 id="path10654"
                 d="m 451.71726,28.786449 c -1.09934,0 -1.98438,0.885029 -1.98438,1.984375 v 6.465239 a 3.2782615,3.2782615 0 0 0 -1.29397,2.606043 3.2782615,3.2782615 0 0 0 3.27835,3.278351 3.2782615,3.2782615 0 0 0 3.27835,-3.278351 3.2782615,3.2782615 0 0 0 -1.29398,-2.603977 v -6.467305 c 0,-1.099346 -0.88503,-1.984375 -1.98437,-1.984375 z"
                 style="opacity:1;fill:none;fill-opacity:1;stroke:#000000;stroke-width:0.5;stroke-linecap:round;stroke-linejoin:round;stroke-miterlimit:4;stroke-dasharray:none;stroke-dashoffset:0;stroke-opacity:1" />
              <path
                 inkscape:connector-curvature="0"
                 id="path10656"
                 d="m 451.71814,32.227414 c -0.67691,0 -1.22215,0.545247 -1.22215,1.222166 v 4.230107 c 0,0.01232 0.003,0.02369 0.003,0.03594 -0.77061,0.437677 -1.24722,1.255103 -1.24851,2.141333 -1.9e-4,1.362608 1.10447,2.467267 2.46708,2.467085 1.36237,-1.49e-4 2.46666,-1.104711 2.46648,-2.467085 -6.5e-4,-0.886873 -0.47734,-1.705135 -1.24851,-2.14313 3.3e-4,-0.01164 0.003,-0.02243 0.003,-0.03414 v -4.230106 c 0,-0.676919 -0.54466,-1.222166 -1.22159,-1.222166 z"
                 style="opacity:1;fill:#ffb380;fill-opacity:1;stroke:#d45500;stroke-width:0.27302259;stroke-linecap:round;stroke-linejoin:round;stroke-miterlimit:4;stroke-dasharray:none;stroke-dashoffset:0;stroke-opacity:1"
                 sodipodi:nodetypes="csscccccsscc" />
              <path
                 style="opacity:1;fill:none;fill-opacity:1;stroke:#afc6e9;stroke-width:0.2;stroke-linecap:round;stroke-linejoin:round;stroke-miterlimit:4;stroke-dasharray:none;stroke-dashoffset:0;stroke-opacity:1"
                 d="m 451.71726,28.786449 c -1.09934,0 -1.98438,0.885029 -1.98438,1.984375 v 6.465239 a 3.2782615,3.2782615 0 0 0 -1.29397,2.606043 3.2782615,3.2782615 0 0 0 3.27835,3.278351 3.2782615,3.2782615 0 0 0 3.27835,-3.278351 3.2782615,3.2782615 0 0 0 -1.29398,-2.603977 v -6.467305 c 0,-1.099346 -0.88503,-1.984375 -1.98437,-1.984375 z"
                 id="path10658"
                 inkscape:connector-curvature="0" />
            </g>
            <g
               transform="translate(0,-0.050113)"
               id="g10668">
              <path
                 style="opacity:1;fill:none;fill-opacity:1;stroke:#000000;stroke-width:0.5;stroke-linecap:round;stroke-linejoin:round;stroke-miterlimit:4;stroke-dasharray:none;stroke-dashoffset:0;stroke-opacity:1"
                 d="m 459.43467,28.819858 c -1.09934,0 -1.98438,0.885029 -1.98438,1.984375 v 6.465239 a 3.2782615,3.2782615 0 0 0 -1.29397,2.606043 3.2782615,3.2782615 0 0 0 3.27835,3.278351 3.2782615,3.2782615 0 0 0 3.27835,-3.278351 3.2782615,3.2782615 0 0 0 -1.29398,-2.603977 v -6.467305 c 0,-1.099346 -0.88503,-1.984375 -1.98437,-1.984375 z"
                 id="path10662"
                 inkscape:connector-curvature="0" />
              <path
                 sodipodi:nodetypes="csscccccsscc"
                 style="opacity:1;fill:#ff6600;fill-opacity:1;stroke:#d45500;stroke-width:0.27302259;stroke-linecap:round;stroke-linejoin:round;stroke-miterlimit:4;stroke-dasharray:none;stroke-dashoffset:0;stroke-opacity:1"
                 d="m 459.43555,29.554719 c -0.67691,0 -1.22215,0.545247 -1.22215,1.222166 v 6.936211 c 0,0.01232 0.003,0.02369 0.003,0.03594 -0.77061,0.437677 -1.24722,1.255103 -1.24851,2.141333 -1.9e-4,1.362608 1.10447,2.467267 2.46708,2.467085 1.36237,-1.49e-4 2.46666,-1.104711 2.46648,-2.467085 -6.5e-4,-0.886873 -0.47734,-1.705135 -1.24851,-2.14313 3.3e-4,-0.01164 0.003,-0.02243 0.003,-0.03414 v -6.93621 c 0,-0.676919 -0.54466,-1.222166 -1.22159,-1.222166 z"
                 id="path10664"
                 inkscape:connector-curvature="0" />
              <path
                 inkscape:connector-curvature="0"
                 id="path10666"
                 d="m 459.43467,28.819858 c -1.09934,0 -1.98438,0.885029 -1.98438,1.984375 v 6.465239 a 3.2782615,3.2782615 0 0 0 -1.29397,2.606043 3.2782615,3.2782615 0 0 0 3.27835,3.278351 3.2782615,3.2782615 0 0 0 3.27835,-3.278351 3.2782615,3.2782615 0 0 0 -1.29398,-2.603977 v -6.467305 c 0,-1.099346 -0.88503,-1.984375 -1.98437,-1.984375 z"
                 style="opacity:1;fill:none;fill-opacity:1;stroke:#afc6e9;stroke-width:0.2;stroke-linecap:round;stroke-linejoin:round;stroke-miterlimit:4;stroke-dasharray:none;stroke-dashoffset:0;stroke-opacity:1" />
            </g>
          </g>
          <g
             transform="matrix(0.15152598,0,0,0.15152598,406.20562,-32.194869)"
             id="g10684">
            <rect
               style="opacity:1;fill:none;fill-opacity:1;stroke:#000000;stroke-width:1.02943635;stroke-linecap:round;stroke-linejoin:round;stroke-miterlimit:4;stroke-dasharray:none;stroke-dashoffset:0;stroke-opacity:1"
               id="rect10672"
               width="42.556522"
               height="40.099415"
               x="-29.354761"
               y="383.04071"
               ry="14.835316" />
            <g
               style="stroke:#000000"
               id="g10678"
               transform="translate(-36.103743,42.695155)">
              <path
                 sodipodi:nodetypes="ccccccc"
                 inkscape:connector-curvature="0"
                 id="path10674"
                 d="M 6.3120211,356.75279 H 50.011155 v 31.39616 c 0.05763,3.95426 -4.343041,7.44072 -7.810118,7.34218 l -26.590622,0.0661 c -7.2500563,0.14941 -9.2029674,-4.41433 -9.3265616,-7.80516 z"
                 style="fill:#afc6e9;fill-opacity:1;stroke:#000000;stroke-width:0.5;stroke-linecap:butt;stroke-linejoin:miter;stroke-miterlimit:4;stroke-dasharray:none;stroke-opacity:1" />
              <rect
                 rx="2.1854882"
                 style="opacity:1;fill:#afc6e9;fill-opacity:1;stroke:#000000;stroke-width:0.5;stroke-linecap:round;stroke-linejoin:round;stroke-miterlimit:4;stroke-dasharray:none;stroke-dashoffset:0;stroke-opacity:1"
                 id="rect10676"
                 width="47.355759"
                 height="4.1562419"
                 x="4.3493638"
                 y="355.82672"
                 ry="2.0781209" />
            </g>
            <path
               style="fill:#d7e3f4;stroke:none;stroke-width:0.26095828px;stroke-linecap:butt;stroke-linejoin:miter;stroke-opacity:1"
               d="m -29.467769,403.00292 h 13.751015 v 34.91378 h -5.408733 c -4.762013,0.0427 -8.207462,-2.71493 -8.250609,-7.05704 z"
               id="path10680"
               inkscape:connector-curvature="0"
               sodipodi:nodetypes="cccccc" />
            <path
               style="fill:#ff6600;stroke:#d45500;stroke-width:0.565;stroke-linecap:butt;stroke-linejoin:miter;stroke-miterlimit:4;stroke-dasharray:none;stroke-opacity:1"
               d="m -17.713047,398.55928 h 30.030206 c -4.875536,2.031 -4.215606,5.76523 -4.762499,9.12812 l -0.132291,14.81666 c -0.921026,6.71366 -6.968137,4.52354 -6.879166,0 v -10.45104 c 0.391709,-4.23094 -4.8096,-5.08825 -5.159375,-0.13229 -1.13048,6.26572 -7.671034,4.35057 -8.334375,0 v -6.35 c -0.223517,-4.61045 -2.468308,-5.85212 -4.7625,-7.01145 z"
               id="path10682"
               inkscape:connector-curvature="0"
               sodipodi:nodetypes="cccccccccc" />
          </g>
        </g>
      </g>
    </g>
  </g>
</svg>
