<?xml version="1.0" encoding="UTF-8" standalone="no"?>
<!-- Created with Inkscape (http://www.inkscape.org/) -->

<svg
   xmlns:dc="http://purl.org/dc/elements/1.1/"
   xmlns:cc="http://creativecommons.org/ns#"
   xmlns:rdf="http://www.w3.org/1999/02/22-rdf-syntax-ns#"
   xmlns:svg="http://www.w3.org/2000/svg"
   xmlns="http://www.w3.org/2000/svg"
   xmlns:xlink="http://www.w3.org/1999/xlink"
   xmlns:sodipodi="http://sodipodi.sourceforge.net/DTD/sodipodi-0.dtd"
   xmlns:inkscape="http://www.inkscape.org/namespaces/inkscape"
   width="25mm"
   height="25mm"
   viewBox="0 0 25.000001 25.000002"
   version="1.1"
   id="svg11690"
   inkscape:version="0.92.4 (5da689c313, 2019-01-14)"
   sodipodi:docname="SimbVernice.svg">
  <defs
     id="defs11684">
    <linearGradient
       inkscape:collect="always"
       xlink:href="#linearGradient5543"
       id="linearGradient8979"
       gradientUnits="userSpaceOnUse"
       gradientTransform="matrix(1.2074196,0,0,1.2074196,138.24507,-59.879325)"
       x1="314.97711"
       y1="295.93094"
       x2="334.62143"
       y2="276.28662" />
    <linearGradient
       inkscape:collect="always"
       id="linearGradient5543">
      <stop
         style="stop-color:#aaccff;stop-opacity:1"
         offset="0"
         id="stop5539" />
      <stop
         style="stop-color:#ffffff;stop-opacity:1"
         offset="1"
         id="stop5541" />
    </linearGradient>
    <radialGradient
       inkscape:collect="always"
       xlink:href="#linearGradient4607"
       id="radialGradient8981"
       gradientUnits="userSpaceOnUse"
       gradientTransform="matrix(0.26749637,-0.10792297,0.09210769,0.22829681,667.20011,262.29794)"
       cx="126.0754"
       cy="175.25296"
       fx="126.0754"
       fy="175.25296"
       r="39.996906" />
    <linearGradient
       inkscape:collect="always"
       id="linearGradient4607">
      <stop
         style="stop-color:#d7eef4;stop-opacity:1"
         offset="0"
         id="stop4603" />
      <stop
         style="stop-color:#afc6e9;stop-opacity:1"
         offset="1"
         id="stop4605" />
    </linearGradient>
  </defs>
  <sodipodi:namedview
     id="base"
     pagecolor="#ffffff"
     bordercolor="#666666"
     borderopacity="1.0"
     inkscape:pageopacity="0.0"
     inkscape:pageshadow="2"
     inkscape:zoom="2.8"
     inkscape:cx="73.445626"
     inkscape:cy="86.910382"
     inkscape:document-units="mm"
     inkscape:current-layer="layer1"
     showgrid="false"
     inkscape:window-width="958"
     inkscape:window-height="1008"
     inkscape:window-x="953"
     inkscape:window-y="0"
     inkscape:window-maximized="0" />
  <metadata
     id="metadata11687">
    <rdf:RDF>
      <cc:Work
         rdf:about="">
        <dc:format>image/svg+xml</dc:format>
        <dc:type
           rdf:resource="http://purl.org/dc/dcmitype/StillImage" />
        <dc:title></dc:title>
      </cc:Work>
    </rdf:RDF>
  </metadata>
  <g
     inkscape:label="Livello 1"
     inkscape:groupmode="layer"
     id="layer1"
     transform="translate(17.06257,-101.96892)">
    <g
       transform="translate(-534.97666,-171.10505)"
       id="g9067"
       inkscape:export-xdpi="275"
       inkscape:export-ydpi="275">
      <rect
         inkscape:export-ydpi="275"
         inkscape:export-xdpi="275"
         inkscape:export-filename="X:\Librerie\Libreria Immagini\Immagini\Grafica 2019\Simboli per variabili\SimbVuoto.png"
         y="273.71451"
         x="518.55463"
         height="23.718927"
         width="23.718927"
         id="rect8895"
         style="display:inline;opacity:1;fill:url(#linearGradient8979);fill-opacity:1;stroke:#80b3ff;stroke-width:1.28107226;stroke-linecap:round;stroke-linejoin:miter;stroke-miterlimit:4;stroke-dasharray:none;stroke-dashoffset:0;stroke-opacity:1;paint-order:stroke fill markers" />
      <g
         transform="matrix(2.6665908,1.1406518,-1.1611722,2.6194665,113.28589,-130.91564)"
         id="g8909">
        <path
           style="fill:url(#radialGradient8981);fill-opacity:1;stroke:#ff6600;stroke-width:0.36683747;stroke-linecap:butt;stroke-linejoin:miter;stroke-miterlimit:4;stroke-dasharray:none;stroke-opacity:1"
           d="m 717.85352,278.11719 c -0.68716,0.026 -1.42382,0.21206 -2.14844,0.58203 -2.63615,1.60335 -7.9465,5.1302 -8.7461,14.42578 0.18312,2.30858 1.26471,9.73329 10.27344,6.08594 3.5825,-1.55205 8.59024,-4.91845 10.74219,-11.11328 0.78569,-3.7681 -0.96851,-5.261 -3.05273,-4.30078 -3.04404,1.40539 -4.06094,0.77344 -3.80469,-2.29102 0.42159,-2.10967 -1.20222,-3.46652 -3.26367,-3.38867 z m 7.82031,7.54492 a 1.3880328,2.0667434 41.718608 0 1 0.97656,0.65625 1.3880328,2.0667434 41.718608 0 1 -1.13281,2.53125 1.3880328,2.0667434 41.718608 0 1 -2.15625,-0.24805 1.3880328,2.0667434 41.718608 0 1 1.13281,-2.53125 1.3880328,2.0667434 41.718608 0 1 1.17969,-0.4082 z"
           transform="scale(0.26458333)"
           id="path8897"
           inkscape:connector-curvature="0" />
        <g
           id="g8907">
          <path
             sodipodi:nodetypes="ccccccc"
             inkscape:connector-curvature="0"
             id="path8899"
             d="m 190.72202,77.050179 c 0.33609,-0.331937 -0.14842,-0.636792 0.22129,-1.030106 0.13952,-0.117794 -0.0374,-0.502825 -0.45716,-0.134669 -0.32276,0.309949 -0.38414,0.03885 -0.77603,0.478151 -0.18246,0.344091 -0.0279,0.476921 0.17845,0.577228 0.55729,-0.161567 0.2512,0.152594 0.44298,0.261433 0.12862,0.04072 0.22929,0.02084 0.39047,-0.152039 z"
             style="fill:#ffb380;stroke:#ff7f2a;stroke-width:0.05102316;stroke-linecap:butt;stroke-linejoin:miter;stroke-miterlimit:4;stroke-dasharray:none;stroke-opacity:1" />
          <path
             sodipodi:nodetypes="cccccccc"
             inkscape:connector-curvature="0"
             id="path8901"
             d="m 188.93224,75.542605 c 0.0545,0.272348 0.62051,0.323685 0.83267,-0.14888 0.12419,-0.240838 -0.0611,-0.341378 0.3726,-0.722527 0.0573,-0.07608 0.23858,-0.230242 0.0488,-0.209518 -0.21603,0.09447 -0.002,-0.150001 -0.0626,-0.236091 -0.0607,-0.07098 -0.29349,-0.200437 -0.8501,0.139409 -0.18534,0.230984 -0.44575,0.353296 -0.54321,0.549274 -0.16161,0.262789 0.31242,0.226011 0.20179,0.628333 z"
             style="fill:#ff6600;stroke:#ff7f2a;stroke-width:0.03567785;stroke-linecap:butt;stroke-linejoin:miter;stroke-miterlimit:4;stroke-dasharray:none;stroke-opacity:1" />
          <path
             style="fill:#ff6600;stroke:#ff7f2a;stroke-width:0.03567785;stroke-linecap:butt;stroke-linejoin:miter;stroke-miterlimit:4;stroke-dasharray:none;stroke-opacity:1"
             d="m 189.74266,77.67891 c -0.0545,-0.272348 -0.6205,-0.323685 -0.83266,0.148881 -0.1242,0.240837 0.0611,0.341377 -0.37261,0.722526 -0.0573,0.07608 -0.23857,0.230242 -0.0488,0.209519 0.21603,-0.09447 0.002,0.15 0.0626,0.23609 0.0607,0.07098 0.29349,0.200437 0.8501,-0.139409 0.18534,-0.230984 0.44575,-0.353296 0.54321,-0.549274 0.16161,-0.262789 -0.31242,-0.226011 -0.2018,-0.628333 z"
             id="path8903"
             inkscape:connector-curvature="0"
             sodipodi:nodetypes="cccccccc" />
          <path
             style="fill:#ffb380;stroke:#ff7f2a;stroke-width:0.05102316;stroke-linecap:butt;stroke-linejoin:miter;stroke-miterlimit:4;stroke-dasharray:none;stroke-opacity:1"
             d="m 187.78883,76.298557 c -0.33609,0.331938 0.14841,0.636793 -0.22129,1.030106 -0.13952,0.117794 0.0374,0.502825 0.45715,0.134669 0.32277,-0.309949 0.38414,-0.03885 0.77603,-0.478151 0.18246,-0.344091 0.0279,-0.476921 -0.17845,-0.577228 -0.55729,0.161567 -0.2512,-0.152593 -0.44297,-0.261433 -0.12863,-0.04071 -0.22929,-0.02084 -0.39047,0.15204 z"
             id="path8905"
             inkscape:connector-curvature="0"
             sodipodi:nodetypes="ccccccc" />
        </g>
      </g>
    </g>
  </g>
</svg>
