<?xml version="1.0" encoding="UTF-8" standalone="no"?>
<!-- Created with Inkscape (http://www.inkscape.org/) -->

<svg
   xmlns:dc="http://purl.org/dc/elements/1.1/"
   xmlns:cc="http://creativecommons.org/ns#"
   xmlns:rdf="http://www.w3.org/1999/02/22-rdf-syntax-ns#"
   xmlns:svg="http://www.w3.org/2000/svg"
   xmlns="http://www.w3.org/2000/svg"
   xmlns:xlink="http://www.w3.org/1999/xlink"
   xmlns:sodipodi="http://sodipodi.sourceforge.net/DTD/sodipodi-0.dtd"
   xmlns:inkscape="http://www.inkscape.org/namespaces/inkscape"
   width="25mm"
   height="25mm"
   viewBox="0 0 25 25"
   version="1.1"
   id="svg8"
   inkscape:version="0.92.4 (5da689c313, 2019-01-14)"
   sodipodi:docname="SimbRicettaInLav.svg">
  <defs
     id="defs2">
    <linearGradient
       inkscape:collect="always"
       id="linearGradient4607">
      <stop
         style="stop-color:#d7eef4;stop-opacity:1"
         offset="0"
         id="stop4603" />
      <stop
         style="stop-color:#afc6e9;stop-opacity:1"
         offset="1"
         id="stop4605" />
    </linearGradient>
    <radialGradient
       inkscape:collect="always"
       xlink:href="#linearGradient4607"
       id="radialGradient8788"
       gradientUnits="userSpaceOnUse"
       gradientTransform="matrix(1,0,0,0.36501847,0,36.531205)"
       cx="56.951496"
       cy="57.531132"
       fx="56.951496"
       fy="57.531132"
       r="1.6487088" />
    <radialGradient
       inkscape:collect="always"
       xlink:href="#linearGradient4607"
       id="radialGradient8796"
       gradientUnits="userSpaceOnUse"
       gradientTransform="matrix(1,0,0,0.36501847,0,36.531205)"
       cx="56.951496"
       cy="57.531132"
       fx="56.951496"
       fy="57.531132"
       r="1.6487088" />
    <radialGradient
       inkscape:collect="always"
       xlink:href="#linearGradient4607"
       id="radialGradient8805"
       gradientUnits="userSpaceOnUse"
       gradientTransform="matrix(1,0,0,0.36501847,0,36.531205)"
       cx="56.951496"
       cy="57.531132"
       fx="56.951496"
       fy="57.531132"
       r="1.6487088" />
    <radialGradient
       inkscape:collect="always"
       xlink:href="#linearGradient4607"
       id="radialGradient8813"
       gradientUnits="userSpaceOnUse"
       gradientTransform="matrix(2.9346756,0,0,0.86753802,251.29813,106.79303)"
       cx="56.793217"
       cy="56.459496"
       fx="56.793217"
       fy="56.459496"
       r="1.9823247" />
    <linearGradient
       inkscape:collect="always"
       xlink:href="#linearGradient5543"
       id="linearGradient6502"
       gradientUnits="userSpaceOnUse"
       gradientTransform="matrix(1.2074196,0,0,1.2074196,-57.070514,-153.56761)"
       x1="314.97711"
       y1="295.93094"
       x2="334.62143"
       y2="276.28662" />
    <linearGradient
       inkscape:collect="always"
       id="linearGradient5543">
      <stop
         style="stop-color:#aaccff;stop-opacity:1"
         offset="0"
         id="stop5539" />
      <stop
         style="stop-color:#ffffff;stop-opacity:1"
         offset="1"
         id="stop5541" />
    </linearGradient>
    <linearGradient
       inkscape:collect="always"
       xlink:href="#linearGradient4607"
       id="linearGradient6551"
       gradientUnits="userSpaceOnUse"
       gradientTransform="translate(-1.0753973,5.8522149)"
       x1="176.37569"
       y1="89.390717"
       x2="191.24393"
       y2="89.390717" />
  </defs>
  <sodipodi:namedview
     id="base"
     pagecolor="#ffffff"
     bordercolor="#666666"
     borderopacity="1.0"
     inkscape:pageopacity="0.0"
     inkscape:pageshadow="2"
     inkscape:zoom="1.979899"
     inkscape:cx="97.339764"
     inkscape:cy="8.1476683"
     inkscape:document-units="mm"
     inkscape:current-layer="layer1"
     showgrid="false"
     inkscape:window-width="958"
     inkscape:window-height="1008"
     inkscape:window-x="953"
     inkscape:window-y="0"
     inkscape:window-maximized="0" />
  <metadata
     id="metadata5">
    <rdf:RDF>
      <cc:Work
         rdf:about="">
        <dc:format>image/svg+xml</dc:format>
        <dc:type
           rdf:resource="http://purl.org/dc/dcmitype/StillImage" />
        <dc:title></dc:title>
      </cc:Work>
    </rdf:RDF>
  </metadata>
  <g
     inkscape:label="Livello 1"
     inkscape:groupmode="layer"
     id="layer1"
     transform="translate(-71.546278,-102.0732)">
    <g
       transform="translate(-251.05223,-77.312481)"
       id="g6567"
       inkscape:export-filename="X:\Librerie\Libreria Immagini\Immagini\Grafica 2019\Simboli per variabili\SimbRicettaInLav.png"
       inkscape:export-xdpi="96"
       inkscape:export-ydpi="96">
      <rect
         style="display:inline;opacity:1;fill:url(#linearGradient6502);fill-opacity:1;stroke:#80b3ff;stroke-width:1.28107226;stroke-linecap:round;stroke-linejoin:miter;stroke-miterlimit:4;stroke-dasharray:none;stroke-dashoffset:0;stroke-opacity:1;paint-order:stroke fill markers"
         id="rect6500"
         width="23.718927"
         height="23.718927"
         x="323.23904"
         y="180.02621"
         inkscape:export-filename="X:\Librerie\Libreria Immagini\Immagini\Grafica 2019\Simboli per variabili\SimbVuoto.png"
         inkscape:export-xdpi="275"
         inkscape:export-ydpi="275" />
      <g
         id="g6549"
         inkscape:export-filename="X:\Librerie\Libreria GOT\Immagini\GSF (S-One)\Simb_Recipe.png"
         inkscape:export-xdpi="96"
         inkscape:export-ydpi="96"
         transform="translate(151.75162,96.567258)">
        <path
           sodipodi:nodetypes="cccccccc"
           inkscape:connector-curvature="0"
           id="path6523"
           d="m 176.14434,91.874665 c 1.69581,-0.552293 3.39072,-1.108749 5.13951,-1.415832 1.00022,-0.03986 1.51767,0.518003 2.06957,1.033204 0.62067,-0.530835 1.22499,-1.159772 1.95144,-1.055977 1.85628,0.274899 3.45388,0.937817 5.15177,1.4503 l -0.14034,8.068198 -14.19947,-0.01035 z"
           style="fill:url(#linearGradient6551);fill-opacity:1;stroke:none;stroke-width:0.26458332px;stroke-linecap:butt;stroke-linejoin:miter;stroke-opacity:1" />
        <g
           style="fill:#ff6600;stroke:#ff6600"
           inkscape:export-ydpi="96"
           inkscape:export-xdpi="96"
           transform="matrix(0.09275857,0,0,0.09275857,185.94784,77.03897)"
           id="g6547">
          <path
             style="fill:#ff6600;stroke:#ff6600;stroke-width:0.26458332px;stroke-linecap:butt;stroke-linejoin:miter;stroke-opacity:1"
             d="m -9.6549105,141.9718 c -13.2502295,0.067 -15.4792325,6.44064 -18.6918835,11.24273 -7.645699,-8.28241 -14.151723,-19.17631 -65.480757,0 l -8.285279,0.26717 c -5.81682,0.6178 -7.96533,3.85602 -8.82013,8.01811 v 82.05184 c 0.60693,7.78755 4.44266,8.47116 8.55244,8.55245 H 47.023282 c 4.17872,0.42845 7.127909,-1.60237 7.75095,-8.28528 v -82.05184 c 0.516286,-4.44537 -1.423146,-7.66271 -8.018116,-8.55245 H 36.867314 C 13.636744,144.83271 -0.58896537,141.92596 -9.6549105,141.9718 Z m -40.9670085,4.79093 c 11.649731,-0.0941 17.490583,4.78918 19.869589,11.79721 v 77.50793 c -14.781244,-14.44836 -44.9118,-3.52758 -70.02415,6.68176 V 162.569 c 23.14154,-11.23694 39.210874,-15.71784 50.154561,-15.80627 z m 44.4923749,0.16278 c 11.5032126,-0.0374 27.8125711,4.82567 49.6946391,15.37063 v 80.71549 C 15.072887,230.93231 -11.35444,222.87394 -26.459571,236.8642 v -77.50793 c 2.959116,-8.03593 9.523975,-12.39563 20.3300269,-12.43076 z"
             id="path6525"
             inkscape:connector-curvature="0" />
          <g
             style="fill:#ff6600;stroke:#ff6600"
             id="g6536">
            <path
               style="fill:#ff6600;stroke:#ff6600;stroke-width:0.26458332px;stroke-linecap:butt;stroke-linejoin:miter;stroke-opacity:1"
               d="m -94.88068,169.7797 c 23.699506,-11.30524 45.0142,-17.32984 58.799295,-6.68174 l -1e-6,3.74178 c -17.763129,-12.3048 -38.549647,-1.93417 -59.066566,6.41446 z"
               id="path6527"
               inkscape:connector-curvature="0"
               sodipodi:nodetypes="ccccc" />
            <path
               sodipodi:nodetypes="ccccc"
               inkscape:connector-curvature="0"
               id="path6529"
               d="m -94.88068,187.24131 c 23.699506,-11.30524 45.0142,-17.32984 58.799295,-6.68174 l -1e-6,3.74178 c -17.763129,-12.3048 -38.549647,-1.93417 -59.066566,6.41446 z"
               style="fill:#ff6600;stroke:#ff6600;stroke-width:0.26458332px;stroke-linecap:butt;stroke-linejoin:miter;stroke-opacity:1" />
            <path
               style="fill:#ff6600;stroke:#ff6600;stroke-width:0.26458332px;stroke-linecap:butt;stroke-linejoin:miter;stroke-opacity:1"
               d="m -94.88068,204.70292 c 23.699506,-11.30524 45.0142,-17.32984 58.799295,-6.68174 l -1e-6,3.74178 c -17.763129,-12.3048 -38.549647,-1.93417 -59.066566,6.41446 z"
               id="path6531"
               inkscape:connector-curvature="0"
               sodipodi:nodetypes="ccccc" />
            <path
               sodipodi:nodetypes="ccccc"
               inkscape:connector-curvature="0"
               id="path6533"
               d="m -94.88068,222.16453 c 23.699506,-11.30524 45.0142,-17.32984 58.799295,-6.68174 l -1e-6,3.74178 c -17.763129,-12.3048 -38.549647,-1.93417 -59.066566,6.41446 z"
               style="fill:#ff6600;stroke:#ff6600;stroke-width:0.26458332px;stroke-linecap:butt;stroke-linejoin:miter;stroke-opacity:1" />
          </g>
          <path
             style="fill:#ff6600;stroke:#ff6600;stroke-width:0.26458332px;stroke-linecap:butt;stroke-linejoin:miter;stroke-opacity:1"
             d="m -20.595633,181.01056 c 9.266951,-12.10705 43.945122,-8.24268 57.730217,2.40542 l -10e-7,3.74178 c -17.763129,-12.3048 -47.904081,-14.22857 -57.997488,-2.6727 z"
             id="path6538"
             inkscape:connector-curvature="0"
             sodipodi:nodetypes="ccccc" />
          <path
             sodipodi:nodetypes="ccccc"
             inkscape:connector-curvature="0"
             id="path6540"
             d="m -20.595633,197.58127 c 9.266951,-12.10705 43.945122,-8.24268 57.730217,2.40542 l -10e-7,3.74178 c -17.763129,-12.3048 -47.904081,-14.22857 -57.997488,-2.6727 z"
             style="fill:#ff6600;stroke:#ff6600;stroke-width:0.26458332px;stroke-linecap:butt;stroke-linejoin:miter;stroke-opacity:1" />
          <path
             style="fill:#ff6600;stroke:#ff6600;stroke-width:0.26458332px;stroke-linecap:butt;stroke-linejoin:miter;stroke-opacity:1"
             d="m -20.595633,214.41925 c 9.266951,-12.10705 43.945122,-8.24268 57.730217,2.40542 l -10e-7,3.74178 c -17.763129,-12.3048 -47.904081,-14.22857 -57.997488,-2.6727 z"
             id="path6542"
             inkscape:connector-curvature="0"
             sodipodi:nodetypes="ccccc" />
          <path
             sodipodi:nodetypes="ccccc"
             inkscape:connector-curvature="0"
             id="path6544"
             d="m -20.595633,164.70712 c 9.266951,-12.10705 43.945122,-8.24268 57.730217,2.40542 l -10e-7,3.74178 c -17.763129,-12.3048 -47.904081,-14.22857 -57.997488,-2.6727 z"
             style="fill:#ff6600;stroke:#ff6600;stroke-width:0.26458332px;stroke-linecap:butt;stroke-linejoin:miter;stroke-opacity:1" />
        </g>
      </g>
    </g>
  </g>
</svg>
