<?xml version="1.0" encoding="UTF-8" standalone="no"?>
<!-- Created with Inkscape (http://www.inkscape.org/) -->

<svg
   xmlns:dc="http://purl.org/dc/elements/1.1/"
   xmlns:cc="http://creativecommons.org/ns#"
   xmlns:rdf="http://www.w3.org/1999/02/22-rdf-syntax-ns#"
   xmlns:svg="http://www.w3.org/2000/svg"
   xmlns="http://www.w3.org/2000/svg"
   xmlns:xlink="http://www.w3.org/1999/xlink"
   xmlns:sodipodi="http://sodipodi.sourceforge.net/DTD/sodipodi-0.dtd"
   xmlns:inkscape="http://www.inkscape.org/namespaces/inkscape"
   width="25mm"
   height="25mm"
   viewBox="0 0 25.000001 25.000002"
   version="1.1"
   id="svg11690"
   inkscape:version="0.92.4 (5da689c313, 2019-01-14)"
   sodipodi:docname="SimbTemper.svg">
  <defs
     id="defs11684">
    <linearGradient
       inkscape:collect="always"
       xlink:href="#linearGradient5543"
       id="linearGradient7659"
       gradientUnits="userSpaceOnUse"
       gradientTransform="matrix(1.2074196,0,0,1.2074196,108.98459,-291.33925)"
       x1="314.97711"
       y1="295.93094"
       x2="334.62143"
       y2="276.28662" />
    <linearGradient
       inkscape:collect="always"
       id="linearGradient5543">
      <stop
         style="stop-color:#aaccff;stop-opacity:1"
         offset="0"
         id="stop5539" />
      <stop
         style="stop-color:#ffffff;stop-opacity:1"
         offset="1"
         id="stop5541" />
    </linearGradient>
  </defs>
  <sodipodi:namedview
     id="base"
     pagecolor="#ffffff"
     bordercolor="#666666"
     borderopacity="1.0"
     inkscape:pageopacity="0.0"
     inkscape:pageshadow="2"
     inkscape:zoom="3.959798"
     inkscape:cx="79.425392"
     inkscape:cy="40.122856"
     inkscape:document-units="mm"
     inkscape:current-layer="layer1"
     showgrid="false"
     inkscape:window-width="958"
     inkscape:window-height="1008"
     inkscape:window-x="953"
     inkscape:window-y="0"
     inkscape:window-maximized="0" />
  <metadata
     id="metadata11687">
    <rdf:RDF>
      <cc:Work
         rdf:about="">
        <dc:format>image/svg+xml</dc:format>
        <dc:type
           rdf:resource="http://purl.org/dc/dcmitype/StillImage" />
        <dc:title></dc:title>
      </cc:Work>
    </rdf:RDF>
  </metadata>
  <g
     inkscape:label="Livello 1"
     inkscape:groupmode="layer"
     id="layer1"
     transform="translate(28.175136,-89.535748)">
    <g
       transform="translate(-516.82882,47.921722)"
       id="g7752"
       inkscape:export-xdpi="275"
       inkscape:export-ydpi="275">
      <rect
         style="display:inline;opacity:1;fill:url(#linearGradient7659);fill-opacity:1;stroke:#80b3ff;stroke-width:1.28107226;stroke-linecap:round;stroke-linejoin:miter;stroke-miterlimit:4;stroke-dasharray:none;stroke-dashoffset:0;stroke-opacity:1;paint-order:stroke fill markers"
         id="rect7605"
         width="23.718927"
         height="23.718927"
         x="489.29422"
         y="42.254562"
         inkscape:export-filename="X:\Librerie\Libreria Immagini\Immagini\Grafica 2019\Simboli per variabili\SimbVuoto.png"
         inkscape:export-xdpi="275"
         inkscape:export-ydpi="275" />
      <g
         transform="matrix(2.0450085,0,0,2.0450085,-533.13554,-69.953594)"
         id="g7745">
        <path
           inkscape:connector-curvature="0"
           id="path7618"
           d="m 505.7628,56.776094 c -0.59705,0 -1.07772,0.480661 -1.07772,1.077718 v 3.511287 a 1.7804316,1.7804316 0 0 0 -0.70276,1.415348 1.7804316,1.7804316 0 0 0 1.78048,1.78048 1.7804316,1.7804316 0 0 0 1.78048,-1.78048 1.7804316,1.7804316 0 0 0 -0.70276,-1.414226 v -3.512409 c 0,-0.597057 -0.48066,-1.077718 -1.07772,-1.077718 z"
           style="opacity:1;fill:none;fill-opacity:1;stroke:#000000;stroke-width:0.27155119;stroke-linecap:round;stroke-linejoin:round;stroke-miterlimit:4;stroke-dasharray:none;stroke-dashoffset:0;stroke-opacity:1" />
        <path
           inkscape:connector-curvature="0"
           id="path7620"
           d="m 505.76328,58.64489 c -0.36763,0 -0.66375,0.296125 -0.66375,0.663761 v 2.297381 c 0,0.0067 0.002,0.01287 0.002,0.01952 -0.41852,0.237704 -0.67737,0.68165 -0.67807,1.162963 -10e-5,0.740036 0.59984,1.339979 1.33988,1.33988 0.7399,-8.1e-5 1.33965,-0.599971 1.33955,-1.33988 -3.5e-4,-0.481662 -0.25925,-0.926062 -0.67807,-1.163939 1.8e-4,-0.0063 0.002,-0.01218 0.002,-0.01854 v -2.297381 c 0,-0.367636 -0.29581,-0.663761 -0.66345,-0.663761 z"
           style="opacity:1;fill:#ff6600;fill-opacity:1;stroke:#d45500;stroke-width:0.14827922;stroke-linecap:round;stroke-linejoin:round;stroke-miterlimit:4;stroke-dasharray:none;stroke-dashoffset:0;stroke-opacity:1"
           sodipodi:nodetypes="csscccccsscc" />
        <path
           style="opacity:1;fill:none;fill-opacity:1;stroke:#afc6e9;stroke-width:0.10862047;stroke-linecap:round;stroke-linejoin:round;stroke-miterlimit:4;stroke-dasharray:none;stroke-dashoffset:0;stroke-opacity:1"
           d="m 505.7628,56.776094 c -0.59705,0 -1.07772,0.480661 -1.07772,1.077718 v 3.511287 a 1.7804316,1.7804316 0 0 0 -0.70276,1.415348 1.7804316,1.7804316 0 0 0 1.78048,1.78048 1.7804316,1.7804316 0 0 0 1.78048,-1.78048 1.7804316,1.7804316 0 0 0 -0.70276,-1.414226 v -3.512409 c 0,-0.597057 -0.48066,-1.077718 -1.07772,-1.077718 z"
           id="path7622"
           inkscape:connector-curvature="0" />
      </g>
    </g>
  </g>
</svg>
