<?xml version="1.0" encoding="UTF-8" standalone="no"?>
<!-- Created with Inkscape (http://www.inkscape.org/) -->

<svg
   xmlns:dc="http://purl.org/dc/elements/1.1/"
   xmlns:cc="http://creativecommons.org/ns#"
   xmlns:rdf="http://www.w3.org/1999/02/22-rdf-syntax-ns#"
   xmlns:svg="http://www.w3.org/2000/svg"
   xmlns="http://www.w3.org/2000/svg"
   xmlns:xlink="http://www.w3.org/1999/xlink"
   xmlns:sodipodi="http://sodipodi.sourceforge.net/DTD/sodipodi-0.dtd"
   xmlns:inkscape="http://www.inkscape.org/namespaces/inkscape"
   width="25mm"
   height="25mm"
   viewBox="0 0 25.000001 25.000002"
   version="1.1"
   id="svg11690"
   inkscape:version="0.92.4 (5da689c313, 2019-01-14)"
   sodipodi:docname="SimbParametro.svg">
  <defs
     id="defs11684">
    <linearGradient
       inkscape:collect="always"
       xlink:href="#linearGradient5543"
       id="linearGradient6746"
       gradientUnits="userSpaceOnUse"
       gradientTransform="matrix(1.2074196,0,0,1.2074196,79.703565,-59.927662)"
       x1="314.97711"
       y1="295.93094"
       x2="334.62143"
       y2="276.28662" />
    <linearGradient
       inkscape:collect="always"
       id="linearGradient5543">
      <stop
         style="stop-color:#aaccff;stop-opacity:1"
         offset="0"
         id="stop5539" />
      <stop
         style="stop-color:#ffffff;stop-opacity:1"
         offset="1"
         id="stop5541" />
    </linearGradient>
    <linearGradient
       inkscape:collect="always"
       xlink:href="#linearGradient4607"
       id="linearGradient18628"
       gradientUnits="userSpaceOnUse"
       gradientTransform="matrix(0.99461815,0,0,0.99461815,208.5914,201.46383)"
       x1="257.24002"
       y1="84.514999"
       x2="272.16882"
       y2="84.514999" />
    <linearGradient
       inkscape:collect="always"
       id="linearGradient4607">
      <stop
         style="stop-color:#d7eef4;stop-opacity:1"
         offset="0"
         id="stop4603" />
      <stop
         style="stop-color:#afc6e9;stop-opacity:1"
         offset="1"
         id="stop4605" />
    </linearGradient>
  </defs>
  <sodipodi:namedview
     id="base"
     pagecolor="#ffffff"
     bordercolor="#666666"
     borderopacity="1.0"
     inkscape:pageopacity="0.0"
     inkscape:pageshadow="2"
     inkscape:zoom="3.959798"
     inkscape:cx="70.421264"
     inkscape:cy="62.055219"
     inkscape:document-units="mm"
     inkscape:current-layer="layer1"
     showgrid="false"
     inkscape:window-width="958"
     inkscape:window-height="1008"
     inkscape:window-x="953"
     inkscape:window-y="0"
     inkscape:window-maximized="0" />
  <metadata
     id="metadata11687">
    <rdf:RDF>
      <cc:Work
         rdf:about="">
        <dc:format>image/svg+xml</dc:format>
        <dc:type
           rdf:resource="http://purl.org/dc/dcmitype/StillImage" />
        <dc:title></dc:title>
      </cc:Work>
    </rdf:RDF>
  </metadata>
  <g
     inkscape:label="Livello 1"
     inkscape:groupmode="layer"
     id="layer1"
     transform="translate(32.374443,-91.730552)">
    <g
       transform="translate(-491.74706,-181.29505)"
       id="g7053"
       inkscape:export-filename="X:\Librerie\Libreria Immagini\Immagini\Grafica 2019\Simboli per variabili\SimbParametro.png"
       inkscape:export-xdpi="275"
       inkscape:export-ydpi="275">
      <rect
         inkscape:export-ydpi="275"
         inkscape:export-xdpi="275"
         inkscape:export-filename="X:\Librerie\Libreria Immagini\Immagini\Grafica 2019\Simboli per variabili\SimbVuoto.png"
         y="273.66614"
         x="460.01315"
         height="23.718927"
         width="23.718927"
         id="rect6642"
         style="display:inline;opacity:1;fill:url(#linearGradient6746);fill-opacity:1;stroke:#80b3ff;stroke-width:1.28107226;stroke-linecap:round;stroke-linejoin:miter;stroke-miterlimit:4;stroke-dasharray:none;stroke-dashoffset:0;stroke-opacity:1;paint-order:stroke fill markers" />
      <path
         inkscape:export-ydpi="96"
         inkscape:export-xdpi="96"
         inkscape:export-filename="X:\Librerie\Libreria Immagini\Immagini\Grafica 2019\Pulsanti con simbolo\PulsParamSel.png"
         style="opacity:1;fill:url(#linearGradient18628);fill-opacity:1;stroke:#ff6600;stroke-width:0.94078928;stroke-linecap:round;stroke-linejoin:miter;stroke-miterlimit:4;stroke-dasharray:none;stroke-dashoffset:0;stroke-opacity:1;paint-order:stroke fill markers"
         d="m 471.87064,278.35354 a 7.1710325,7.1710325 0 0 0 -3.66228,1.0152 1.9490335,1.9490335 0 0 1 0.71561,1.50742 1.9490335,1.9490335 0 0 1 -1.94892,1.94917 1.9490335,1.9490335 0 0 1 -1.44365,-0.64298 7.1710325,7.1710325 0 0 0 -0.8318,3.34224 7.1710325,7.1710325 0 0 0 0.0107,0.22512 1.9490335,1.9490335 0 0 1 0.47984,-0.0615 1.9490335,1.9490335 0 0 1 1.94889,1.94889 1.9490335,1.9490335 0 0 1 -1.2538,1.82025 7.1710325,7.1710325 0 0 0 2.2656,2.19064 1.9490335,1.9490335 0 0 1 1.92219,-1.64052 1.9490335,1.9490335 0 0 1 1.94889,1.94917 1.9490335,1.9490335 0 0 1 -0.14629,0.73869 7.1710325,7.1710325 0 0 0 3.81379,-1.11322 1.9490335,1.9490335 0 0 1 -0.71069,-1.50356 1.9490335,1.9490335 0 0 1 1.94917,-1.9489 1.9490335,1.9490335 0 0 1 1.36817,0.56335 7.1710325,7.1710325 0 0 0 0.7418,-3.07819 1.9490335,1.9490335 0 0 1 -0.32606,0.0274 1.9490335,1.9490335 0 0 1 -1.94887,-1.94916 1.9490335,1.9490335 0 0 1 1.26624,-1.82414 7.1710325,7.1710325 0 0 0 -2.29671,-2.38568 1.9490335,1.9490335 0 0 1 -1.80937,1.22916 1.9490335,1.9490335 0 0 1 -1.94916,-1.94918 1.9490335,1.9490335 0 0 1 0.0432,-0.40462 7.1710325,7.1710325 0 0 0 -0.14734,-0.005 z m 0,5.22214 a 1.9490335,1.9490335 0 0 1 1.94915,1.94888 1.9490335,1.9490335 0 0 1 -1.94915,1.94917 1.9490335,1.9490335 0 0 1 -1.94915,-1.94917 1.9490335,1.9490335 0 0 1 1.94915,-1.94888 z"
         id="path18468"
         inkscape:connector-curvature="0" />
    </g>
  </g>
</svg>
