<svg version="1.2" baseProfile="tiny" viewBox="0 0 16 16" xmlns:xlink="http://www.w3.org/1999/xlink" xmlns="http://www.w3.org/2000/svg">
<path style="fill:#ffffff;" d="M12.903,13.687C13.152,13.687,13.355,13.485,13.355,13.235V8.46701C13.355,8.21801,13.153,8.01501,12.903,8.01501C12.654,8.01501,12.451,8.21701,12.451,8.46701V13.236C12.451,13.485,12.653,13.687,12.903,13.687Z M13.451,15.103C13.305,14.787,12.928,14.648,12.611,14.794C12.295,14.941,12.157,15.317,12.304,15.634C12.45,15.95,12.827,16.088,13.143,15.941C13.46,15.795,13.598,15.418,13.451,15.103Z M9.72401,0H2.90801C2.67701,0,2.49001,0.187,2.49001,0.418V15.519C2.49001,15.75,2.67701,15.937,2.90801,15.937H9.72401C9.95501,15.937,10.142,15.75,10.142,15.519V0.418C10.143,0.187,9.95601,0,9.72401,0ZM9.30601,15.101H3.32601V0.837H9.30601V15.101Z M4.69,4.06399H7.984C8.215,4.06399,8.402,3.87699,8.402,3.64599V2.07199C8.402,1.84099,8.215,1.65399,7.984,1.65399H4.69C4.459,1.65399,4.272,1.84099,4.272,2.07199V3.64499C4.272,3.87599,4.459,4.06399,4.69,4.06399ZM5.109,2.49099H7.566V3.22699H5.109V2.49099Z M4.651,5.98099H8.024C8.255,5.98099,8.442,5.79399,8.442,5.56299C8.442,5.33199,8.255,5.14499,8.024,5.14499H4.651C4.42,5.14499,4.233,5.33199,4.233,5.56299C4.233,5.79399,4.42,5.98099,4.651,5.98099Z M4.651,8.073H8.024C8.255,8.073,8.442,7.886,8.442,7.655C8.442,7.424,8.255,7.237,8.024,7.237H4.651C4.42,7.237,4.233,7.424,4.233,7.655C4.233,7.886,4.42,8.073,4.651,8.073Z M8.099,9.642C7.838,9.642,7.627,9.853,7.627,10.114C7.627,10.375,7.838,10.586,8.099,10.586C8.36,10.586,8.571,10.375,8.571,10.114C8.571,9.853,8.36,9.642,8.099,9.642Z"/>
</svg>