<svg version="1.2" baseProfile="tiny" viewBox="0 0 32 32" xmlns:xlink="http://www.w3.org/1999/xlink" xmlns="http://www.w3.org/2000/svg">
<path style="fill:#ffffff;" d="M15.609,21.056C15.681,21.131,15.775,21.169,15.871,21.169C15.96,21.169,16.047,21.137,16.118,21.072L22.304,15.489C22.377,15.42,22.418,15.324,22.418,15.222L22.402,13.305C22.401,13.163,22.315,13.033,22.183,12.976C22.05,12.921,21.898,12.946,21.792,13.045L17.08,17.225V3.361C17.081,3.162,16.919,3,16.72,3H15.183C14.984,3,14.822,3.162,14.822,3.361V17.373L10.244,12.912C10.14,12.813,9.98901,12.788,9.85601,12.841C9.72501,12.896,9.63701,13.023,9.63501,13.167L9.58101,15.195C9.58001,15.298,9.62001,15.397,9.69501,15.466L15.609,21.056Z M31.097,28.517H0.904C0.405,28.517,0,28.112,0,27.613V14.793C0,14.294,0.405,13.89,0.903,13.89C1.401,13.89,1.806,14.295,1.806,14.793V26.709H30.192V14.723C30.192,14.224,30.597,13.82,31.095,13.82C31.593,13.82,32,14.225,32,14.724V27.614C32,28.112,31.595,28.517,31.097,28.517Z"/>
</svg>