<svg version="1.2" baseProfile="tiny" id="EdgeSVG_kImRr" x="0px" y="0px" width="169.288px" height="205.411px" viewBox="0 0 169.288 205.411" xmlns:xlink="http://www.w3.org/1999/xlink" xmlns="http://www.w3.org/2000/svg">
  <linearGradient id="SVGID_2_" gradientUnits="userSpaceOnUse" x1="6.6846" y1="96.1084" x2="163.5283" y2="96.1084">
    <stop offset="0" style="stop-color:#FFFFFF;stop-opacity:0.1"/>
    <stop offset="1" style="stop-color:#FFFFFF;stop-opacity:0.1"/>
  </linearGradient>
  <path fill="url(#SVGID_2_)" d="M6.685,6.233h75.344v179.75H6.685V6.233z M87.56,6.233v179.75h75.969V6.233H87.56z"/>
  <linearGradient id="SVGID_3_" gradientUnits="userSpaceOnUse" x1="84.644" y1="1.5" x2="84.644" y2="203.9116">
    <stop offset="0" style="stop-color:#000000;stop-opacity:0"/>
    <stop offset="1" style="stop-color:#000000;stop-opacity:0.4"/>
  </linearGradient>
  <rect x="1.5" y="1.5" fill="url(#SVGID_3_)" width="166.288" height="202.411"/>
  <g>
    <linearGradient id="SVGID_4_" gradientUnits="userSpaceOnUse" x1="44.0386" y1="6.1606" x2="44.0386" y2="188.4116">
      <stop offset="0" style="stop-color:#000000;stop-opacity:0.5"/>
      <stop offset="1" style="stop-color:#000000;stop-opacity:0.2"/>
    </linearGradient>
    <polygon fill="url(#SVGID_4_)" points="82.028,6.4 83.289,8.577 83.289,188.411 4.789,188.411 4.789,8.077 6.06,6.161 &#xD;&#xA;&#x9;&#x9;&#x9;6.06,185.911 82.028,185.911 &#x9;&#x9;"/>
    <linearGradient id="SVGID_5_" gradientUnits="userSpaceOnUse" x1="125.5381" y1="6.2856" x2="125.5381" y2="188.5366">
      <stop offset="0" style="stop-color:#000000;stop-opacity:0.5"/>
      <stop offset="1" style="stop-color:#000000;stop-opacity:0.2"/>
    </linearGradient>
    <polygon fill="url(#SVGID_5_)" points="163.528,6.525 164.788,8.702 164.788,188.536 86.289,188.536 86.289,8.202 87.56,6.286 &#xD;&#xA;&#x9;&#x9;&#x9;87.56,186.036 163.528,186.036 &#x9;&#x9;"/>
  </g>
  <g>
    <g>
      <linearGradient id="SVGID_6_" gradientUnits="userSpaceOnUse" x1="6.0386" y1="6.1602" x2="81.9551" y2="6.1602">
        <stop offset="0" style="stop-color:#FFFFFF;stop-opacity:0.3"/>
        <stop offset="0.5052" style="stop-color:#FFFFFF;stop-opacity:0.6"/>
        <stop offset="1" style="stop-color:#FFFFFF;stop-opacity:0.3"/>
      </linearGradient>
      <rect x="6.039" y="5.91" fill="url(#SVGID_6_)" width="75.917" height="0.5"/>
    </g>
    <g>
      <linearGradient id="SVGID_7_" gradientUnits="userSpaceOnUse" x1="1.5" y1="1.8438" x2="167.7891" y2="1.8438">
        <stop offset="0" style="stop-color:#FFFFFF;stop-opacity:0.3"/>
        <stop offset="0.5052" style="stop-color:#FFFFFF;stop-opacity:0.6"/>
        <stop offset="1" style="stop-color:#FFFFFF;stop-opacity:0.3"/>
      </linearGradient>
      <rect x="1.5" y="1.5" fill="url(#SVGID_7_)" width="166.289" height="0.688"/>
    </g>
    <g>
      <linearGradient id="SVGID_8_" gradientUnits="userSpaceOnUse" x1="87.5386" y1="6.2852" x2="163.4561" y2="6.2852">
        <stop offset="0" style="stop-color:#FFFFFF;stop-opacity:0.3"/>
        <stop offset="0.5052" style="stop-color:#FFFFFF;stop-opacity:0.6"/>
        <stop offset="1" style="stop-color:#FFFFFF;stop-opacity:0.3"/>
      </linearGradient>
      <rect x="87.539" y="6.035" fill="url(#SVGID_8_)" width="75.917" height="0.5"/>
    </g>
  </g>
  <g>
    <linearGradient id="SVGID_9_" gradientUnits="userSpaceOnUse" x1="1.8906" y1="2.1875" x2="1.8906" y2="203.9116">
      <stop offset="0" style="stop-color:#FFFFFF;stop-opacity:0.3"/>
      <stop offset="0.5052" style="stop-color:#999999;stop-opacity:0.3"/>
      <stop offset="1" style="stop-color:#999999;stop-opacity:0.6"/>
    </linearGradient>
    <rect x="1.5" y="2.188" fill="url(#SVGID_9_)" width="0.781" height="201.724"/>
    <linearGradient id="SVGID_10_" gradientUnits="userSpaceOnUse" x1="167.3711" y1="2.1875" x2="167.3711" y2="203.9116">
      <stop offset="0" style="stop-color:#FFFFFF;stop-opacity:0.3"/>
      <stop offset="0.5052" style="stop-color:#999999;stop-opacity:0.3"/>
      <stop offset="1" style="stop-color:#999999;stop-opacity:0.6"/>
    </linearGradient>
    <rect x="166.954" y="2.188" fill="url(#SVGID_10_)" width="0.834" height="201.724"/>
    <g>
      <linearGradient id="SVGID_11_" gradientUnits="userSpaceOnUse" x1="6.2002" y1="6.1606" x2="6.2002" y2="185.9116">
        <stop offset="0" style="stop-color:#FFFFFF;stop-opacity:0.3"/>
        <stop offset="0.5052" style="stop-color:#999999;stop-opacity:0.3"/>
        <stop offset="1" style="stop-color:#999999;stop-opacity:0.6"/>
      </linearGradient>
      <rect x="5.888" y="6.161" fill="url(#SVGID_11_)" width="0.625" height="179.75"/>
    </g>
    <g>
      <linearGradient id="SVGID_12_" gradientUnits="userSpaceOnUse" x1="81.5439" y1="6.4004" x2="81.5439" y2="186.1499">
        <stop offset="0" style="stop-color:#FFFFFF;stop-opacity:0.3"/>
        <stop offset="0.5052" style="stop-color:#999999;stop-opacity:0.3"/>
        <stop offset="1" style="stop-color:#999999;stop-opacity:0.6"/>
      </linearGradient>
      <rect x="81.231" y="6.4" fill="url(#SVGID_12_)" width="0.625" height="179.749"/>
    </g>
    <g>
      <linearGradient id="SVGID_13_" gradientUnits="userSpaceOnUse" x1="87.7002" y1="6.2856" x2="87.7002" y2="186.0366">
        <stop offset="0" style="stop-color:#FFFFFF;stop-opacity:0.3"/>
        <stop offset="0.5052" style="stop-color:#999999;stop-opacity:0.3"/>
        <stop offset="1" style="stop-color:#999999;stop-opacity:0.6"/>
      </linearGradient>
      <rect x="87.388" y="6.286" fill="url(#SVGID_13_)" width="0.625" height="179.75"/>
    </g>
    <g>
      <linearGradient id="SVGID_14_" gradientUnits="userSpaceOnUse" x1="163.0439" y1="6.5254" x2="163.0439" y2="186.2749">
        <stop offset="0" style="stop-color:#FFFFFF;stop-opacity:0.3"/>
        <stop offset="0.5052" style="stop-color:#999999;stop-opacity:0.3"/>
        <stop offset="1" style="stop-color:#999999;stop-opacity:0.6"/>
      </linearGradient>
      <rect x="162.731" y="6.525" fill="url(#SVGID_14_)" width="0.625" height="179.749"/>
    </g>
  </g>
  <g>
    <linearGradient id="SVGID_15_" gradientUnits="userSpaceOnUse" x1="6.0596" y1="186.4111" x2="82.0283" y2="186.4111">
      <stop offset="0" style="stop-color:#000000;stop-opacity:0.2"/>
      <stop offset="1" style="stop-color:#000000;stop-opacity:0.2"/>
    </linearGradient>
    <rect x="6.06" y="185.911" fill="url(#SVGID_15_)" width="75.969" height="1"/>
    <linearGradient id="SVGID_16_" gradientUnits="userSpaceOnUse" x1="87.5596" y1="186.5361" x2="163.5283" y2="186.5361">
      <stop offset="0" style="stop-color:#000000;stop-opacity:0.2"/>
      <stop offset="1" style="stop-color:#000000;stop-opacity:0.2"/>
    </linearGradient>
    <rect x="87.56" y="186.036" fill="url(#SVGID_16_)" width="75.969" height="1"/>
    <linearGradient id="SVGID_17_" gradientUnits="userSpaceOnUse" x1="1.5" y1="203.2236" x2="167.7881" y2="203.2236">
      <stop offset="0" style="stop-color:#000000;stop-opacity:0.2"/>
      <stop offset="1" style="stop-color:#000000;stop-opacity:0.2"/>
    </linearGradient>
    <rect x="1.5" y="202.536" fill="url(#SVGID_17_)" width="166.288" height="1.375"/>
  </g>
  <g>
    <linearGradient id="SVGID_18_" gradientUnits="userSpaceOnUse" x1="6.6846" y1="96.0361" x2="82.0283" y2="96.0361">
      <stop offset="0" style="stop-color:#FFFFFF;stop-opacity:0.2"/>
      <stop offset="0.488" style="stop-color:#FFFFFF;stop-opacity:0.25"/>
      <stop offset="1" style="stop-color:#FFFFFF;stop-opacity:0.1"/>
    </linearGradient>
    <rect x="6.685" y="6.161" fill="url(#SVGID_18_)" width="75.344" height="179.75"/>
    <linearGradient id="SVGID_19_" gradientUnits="userSpaceOnUse" x1="87.5596" y1="96.0361" x2="163.5283" y2="96.0361">
      <stop offset="0" style="stop-color:#FFFFFF;stop-opacity:0.2"/>
      <stop offset="0.488" style="stop-color:#FFFFFF;stop-opacity:0.25"/>
      <stop offset="1" style="stop-color:#FFFFFF;stop-opacity:0.1"/>
    </linearGradient>
    <rect x="87.56" y="6.161" fill="url(#SVGID_19_)" width="75.969" height="179.75"/>
  </g>
  <g>
    <linearGradient id="SVGID_20_" gradientUnits="userSpaceOnUse" x1="74.0386" y1="83.2754" x2="74.0386" y2="109.2441">
      <stop offset="0" style="stop-color:#000000;stop-opacity:0.5"/>
      <stop offset="1" style="stop-color:#000000;stop-opacity:0.2"/>
    </linearGradient>
    <path fill="url(#SVGID_20_)" d="M76.314,85.537c0-1.249-1.019-2.262-2.275-2.262c-1.257,0-2.275,1.013-2.275,2.262v3.77h0&#xD;&#xA;&#x9;&#x9;&#x9;c0,0.009,0,0.018,0,0.028c0,0.539,0.19,1.034,0.507,1.422l0.673,17.397c0,0.602,0.49,1.09,1.096,1.09&#xD;&#xA;&#x9;&#x9;&#x9;c0.604,0,1.095-0.488,1.095-1.09l0.673-17.397c0.316-0.389,0.506-0.883,0.506-1.422c0-0.01,0-0.019,0-0.028h0V85.537z"/>
    <path fill="#333333" d="M76.064,84.051c0-1.119-0.907-2.025-2.025-2.025c-1.119,0-2.025,0.907-2.025,2.025v3.375h0&#xD;&#xA;&#x9;&#x9;&#x9;c0,0.009,0,0.017,0,0.025c0,1.118,0.907,2.025,2.025,2.025c1.118,0,2.025-0.907,2.025-2.025c0-0.009,0-0.017,0-0.025h0V84.051z"/>
    <linearGradient id="SVGID_21_" gradientUnits="userSpaceOnUse" x1="72.0137" y1="88.4961" x2="76.064" y2="88.4961">
      <stop offset="0" style="stop-color:#000000;stop-opacity:0.6"/>
      <stop offset="1" style="stop-color:#000000;stop-opacity:0.6"/>
    </linearGradient>
    <path fill="url(#SVGID_21_)" d="M74.039,89.509c1.119,0,2.025-0.907,2.025-2.025c0,0-0.246,1.719-2.025,1.719&#xD;&#xA;&#x9;&#x9;&#x9;s-2.025-1.719-2.025-1.719C72.014,88.602,72.92,89.509,74.039,89.509z"/>
    <path fill="#333333" d="M74.039,82.775c-0.912,0-1.65,0.739-1.65,1.65v2.325l0.675,17.552c0,0.539,0.437,0.976,0.976,0.976&#xD;&#xA;&#x9;&#x9;&#x9;c0.538,0,0.975-0.437,0.975-0.976l0.675-17.552v-2.325C75.689,83.515,74.95,82.775,74.039,82.775z"/>
    <linearGradient id="SVGID_22_" gradientUnits="userSpaceOnUse" x1="72.3887" y1="94.0269" x2="75.689" y2="94.0269">
      <stop offset="0" style="stop-color:#FFFFFF;stop-opacity:0"/>
      <stop offset="0.0519" style="stop-color:#FFFFFF;stop-opacity:0.0155"/>
      <stop offset="0.5017" style="stop-color:#FFFFFF;stop-opacity:0.15"/>
      <stop offset="0.9495" style="stop-color:#FFFFFF;stop-opacity:0.0152"/>
      <stop offset="1" style="stop-color:#FFFFFF;stop-opacity:0"/>
    </linearGradient>
    <path fill="url(#SVGID_22_)" d="M74.039,82.775c-0.912,0-1.65,0.739-1.65,1.65v2.325l0.675,17.552&#xD;&#xA;&#x9;&#x9;&#x9;c0,0.539,0.437,0.976,0.976,0.976c0.538,0,0.975-0.437,0.975-0.976l0.675-17.552v-2.325C75.689,83.515,74.95,82.775,74.039,82.775&#xD;&#xA;&#x9;&#x9;&#x9;z"/>
    <linearGradient id="SVGID_23_" gradientUnits="userSpaceOnUse" x1="74.0386" y1="82.7754" x2="74.0386" y2="105.2783">
      <stop offset="0" style="stop-color:#000000;stop-opacity:0"/>
      <stop offset="1" style="stop-color:#000000;stop-opacity:0.4"/>
    </linearGradient>
    <path fill="url(#SVGID_23_)" d="M74.039,82.775c-0.912,0-1.65,0.739-1.65,1.65v2.325l0.675,17.552&#xD;&#xA;&#x9;&#x9;&#x9;c0,0.539,0.437,0.976,0.976,0.976c0.538,0,0.975-0.437,0.975-0.976l0.675-17.552v-2.325C75.689,83.515,74.95,82.775,74.039,82.775&#xD;&#xA;&#x9;&#x9;&#x9;z"/>
    <g>
      <linearGradient id="SVGID_24_" gradientUnits="userSpaceOnUse" x1="72.3887" y1="83.6006" x2="75.689" y2="83.6006">
        <stop offset="0" style="stop-color:#FFFFFF;stop-opacity:0.3"/>
        <stop offset="0.5052" style="stop-color:#FFFFFF;stop-opacity:0.6"/>
        <stop offset="1" style="stop-color:#FFFFFF;stop-opacity:0.3"/>
      </linearGradient>
      <path fill="url(#SVGID_24_)" d="M74.039,82.775c-0.912,0-1.65,0.739-1.65,1.65c0,0,0.2-1.4,1.65-1.4s1.65,1.4,1.65,1.4&#xD;&#xA;&#x9;&#x9;&#x9;&#x9;C75.689,83.515,74.95,82.775,74.039,82.775z"/>
      <linearGradient id="SVGID_25_" gradientUnits="userSpaceOnUse" x1="72.0137" y1="83.0381" x2="76.064" y2="83.0381">
        <stop offset="0" style="stop-color:#FFFFFF;stop-opacity:0.3"/>
        <stop offset="0.5052" style="stop-color:#FFFFFF;stop-opacity:0.6"/>
        <stop offset="1" style="stop-color:#FFFFFF;stop-opacity:0.3"/>
      </linearGradient>
      <path fill="url(#SVGID_25_)" d="M74.039,82.025c-1.119,0-2.025,0.907-2.025,2.025c0,0,0.245-1.719,2.025-1.719&#xD;&#xA;&#x9;&#x9;&#x9;&#x9;c1.779,0,2.025,1.719,2.025,1.719C76.064,82.932,75.157,82.025,74.039,82.025z"/>
    </g>
    <g>
      <linearGradient id="SVGID_26_" gradientUnits="userSpaceOnUse" x1="72.0708" y1="83.6445" x2="72.0708" y2="87.8901">
        <stop offset="0" style="stop-color:#FFFFFF;stop-opacity:0.3"/>
        <stop offset="0.5052" style="stop-color:#999999;stop-opacity:0.3"/>
        <stop offset="1" style="stop-color:#999999;stop-opacity:0.6"/>
      </linearGradient>
      <polygon fill="url(#SVGID_26_)" points="72.014,84.051 72.014,87.451 72.128,87.89 72.128,83.645 &#x9;&#x9;&#x9;"/>
      <linearGradient id="SVGID_27_" gradientUnits="userSpaceOnUse" x1="76.0073" y1="83.7197" x2="76.0073" y2="87.9648">
        <stop offset="0" style="stop-color:#FFFFFF;stop-opacity:0.3"/>
        <stop offset="0.5052" style="stop-color:#999999;stop-opacity:0.3"/>
        <stop offset="1" style="stop-color:#999999;stop-opacity:0.6"/>
      </linearGradient>
      <polygon fill="url(#SVGID_27_)" points="76.064,84.125 76.064,87.526 75.95,87.965 75.95,83.72 &#x9;&#x9;&#x9;"/>
      <linearGradient id="SVGID_28_" gradientUnits="userSpaceOnUse" x1="72.7261" y1="84.4258" x2="72.7261" y2="104.3027">
        <stop offset="0" style="stop-color:#FFFFFF;stop-opacity:0.3"/>
        <stop offset="0.5052" style="stop-color:#999999;stop-opacity:0.3"/>
        <stop offset="1" style="stop-color:#999999;stop-opacity:0.6"/>
      </linearGradient>
      <path fill="url(#SVGID_28_)" d="M72.389,84.426l0.675,19.877c0,0-0.3-13.814-0.425-16.502&#xD;&#xA;&#x9;&#x9;&#x9;&#x9;C72.514,85.113,72.389,84.426,72.389,84.426z"/>
      <linearGradient id="SVGID_29_" gradientUnits="userSpaceOnUse" x1="75.3511" y1="84.4258" x2="75.3511" y2="104.3027">
        <stop offset="0" style="stop-color:#FFFFFF;stop-opacity:0.3"/>
        <stop offset="0.5052" style="stop-color:#999999;stop-opacity:0.3"/>
        <stop offset="1" style="stop-color:#999999;stop-opacity:0.6"/>
      </linearGradient>
      <path fill="url(#SVGID_29_)" d="M75.689,84.426l-0.675,19.877c0,0,0.3-13.814,0.425-16.502&#xD;&#xA;&#x9;&#x9;&#x9;&#x9;C75.563,85.113,75.689,84.426,75.689,84.426z"/>
    </g>
    <linearGradient id="SVGID_30_" gradientUnits="userSpaceOnUse" x1="73.0137" y1="104.8027" x2="75.064" y2="104.8027">
      <stop offset="0" style="stop-color:#000000;stop-opacity:0.6"/>
      <stop offset="1" style="stop-color:#000000;stop-opacity:0.6"/>
    </linearGradient>
    <path fill="url(#SVGID_30_)" d="M74.039,105.315c0.566,0,1.025-0.459,1.025-1.025c0,0-0.125,0.87-1.025,0.87&#xD;&#xA;&#x9;&#x9;&#x9;s-1.025-0.87-1.025-0.87C73.014,104.856,73.473,105.315,74.039,105.315z"/>
  </g>
  <g>
    <linearGradient id="SVGID_31_" gradientUnits="userSpaceOnUse" x1="95.2563" y1="83.2754" x2="95.2563" y2="109.2441">
      <stop offset="0" style="stop-color:#000000;stop-opacity:0.5"/>
      <stop offset="1" style="stop-color:#000000;stop-opacity:0.2"/>
    </linearGradient>
    <path fill="url(#SVGID_31_)" d="M97.531,85.537c0-1.249-1.019-2.262-2.275-2.262c-1.256,0-2.275,1.013-2.275,2.262v3.77h0&#xD;&#xA;&#x9;&#x9;&#x9;c0,0.009,0,0.018,0,0.028c0,0.539,0.19,1.034,0.507,1.422l0.673,17.397c0,0.602,0.491,1.09,1.095,1.09&#xD;&#xA;&#x9;&#x9;&#x9;c0.605,0,1.096-0.488,1.096-1.09l0.673-17.397c0.317-0.389,0.507-0.883,0.507-1.422c0-0.01,0-0.019-0.001-0.028h0.001V85.537z"/>
    <path fill="#333333" d="M97.281,84.051c0-1.119-0.907-2.025-2.025-2.025c-1.118,0-2.025,0.907-2.025,2.025v3.375h0&#xD;&#xA;&#x9;&#x9;&#x9;c0,0.009,0,0.017,0,0.025c0,1.118,0.907,2.025,2.025,2.025c1.119,0,2.025-0.907,2.025-2.025c0-0.009,0-0.017,0-0.025h0V84.051z"/>
    <linearGradient id="SVGID_32_" gradientUnits="userSpaceOnUse" x1="93.231" y1="88.4961" x2="97.2813" y2="88.4961">
      <stop offset="0" style="stop-color:#000000;stop-opacity:0.6"/>
      <stop offset="1" style="stop-color:#000000;stop-opacity:0.6"/>
    </linearGradient>
    <path fill="url(#SVGID_32_)" d="M95.256,89.509c1.119,0,2.025-0.907,2.025-2.025c0,0-0.245,1.719-2.025,1.719&#xD;&#xA;&#x9;&#x9;&#x9;c-1.78,0-2.025-1.719-2.025-1.719C93.231,88.602,94.138,89.509,95.256,89.509z"/>
    <path fill="#333333" d="M95.256,82.775c-0.911,0-1.65,0.739-1.65,1.65v2.325l0.675,17.552c0,0.539,0.437,0.976,0.975,0.976&#xD;&#xA;&#x9;&#x9;&#x9;c0.539,0,0.976-0.437,0.976-0.976l0.675-17.552v-2.325C96.906,83.515,96.167,82.775,95.256,82.775z"/>
    <linearGradient id="SVGID_33_" gradientUnits="userSpaceOnUse" x1="93.606" y1="94.0269" x2="96.9063" y2="94.0269">
      <stop offset="0" style="stop-color:#FFFFFF;stop-opacity:0"/>
      <stop offset="0.0519" style="stop-color:#FFFFFF;stop-opacity:0.0155"/>
      <stop offset="0.5017" style="stop-color:#FFFFFF;stop-opacity:0.15"/>
      <stop offset="0.9495" style="stop-color:#FFFFFF;stop-opacity:0.0152"/>
      <stop offset="1" style="stop-color:#FFFFFF;stop-opacity:0"/>
    </linearGradient>
    <path fill="url(#SVGID_33_)" d="M95.256,82.775c-0.911,0-1.65,0.739-1.65,1.65v2.325l0.675,17.552&#xD;&#xA;&#x9;&#x9;&#x9;c0,0.539,0.437,0.976,0.975,0.976c0.539,0,0.976-0.437,0.976-0.976l0.675-17.552v-2.325&#xD;&#xA;&#x9;&#x9;&#x9;C96.906,83.515,96.167,82.775,95.256,82.775z"/>
    <linearGradient id="SVGID_34_" gradientUnits="userSpaceOnUse" x1="95.2563" y1="82.7754" x2="95.2563" y2="105.2783">
      <stop offset="0" style="stop-color:#000000;stop-opacity:0"/>
      <stop offset="1" style="stop-color:#000000;stop-opacity:0.4"/>
    </linearGradient>
    <path fill="url(#SVGID_34_)" d="M95.256,82.775c-0.911,0-1.65,0.739-1.65,1.65v2.325l0.675,17.552&#xD;&#xA;&#x9;&#x9;&#x9;c0,0.539,0.437,0.976,0.975,0.976c0.539,0,0.976-0.437,0.976-0.976l0.675-17.552v-2.325&#xD;&#xA;&#x9;&#x9;&#x9;C96.906,83.515,96.167,82.775,95.256,82.775z"/>
    <g>
      <linearGradient id="SVGID_35_" gradientUnits="userSpaceOnUse" x1="93.606" y1="83.6006" x2="96.9063" y2="83.6006">
        <stop offset="0" style="stop-color:#FFFFFF;stop-opacity:0.3"/>
        <stop offset="0.5052" style="stop-color:#FFFFFF;stop-opacity:0.6"/>
        <stop offset="1" style="stop-color:#FFFFFF;stop-opacity:0.3"/>
      </linearGradient>
      <path fill="url(#SVGID_35_)" d="M95.256,82.775c-0.911,0-1.65,0.739-1.65,1.65c0,0,0.2-1.4,1.65-1.4c1.45,0,1.65,1.4,1.65,1.4&#xD;&#xA;&#x9;&#x9;&#x9;&#x9;C96.906,83.515,96.167,82.775,95.256,82.775z"/>
      <linearGradient id="SVGID_36_" gradientUnits="userSpaceOnUse" x1="93.231" y1="83.0381" x2="97.2813" y2="83.0381">
        <stop offset="0" style="stop-color:#FFFFFF;stop-opacity:0.3"/>
        <stop offset="0.5052" style="stop-color:#FFFFFF;stop-opacity:0.6"/>
        <stop offset="1" style="stop-color:#FFFFFF;stop-opacity:0.3"/>
      </linearGradient>
      <path fill="url(#SVGID_36_)" d="M95.256,82.025c-1.118,0-2.025,0.907-2.025,2.025c0,0,0.245-1.719,2.025-1.719&#xD;&#xA;&#x9;&#x9;&#x9;&#x9;c1.78,0,2.025,1.719,2.025,1.719C97.281,82.932,96.375,82.025,95.256,82.025z"/>
    </g>
    <g>
      <linearGradient id="SVGID_37_" gradientUnits="userSpaceOnUse" x1="93.2881" y1="83.6445" x2="93.2881" y2="87.8901">
        <stop offset="0" style="stop-color:#FFFFFF;stop-opacity:0.3"/>
        <stop offset="0.5052" style="stop-color:#999999;stop-opacity:0.3"/>
        <stop offset="1" style="stop-color:#999999;stop-opacity:0.6"/>
      </linearGradient>
      <polygon fill="url(#SVGID_37_)" points="93.231,84.051 93.231,87.451 93.345,87.89 93.345,83.645 &#x9;&#x9;&#x9;"/>
      <linearGradient id="SVGID_38_" gradientUnits="userSpaceOnUse" x1="97.2241" y1="83.7197" x2="97.2241" y2="87.9648">
        <stop offset="0" style="stop-color:#FFFFFF;stop-opacity:0.3"/>
        <stop offset="0.5052" style="stop-color:#999999;stop-opacity:0.3"/>
        <stop offset="1" style="stop-color:#999999;stop-opacity:0.6"/>
      </linearGradient>
      <polygon fill="url(#SVGID_38_)" points="97.281,84.125 97.281,87.526 97.167,87.965 97.167,83.72 &#x9;&#x9;&#x9;"/>
      <linearGradient id="SVGID_39_" gradientUnits="userSpaceOnUse" x1="93.9438" y1="84.4258" x2="93.9438" y2="104.3027">
        <stop offset="0" style="stop-color:#FFFFFF;stop-opacity:0.3"/>
        <stop offset="0.5052" style="stop-color:#999999;stop-opacity:0.3"/>
        <stop offset="1" style="stop-color:#999999;stop-opacity:0.6"/>
      </linearGradient>
      <path fill="url(#SVGID_39_)" d="M93.606,84.426l0.675,19.877c0,0-0.3-13.814-0.425-16.502&#xD;&#xA;&#x9;&#x9;&#x9;&#x9;C93.731,85.113,93.606,84.426,93.606,84.426z"/>
      <linearGradient id="SVGID_40_" gradientUnits="userSpaceOnUse" x1="96.5688" y1="84.4258" x2="96.5688" y2="104.3027">
        <stop offset="0" style="stop-color:#FFFFFF;stop-opacity:0.3"/>
        <stop offset="0.5052" style="stop-color:#999999;stop-opacity:0.3"/>
        <stop offset="1" style="stop-color:#999999;stop-opacity:0.6"/>
      </linearGradient>
      <path fill="url(#SVGID_40_)" d="M96.906,84.426l-0.675,19.877c0,0,0.3-13.814,0.425-16.502&#xD;&#xA;&#x9;&#x9;&#x9;&#x9;C96.781,85.113,96.906,84.426,96.906,84.426z"/>
    </g>
    <linearGradient id="SVGID_41_" gradientUnits="userSpaceOnUse" x1="94.2314" y1="104.8027" x2="96.2813" y2="104.8027">
      <stop offset="0" style="stop-color:#000000;stop-opacity:0.6"/>
      <stop offset="1" style="stop-color:#000000;stop-opacity:0.6"/>
    </linearGradient>
    <path fill="url(#SVGID_41_)" d="M95.256,105.315c0.566,0,1.025-0.459,1.025-1.025c0,0-0.124,0.87-1.025,0.87&#xD;&#xA;&#x9;&#x9;&#x9;c-0.9,0-1.024-0.87-1.024-0.87C94.231,104.856,94.689,105.315,95.256,105.315z"/>
  </g>
</svg>