<svg version="1.2" baseProfile="tiny" viewBox="0 0 87.476 88.754" xmlns:xlink="http://www.w3.org/1999/xlink" xmlns="http://www.w3.org/2000/svg">
<path style="fill:#ffffff;" d="M85.8507,76.8006C82.4522,74.8152,83.844,68.1897,79.3014,67.7202C76.8853,67.4699,76.426,63.649,76.4663,61.7391C76.5161,59.3711,76.8879,55.7508,77.6008,53.5C76.5511,55.7508,73.7589,57.8774,71.3507,56.1254C72.7258,59.4758,72.4144,63.4769,71.3507,66.8752C71.125,65.0647,68.8296,63.9002,68.0712,62.3257C66.6016,59.2823,66.4564,55.9931,66.508,52.6764C66.6261,45.3604,66.4048,37.9663,65.1014,30.7497C65.139,33.2996,65.6717,35.9711,64.9343,38.4722C64.0534,41.4588,60.3488,40.4239,58.601,43.0004C57.0693,41.189,57.7,38.2547,57.8461,36.1158C58.0753,32.7866,58.0517,29.4353,57.6012,26.1247C57.3834,24.5281,58.6352,22.6367,59.0078,21.1172C59.6604,18.4644,54.976,20.0691,54.5789,18.7457C53.6324,15.5888,58.1952,0.0027,52.7262,0.0C52.9956,3.7827,51.7071,7.5068,50.0284,10.8386C48.5282,13.8163,45.1254,16.3467,44.5323,19.6981C44.0407,22.4752,46.5171,24.442,48.0934,26.3413C50.5034,29.2471,50.7352,33.068,49.8517,36.6252C48.7276,33.5561,48.2264,29.8568,46.8793,26.9457C46.4016,25.9179,45.1884,25.4298,44.6268,26.754C44.1448,27.8927,44.7099,29.3137,45.0484,30.4062C45.7587,32.7121,45.7298,39.4591,43.0959,39.8088C41.5747,40.0112,42.3331,43.8773,42.5002,44.7693C42.7478,46.0979,37.7546,45.2814,36.6839,45.7713C34.4559,46.7911,35.9841,50.2676,36.7312,51.7356C38.653,55.5112,34.9869,56.2727,33.9774,59.6249C30.1941,53.2107,29.2572,42.0241,36.4766,37.8749C34.9239,37.7844,33.3782,38.6577,32.227,39.6251C33.1062,38.3701,31.829,37.2536,30.8187,36.6696C28.9694,35.6001,27.9748,36.4326,28.1402,34.07C28.4822,29.1521,27.0476,24.3763,26.7274,19.5001C25.5054,22.4663,27.0476,25.7182,26.7397,28.8069C26.5323,30.8766,26.0661,32.9171,25.9769,35.0001C24.8528,35.112,23.9019,36.1158,23.2292,36.9279C18.9727,42.0614,22.3799,46.4796,23.7384,51.9859C24.2186,53.9394,25.6716,59.1572,23.4899,60.5364C22.4962,61.1648,19.4258,59.1173,19.1529,60.1228C18.7846,61.4826,21.017,63.6011,21.9766,64.249C21.6617,64.525,21.345,64.9298,20.9767,65.1241C17.7261,62.8609,14.2481,59.711,13.809,55.5316C13.4048,51.6859,14.7502,48.0701,13.6786,44.2519C12.8983,41.4659,12.1023,39.0234,14.3811,36.8187C15.7772,35.467,19.4162,32.1431,16.1017,30.7488C17.3316,29.6767,18.4697,28.3321,19.2736,26.9138C19.9069,25.7972,19.7092,21.8832,17.5801,23.7133C16.2041,24.8946,16.9756,27.3522,15.4972,28.7669C13.6314,30.5518,11.3719,29.5196,9.4771,31.2494C10.4193,33.1328,9.1001,35.8531,8.4414,37.6228C7.2614,40.7878,6.4601,44.2066,6.1749,47.5739C5.8224,51.7516,10.3554,60.4424,6.2274,63.3739C9.0459,62.8769,6.5712,69.1048,6.1872,70.1139C5.1707,72.7836,1.8073,73.6569,0.4942,76.2876C-0.2432,77.7654,1.991,77.1104,1.5588,78.3254C1.4346,78.6742,-0.9211,83.3107,0.4033,83.0258C4.7508,82.0877,3.4982,76.0693,5.183,73.4998C5.0491,74.5427,6.482,78.0369,8.0417,77.1716C9.1806,76.5406,9.0651,71.1638,9.7273,69.75C9.8577,73.8114,11.5923,80.7502,16.7272,79.7499C11.3028,77.2284,20.8403,76.6409,22.7271,76.8006C21.8183,75.4196,23.8818,71.9564,24.5458,70.7609C25.7258,68.6361,27.6984,71.9307,28.4,72.9593C30.041,75.3637,31.7267,76.2157,34.4192,77.3677C37.5648,78.7133,37.3531,80.0508,34.1016,80.4999C35.468,80.4999,36.5492,82.3806,37.9856,81.7637C39.9897,80.9019,39.247,78.6671,38.0179,77.5958C36.0104,75.8447,32.206,75.4986,30.97,72.859C30.0681,70.934,35.0744,72.3327,35.5896,72.5014C36.6481,71.084,38.793,69.5867,40.3702,71.2153C42.5203,73.4333,40.5128,74.7602,39.6984,76.6453C38.8437,78.6254,40.4524,80.7608,41.8511,82.0007C41.5817,79.0337,44.4562,74.7974,47.7593,76.6684C46.9011,75.9228,47.7811,74.075,48.6148,73.6907C49.6977,73.1919,53.1994,75.5013,54.1573,76.0959C54.9017,76.5583,57.8671,78.9573,58.1558,76.7261C58.469,74.3057,60.9139,75.6291,60.6838,77.658C60.1992,81.9377,63.9248,82.2199,66.0321,85.1266C66.7923,86.1748,70.3036,91.3776,69.861,87.0774C69.5058,83.6276,67.4632,81.9119,65.4609,79.52C63.1262,76.7296,61.2551,73.7714,61.3513,69.8698C61.4396,66.2424,66.9261,69.3994,68.7351,69.2627C70.6299,69.1198,72.1003,68.0912,72.976,70.5009C73.304,71.4053,74.0169,74.0164,75.1673,74.1939C73.4256,73.9232,74.5051,66.7998,79.1562,68.1098C81.7743,68.8474,81.4681,71.0813,81.8329,73.3152C82.3228,76.3089,85.4369,77.6464,87.476,79.5014C87.3981,78.1301,86.568,77.2204,85.4238,76.553C85.6241,76.6666,86.9249,77.4281,85.8507,76.8006C83.753,75.5749,87.476,77.7503,85.8507,76.8006M15.3512,75.5004C12.4959,75.6299,16.5242,70.3793,16.4962,70.3491C17.2188,71.1026,15.6503,72.2724,17.1418,73.1936C17.329,73.309,19.5281,73.9214,18.7881,74.5587C17.769,75.44,15.841,75.4773,14.5586,75.5359C15.087,75.5119,15.6153,75.4879,16.1428,75.464C15.8786,75.4764,15.6153,75.4879,15.3512,75.5004C12.4959,75.6299,18.1014,75.3752,15.3512,75.5004M48.9761,50.8747C46.8416,47.8517,49.1808,44.6193,50.2252,41.6886C51.3799,38.4491,51.9721,35.0339,52.3509,31.6248C54.2062,36.1797,52.9597,42.0383,52.1777,46.7334C51.8287,48.8227,50.9067,53.611,48.5439,50.2632C48.8317,50.6714,49.1186,51.0788,49.4073,51.4871C49.2639,51.2829,49.1204,51.0788,48.9761,50.8747C47.0446,48.1402,50.4763,53.0003,48.9761,50.8747M54.2264,59.3746C52.8512,60.6252,50.5804,64.8747,50.5804,64.8747C49.4344,60.7503,53.0901,53.6252,53.0901,53.6252C53.0043,54.2544,53.4032,58.4631,54.4389,58.1463C57.393,57.2392,56.3337,50.5463,56.4771,48.4996C56.4771,48.4996,56.5086,48.9061,56.5436,49.4963C56.8961,51.6442,59.0227,53.8746,57.784,56.0943C56.918,57.6439,55.1449,58.5404,53.866,59.703C54.0331,59.5504,55.1352,58.5492,54.2264,59.3746C52.8512,60.6252,55.6006,58.125,54.2264,59.3746Z"/>
</svg>