<svg version="1.2" baseProfile="tiny" id="EdgeSVG_wpxWF" x="0px" y="0px" width="87.476px" height="88.754px" viewBox="0 0 87.476 88.754" xmlns:xlink="http://www.w3.org/1999/xlink" xmlns="http://www.w3.org/2000/svg">
  <g>
    <linearGradient id="SVGID_1_" gradientUnits="userSpaceOnUse" x1="45.3159" y1="0.8901" x2="45.3159" y2="75.478">
      <stop offset="0" style="stop-color:#EE3524;stop-opacity:0.1"/>
      <stop offset="0.0344" style="stop-color:#F2611C;stop-opacity:0.1311"/>
      <stop offset="0.0742" style="stop-color:#F68D13;stop-opacity:0.1672"/>
      <stop offset="0.1146" style="stop-color:#F9B10C;stop-opacity:0.2038"/>
      <stop offset="0.1549" style="stop-color:#FCCD07;stop-opacity:0.2403"/>
      <stop offset="0.1953" style="stop-color:#FEE103;stop-opacity:0.2768"/>
      <stop offset="0.2356" style="stop-color:#FFED01;stop-opacity:0.3134"/>
      <stop offset="0.2761" style="stop-color:#FFF100;stop-opacity:0.35"/>
      <stop offset="0.353" style="stop-color:#FFF105;stop-opacity:0.3234"/>
      <stop offset="0.4425" style="stop-color:#FFF213;stop-opacity:0.2925"/>
      <stop offset="0.5384" style="stop-color:#FFF32A;stop-opacity:0.2594"/>
      <stop offset="0.6388" style="stop-color:#FFF54B;stop-opacity:0.2248"/>
      <stop offset="0.7426" style="stop-color:#FFF775;stop-opacity:0.1889"/>
      <stop offset="0.8494" style="stop-color:#FFFAA9;stop-opacity:0.152"/>
      <stop offset="0.9566" style="stop-color:#FFFEE5;stop-opacity:0.115"/>
      <stop offset="1" style="stop-color:#FFFFFF;stop-opacity:0.1"/>
    </linearGradient>
    <path fill="url(#SVGID_1_)" d="M83.693,75.478c-1.119-1.218-1.721-2.725-1.696-4.384C82.597,72.542,82.95,74.088,83.693,75.478&#xD;&#xA;&#x9;&#x9;&#x9;C83.091,74.823,83.368,74.869,83.693,75.478C82.528,74.209,83.303,74.749,83.693,75.478z M76.961,56.57&#xD;&#xA;&#x9;&#x9;&#x9;c-0.16-0.31-0.24-0.67-0.28-1.02c-0.061,0.03-0.12,0.06-0.18,0.08c-1.609,0.805-1.703,2.827-3.931,1.94&#xD;&#xA;&#x9;&#x9;&#x9;c1.11,4.6-0.46,9.31-0.54,9.54l-1.39-0.15c-0.302-1.237-2.261-2.48-2.9-3.666c-1.281-2.375-2.027-5.033-2.125-7.732&#xD;&#xA;&#x9;&#x9;&#x9;c-0.204-5.688,0.566-11.397-0.095-17.072c-0.664,3.472-5.345,2.887-6.84,5.72l-0.63-0.75c-2.221-2.621-1.003-6.966-0.786-10.029&#xD;&#xA;&#x9;&#x9;&#x9;c0.31-4.374-0.889-8.676,1.076-12.831c-0.989-0.594-2.571-0.669-3.67-0.76l-0.41-0.03l-0.18-0.36&#xD;&#xA;&#x9;&#x9;&#x9;c-1.752-3.501-0.435-7.653,0.148-11.271c0.316-1.966,1.494-6.001-0.749-7.289c0.008,4.162-1.597,8.166-3.592,11.749&#xD;&#xA;&#x9;&#x9;&#x9;c-1.475,2.647-5.731,5.526-4.586,9.006c1.06,3.216,4.546,4.795,5.396,8.194c0.786,3.143,0.072,6.145-0.758,9.17l-0.77-2.14&#xD;&#xA;&#x9;&#x9;&#x9;c0-1.873-1.844-3.608-2.22-5.526c-0.167-0.85-0.414-4.221-1.332-4.624c0.678,0.297,1.149,15.704-2.349,13.81&#xD;&#xA;&#x9;&#x9;&#x9;c-0.391,1.202-0.554,3.333,0.03,4.53l0.17,0.66l-0.64,0.21c-0.987,0.329-5.347,1.577-5.83,0.08&#xD;&#xA;&#x9;&#x9;&#x9;c-2.797,2.67,1.915,5.923,1.061,8.691c-0.793,2.569-3.414,4.003-3.831,6.77l-0.88-1.48c-1.935-3.282-2.819-7.397-3.043-11.162&#xD;&#xA;&#x9;&#x9;&#x9;c-0.117-1.972-0.033-4.013,0.558-5.912c0.434-1.393,2.334-2.774,0.775-3.706c1.161-1.714-3.42-2.858-4.48-2.98l0.101-0.71&#xD;&#xA;&#x9;&#x9;&#x9;c0.24-1.59,0.67-5.68,0.28-7.98c-0.11,2.771-0.623,5.433-0.881,8.16l-0.68,0.02c-1.825,0-3.753,3.787-4.222,5.282&#xD;&#xA;&#x9;&#x9;&#x9;c-0.968,3.087,1.43,6.032,2.485,8.754c1.23,3.168,3.216,11.208-2.363,11.474c-0.63,0-1.17-0.37-1.641-0.7&#xD;&#xA;&#x9;&#x9;&#x9;c-0.159-0.1-0.38-0.26-0.52-0.32c-0.021,0.03-0.04,0.09-0.07,0.16c-0.28,0.79,1.4,2.41,2.72,3.28l0.79,0.52l-2.119,1.85&#xD;&#xA;&#x9;&#x9;&#x9;l-0.45-0.29c-4.524-2.813-7.773-7.127-7.427-12.598c0.132-2.074,0.605-4.248,0.291-6.323c-0.315-2.083-1.167-4.049-1.416-6.146&#xD;&#xA;&#x9;&#x9;&#x9;c-0.388-3.267,7.626-8.578,2.682-9.692l0.92-0.77c1.179-1.005,2.274-2.183,2.981-3.575c0.161-0.315,0.534-2.698-0.295-2.425&#xD;&#xA;&#x9;&#x9;&#x9;c-1.555,0.512-0.808,3.063-1.562,4.138c-0.768,1.097-1.893,1.949-3.075,2.552l-0.27-0.07c-3.459-0.862-2.8,1.75-3.192,3.984&#xD;&#xA;&#x9;&#x9;&#x9;c-0.425,2.42-1.375,4.711-2.144,7.034C6.375,47.009,6.702,52.375,8.241,57.55c0.811,2.77,0.091,4.51-0.63,5.48&#xD;&#xA;&#x9;&#x9;&#x9;c0.499,0.555,0.719,1.205,0.66,1.95c2.855-2.394,5.826-0.457,8.762,0.685c1.342,0.522,1.96,1.126,2.159,2.521&#xD;&#xA;&#x9;&#x9;&#x9;c0.106,0.747-0.07,2.852,1.07,2.897c1.818,0.074,2.718-3.394,3.388-4.61c1.07-1.94,3.005,2.436,3.604,3.065&#xD;&#xA;&#x9;&#x9;&#x9;c1.144,1.2,1.085-3.332,1.146-3.89c0.304-2.747,2.771,0.3,3.619,1.164c2.166,2.208,3.026-0.065,5.442,1.446&#xD;&#xA;&#x9;&#x9;&#x9;c2.605,1.631,5.768,1.321,4.729,5.242c1.162-2.213,5.686-1.071,7.225-3.551c0.443-0.841-1.256-1.933-0.414-2.52&#xD;&#xA;&#x9;&#x9;&#x9;c1.165-0.812,1.466,1.707,2.326-0.143c1.231-2.65,1.944-5.621,5.248-6.521c2.451-0.667-0.374,6.138-0.657,6.891&#xD;&#xA;&#x9;&#x9;&#x9;c-0.643,1.711-1.027,9.05,2.362,7.234c0.88-2.965-1.124-6.262-0.703-9.316c0.162-1.176,1.025-3.099,2.449-2.031&#xD;&#xA;&#x9;&#x9;&#x9;c1.666,1.249,2.338-0.205,3.987-0.714c1.876-0.58,2.079,1.612,2.212,2.808c0.229,2.063,1.147,1.654,2.829,1.42&#xD;&#xA;&#x9;&#x9;&#x9;c0.841-0.117,3.709,1.604,4.307,0.4c0.542-1.092,1.123-4.014,2.479-1.357c-0.035-0.671,0.048-1.331,0.25-1.98&#xD;&#xA;&#x9;&#x9;&#x9;C75.179,61.185,77.332,58.968,76.961,56.57C76.801,56.26,76.991,56.76,76.961,56.57z M49.029,50.99&#xD;&#xA;&#x9;&#x9;&#x9;c-2.134-3.023,0.205-6.256,1.249-9.186c1.155-3.24,1.747-6.655,2.126-10.064c1.855,4.555,0.609,10.413-0.173,15.108&#xD;&#xA;&#x9;&#x9;&#x9;c-0.349,2.09-1.271,6.878-3.634,3.53c0.288,0.408,0.575,0.816,0.863,1.224C49.317,51.398,49.172,51.194,49.029,50.99&#xD;&#xA;&#x9;&#x9;&#x9;C47.098,48.255,50.529,53.115,49.029,50.99z M54.279,59.49c-1.375,1.25-3.646,5.5-3.646,5.5c-1.146-4.125,2.51-11.25,2.51-11.25&#xD;&#xA;&#x9;&#x9;&#x9;c-0.086,0.629,0.313,4.838,1.349,4.521c2.954-0.907,1.895-7.6,2.038-9.646c0,0,0.032,0.406,0.067,0.996&#xD;&#xA;&#x9;&#x9;&#x9;c0.352,2.148,2.479,4.379,1.24,6.598c-0.866,1.55-2.639,2.446-3.918,3.609C54.085,59.665,55.188,58.664,54.279,59.49&#xD;&#xA;&#x9;&#x9;&#x9;C52.904,60.74,55.654,58.24,54.279,59.49z"/>
    <linearGradient id="SVGID_2_" gradientUnits="userSpaceOnUse" x1="49.6362" y1="5.4761" x2="49.6362" y2="18.7129">
      <stop offset="0" style="stop-color:#EE3524;stop-opacity:0.1"/>
      <stop offset="0.0344" style="stop-color:#F2611C;stop-opacity:0.1311"/>
      <stop offset="0.0742" style="stop-color:#F68D13;stop-opacity:0.1672"/>
      <stop offset="0.1146" style="stop-color:#F9B10C;stop-opacity:0.2038"/>
      <stop offset="0.1549" style="stop-color:#FCCD07;stop-opacity:0.2403"/>
      <stop offset="0.1953" style="stop-color:#FEE103;stop-opacity:0.2768"/>
      <stop offset="0.2356" style="stop-color:#FFED01;stop-opacity:0.3134"/>
      <stop offset="0.2761" style="stop-color:#FFF100;stop-opacity:0.35"/>
      <stop offset="0.353" style="stop-color:#FFF105;stop-opacity:0.3234"/>
      <stop offset="0.4425" style="stop-color:#FFF213;stop-opacity:0.2925"/>
      <stop offset="0.5384" style="stop-color:#FFF32A;stop-opacity:0.2594"/>
      <stop offset="0.6388" style="stop-color:#FFF54B;stop-opacity:0.2248"/>
      <stop offset="0.7426" style="stop-color:#FFF775;stop-opacity:0.1889"/>
      <stop offset="0.8494" style="stop-color:#FFFAA9;stop-opacity:0.152"/>
      <stop offset="0.9566" style="stop-color:#FFFEE5;stop-opacity:0.115"/>
      <stop offset="1" style="stop-color:#FFFFFF;stop-opacity:0.1"/>
    </linearGradient>
    <path fill="url(#SVGID_2_)" d="M52.726,5.476c-1.567,3.135-2.627,6.317-4.462,9.332c-0.403,0.662-3.339,5.307-0.537,3.484&#xD;&#xA;&#x9;&#x9;&#x9;c1.995-1.298,2.88-4.366,3.551-6.493c0.402-1.276,0.743-2.573,1.027-3.881c0.105-0.485,0.865-3.33,0.104-1.809&#xD;&#xA;&#x9;&#x9;&#x9;C52.507,5.914,52.587,5.648,52.726,5.476C51.489,7.952,52.726,5.476,52.726,5.476z"/>
    <linearGradient id="SVGID_3_" gradientUnits="userSpaceOnUse" x1="35.5288" y1="35.9102" x2="35.5288" y2="79.228">
      <stop offset="0" style="stop-color:#EE3524;stop-opacity:0.1"/>
      <stop offset="0.0344" style="stop-color:#F2611C;stop-opacity:0.1311"/>
      <stop offset="0.0742" style="stop-color:#F68D13;stop-opacity:0.1672"/>
      <stop offset="0.1146" style="stop-color:#F9B10C;stop-opacity:0.2038"/>
      <stop offset="0.1549" style="stop-color:#FCCD07;stop-opacity:0.2403"/>
      <stop offset="0.1953" style="stop-color:#FEE103;stop-opacity:0.2768"/>
      <stop offset="0.2356" style="stop-color:#FFED01;stop-opacity:0.3134"/>
      <stop offset="0.2761" style="stop-color:#FFF100;stop-opacity:0.35"/>
      <stop offset="0.353" style="stop-color:#FFF105;stop-opacity:0.3234"/>
      <stop offset="0.4425" style="stop-color:#FFF213;stop-opacity:0.2925"/>
      <stop offset="0.5384" style="stop-color:#FFF32A;stop-opacity:0.2594"/>
      <stop offset="0.6388" style="stop-color:#FFF54B;stop-opacity:0.2248"/>
      <stop offset="0.7426" style="stop-color:#FFF775;stop-opacity:0.1889"/>
      <stop offset="0.8494" style="stop-color:#FFFAA9;stop-opacity:0.152"/>
      <stop offset="0.9566" style="stop-color:#FFFEE5;stop-opacity:0.115"/>
      <stop offset="1" style="stop-color:#FFFFFF;stop-opacity:0.1"/>
    </linearGradient>
    <path fill="url(#SVGID_3_)" d="M31.049,38.228c-1.61-0.705-3.179-1.839-4.992-1.936c-2.649-0.141-3.849,4.203-4.188,6.213&#xD;&#xA;&#x9;&#x9;&#x9;c-0.903,5.355,4.769,9.149,4.208,14.389c-0.229,2.146-1.065,3.705-3.273,3.955c-1.8,0.204-3.152,0.265-1.532,1.905&#xD;&#xA;&#x9;&#x9;&#x9;c1.741,1.763-0.169,3.259-0.791,5.247c-1.123,3.585-0.058,4.539,1.818,7.353c-0.078-0.797-0.891-3.801-0.008-4.31&#xD;&#xA;&#x9;&#x9;&#x9;c0.141-0.082,0.782,1.447,1.008,1.56c-1.005-0.502,0.183-4.828,0.445-5.573c0.936-2.653,2.349,1.365,2.88,2.389&#xD;&#xA;&#x9;&#x9;&#x9;c1.207,2.324,2.092,4.788,4.428,6.225c1.333,0.82,7.114,2.042,7.372,3.584c-0.331-1.991-3.438-2.706-4.971-3.34&#xD;&#xA;&#x9;&#x9;&#x9;c-2.636-1.09-3.918-2.492-4.81-5.2c-0.379-1.152-0.707-2.446-0.537-3.668c0.135-0.969,1.013-1.503,1.06-2.476&#xD;&#xA;&#x9;&#x9;&#x9;c0.064-1.35-2.324-4.912-0.997-5.905c0.299-0.224,0.943,2.962,0.991,3.21c0.42,2.171,1.938,3.825,3.747,5.005&#xD;&#xA;&#x9;&#x9;&#x9;c1.886,1.231,4.065,1.289,5.938,2.596c2.451,1.711,2.849,3.008,3.203,5.903c-0.055-1.818-0.054-3.745,2.266-3.16&#xD;&#xA;&#x9;&#x9;&#x9;c2.223,0.562,2.529,2.696,3.444,4.474c-0.349-2.374-0.723-7.573,3.276-4.789c-1.873-1.304-3.839-2.671-5.32-4.426&#xD;&#xA;&#x9;&#x9;&#x9;c-1.877-2.223,0.129-3.844,1.582-5.612c1.869-2.275,0.308-4.196-0.183-6.706c-0.714-3.65-0.991-7.051,0.595-10.496&#xD;&#xA;&#x9;&#x9;&#x9;c0.974-2.113,2.339-4.752,2.356-7.135c0.026-3.691-3.883,0.038-4.63,1.155c-2.082,3.118-2.438,6.202-1.994,9.829&#xD;&#xA;&#x9;&#x9;&#x9;c0.152,1.246,0.032,2.329-0.835,3.242c-0.303,0.319-2.089,2.184-2.601,1.334c-0.134-0.222,0.677-1.21,0.598-1.248&#xD;&#xA;&#x9;&#x9;&#x9;c-2.837-1.349-3.358,4.92-3.518,5.986c-0.31,2.068-0.378,5.872-2.973,2.83c-4.297-5.039-3.747-13.572-2.064-19.529&#xD;&#xA;&#x9;&#x9;&#x9;c-1.265,3.443-2.325,7.25-1.728,10.934c0.462,2.85,0.438,5.195-1.965,1.425c-1.255-1.967-2.189-4.155-1.998-6.526&#xD;&#xA;&#x9;&#x9;&#x9;c0.095-1.168-0.263-5.223,0.958-5.814c1.364-0.661,7.237-1.36,2.999-3.214c0.508,0.222,1.015,0.444,1.521,0.666&#xD;&#xA;&#x9;&#x9;&#x9;C31.575,38.458,31.312,38.343,31.049,38.228C29.25,37.44,33.789,39.428,31.049,38.228z"/>
    <linearGradient id="SVGID_4_" gradientUnits="userSpaceOnUse" x1="34.2808" y1="37.4961" x2="34.2808" y2="72.3906">
      <stop offset="0" style="stop-color:#EE3524;stop-opacity:0.1"/>
      <stop offset="0.0344" style="stop-color:#F2611C;stop-opacity:0.1311"/>
      <stop offset="0.0742" style="stop-color:#F68D13;stop-opacity:0.1672"/>
      <stop offset="0.1146" style="stop-color:#F9B10C;stop-opacity:0.2038"/>
      <stop offset="0.1549" style="stop-color:#FCCD07;stop-opacity:0.2403"/>
      <stop offset="0.1953" style="stop-color:#FEE103;stop-opacity:0.2768"/>
      <stop offset="0.2356" style="stop-color:#FFED01;stop-opacity:0.3134"/>
      <stop offset="0.2761" style="stop-color:#FFF100;stop-opacity:0.35"/>
      <stop offset="0.353" style="stop-color:#FFF105;stop-opacity:0.3234"/>
      <stop offset="0.4425" style="stop-color:#FFF213;stop-opacity:0.2925"/>
      <stop offset="0.5384" style="stop-color:#FFF32A;stop-opacity:0.2594"/>
      <stop offset="0.6388" style="stop-color:#FFF54B;stop-opacity:0.2248"/>
      <stop offset="0.7426" style="stop-color:#FFF775;stop-opacity:0.1889"/>
      <stop offset="0.8494" style="stop-color:#FFFAA9;stop-opacity:0.152"/>
      <stop offset="0.9566" style="stop-color:#FFFEE5;stop-opacity:0.115"/>
      <stop offset="1" style="stop-color:#FFFFFF;stop-opacity:0.1"/>
    </linearGradient>
    <path fill="url(#SVGID_4_)" d="M23.023,37.871c-4.944,7.32,3.302,13.822,4.983,20.486c0.722,2.858,0.301,8.292,3.582,9.724&#xD;&#xA;&#x9;&#x9;&#x9;c2.377,1.037,2.335-1.627,3.893-1.56c1.504,0.066,2.815,1.74,3.836,2.661c0.772,0.698,7.858,5.645,6.288,1.693&#xD;&#xA;&#x9;&#x9;&#x9;c-0.831-2.095-6.182-0.571-3.062-3.96c1.757-1.908,4.145-3.285,4.571-6.077c0.674-4.411-2.277-8.128-2.589-12.397&#xD;&#xA;&#x9;&#x9;&#x9;c1.161,4.882,1.917,9.705-3.084,12.68c-4.583,2.727-7.682-0.5-10.741-3.69c-3.672-3.829-6.041-7.207-4.672-12.604&#xD;&#xA;&#x9;&#x9;&#x9;c0.491-1.935,0.73-3.662-0.235-5.457c-0.702-1.304-1.881-2.815-3.027-1.119C22.85,38.126,23.412,37.296,23.023,37.871&#xD;&#xA;&#x9;&#x9;&#x9;C18.963,43.881,23.627,36.976,23.023,37.871z"/>
    <linearGradient id="SVGID_5_" gradientUnits="userSpaceOnUse" x1="34.3257" y1="38.1318" x2="34.3257" y2="71.9058">
      <stop offset="0" style="stop-color:#EE3524;stop-opacity:0.1"/>
      <stop offset="0.0344" style="stop-color:#F2611C;stop-opacity:0.1311"/>
      <stop offset="0.0742" style="stop-color:#F68D13;stop-opacity:0.1672"/>
      <stop offset="0.1146" style="stop-color:#F9B10C;stop-opacity:0.2038"/>
      <stop offset="0.1549" style="stop-color:#FCCD07;stop-opacity:0.2403"/>
      <stop offset="0.1953" style="stop-color:#FEE103;stop-opacity:0.2768"/>
      <stop offset="0.2356" style="stop-color:#FFED01;stop-opacity:0.3134"/>
      <stop offset="0.2761" style="stop-color:#FFF100;stop-opacity:0.35"/>
      <stop offset="0.353" style="stop-color:#FFF105;stop-opacity:0.3234"/>
      <stop offset="0.4425" style="stop-color:#FFF213;stop-opacity:0.2925"/>
      <stop offset="0.5384" style="stop-color:#FFF32A;stop-opacity:0.2594"/>
      <stop offset="0.6388" style="stop-color:#FFF54B;stop-opacity:0.2248"/>
      <stop offset="0.7426" style="stop-color:#FFF775;stop-opacity:0.1889"/>
      <stop offset="0.8494" style="stop-color:#FFFAA9;stop-opacity:0.152"/>
      <stop offset="0.9566" style="stop-color:#FFFEE5;stop-opacity:0.115"/>
      <stop offset="1" style="stop-color:#FFFFFF;stop-opacity:0.1"/>
    </linearGradient>
    <path fill="url(#SVGID_5_)" d="M44.958,71.906c-0.535-0.2-1.747-0.837-3.351-1.916C42.488,70.439,45.493,70.168,44.958,71.906&#xD;&#xA;&#x9;&#x9;&#x9;C44.335,71.673,45.001,71.764,44.958,71.906C44.422,71.706,45.008,71.741,44.958,71.906z M41.224,69.729&#xD;&#xA;&#x9;&#x9;&#x9;c-1.643-1.134-3.04-2.599-4.775-3.603c-1.657-0.958-2.068,1.347-3.61,1.512c-2.713,0.291-3.243-4.287-3.455-6.114&#xD;&#xA;&#x9;&#x9;&#x9;c-0.836-7.213-11.026-15.764-5.666-23.393c0.284,0.255,0.569,0.509,0.854,0.764l0.214,0.198c2.637,2.434,0.014,6.618-0.086,9.507&#xD;&#xA;&#x9;&#x9;&#x9;c-0.127,3.672,3.524,6.573,5.604,9.18c1.767,2.214,4.73,6.584,8.143,5.297c3.237-1.221,7.082-3.223,7.754-6.984&#xD;&#xA;&#x9;&#x9;&#x9;c0.597,3.428,0.453,6.106-2.284,8.499c-0.896,0.784-1.813,1.595-2.503,2.575c-0.738,1.049-0.181,2.667-0.654,2.231&#xD;&#xA;&#x9;&#x9;&#x9;C40.92,69.499,41.076,69.609,41.224,69.729C39.596,68.606,41.07,69.587,41.224,69.729z"/>
    <linearGradient id="SVGID_6_" gradientUnits="userSpaceOnUse" x1="34.4888" y1="38.8965" x2="34.4888" y2="68.46">
      <stop offset="0" style="stop-color:#EE3524;stop-opacity:0.1"/>
      <stop offset="0.0344" style="stop-color:#F2611C;stop-opacity:0.1311"/>
      <stop offset="0.0742" style="stop-color:#F68D13;stop-opacity:0.1672"/>
      <stop offset="0.1146" style="stop-color:#F9B10C;stop-opacity:0.2038"/>
      <stop offset="0.1549" style="stop-color:#FCCD07;stop-opacity:0.2403"/>
      <stop offset="0.1953" style="stop-color:#FEE103;stop-opacity:0.2768"/>
      <stop offset="0.2356" style="stop-color:#FFED01;stop-opacity:0.3134"/>
      <stop offset="0.2761" style="stop-color:#FFF100;stop-opacity:0.35"/>
      <stop offset="0.353" style="stop-color:#FFF105;stop-opacity:0.3234"/>
      <stop offset="0.4425" style="stop-color:#FFF213;stop-opacity:0.2925"/>
      <stop offset="0.5384" style="stop-color:#FFF32A;stop-opacity:0.2594"/>
      <stop offset="0.6388" style="stop-color:#FFF54B;stop-opacity:0.2248"/>
      <stop offset="0.7426" style="stop-color:#FFF775;stop-opacity:0.1889"/>
      <stop offset="0.8494" style="stop-color:#FFFAA9;stop-opacity:0.152"/>
      <stop offset="0.9566" style="stop-color:#FFFEE5;stop-opacity:0.115"/>
      <stop offset="1" style="stop-color:#FFFFFF;stop-opacity:0.1"/>
    </linearGradient>
    <path fill="url(#SVGID_6_)" d="M40.318,68.46c-1.438-1.071-2.875-3.163-4.86-3.163c-1.662,0-1.858,2.759-3.802,1.434&#xD;&#xA;&#x9;&#x9;&#x9;c-2.889-1.97-1.524-7.037-2.75-9.854c2.001,2.412,4.053,6.054,7.33,6.856c3.521,0.862,8.11-2.629,9.676-5.557&#xD;&#xA;&#x9;&#x9;&#x9;c0.014,0.205,0.027,0.409,0.041,0.614c0.159,2.335-1.143,3.906-2.766,5.385c-0.635,0.578-1.277,1.156-1.801,1.841&#xD;&#xA;&#x9;&#x9;&#x9;c-0.226,0.295-1.489,3.026-1.34,2.042C40.302,67.887,40.392,68.021,40.318,68.46C39.012,67.488,40.442,67.643,40.318,68.46z&#xD;&#xA;&#x9;&#x9;&#x9; M24.104,47.747c-0.609-3.032-1.963-5.889-0.277-8.85c0.205,0.189,0.41,0.378,0.615,0.567c2.382,2.198-0.123,6.086-0.263,8.656&#xD;&#xA;&#x9;&#x9;&#x9;c-0.063-0.314-0.126-0.628-0.189-0.942C24.028,47.367,24.066,47.557,24.104,47.747C23.449,44.485,24.128,47.87,24.104,47.747z"/>
    <linearGradient id="SVGID_7_" gradientUnits="userSpaceOnUse" x1="47.8677" y1="76.667" x2="47.8677" y2="76.8008">
      <stop offset="0" style="stop-color:#EE3524;stop-opacity:0.1"/>
      <stop offset="0.0344" style="stop-color:#F2611C;stop-opacity:0.1311"/>
      <stop offset="0.0742" style="stop-color:#F68D13;stop-opacity:0.1672"/>
      <stop offset="0.1146" style="stop-color:#F9B10C;stop-opacity:0.2038"/>
      <stop offset="0.1549" style="stop-color:#FCCD07;stop-opacity:0.2403"/>
      <stop offset="0.1953" style="stop-color:#FEE103;stop-opacity:0.2768"/>
      <stop offset="0.2356" style="stop-color:#FFED01;stop-opacity:0.3134"/>
      <stop offset="0.2761" style="stop-color:#FFF100;stop-opacity:0.35"/>
      <stop offset="0.353" style="stop-color:#FFF105;stop-opacity:0.3234"/>
      <stop offset="0.4425" style="stop-color:#FFF213;stop-opacity:0.2925"/>
      <stop offset="0.5384" style="stop-color:#FFF32A;stop-opacity:0.2594"/>
      <stop offset="0.6388" style="stop-color:#FFF54B;stop-opacity:0.2248"/>
      <stop offset="0.7426" style="stop-color:#FFF775;stop-opacity:0.1889"/>
      <stop offset="0.8494" style="stop-color:#FFFAA9;stop-opacity:0.152"/>
      <stop offset="0.9566" style="stop-color:#FFFEE5;stop-opacity:0.115"/>
      <stop offset="1" style="stop-color:#FFFFFF;stop-opacity:0.1"/>
    </linearGradient>
    <path fill="url(#SVGID_7_)" d="M47.759,76.667c0.112,0.097,0.217,0.134,0.217,0.134S47.896,76.744,47.759,76.667z"/>
    <linearGradient id="SVGID_8_" gradientUnits="userSpaceOnUse" x1="47.8677" y1="76.667" x2="47.8677" y2="76.8008">
      <stop offset="0" style="stop-color:#EE3524;stop-opacity:0.1"/>
      <stop offset="0.0344" style="stop-color:#F2611C;stop-opacity:0.1311"/>
      <stop offset="0.0742" style="stop-color:#F68D13;stop-opacity:0.1672"/>
      <stop offset="0.1146" style="stop-color:#F9B10C;stop-opacity:0.2038"/>
      <stop offset="0.1549" style="stop-color:#FCCD07;stop-opacity:0.2403"/>
      <stop offset="0.1953" style="stop-color:#FEE103;stop-opacity:0.2768"/>
      <stop offset="0.2356" style="stop-color:#FFED01;stop-opacity:0.3134"/>
      <stop offset="0.2761" style="stop-color:#FFF100;stop-opacity:0.35"/>
      <stop offset="0.353" style="stop-color:#FFF105;stop-opacity:0.3234"/>
      <stop offset="0.4425" style="stop-color:#FFF213;stop-opacity:0.2925"/>
      <stop offset="0.5384" style="stop-color:#FFF32A;stop-opacity:0.2594"/>
      <stop offset="0.6388" style="stop-color:#FFF54B;stop-opacity:0.2248"/>
      <stop offset="0.7426" style="stop-color:#FFF775;stop-opacity:0.1889"/>
      <stop offset="0.8494" style="stop-color:#FFFAA9;stop-opacity:0.152"/>
      <stop offset="0.9566" style="stop-color:#FFFEE5;stop-opacity:0.115"/>
      <stop offset="1" style="stop-color:#FFFFFF;stop-opacity:0.1"/>
    </linearGradient>
    <path fill="url(#SVGID_8_)" d="M47.759,76.667c0.112,0.097,0.217,0.134,0.217,0.134S47.896,76.744,47.759,76.667z"/>
    <linearGradient id="SVGID_9_" gradientUnits="userSpaceOnUse" x1="9.0884" y1="38.6729" x2="9.0884" y2="75.4111">
      <stop offset="0" style="stop-color:#EE3524;stop-opacity:0.1"/>
      <stop offset="0.0344" style="stop-color:#F2611C;stop-opacity:0.1311"/>
      <stop offset="0.0742" style="stop-color:#F68D13;stop-opacity:0.1672"/>
      <stop offset="0.1146" style="stop-color:#F9B10C;stop-opacity:0.2038"/>
      <stop offset="0.1549" style="stop-color:#FCCD07;stop-opacity:0.2403"/>
      <stop offset="0.1953" style="stop-color:#FEE103;stop-opacity:0.2768"/>
      <stop offset="0.2356" style="stop-color:#FFED01;stop-opacity:0.3134"/>
      <stop offset="0.2761" style="stop-color:#FFF100;stop-opacity:0.35"/>
      <stop offset="0.353" style="stop-color:#FFF105;stop-opacity:0.3234"/>
      <stop offset="0.4425" style="stop-color:#FFF213;stop-opacity:0.2925"/>
      <stop offset="0.5384" style="stop-color:#FFF32A;stop-opacity:0.2594"/>
      <stop offset="0.6388" style="stop-color:#FFF54B;stop-opacity:0.2248"/>
      <stop offset="0.7426" style="stop-color:#FFF775;stop-opacity:0.1889"/>
      <stop offset="0.8494" style="stop-color:#FFFAA9;stop-opacity:0.152"/>
      <stop offset="0.9566" style="stop-color:#FFFEE5;stop-opacity:0.115"/>
      <stop offset="1" style="stop-color:#FFFFFF;stop-opacity:0.1"/>
    </linearGradient>
    <path fill="url(#SVGID_9_)" d="M11.106,42.173c-1.559,3.274-0.847,7.162-0.146,10.557c0.804,3.89,0.987,7.188,0.569,11.148&#xD;&#xA;&#x9;&#x9;&#x9;c-0.399,3.776,1.201,7.301,0.891,11.02c-0.156,1.873-1.846-1.956-1.983-2.339c-0.565-1.58,1.16-9.288-0.422-9.514&#xD;&#xA;&#x9;&#x9;&#x9;c-2.025-0.29-3.767,7.737-4.297,9.172c1.147-3.101,1.946-6.27,2.238-9.561c0.252-2.83,1.461-5.033,1.279-7.987&#xD;&#xA;&#x9;&#x9;&#x9;c-0.294-4.787-1.872-11.9,1.371-15.996c-0.097,0.935,0.978,4.116-0.133,4.449C10.236,43.193,10.497,41.259,11.106,42.173&#xD;&#xA;&#x9;&#x9;&#x9;C9.072,46.445,10.356,41.048,11.106,42.173z"/>
    <linearGradient id="SVGID_10_" gradientUnits="userSpaceOnUse" x1="10.2437" y1="41.6421" x2="10.2437" y2="74.5674">
      <stop offset="0" style="stop-color:#EE3524;stop-opacity:0.1"/>
      <stop offset="0.0344" style="stop-color:#F2611C;stop-opacity:0.1311"/>
      <stop offset="0.0742" style="stop-color:#F68D13;stop-opacity:0.1672"/>
      <stop offset="0.1146" style="stop-color:#F9B10C;stop-opacity:0.2038"/>
      <stop offset="0.1549" style="stop-color:#FCCD07;stop-opacity:0.2403"/>
      <stop offset="0.1953" style="stop-color:#FEE103;stop-opacity:0.2768"/>
      <stop offset="0.2356" style="stop-color:#FFED01;stop-opacity:0.3134"/>
      <stop offset="0.2761" style="stop-color:#FFF100;stop-opacity:0.35"/>
      <stop offset="0.353" style="stop-color:#FFF105;stop-opacity:0.3234"/>
      <stop offset="0.4425" style="stop-color:#FFF213;stop-opacity:0.2925"/>
      <stop offset="0.5384" style="stop-color:#FFF32A;stop-opacity:0.2594"/>
      <stop offset="0.6388" style="stop-color:#FFF54B;stop-opacity:0.2248"/>
      <stop offset="0.7426" style="stop-color:#FFF775;stop-opacity:0.1889"/>
      <stop offset="0.8494" style="stop-color:#FFFAA9;stop-opacity:0.152"/>
      <stop offset="0.9566" style="stop-color:#FFFEE5;stop-opacity:0.115"/>
      <stop offset="1" style="stop-color:#FFFFFF;stop-opacity:0.1"/>
    </linearGradient>
    <path fill="url(#SVGID_10_)" d="M11.707,74.567c-0.873-1.202-1.005-2.709-0.928-4.144C10.936,71.653,11.682,73.95,11.707,74.567&#xD;&#xA;&#x9;&#x9;&#x9;C10.823,73.351,11.693,74.227,11.707,74.567z M8.781,63.042c0.341-3.614,1.037-6.909,0.881-10.576&#xD;&#xA;&#x9;&#x9;&#x9;c-0.152-3.602-0.386-7.278,0.433-10.824c0.07,0.19,0.141,0.38,0.211,0.57c-2.624,6.737,1.53,13.804,0.613,20.683&#xD;&#xA;&#x9;&#x9;&#x9;C10.365,61.969,9.307,62.377,8.781,63.042C8.985,62.647,8.985,62.647,8.781,63.042C9.025,60.455,9.16,62.563,8.781,63.042z"/>
    <linearGradient id="SVGID_11_" gradientUnits="userSpaceOnUse" x1="15.1079" y1="25.1958" x2="15.1079" y2="77.1816">
      <stop offset="0" style="stop-color:#EE3524;stop-opacity:0.1"/>
      <stop offset="0.0344" style="stop-color:#F2611C;stop-opacity:0.1311"/>
      <stop offset="0.0742" style="stop-color:#F68D13;stop-opacity:0.1672"/>
      <stop offset="0.1146" style="stop-color:#F9B10C;stop-opacity:0.2038"/>
      <stop offset="0.1549" style="stop-color:#FCCD07;stop-opacity:0.2403"/>
      <stop offset="0.1953" style="stop-color:#FEE103;stop-opacity:0.2768"/>
      <stop offset="0.2356" style="stop-color:#FFED01;stop-opacity:0.3134"/>
      <stop offset="0.2761" style="stop-color:#FFF100;stop-opacity:0.35"/>
      <stop offset="0.353" style="stop-color:#FFF105;stop-opacity:0.3234"/>
      <stop offset="0.4425" style="stop-color:#FFF213;stop-opacity:0.2925"/>
      <stop offset="0.5384" style="stop-color:#FFF32A;stop-opacity:0.2594"/>
      <stop offset="0.6388" style="stop-color:#FFF54B;stop-opacity:0.2248"/>
      <stop offset="0.7426" style="stop-color:#FFF775;stop-opacity:0.1889"/>
      <stop offset="0.8494" style="stop-color:#FFFAA9;stop-opacity:0.152"/>
      <stop offset="0.9566" style="stop-color:#FFFEE5;stop-opacity:0.115"/>
      <stop offset="1" style="stop-color:#FFFFFF;stop-opacity:0.1"/>
    </linearGradient>
    <path fill="url(#SVGID_11_)" d="M19.226,25.75c-1.039,3.663-4.733,5.59-6.483,8.823c-2.439,4.506,1.402,9.497,1.173,14.23&#xD;&#xA;&#x9;&#x9;&#x9;c-0.119,2.438-0.673,4.857-0.641,7.302c0.039,2.9,1.589,5.493,1.64,8.429c0.04,2.344-0.88,4.219-1.755,6.327&#xD;&#xA;&#x9;&#x9;&#x9;c-1.026,2.469-0.139,3.883,0.244,6.311c0.021,0.129-1.48-1.017-1.411-0.951c-1.032-0.974-1.105-2.076-0.657-3.401&#xD;&#xA;&#x9;&#x9;&#x9;c0.907-2.688,2.983-4.529,2.604-7.595c-0.413-3.323-2.092-6.152-2.043-9.592c0.054-3.764,0.646-7.003-0.166-10.757&#xD;&#xA;&#x9;&#x9;&#x9;c-1.003-4.632-1.558-8.499,1.282-12.46c0.478-0.667,5.476-7.786,6.214-7.183c0,0.507-0.106,0.892-0.245,1.38&#xD;&#xA;&#x9;&#x9;&#x9;C19.036,26.42,19.468,24.897,19.226,25.75C17.925,30.334,19.645,24.273,19.226,25.75z"/>
    <linearGradient id="SVGID_12_" gradientUnits="userSpaceOnUse" x1="15.1255" y1="25.7642" x2="15.1255" y2="76.7422">
      <stop offset="0" style="stop-color:#EE3524;stop-opacity:0.1"/>
      <stop offset="0.0344" style="stop-color:#F2611C;stop-opacity:0.1311"/>
      <stop offset="0.0742" style="stop-color:#F68D13;stop-opacity:0.1672"/>
      <stop offset="0.1146" style="stop-color:#F9B10C;stop-opacity:0.2038"/>
      <stop offset="0.1549" style="stop-color:#FCCD07;stop-opacity:0.2403"/>
      <stop offset="0.1953" style="stop-color:#FEE103;stop-opacity:0.2768"/>
      <stop offset="0.2356" style="stop-color:#FFED01;stop-opacity:0.3134"/>
      <stop offset="0.2761" style="stop-color:#FFF100;stop-opacity:0.35"/>
      <stop offset="0.353" style="stop-color:#FFF105;stop-opacity:0.3234"/>
      <stop offset="0.4425" style="stop-color:#FFF213;stop-opacity:0.2925"/>
      <stop offset="0.5384" style="stop-color:#FFF32A;stop-opacity:0.2594"/>
      <stop offset="0.6388" style="stop-color:#FFF54B;stop-opacity:0.2248"/>
      <stop offset="0.7426" style="stop-color:#FFF775;stop-opacity:0.1889"/>
      <stop offset="0.8494" style="stop-color:#FFFAA9;stop-opacity:0.152"/>
      <stop offset="0.9566" style="stop-color:#FFFEE5;stop-opacity:0.115"/>
      <stop offset="1" style="stop-color:#FFFFFF;stop-opacity:0.1"/>
    </linearGradient>
    <path fill="url(#SVGID_12_)" d="M12.685,76.742c-2.423-1.527-0.68-4.597,0.338-6.415c-0.585,1.346-1.002,2.846-0.926,4.326&#xD;&#xA;&#x9;&#x9;&#x9;c0.052,1.014,1.173,2.173,0.273,1.606C12.475,76.421,12.581,76.582,12.685,76.742C10.25,75.207,12.07,75.715,12.685,76.742z&#xD;&#xA;&#x9;&#x9;&#x9; M14.34,66.809c0.373-3.629-1.74-6.904-2.066-10.45c-0.416-4.511,0.486-8.513-0.504-13.056&#xD;&#xA;&#x9;&#x9;&#x9;c-1.514-6.944,1.843-13.148,7.076-17.539c-0.959,3.146-3.901,5.001-5.747,7.563c-2.318,3.217-1.328,6.534-0.262,10&#xD;&#xA;&#x9;&#x9;&#x9;c1.283,4.167,0.221,8.013,0.123,12.238C12.874,59.392,15.281,62.949,14.34,66.809C14.396,66.468,14.396,66.468,14.34,66.809&#xD;&#xA;&#x9;&#x9;&#x9;C14.751,62.813,14.412,66.516,14.34,66.809z"/>
    <linearGradient id="SVGID_13_" gradientUnits="userSpaceOnUse" x1="14.6011" y1="25.4673" x2="14.6011" y2="76.9487">
      <stop offset="0" style="stop-color:#EE3524;stop-opacity:0.1"/>
      <stop offset="0.0344" style="stop-color:#F2611C;stop-opacity:0.1311"/>
      <stop offset="0.0742" style="stop-color:#F68D13;stop-opacity:0.1672"/>
      <stop offset="0.1146" style="stop-color:#F9B10C;stop-opacity:0.2038"/>
      <stop offset="0.1549" style="stop-color:#FCCD07;stop-opacity:0.2403"/>
      <stop offset="0.1953" style="stop-color:#FEE103;stop-opacity:0.2768"/>
      <stop offset="0.2356" style="stop-color:#FFED01;stop-opacity:0.3134"/>
      <stop offset="0.2761" style="stop-color:#FFF100;stop-opacity:0.35"/>
      <stop offset="0.353" style="stop-color:#FFF105;stop-opacity:0.3234"/>
      <stop offset="0.4425" style="stop-color:#FFF213;stop-opacity:0.2925"/>
      <stop offset="0.5384" style="stop-color:#FFF32A;stop-opacity:0.2594"/>
      <stop offset="0.6388" style="stop-color:#FFF54B;stop-opacity:0.2248"/>
      <stop offset="0.7426" style="stop-color:#FFF775;stop-opacity:0.1889"/>
      <stop offset="0.8494" style="stop-color:#FFFAA9;stop-opacity:0.152"/>
      <stop offset="0.9566" style="stop-color:#FFFEE5;stop-opacity:0.115"/>
      <stop offset="1" style="stop-color:#FFFFFF;stop-opacity:0.1"/>
    </linearGradient>
    <path fill="url(#SVGID_13_)" d="M18.233,25.995c-0.862,3.407-3.917,5.53-5.535,8.517c-2.463,4.545,1.058,9.292,0.88,14.033&#xD;&#xA;&#x9;&#x9;&#x9;c-0.093,2.47-0.633,4.895-0.37,7.374c0.294,2.766,1.182,5.451,1.245,8.244c0.051,2.27-0.749,3.995-1.558,6.045&#xD;&#xA;&#x9;&#x9;&#x9;c-0.965,2.447,0.172,4.299,0.193,6.741c-0.007-0.725-2.258-1.616-2.036-3.388c0.377-3.009,2.822-5.104,2.528-8.312&#xD;&#xA;&#x9;&#x9;&#x9;c-0.287-3.142-1.837-5.936-1.845-9.145c-0.008-3.296,0.795-6.462,0.266-9.76c-0.752-4.679-2.275-9.1,0.51-13.358&#xD;&#xA;&#x9;&#x9;&#x9;c0.414-0.633,5.307-7.884,5.722-7.505c0,0.494-0.096,0.888-0.216,1.367C18.065,26.658,18.447,25.149,18.233,25.995&#xD;&#xA;&#x9;&#x9;&#x9;C17.028,30.757,18.603,24.532,18.233,25.995z"/>
    <linearGradient id="SVGID_14_" gradientUnits="userSpaceOnUse" x1="10.73" y1="33.1172" x2="10.73" y2="79.1343">
      <stop offset="0" style="stop-color:#EE3524;stop-opacity:0.1"/>
      <stop offset="0.0344" style="stop-color:#F2611C;stop-opacity:0.1311"/>
      <stop offset="0.0742" style="stop-color:#F68D13;stop-opacity:0.1672"/>
      <stop offset="0.1146" style="stop-color:#F9B10C;stop-opacity:0.2038"/>
      <stop offset="0.1549" style="stop-color:#FCCD07;stop-opacity:0.2403"/>
      <stop offset="0.1953" style="stop-color:#FEE103;stop-opacity:0.2768"/>
      <stop offset="0.2356" style="stop-color:#FFED01;stop-opacity:0.3134"/>
      <stop offset="0.2761" style="stop-color:#FFF100;stop-opacity:0.35"/>
      <stop offset="0.353" style="stop-color:#FFF105;stop-opacity:0.3234"/>
      <stop offset="0.4425" style="stop-color:#FFF213;stop-opacity:0.2925"/>
      <stop offset="0.5384" style="stop-color:#FFF32A;stop-opacity:0.2594"/>
      <stop offset="0.6388" style="stop-color:#FFF54B;stop-opacity:0.2248"/>
      <stop offset="0.7426" style="stop-color:#FFF775;stop-opacity:0.1889"/>
      <stop offset="0.8494" style="stop-color:#FFFAA9;stop-opacity:0.152"/>
      <stop offset="0.9566" style="stop-color:#FFFEE5;stop-opacity:0.115"/>
      <stop offset="1" style="stop-color:#FFFFFF;stop-opacity:0.1"/>
    </linearGradient>
    <path fill="url(#SVGID_14_)" d="M11.303,33.962c0.813-1.513,3.09-0.786,3.787,0.545c0.647,1.236-1.523,2.477-2.104,3.138&#xD;&#xA;&#x9;&#x9;&#x9;c-3.272,3.725-3.01,8.234-2.246,12.939c0.991,6.119,0.607,11.407,0.281,17.534c-0.111,2.083,0.485,4.008,1.224,5.885&#xD;&#xA;&#x9;&#x9;&#x9;c0.17,0.432,1.72,5.195,1.439,5.13c-1.065-0.249-1.154-2.623-1.939-3.116c-2.178-1.375-1.557-4.03-1.303-6.305&#xD;&#xA;&#x9;&#x9;&#x9;c0.358-3.222-1.159-1.589-1.796,0.238c-0.629,1.809,0.184,3.952-0.617,5.648c-0.941,2-1.743-0.151-1.774-1.293&#xD;&#xA;&#x9;&#x9;&#x9;c-0.043-1.625,0.237-3.235,0.621-4.795c0.685-2.792,1.718-5.497,2.056-8.386c0.451-3.834-1.303-7.033-1.605-10.756&#xD;&#xA;&#x9;&#x9;&#x9;c-0.304-3.732,0.484-7.402,1.11-11.039c0.511-2.969,1.872-3.52,3.096-5.794c-0.177,0.329-0.354,0.658-0.531,0.988&#xD;&#xA;&#x9;&#x9;&#x9;C11.102,34.336,11.203,34.149,11.303,33.962C12.178,32.334,10.295,35.837,11.303,33.962z"/>
    <linearGradient id="SVGID_15_" gradientUnits="userSpaceOnUse" x1="21.8032" y1="64.98" x2="21.8032" y2="76.1914">
      <stop offset="0" style="stop-color:#EE3524;stop-opacity:0.1"/>
      <stop offset="0.0344" style="stop-color:#F2611C;stop-opacity:0.1311"/>
      <stop offset="0.0742" style="stop-color:#F68D13;stop-opacity:0.1672"/>
      <stop offset="0.1146" style="stop-color:#F9B10C;stop-opacity:0.2038"/>
      <stop offset="0.1549" style="stop-color:#FCCD07;stop-opacity:0.2403"/>
      <stop offset="0.1953" style="stop-color:#FEE103;stop-opacity:0.2768"/>
      <stop offset="0.2356" style="stop-color:#FFED01;stop-opacity:0.3134"/>
      <stop offset="0.2761" style="stop-color:#FFF100;stop-opacity:0.35"/>
      <stop offset="0.353" style="stop-color:#FFF105;stop-opacity:0.3234"/>
      <stop offset="0.4425" style="stop-color:#FFF213;stop-opacity:0.2925"/>
      <stop offset="0.5384" style="stop-color:#FFF32A;stop-opacity:0.2594"/>
      <stop offset="0.6388" style="stop-color:#FFF54B;stop-opacity:0.2248"/>
      <stop offset="0.7426" style="stop-color:#FFF775;stop-opacity:0.1889"/>
      <stop offset="0.8494" style="stop-color:#FFFAA9;stop-opacity:0.152"/>
      <stop offset="0.9566" style="stop-color:#FFFEE5;stop-opacity:0.115"/>
      <stop offset="1" style="stop-color:#FFFFFF;stop-opacity:0.1"/>
    </linearGradient>
    <path fill="url(#SVGID_15_)" d="M22.042,65.066c-1.663,1.256-2.088,3.203-2.426,5.139c-0.503,2.872,0.579,3.941,2.426,5.986&#xD;&#xA;&#x9;&#x9;&#x9;c-1.025-1.552-1.757-6.005,0.875-3.375c-0.653-2.302-0.589-3.655,0.873-5.494c1.097-1.379-0.837-2.941-2.063-2.018&#xD;&#xA;&#x9;&#x9;&#x9;C21.765,65.275,22.414,64.786,22.042,65.066C19.932,66.659,22.626,64.625,22.042,65.066z"/>
    <linearGradient id="SVGID_16_" gradientUnits="userSpaceOnUse" x1="21.6128" y1="65.3511" x2="21.6128" y2="70.4805">
      <stop offset="0" style="stop-color:#EE3524;stop-opacity:0.1"/>
      <stop offset="0.0344" style="stop-color:#F2611C;stop-opacity:0.1311"/>
      <stop offset="0.0742" style="stop-color:#F68D13;stop-opacity:0.1672"/>
      <stop offset="0.1146" style="stop-color:#F9B10C;stop-opacity:0.2038"/>
      <stop offset="0.1549" style="stop-color:#FCCD07;stop-opacity:0.2403"/>
      <stop offset="0.1953" style="stop-color:#FEE103;stop-opacity:0.2768"/>
      <stop offset="0.2356" style="stop-color:#FFED01;stop-opacity:0.3134"/>
      <stop offset="0.2761" style="stop-color:#FFF100;stop-opacity:0.35"/>
      <stop offset="0.353" style="stop-color:#FFF105;stop-opacity:0.3234"/>
      <stop offset="0.4425" style="stop-color:#FFF213;stop-opacity:0.2925"/>
      <stop offset="0.5384" style="stop-color:#FFF32A;stop-opacity:0.2594"/>
      <stop offset="0.6388" style="stop-color:#FFF54B;stop-opacity:0.2248"/>
      <stop offset="0.7426" style="stop-color:#FFF775;stop-opacity:0.1889"/>
      <stop offset="0.8494" style="stop-color:#FFFAA9;stop-opacity:0.152"/>
      <stop offset="0.9566" style="stop-color:#FFFEE5;stop-opacity:0.115"/>
      <stop offset="1" style="stop-color:#FFFFFF;stop-opacity:0.1"/>
    </linearGradient>
    <path fill="url(#SVGID_16_)" d="M20.589,70.48c-1.175-1.439-0.244-3.544,1.022-4.561c0.928-0.744,2.022-0.93,1.499,0.513&#xD;&#xA;&#x9;&#x9;&#x9;C22.492,68.141,20.466,69.613,20.589,70.48C19.25,68.839,20.527,70.04,20.589,70.48z"/>
    <linearGradient id="SVGID_17_" gradientUnits="userSpaceOnUse" x1="37.689" y1="38.415" x2="37.689" y2="64.1572">
      <stop offset="0" style="stop-color:#EE3524;stop-opacity:0.1"/>
      <stop offset="0.0344" style="stop-color:#F2611C;stop-opacity:0.1311"/>
      <stop offset="0.0742" style="stop-color:#F68D13;stop-opacity:0.1672"/>
      <stop offset="0.1146" style="stop-color:#F9B10C;stop-opacity:0.2038"/>
      <stop offset="0.1549" style="stop-color:#FCCD07;stop-opacity:0.2403"/>
      <stop offset="0.1953" style="stop-color:#FEE103;stop-opacity:0.2768"/>
      <stop offset="0.2356" style="stop-color:#FFED01;stop-opacity:0.3134"/>
      <stop offset="0.2761" style="stop-color:#FFF100;stop-opacity:0.35"/>
      <stop offset="0.353" style="stop-color:#FFF105;stop-opacity:0.3234"/>
      <stop offset="0.4425" style="stop-color:#FFF213;stop-opacity:0.2925"/>
      <stop offset="0.5384" style="stop-color:#FFF32A;stop-opacity:0.2594"/>
      <stop offset="0.6388" style="stop-color:#FFF54B;stop-opacity:0.2248"/>
      <stop offset="0.7426" style="stop-color:#FFF775;stop-opacity:0.1889"/>
      <stop offset="0.8494" style="stop-color:#FFFAA9;stop-opacity:0.152"/>
      <stop offset="0.9566" style="stop-color:#FFFEE5;stop-opacity:0.115"/>
      <stop offset="1" style="stop-color:#FFFFFF;stop-opacity:0.1"/>
    </linearGradient>
    <path fill="url(#SVGID_17_)" d="M34.545,38.417c-4.682,4.782-4.1,10.03-2.89,16.135c1.061,5.351,3.232,9.282,9.267,7.482&#xD;&#xA;&#x9;&#x9;&#x9;c1.43-0.427,4.933-2.648,1.755-3.969c-2.108-0.877-4.546,3.503-6.051,2.566c-1.11-0.692-0.053-3.73,0.249-4.624&#xD;&#xA;&#x9;&#x9;&#x9;c0.749-2.21,1.83-4.277,4.42-4.021c-1.51,0.627-1.804,2.019-0.519,3.296c1.262,1.253,3.912-0.317,4.519,1.954&#xD;&#xA;&#x9;&#x9;&#x9;c1.453,5.445-4.232,7.599-8.905,6.738c-4.756-0.876-5.44-8.041-6.146-11.798C29.311,47.206,29.774,41.292,34.545,38.417&#xD;&#xA;&#x9;&#x9;&#x9;c0.077-0.078-2.086,2.023-2.151,1.87C32.21,39.856,34.319,38.554,34.545,38.417C30.129,42.928,32.17,39.848,34.545,38.417z"/>
    <linearGradient id="SVGID_18_" gradientUnits="userSpaceOnUse" x1="37.8647" y1="46.2271" x2="37.8647" y2="63.751">
      <stop offset="0" style="stop-color:#EE3524;stop-opacity:0.1"/>
      <stop offset="0.0344" style="stop-color:#F2611C;stop-opacity:0.1311"/>
      <stop offset="0.0742" style="stop-color:#F68D13;stop-opacity:0.1672"/>
      <stop offset="0.1146" style="stop-color:#F9B10C;stop-opacity:0.2038"/>
      <stop offset="0.1549" style="stop-color:#FCCD07;stop-opacity:0.2403"/>
      <stop offset="0.1953" style="stop-color:#FEE103;stop-opacity:0.2768"/>
      <stop offset="0.2356" style="stop-color:#FFED01;stop-opacity:0.3134"/>
      <stop offset="0.2761" style="stop-color:#FFF100;stop-opacity:0.35"/>
      <stop offset="0.353" style="stop-color:#FFF105;stop-opacity:0.3234"/>
      <stop offset="0.4425" style="stop-color:#FFF213;stop-opacity:0.2925"/>
      <stop offset="0.5384" style="stop-color:#FFF32A;stop-opacity:0.2594"/>
      <stop offset="0.6388" style="stop-color:#FFF54B;stop-opacity:0.2248"/>
      <stop offset="0.7426" style="stop-color:#FFF775;stop-opacity:0.1889"/>
      <stop offset="0.8494" style="stop-color:#FFFAA9;stop-opacity:0.152"/>
      <stop offset="0.9566" style="stop-color:#FFFEE5;stop-opacity:0.115"/>
      <stop offset="1" style="stop-color:#FFFFFF;stop-opacity:0.1"/>
    </linearGradient>
    <path fill="url(#SVGID_18_)" d="M36.795,63.751c-6.117,0-7.183-13.329-6.604-17.524c0.161,7.211,1.177,20.018,11.442,16.043&#xD;&#xA;&#x9;&#x9;&#x9;c2.244-0.869,3.993-3.738,0.635-4.511c-1.15-0.265-5.493,2.88-5.647,2.536c-0.832-1.858,1.115-7.816,3.356-7.95&#xD;&#xA;&#x9;&#x9;&#x9;c-1.394,1.011,0.322,3.463,1.752,3.591c2.081,0.186,4.401,0.925,3.87,3.673c-0.663,3.437-6.497,4.141-9.256,4.141&#xD;&#xA;&#x9;&#x9;&#x9;C36.531,63.751,37.61,63.751,36.795,63.751C31.19,63.751,38.03,63.751,36.795,63.751z"/>
    <linearGradient id="SVGID_19_" gradientUnits="userSpaceOnUse" x1="40.9175" y1="54.2788" x2="40.9175" y2="59.3306">
      <stop offset="0" style="stop-color:#EE3524;stop-opacity:0.1"/>
      <stop offset="0.0344" style="stop-color:#F2611C;stop-opacity:0.1311"/>
      <stop offset="0.0742" style="stop-color:#F68D13;stop-opacity:0.1672"/>
      <stop offset="0.1146" style="stop-color:#F9B10C;stop-opacity:0.2038"/>
      <stop offset="0.1549" style="stop-color:#FCCD07;stop-opacity:0.2403"/>
      <stop offset="0.1953" style="stop-color:#FEE103;stop-opacity:0.2768"/>
      <stop offset="0.2356" style="stop-color:#FFED01;stop-opacity:0.3134"/>
      <stop offset="0.2761" style="stop-color:#FFF100;stop-opacity:0.35"/>
      <stop offset="0.353" style="stop-color:#FFF105;stop-opacity:0.3234"/>
      <stop offset="0.4425" style="stop-color:#FFF213;stop-opacity:0.2925"/>
      <stop offset="0.5384" style="stop-color:#FFF32A;stop-opacity:0.2594"/>
      <stop offset="0.6388" style="stop-color:#FFF54B;stop-opacity:0.2248"/>
      <stop offset="0.7426" style="stop-color:#FFF775;stop-opacity:0.1889"/>
      <stop offset="0.8494" style="stop-color:#FFFAA9;stop-opacity:0.152"/>
      <stop offset="0.9566" style="stop-color:#FFFEE5;stop-opacity:0.115"/>
      <stop offset="1" style="stop-color:#FFFFFF;stop-opacity:0.1"/>
    </linearGradient>
    <path fill="url(#SVGID_19_)" d="M37.415,58.783c0.021-1.657,0.865-3.012,1.452-4.504c0.146,0.099,0.293,0.199,0.439,0.298&#xD;&#xA;&#x9;&#x9;&#x9;c0.732,2.747,4.677,1.08,5.123,3.762c-1.968-3.067-4.968-0.413-7.024,0.992C37.413,59.038,37.426,57.714,37.415,58.783&#xD;&#xA;&#x9;&#x9;&#x9;C37.437,56.979,37.413,58.957,37.415,58.783z"/>
    <linearGradient id="SVGID_20_" gradientUnits="userSpaceOnUse" x1="57.6245" y1="8.771" x2="57.6245" y2="76.1226">
      <stop offset="0" style="stop-color:#EE3524;stop-opacity:0.1"/>
      <stop offset="0.0344" style="stop-color:#F2611C;stop-opacity:0.1311"/>
      <stop offset="0.0742" style="stop-color:#F68D13;stop-opacity:0.1672"/>
      <stop offset="0.1146" style="stop-color:#F9B10C;stop-opacity:0.2038"/>
      <stop offset="0.1549" style="stop-color:#FCCD07;stop-opacity:0.2403"/>
      <stop offset="0.1953" style="stop-color:#FEE103;stop-opacity:0.2768"/>
      <stop offset="0.2356" style="stop-color:#FFED01;stop-opacity:0.3134"/>
      <stop offset="0.2761" style="stop-color:#FFF100;stop-opacity:0.35"/>
      <stop offset="0.353" style="stop-color:#FFF105;stop-opacity:0.3234"/>
      <stop offset="0.4425" style="stop-color:#FFF213;stop-opacity:0.2925"/>
      <stop offset="0.5384" style="stop-color:#FFF32A;stop-opacity:0.2594"/>
      <stop offset="0.6388" style="stop-color:#FFF54B;stop-opacity:0.2248"/>
      <stop offset="0.7426" style="stop-color:#FFF775;stop-opacity:0.1889"/>
      <stop offset="0.8494" style="stop-color:#FFFAA9;stop-opacity:0.152"/>
      <stop offset="0.9566" style="stop-color:#FFFEE5;stop-opacity:0.115"/>
      <stop offset="1" style="stop-color:#FFFFFF;stop-opacity:0.1"/>
    </linearGradient>
    <path fill="url(#SVGID_20_)" d="M52.861,9.066c-0.637,3.375-1.183,6.812-0.136,10.167c1.393,4.464,2.581,7.643,2.47,12.455&#xD;&#xA;&#x9;&#x9;&#x9;c-0.098,4.233-0.302,8.481-0.197,12.716c0.08,3.263-0.589,6.941,0.738,10.037c0.25-2.292,0.5-4.583,0.75-6.875&#xD;&#xA;&#x9;&#x9;&#x9;c0.349,0.75,0.85,5.954,1.976,5.612c1.796-0.546,0.249,3.691,0.047,4.344c-1.46,4.713-6.071,13.511-2.31,18.113&#xD;&#xA;&#x9;&#x9;&#x9;c1.784,2.182,1.163-3.635,1.082-4.249c-0.242-1.847,0.069-3.597,0.349-5.419c0.249-1.622,0.744-9.605,2.743-10.131&#xD;&#xA;&#x9;&#x9;&#x9;c-0.632,0.167,2.568,4.224,2.738,4.605c-1.39-7.135-4.866-13.738-5.887-20.953c-0.47-3.313-0.329-6.663-0.262-9.996&#xD;&#xA;&#x9;&#x9;&#x9;c0.042-2.039-1.104-5.509,0.538-7.176c-0.426,0.152-1.783,1.728-2.257,1.102c-1.261-1.666-1.906-3.895-1.758-5.977&#xD;&#xA;&#x9;&#x9;&#x9;C53.681,14.713,52.359,11.731,52.861,9.066c-0.058,0.306-0.115,0.611-0.173,0.917C52.724,9.79,53.042,8.104,52.861,9.066&#xD;&#xA;&#x9;&#x9;&#x9;C51.944,13.924,53.174,7.406,52.861,9.066z"/>
    <linearGradient id="SVGID_21_" gradientUnits="userSpaceOnUse" x1="57.4272" y1="10.4927" x2="57.4272" y2="75.708">
      <stop offset="0" style="stop-color:#EE3524;stop-opacity:0.1"/>
      <stop offset="0.0344" style="stop-color:#F2611C;stop-opacity:0.1311"/>
      <stop offset="0.0742" style="stop-color:#F68D13;stop-opacity:0.1672"/>
      <stop offset="0.1146" style="stop-color:#F9B10C;stop-opacity:0.2038"/>
      <stop offset="0.1549" style="stop-color:#FCCD07;stop-opacity:0.2403"/>
      <stop offset="0.1953" style="stop-color:#FEE103;stop-opacity:0.2768"/>
      <stop offset="0.2356" style="stop-color:#FFED01;stop-opacity:0.3134"/>
      <stop offset="0.2761" style="stop-color:#FFF100;stop-opacity:0.35"/>
      <stop offset="0.353" style="stop-color:#FFF105;stop-opacity:0.3234"/>
      <stop offset="0.4425" style="stop-color:#FFF213;stop-opacity:0.2925"/>
      <stop offset="0.5384" style="stop-color:#FFF32A;stop-opacity:0.2594"/>
      <stop offset="0.6388" style="stop-color:#FFF54B;stop-opacity:0.2248"/>
      <stop offset="0.7426" style="stop-color:#FFF775;stop-opacity:0.1889"/>
      <stop offset="0.8494" style="stop-color:#FFFAA9;stop-opacity:0.152"/>
      <stop offset="0.9566" style="stop-color:#FFFEE5;stop-opacity:0.115"/>
      <stop offset="1" style="stop-color:#FFFFFF;stop-opacity:0.1"/>
    </linearGradient>
    <path fill="url(#SVGID_21_)" d="M56.967,75.701c-3.701,0-0.345-11.314,0.423-13.441c0.87-2.407,2.632-5.974,1.982-8.598&#xD;&#xA;&#x9;&#x9;&#x9;c-0.092-0.371-0.303-0.714-0.702-0.801c-0.748-0.163-0.348-1.383-0.565-2.206c-0.404-1.535-1.152-2.961-1.84-4.385l-0.559,5.12&#xD;&#xA;&#x9;&#x9;&#x9;c-0.242-3.045-0.45-7.763-0.361-10.813l0.015-0.47c0.159-5.424,1.271-11.169-0.398-16.468c0.75,1.196,0.447,0.142,0.978,0.463&#xD;&#xA;&#x9;&#x9;&#x9;l0.032-0.411c0.044-0.094,0.329-0.306,0.722-0.541c-0.511,2.545-0.037,5.154-0.129,7.721c-0.11,3.064-0.266,6.166,0.354,9.191&#xD;&#xA;&#x9;&#x9;&#x9;c1.341,6.557,4.214,12.682,5.593,19.229c-2.73-1.788-1.813-6.21-3.516,0.024c-1.226,4.485-2.703,8.823-2.126,13.535&#xD;&#xA;&#x9;&#x9;&#x9;c0.149,1.431,0.279,2.666,0.11,2.857L56.967,75.701C56.917,75.701,56.967,75.701,56.967,75.701&#xD;&#xA;&#x9;&#x9;&#x9;C53.923,75.701,56.967,75.701,56.967,75.701z M53.459,20.411c-1.65-3.136-1.151-6.59-0.508-9.918&#xD;&#xA;&#x9;&#x9;&#x9;C53.29,13.782,52.563,17.178,53.459,20.411c-0.175-0.17-0.236-0.351-0.184-0.543C53.336,20.049,53.398,20.23,53.459,20.411&#xD;&#xA;&#x9;&#x9;&#x9;C51.754,17.171,53.205,19.492,53.459,20.411z"/>
    <linearGradient id="SVGID_22_" gradientUnits="userSpaceOnUse" x1="46.1733" y1="3.9697" x2="46.1733" y2="52.1045">
      <stop offset="0" style="stop-color:#EE3524;stop-opacity:0.1"/>
      <stop offset="0.0344" style="stop-color:#F2611C;stop-opacity:0.1311"/>
      <stop offset="0.0742" style="stop-color:#F68D13;stop-opacity:0.1672"/>
      <stop offset="0.1146" style="stop-color:#F9B10C;stop-opacity:0.2038"/>
      <stop offset="0.1549" style="stop-color:#FCCD07;stop-opacity:0.2403"/>
      <stop offset="0.1953" style="stop-color:#FEE103;stop-opacity:0.2768"/>
      <stop offset="0.2356" style="stop-color:#FFED01;stop-opacity:0.3134"/>
      <stop offset="0.2761" style="stop-color:#FFF100;stop-opacity:0.35"/>
      <stop offset="0.353" style="stop-color:#FFF105;stop-opacity:0.3234"/>
      <stop offset="0.4425" style="stop-color:#FFF213;stop-opacity:0.2925"/>
      <stop offset="0.5384" style="stop-color:#FFF32A;stop-opacity:0.2594"/>
      <stop offset="0.6388" style="stop-color:#FFF54B;stop-opacity:0.2248"/>
      <stop offset="0.7426" style="stop-color:#FFF775;stop-opacity:0.1889"/>
      <stop offset="0.8494" style="stop-color:#FFFAA9;stop-opacity:0.152"/>
      <stop offset="0.9566" style="stop-color:#FFFEE5;stop-opacity:0.115"/>
      <stop offset="1" style="stop-color:#FFFFFF;stop-opacity:0.1"/>
    </linearGradient>
    <path fill="url(#SVGID_22_)" d="M53.77,4.229c-1.043,2.617-1.405,5.609-2.884,8.038c-1.456,2.392-3.271,4.172-4.171,6.905&#xD;&#xA;&#x9;&#x9;&#x9;c-1.884,5.727,3.499,7.399,4.261,12.436c0.604,4-1.225,8.982-3.858,11.964c-2.193,2.484-9.223,2.455-8.725,6.673&#xD;&#xA;&#x9;&#x9;&#x9;c0.143,1.208,1.171,2.159,2.419,1.773c1.866-0.578,0.467-2.213,1.146-3.358c0.769-1.293,2.661-1.832,3.953-2.39&#xD;&#xA;&#x9;&#x9;&#x9;c2.264-0.976,3.708-2.875,4.525-5.166c1.841-5.159,3.11-12.799,1.165-18.041c-0.978-2.633-2.473-4.951-0.859-7.636&#xD;&#xA;&#x9;&#x9;&#x9;c1.229-2.044,1.652,1.168,2.637,1.583c0.646,0.271,0.664-13.137,0.542-13.04c-0.257,0.203-0.356,0.773-0.456,1.023&#xD;&#xA;&#x9;&#x9;&#x9;C53.527,4.84,53.94,3.803,53.77,4.229C52.866,6.499,54.138,3.305,53.77,4.229z"/>
    <linearGradient id="SVGID_23_" gradientUnits="userSpaceOnUse" x1="46.6401" y1="4.6367" x2="46.6401" y2="51.8262">
      <stop offset="0" style="stop-color:#EE3524;stop-opacity:0.1"/>
      <stop offset="0.0344" style="stop-color:#F2611C;stop-opacity:0.1311"/>
      <stop offset="0.0742" style="stop-color:#F68D13;stop-opacity:0.1672"/>
      <stop offset="0.1146" style="stop-color:#F9B10C;stop-opacity:0.2038"/>
      <stop offset="0.1549" style="stop-color:#FCCD07;stop-opacity:0.2403"/>
      <stop offset="0.1953" style="stop-color:#FEE103;stop-opacity:0.2768"/>
      <stop offset="0.2356" style="stop-color:#FFED01;stop-opacity:0.3134"/>
      <stop offset="0.2761" style="stop-color:#FFF100;stop-opacity:0.35"/>
      <stop offset="0.353" style="stop-color:#FFF105;stop-opacity:0.3234"/>
      <stop offset="0.4425" style="stop-color:#FFF213;stop-opacity:0.2925"/>
      <stop offset="0.5384" style="stop-color:#FFF32A;stop-opacity:0.2594"/>
      <stop offset="0.6388" style="stop-color:#FFF54B;stop-opacity:0.2248"/>
      <stop offset="0.7426" style="stop-color:#FFF775;stop-opacity:0.1889"/>
      <stop offset="0.8494" style="stop-color:#FFFAA9;stop-opacity:0.152"/>
      <stop offset="0.9566" style="stop-color:#FFFEE5;stop-opacity:0.115"/>
      <stop offset="1" style="stop-color:#FFFFFF;stop-opacity:0.1"/>
    </linearGradient>
    <path fill="url(#SVGID_23_)" d="M40.083,51.826c-1.449,0-1.306-1.831-0.985-2.756c0.722-2.082,3.446-2.271,5.225-2.923&#xD;&#xA;&#x9;&#x9;&#x9;c4.458-1.637,5.923-7.043,6.942-11.177c-0.646,4.54-1.399,8.885-5.897,11.081c-1.876,0.917-4.016,1.357-4.006,3.756&#xD;&#xA;&#x9;&#x9;&#x9;C41.367,50.802,41.302,51.826,40.083,51.826C38.219,51.826,40.386,51.826,40.083,51.826z M51.574,32.481&#xD;&#xA;&#x9;&#x9;&#x9;c-0.174-4.689-5.65-7.561-4.509-12.468c0.696-2.993,2.807-4.845,4.292-7.395c1.434-2.462,1.819-5.34,2.797-7.981&#xD;&#xA;&#x9;&#x9;&#x9;c0.801,3.763-0.645,7.697-0.895,11.448c-0.198-0.36-0.397-0.72-0.596-1.08l-0.074-0.138c-1.287-2.418-3.016,1.789-3.336,2.828&#xD;&#xA;&#x9;&#x9;&#x9;l0.02,0.117c0.439,2.686,2.206,4.87,2.53,7.616c0.166,1.41,0.136,2.836,0.035,4.249c-0.03,0.413-0.046,4.576-0.294,1.771&#xD;&#xA;&#x9;&#x9;&#x9;C51.574,31.782,51.609,32.146,51.574,32.481C51.383,27.347,51.597,32.258,51.574,32.481z"/>
    <linearGradient id="SVGID_24_" gradientUnits="userSpaceOnUse" x1="64.0562" y1="39.5742" x2="64.0562" y2="77.3008">
      <stop offset="0" style="stop-color:#EE3524;stop-opacity:0.1"/>
      <stop offset="0.0344" style="stop-color:#F2611C;stop-opacity:0.1311"/>
      <stop offset="0.0742" style="stop-color:#F68D13;stop-opacity:0.1672"/>
      <stop offset="0.1146" style="stop-color:#F9B10C;stop-opacity:0.2038"/>
      <stop offset="0.1549" style="stop-color:#FCCD07;stop-opacity:0.2403"/>
      <stop offset="0.1953" style="stop-color:#FEE103;stop-opacity:0.2768"/>
      <stop offset="0.2356" style="stop-color:#FFED01;stop-opacity:0.3134"/>
      <stop offset="0.2761" style="stop-color:#FFF100;stop-opacity:0.35"/>
      <stop offset="0.353" style="stop-color:#FFF105;stop-opacity:0.3234"/>
      <stop offset="0.4425" style="stop-color:#FFF213;stop-opacity:0.2925"/>
      <stop offset="0.5384" style="stop-color:#FFF32A;stop-opacity:0.2594"/>
      <stop offset="0.6388" style="stop-color:#FFF54B;stop-opacity:0.2248"/>
      <stop offset="0.7426" style="stop-color:#FFF775;stop-opacity:0.1889"/>
      <stop offset="0.8494" style="stop-color:#FFFAA9;stop-opacity:0.152"/>
      <stop offset="0.9566" style="stop-color:#FFFEE5;stop-opacity:0.115"/>
      <stop offset="1" style="stop-color:#FFFFFF;stop-opacity:0.1"/>
    </linearGradient>
    <path fill="url(#SVGID_24_)" d="M59.482,45.074c0.824,2.646,1.267,5.395,2.12,8.032c0.183,0.563,2.167,5.505,2.792,3.226&#xD;&#xA;&#x9;&#x9;&#x9;c1.456-5.316,1.338-11.295,1.338-16.758c0.636,7.211-0.826,15.202,1.424,22.168c0.712,2.206,1.641,3.311,3.289,4.756&#xD;&#xA;&#x9;&#x9;&#x9;c0.299,0.263,3.891,3.469,3.006,3.776c0.167-0.058-5.276-3.069-5.219-2.841c0.688,2.737-1.658,0.125-1.731-1.648&#xD;&#xA;&#x9;&#x9;&#x9;c-0.043-1.054-1.059-8.715-3.406-6.696c-0.034,0.03-1.43,7.552-2.658,3.707c-1.038-3.249,0.736-7.032,0.046-10.472&#xD;&#xA;&#x9;&#x9;&#x9;c-0.841,8.191-4.67,15.082-0.75,23c-2.245-0.825-2.88,3.592-4.608,1.319c-1.762-2.318,0.84-7.089,1.607-9.396&#xD;&#xA;&#x9;&#x9;&#x9;c1.024-3.078-1.265-7.105,0.645-9.851c0.916-1.316,2.944-2.115,1.896-4.021c-0.716-1.303-2.04-2.311-2.04-3.927&#xD;&#xA;&#x9;&#x9;&#x9;c2.597-0.163,1.051-5.334,0.75-6.875c0.956,0.862,1.348,2.011,1.718,3.2c-0.124-0.398-0.248-0.796-0.371-1.194&#xD;&#xA;&#x9;&#x9;&#x9;C59.379,44.745,59.431,44.91,59.482,45.074C60.305,47.719,58.878,43.136,59.482,45.074z"/>
    <linearGradient id="SVGID_25_" gradientUnits="userSpaceOnUse" x1="74.2261" y1="56.1079" x2="74.2261" y2="68.3579">
      <stop offset="0" style="stop-color:#EE3524;stop-opacity:0.1"/>
      <stop offset="0.0344" style="stop-color:#F2611C;stop-opacity:0.1311"/>
      <stop offset="0.0742" style="stop-color:#F68D13;stop-opacity:0.1672"/>
      <stop offset="0.1146" style="stop-color:#F9B10C;stop-opacity:0.2038"/>
      <stop offset="0.1549" style="stop-color:#FCCD07;stop-opacity:0.2403"/>
      <stop offset="0.1953" style="stop-color:#FEE103;stop-opacity:0.2768"/>
      <stop offset="0.2356" style="stop-color:#FFED01;stop-opacity:0.3134"/>
      <stop offset="0.2761" style="stop-color:#FFF100;stop-opacity:0.35"/>
      <stop offset="0.353" style="stop-color:#FFF105;stop-opacity:0.3234"/>
      <stop offset="0.4425" style="stop-color:#FFF213;stop-opacity:0.2925"/>
      <stop offset="0.5384" style="stop-color:#FFF32A;stop-opacity:0.2594"/>
      <stop offset="0.6388" style="stop-color:#FFF54B;stop-opacity:0.2248"/>
      <stop offset="0.7426" style="stop-color:#FFF775;stop-opacity:0.1889"/>
      <stop offset="0.8494" style="stop-color:#FFFAA9;stop-opacity:0.152"/>
      <stop offset="0.9566" style="stop-color:#FFFEE5;stop-opacity:0.115"/>
      <stop offset="1" style="stop-color:#FFFFFF;stop-opacity:0.1"/>
    </linearGradient>
    <path fill="url(#SVGID_25_)" d="M76.601,56.108c-1.806,1.02-2.497,2.053-2.328,4.029c0.039,0.46,0.567,3.545-0.184,3.682&#xD;&#xA;&#x9;&#x9;&#x9;c-0.196,0.036-0.134-2.756-0.615-2.935c-0.756-0.281-1.215,4.623-1.623,5.099c1.165-3.311,2.661,1.158,3.375,2.375&#xD;&#xA;&#x9;&#x9;&#x9;c1.027-1.712,0.481-3.702,0.156-5.516C74.961,60.493,76.256,58.367,76.601,56.108C75.693,56.621,76.601,56.108,76.601,56.108z"/>
    <linearGradient id="SVGID_26_" gradientUnits="userSpaceOnUse" x1="63.3677" y1="66.1001" x2="63.3677" y2="86.1875">
      <stop offset="0" style="stop-color:#EE3524;stop-opacity:0.1"/>
      <stop offset="0.0344" style="stop-color:#F2611C;stop-opacity:0.1311"/>
      <stop offset="0.0742" style="stop-color:#F68D13;stop-opacity:0.1672"/>
      <stop offset="0.1146" style="stop-color:#F9B10C;stop-opacity:0.2038"/>
      <stop offset="0.1549" style="stop-color:#FCCD07;stop-opacity:0.2403"/>
      <stop offset="0.1953" style="stop-color:#FEE103;stop-opacity:0.2768"/>
      <stop offset="0.2356" style="stop-color:#FFED01;stop-opacity:0.3134"/>
      <stop offset="0.2761" style="stop-color:#FFF100;stop-opacity:0.35"/>
      <stop offset="0.353" style="stop-color:#FFF105;stop-opacity:0.3234"/>
      <stop offset="0.4425" style="stop-color:#FFF213;stop-opacity:0.2925"/>
      <stop offset="0.5384" style="stop-color:#FFF32A;stop-opacity:0.2594"/>
      <stop offset="0.6388" style="stop-color:#FFF54B;stop-opacity:0.2248"/>
      <stop offset="0.7426" style="stop-color:#FFF775;stop-opacity:0.1889"/>
      <stop offset="0.8494" style="stop-color:#FFFAA9;stop-opacity:0.152"/>
      <stop offset="0.9566" style="stop-color:#FFFEE5;stop-opacity:0.115"/>
      <stop offset="1" style="stop-color:#FFFFFF;stop-opacity:0.1"/>
    </linearGradient>
    <path fill="url(#SVGID_26_)" d="M59.875,66.1c-0.716,4.532,2.591,8.022,2.366,12.532c-0.146,2.921,7.688,3.801,5.698,7.555&#xD;&#xA;&#x9;&#x9;&#x9;c-0.003,0.005-2.625-3.342-2.926-3.648c-1.1-1.118-4.277-0.697-4.014-3.064c1.996,0.464-0.441-3.945-0.768-4.494&#xD;&#xA;&#x9;&#x9;&#x9;c-0.959-1.609-1.906-3.175-1.74-5.13c0.054-0.636,1.664-5.53,1.221-2.726C59.766,66.784,59.821,66.442,59.875,66.1&#xD;&#xA;&#x9;&#x9;&#x9;C59.528,68.295,59.875,66.1,59.875,66.1z"/>
    <linearGradient id="SVGID_27_" gradientUnits="userSpaceOnUse" x1="45.6528" y1="14.5479" x2="45.6528" y2="74.3452">
      <stop offset="0" style="stop-color:#EE3524;stop-opacity:0.1"/>
      <stop offset="0.0344" style="stop-color:#F2611C;stop-opacity:0.1311"/>
      <stop offset="0.0742" style="stop-color:#F68D13;stop-opacity:0.1672"/>
      <stop offset="0.1146" style="stop-color:#F9B10C;stop-opacity:0.2038"/>
      <stop offset="0.1549" style="stop-color:#FCCD07;stop-opacity:0.2403"/>
      <stop offset="0.1953" style="stop-color:#FEE103;stop-opacity:0.2768"/>
      <stop offset="0.2356" style="stop-color:#FFED01;stop-opacity:0.3134"/>
      <stop offset="0.2761" style="stop-color:#FFF100;stop-opacity:0.35"/>
      <stop offset="0.353" style="stop-color:#FFF105;stop-opacity:0.3234"/>
      <stop offset="0.4425" style="stop-color:#FFF213;stop-opacity:0.2925"/>
      <stop offset="0.5384" style="stop-color:#FFF32A;stop-opacity:0.2594"/>
      <stop offset="0.6388" style="stop-color:#FFF54B;stop-opacity:0.2248"/>
      <stop offset="0.7426" style="stop-color:#FFF775;stop-opacity:0.1889"/>
      <stop offset="0.8494" style="stop-color:#FFFAA9;stop-opacity:0.152"/>
      <stop offset="0.9566" style="stop-color:#FFFEE5;stop-opacity:0.115"/>
      <stop offset="1" style="stop-color:#FFFFFF;stop-opacity:0.1"/>
    </linearGradient>
    <path fill="url(#SVGID_27_)" d="M53.687,39.379c-0.031,4.592,1.364,13.8-3.832,16.34c-5.058,2.471-1.7-11.504-0.883-13.188&#xD;&#xA;&#x9;&#x9;&#x9;c1.185-2.441,0.672-4.497-0.205-6.896c-0.519-1.418-0.974-2.763-1.875-0.845c-1.633,3.475-2.605,7.729-3.09,11.53&#xD;&#xA;&#x9;&#x9;&#x9;c-0.203,1.599,0.089,3.729-0.983,5.089c-1.354,1.716-4.396-0.127-5.144,1.954c-0.852,2.374-0.425,3.806-2.101,5.96&#xD;&#xA;&#x9;&#x9;&#x9;c-1.007,1.294-0.852,1.955-0.475,3.441c0.276,1.092-1.218,1.736-1.302,2.823c-0.192,2.498,4.452,3.862,6.057,4.787&#xD;&#xA;&#x9;&#x9;&#x9;c0.752,0.434,1.835,2.167,2.695,1.957c1.247-0.304,1.402,1.63,2.436,1.912c4.216,1.147,2.115-7.719,1.293-7.694&#xD;&#xA;&#x9;&#x9;&#x9;c1.346-0.041,5.138,6.604,3.472,0.433c-1.323-4.903,0.189-7.747,2.504-12.071c0.889-1.66,0.955-4.251,2.313-5.527&#xD;&#xA;&#x9;&#x9;&#x9;c2.157-2.029,2.848-3.511,2.832-6.598c-0.032-6.562-0.231-13.07,0.111-19.606c0.093-1.754-1.861-1.771-2.771-2.94&#xD;&#xA;&#x9;&#x9;&#x9;c-1.09-1.399-0.055-3.605-0.658-5.193c-0.64-1.684-3.962,1.393-4.457,2.061c-1.061,1.428-1.725,3.403-1.624,5.188&#xD;&#xA;&#x9;&#x9;&#x9;c0.233,4.151,5.19,1.487,5.87,4.951c0.969,4.943-0.17,9.992-0.201,14.981C53.671,41.628,53.692,38.673,53.687,39.379&#xD;&#xA;&#x9;&#x9;&#x9;C53.659,43.604,53.703,37.06,53.687,39.379z"/>
    <linearGradient id="SVGID_28_" gradientUnits="userSpaceOnUse" x1="42.4419" y1="35.2192" x2="42.4419" y2="73.5713">
      <stop offset="0" style="stop-color:#EE3524;stop-opacity:0.1"/>
      <stop offset="0.0344" style="stop-color:#F2611C;stop-opacity:0.1311"/>
      <stop offset="0.0742" style="stop-color:#F68D13;stop-opacity:0.1672"/>
      <stop offset="0.1146" style="stop-color:#F9B10C;stop-opacity:0.2038"/>
      <stop offset="0.1549" style="stop-color:#FCCD07;stop-opacity:0.2403"/>
      <stop offset="0.1953" style="stop-color:#FEE103;stop-opacity:0.2768"/>
      <stop offset="0.2356" style="stop-color:#FFED01;stop-opacity:0.3134"/>
      <stop offset="0.2761" style="stop-color:#FFF100;stop-opacity:0.35"/>
      <stop offset="0.353" style="stop-color:#FFF105;stop-opacity:0.3234"/>
      <stop offset="0.4425" style="stop-color:#FFF213;stop-opacity:0.2925"/>
      <stop offset="0.5384" style="stop-color:#FFF32A;stop-opacity:0.2594"/>
      <stop offset="0.6388" style="stop-color:#FFF54B;stop-opacity:0.2248"/>
      <stop offset="0.7426" style="stop-color:#FFF775;stop-opacity:0.1889"/>
      <stop offset="0.8494" style="stop-color:#FFFAA9;stop-opacity:0.152"/>
      <stop offset="0.9566" style="stop-color:#FFFEE5;stop-opacity:0.115"/>
      <stop offset="1" style="stop-color:#FFFFFF;stop-opacity:0.1"/>
    </linearGradient>
    <path fill="url(#SVGID_28_)" d="M45.346,73.571c-1.617,0-4.695-3.746-6.377-4.645c-1.329-0.711-2.877-1.329-4.009-2.348&#xD;&#xA;&#x9;&#x9;&#x9;c-1.466-1.321,1.121-2.355,1.208-3.631c-0.233-0.594-0.489-1.177-0.768-1.751c0.044-1.179,1.671-2.072,2.139-3.121&#xD;&#xA;&#x9;&#x9;&#x9;c0.447-1.003,0.305-4.345,1.097-4.9c1.826-1.279,4.441,1.496,5.412-1.933c0.61-2.157-0.48-4.959,0.757-6.92&#xD;&#xA;&#x9;&#x9;&#x9;c2.404-2.009,1.977-6.377,2.916-9.103c1.207,2.934,1.807,5.02,0.42,8.012c-1.023,2.207-1.563,4.184-1.714,6.601&#xD;&#xA;&#x9;&#x9;&#x9;c-0.165,2.661-0.126,7.742,3.945,6.363c-2.435,3.703-2.698,8.256-1.161,12.358c-0.899-0.755-1.646-2.649-3.02-2.649&#xD;&#xA;&#x9;&#x9;&#x9;c-1.604,0-0.818,2.175-0.414,2.932C46.461,70.118,48.049,73.571,45.346,73.571C44.069,73.571,45.69,73.571,45.346,73.571z"/>
    <linearGradient id="SVGID_29_" gradientUnits="userSpaceOnUse" x1="52.8169" y1="15.396" x2="52.8169" y2="48.9839">
      <stop offset="0" style="stop-color:#EE3524;stop-opacity:0.1"/>
      <stop offset="0.0344" style="stop-color:#F2611C;stop-opacity:0.1311"/>
      <stop offset="0.0742" style="stop-color:#F68D13;stop-opacity:0.1672"/>
      <stop offset="0.1146" style="stop-color:#F9B10C;stop-opacity:0.2038"/>
      <stop offset="0.1549" style="stop-color:#FCCD07;stop-opacity:0.2403"/>
      <stop offset="0.1953" style="stop-color:#FEE103;stop-opacity:0.2768"/>
      <stop offset="0.2356" style="stop-color:#FFED01;stop-opacity:0.3134"/>
      <stop offset="0.2761" style="stop-color:#FFF100;stop-opacity:0.35"/>
      <stop offset="0.353" style="stop-color:#FFF105;stop-opacity:0.3234"/>
      <stop offset="0.4425" style="stop-color:#FFF213;stop-opacity:0.2925"/>
      <stop offset="0.5384" style="stop-color:#FFF32A;stop-opacity:0.2594"/>
      <stop offset="0.6388" style="stop-color:#FFF54B;stop-opacity:0.2248"/>
      <stop offset="0.7426" style="stop-color:#FFF775;stop-opacity:0.1889"/>
      <stop offset="0.8494" style="stop-color:#FFFAA9;stop-opacity:0.152"/>
      <stop offset="0.9566" style="stop-color:#FFFEE5;stop-opacity:0.115"/>
      <stop offset="1" style="stop-color:#FFFFFF;stop-opacity:0.1"/>
    </linearGradient>
    <path fill="url(#SVGID_29_)" d="M54.038,48.984c0.463-4.393,0.319-8.739,0.914-13.133c0.309-2.281,1.044-9.995-1.761-11.119&#xD;&#xA;&#x9;&#x9;&#x9;c-1.952-0.782-4.413,0.699-4.607-2.599c-0.152-2.591,1.957-6.567,4.857-6.737c-0.253,2.431-0.139,5.529,2.258,6.904&#xD;&#xA;&#x9;&#x9;&#x9;c1.622,0.931,0.742,4.853,0.746,6.834l0.003,2.063C56.448,36.75,58.879,44.698,54.038,48.984c-0.005-0.411,0.05-0.81,0.166-1.196&#xD;&#xA;&#x9;&#x9;&#x9;C54.218,48.047,54.245,48.8,54.038,48.984C54.441,45.156,54.191,48.848,54.038,48.984z"/>
    <linearGradient id="SVGID_30_" gradientUnits="userSpaceOnUse" x1="15.1724" y1="26.6909" x2="15.1724" y2="78.3135">
      <stop offset="0" style="stop-color:#EE3524;stop-opacity:0.1"/>
      <stop offset="0.0344" style="stop-color:#F2611C;stop-opacity:0.1311"/>
      <stop offset="0.0742" style="stop-color:#F68D13;stop-opacity:0.1672"/>
      <stop offset="0.1146" style="stop-color:#F9B10C;stop-opacity:0.2038"/>
      <stop offset="0.1549" style="stop-color:#FCCD07;stop-opacity:0.2403"/>
      <stop offset="0.1953" style="stop-color:#FEE103;stop-opacity:0.2768"/>
      <stop offset="0.2356" style="stop-color:#FFED01;stop-opacity:0.3134"/>
      <stop offset="0.2761" style="stop-color:#FFF100;stop-opacity:0.35"/>
      <stop offset="0.353" style="stop-color:#FFF105;stop-opacity:0.3234"/>
      <stop offset="0.4425" style="stop-color:#FFF213;stop-opacity:0.2925"/>
      <stop offset="0.5384" style="stop-color:#FFF32A;stop-opacity:0.2594"/>
      <stop offset="0.6388" style="stop-color:#FFF54B;stop-opacity:0.2248"/>
      <stop offset="0.7426" style="stop-color:#FFF775;stop-opacity:0.1889"/>
      <stop offset="0.8494" style="stop-color:#FFFAA9;stop-opacity:0.152"/>
      <stop offset="0.9566" style="stop-color:#FFFEE5;stop-opacity:0.115"/>
      <stop offset="1" style="stop-color:#FFFFFF;stop-opacity:0.1"/>
    </linearGradient>
    <path fill="url(#SVGID_30_)" d="M22.066,66.683c-2.899,0.483-3.654-2.007-5.362-3.625c-2.188-2.072-3.845-3.097-3.947-6.428&#xD;&#xA;&#x9;&#x9;&#x9;c-0.077-2.491,0.448-4.968,0.524-7.455c0.103-3.349-1.282-5.99-1.713-9.19c-0.656-4.888,3.799-8.155,6.312-11.732&#xD;&#xA;&#x9;&#x9;&#x9;c1.201-1.709,0.381-1.98-1.061-0.983c-2.084,1.442-4.121,4.112-5.128,6.414c-2.454-1.62-3.727,6.907-3.906,7.992&#xD;&#xA;&#x9;&#x9;&#x9;c-0.816,4.924-0.897,8.932,0.142,13.807c0.333,1.559,0.65,3.203,0.44,4.803c-0.123,0.934-1.861,2.411-1.302,3.241&#xD;&#xA;&#x9;&#x9;&#x9;c1.59,2.356-1.5,6.528-1.408,9.357c0.117,3.606,1.491-0.004,1.807-1.309c0.15-0.619,1.091-8.17,2.669-7.474&#xD;&#xA;&#x9;&#x9;&#x9;c1.426,0.629-0.169,5.968-0.02,7.241c0.242,2.074,0.527,4.569,1.6,6.401c1.321,2.256,1.458-2.851,2.057-3.434&#xD;&#xA;&#x9;&#x9;&#x9;c1.073-1.044,1.671-6.913,3.218-4.705c0.761,1.085,3.437,4.983,2.519,5.882c-0.876,0.856,1.572,0.745,1.799,0.718&#xD;&#xA;&#x9;&#x9;&#x9;c1.326-0.157,1.143-1.842,1.42-2.854c0.569-2.071,1.574-3.977,1.946-6.145c0.307-1.785-3.147-0.432-4.185-0.259&#xD;&#xA;&#x9;&#x9;&#x9;C20.788,66.896,22.631,66.588,22.066,66.683C19.934,67.038,23.566,66.433,22.066,66.683z"/>
    <linearGradient id="SVGID_31_" gradientUnits="userSpaceOnUse" x1="3.6978" y1="71.6411" x2="3.6978" y2="80.3662">
      <stop offset="0" style="stop-color:#EE3524;stop-opacity:0.1"/>
      <stop offset="0.0344" style="stop-color:#F2611C;stop-opacity:0.1311"/>
      <stop offset="0.0742" style="stop-color:#F68D13;stop-opacity:0.1672"/>
      <stop offset="0.1146" style="stop-color:#F9B10C;stop-opacity:0.2038"/>
      <stop offset="0.1549" style="stop-color:#FCCD07;stop-opacity:0.2403"/>
      <stop offset="0.1953" style="stop-color:#FEE103;stop-opacity:0.2768"/>
      <stop offset="0.2356" style="stop-color:#FFED01;stop-opacity:0.3134"/>
      <stop offset="0.2761" style="stop-color:#FFF100;stop-opacity:0.35"/>
      <stop offset="0.353" style="stop-color:#FFF105;stop-opacity:0.3234"/>
      <stop offset="0.4425" style="stop-color:#FFF213;stop-opacity:0.2925"/>
      <stop offset="0.5384" style="stop-color:#FFF32A;stop-opacity:0.2594"/>
      <stop offset="0.6388" style="stop-color:#FFF54B;stop-opacity:0.2248"/>
      <stop offset="0.7426" style="stop-color:#FFF775;stop-opacity:0.1889"/>
      <stop offset="0.8494" style="stop-color:#FFFAA9;stop-opacity:0.152"/>
      <stop offset="0.9566" style="stop-color:#FFFEE5;stop-opacity:0.115"/>
      <stop offset="1" style="stop-color:#FFFFFF;stop-opacity:0.1"/>
    </linearGradient>
    <path fill="url(#SVGID_31_)" d="M5.281,71.906C4.073,72.93,2.58,74.1,2.068,75.667c-0.508,1.555,1.874,3.73-0.264,4.7&#xD;&#xA;&#x9;&#x9;&#x9;c2.522-1.144,1.177-3.484,2.156-5.372c0.143-0.276,1.744-3.143,1.539-3.208c-0.271-0.086-0.76,0.579-0.988,0.772&#xD;&#xA;&#x9;&#x9;&#x9;C4.667,72.425,5.871,71.405,5.281,71.906C4.151,72.864,6.375,70.979,5.281,71.906z"/>
    <linearGradient id="SVGID_32_" gradientUnits="userSpaceOnUse" x1="69.6147" y1="47.2891" x2="69.6147" y2="71.3672">
      <stop offset="0" style="stop-color:#EE3524;stop-opacity:0.1"/>
      <stop offset="0.0344" style="stop-color:#F2611C;stop-opacity:0.1311"/>
      <stop offset="0.0742" style="stop-color:#F68D13;stop-opacity:0.1672"/>
      <stop offset="0.1146" style="stop-color:#F9B10C;stop-opacity:0.2038"/>
      <stop offset="0.1549" style="stop-color:#FCCD07;stop-opacity:0.2403"/>
      <stop offset="0.1953" style="stop-color:#FEE103;stop-opacity:0.2768"/>
      <stop offset="0.2356" style="stop-color:#FFED01;stop-opacity:0.3134"/>
      <stop offset="0.2761" style="stop-color:#FFF100;stop-opacity:0.35"/>
      <stop offset="0.353" style="stop-color:#FFF105;stop-opacity:0.3234"/>
      <stop offset="0.4425" style="stop-color:#FFF213;stop-opacity:0.2925"/>
      <stop offset="0.5384" style="stop-color:#FFF32A;stop-opacity:0.2594"/>
      <stop offset="0.6388" style="stop-color:#FFF54B;stop-opacity:0.2248"/>
      <stop offset="0.7426" style="stop-color:#FFF775;stop-opacity:0.1889"/>
      <stop offset="0.8494" style="stop-color:#FFFAA9;stop-opacity:0.152"/>
      <stop offset="0.9566" style="stop-color:#FFFEE5;stop-opacity:0.115"/>
      <stop offset="1" style="stop-color:#FFFFFF;stop-opacity:0.1"/>
    </linearGradient>
    <path fill="url(#SVGID_32_)" d="M73.115,61.289c0,2.462-0.243,4.906-1.375,7.125c-6.82-3.846-4.96-14.717-5.312-21.125&#xD;&#xA;&#x9;&#x9;&#x9;c-0.421,2.796-1.339,5.698-1.345,8.53c-0.005,2.452,0.777,4.845,1.153,7.252c0.375,2.396,1.444,3.704,3.652,4.668&#xD;&#xA;&#x9;&#x9;&#x9;c1.722,0.752,2.677,3.153,4.257,3.627c-1.374-0.412-0.692-3.121-0.296-3.997C74.726,65.424,73.099,63.258,73.115,61.289&#xD;&#xA;&#x9;&#x9;&#x9;c0-1.282,0,2.114,0,1.078C73.115,62.008,73.115,61.648,73.115,61.289C73.115,63.751,73.115,61.289,73.115,61.289z"/>
  </g>
  <linearGradient id="SVGID_33_" gradientUnits="userSpaceOnUse" x1="43.7378" y1="0" x2="43.7378" y2="88.7539">
    <stop offset="0" style="stop-color:#EEFF36;stop-opacity:0.33"/>
    <stop offset="0.0779" style="stop-color:#F2FC2A;stop-opacity:0.2726"/>
    <stop offset="0.315" style="stop-color:#FBF40C;stop-opacity:0.0979"/>
    <stop offset="0.4479" style="stop-color:#FFF100;stop-opacity:0"/>
    <stop offset="1" style="stop-color:#FFF100;stop-opacity:0.11"/>
  </linearGradient>
  <path fill="url(#SVGID_33_)" d="M85.851,76.801c-3.399-1.986-2.007-8.611-6.55-9.081c-2.416-0.25-2.875-4.071-2.835-5.981&#xD;&#xA;&#x9;&#x9;c0.05-2.368,0.422-5.988,1.135-8.239c-1.05,2.251-3.842,4.377-6.25,2.625c1.375,3.351,1.063,7.352,0,10.75&#xD;&#xA;&#x9;&#x9;c-0.226-1.81-2.521-2.975-3.28-4.549c-1.469-3.044-1.615-6.333-1.563-9.65c0.118-7.316-0.103-14.71-1.407-21.926&#xD;&#xA;&#x9;&#x9;c0.038,2.55,0.571,5.221-0.167,7.722c-0.881,2.987-4.585,1.952-6.333,4.528c-1.532-1.811-0.901-4.745-0.755-6.884&#xD;&#xA;&#x9;&#x9;c0.229-3.329,0.206-6.681-0.245-9.991c-0.218-1.597,1.034-3.488,1.407-5.008c0.652-2.653-4.032-1.048-4.429-2.371&#xD;&#xA;&#x9;&#x9;C53.632,15.589,58.195,0.003,52.726,0c0.27,3.783-1.019,7.507-2.698,10.839c-1.5,2.977-4.903,5.508-5.496,8.859&#xD;&#xA;&#x9;&#x9;c-0.491,2.777,1.985,4.744,3.561,6.643c2.41,2.906,2.642,6.727,1.759,10.284c-1.124-3.069-1.626-6.768-2.973-9.679&#xD;&#xA;&#x9;&#x9;c-0.477-1.028-1.691-1.516-2.252-0.192c-0.482,1.139,0.083,2.56,0.421,3.652c0.711,2.306,0.682,9.053-1.952,9.403&#xD;&#xA;&#x9;&#x9;c-1.521,0.202-0.763,4.068-0.596,4.96c0.248,1.329-4.745,0.512-5.816,1.002c-2.228,1.02-0.7,4.497,0.047,5.965&#xD;&#xA;&#x9;&#x9;c1.922,3.775-1.744,4.537-2.754,7.889c-3.783-6.414-4.72-17.601,2.5-21.75c-1.553-0.091-3.099,0.783-4.25,1.75&#xD;&#xA;&#x9;&#x9;c0.879-1.255-0.398-2.371-1.408-2.955c-1.85-1.07-2.844-0.237-2.679-2.6c0.342-4.918-1.092-9.694-1.413-14.57&#xD;&#xA;&#x9;&#x9;c-1.222,2.966,0.321,6.218,0.013,9.307c-0.208,2.07-0.674,4.11-0.763,6.193c-1.124,0.112-2.075,1.116-2.748,1.928&#xD;&#xA;&#x9;&#x9;c-4.256,5.133-0.849,9.552,0.509,15.058c0.481,1.953,1.934,7.171-0.248,8.55c-0.994,0.629-4.064-1.419-4.337-0.413&#xD;&#xA;&#x9;&#x9;c-0.368,1.36,1.864,3.478,2.824,4.126c-0.315,0.276-0.632,0.681-1,0.875c-3.251-2.263-6.729-5.413-7.168-9.592&#xD;&#xA;&#x9;&#x9;c-0.404-3.846,0.941-7.462-0.13-11.28c-0.781-2.786-1.577-5.229,0.702-7.433c1.396-1.352,5.035-4.676,1.721-6.07&#xD;&#xA;&#x9;&#x9;c1.23-1.072,2.368-2.417,3.172-3.835c0.633-1.117,0.435-5.031-1.694-3.201c-1.376,1.182-0.604,3.639-2.083,5.054&#xD;&#xA;&#x9;&#x9;c-1.866,1.785-4.125,0.753-6.02,2.482c0.942,1.884-0.377,4.604-1.036,6.374c-1.18,3.165-1.981,6.584-2.266,9.951&#xD;&#xA;&#x9;&#x9;c-0.353,4.178,4.18,12.868,0.052,15.8c2.819-0.497,0.344,5.731-0.04,6.74c-1.016,2.67-4.38,3.543-5.693,6.174&#xD;&#xA;&#x9;&#x9;c-0.737,1.477,1.497,0.822,1.065,2.037c-0.124,0.349-2.48,4.986-1.156,4.701c4.348-0.938,3.095-6.957,4.78-9.526&#xD;&#xA;&#x9;&#x9;c-0.134,1.043,1.299,4.537,2.859,3.672c1.139-0.631,1.023-6.008,1.685-7.422c0.131,4.061,1.865,11,7,10&#xD;&#xA;&#x9;&#x9;c-5.424-2.522,4.113-3.109,6-2.949c-0.909-1.381,1.155-4.845,1.819-6.04c1.18-2.125,3.152,1.17,3.854,2.198&#xD;&#xA;&#x9;&#x9;c1.641,2.405,3.327,3.257,6.019,4.409c3.146,1.345,2.934,2.683-0.317,3.132c1.366,0,2.447,1.881,3.884,1.264&#xD;&#xA;&#x9;&#x9;c2.004-0.862,1.261-3.097,0.032-4.168c-2.008-1.751-5.812-2.097-7.048-4.737c-0.902-1.925,4.104-0.526,4.62-0.358&#xD;&#xA;&#x9;&#x9;c1.058-1.417,3.203-2.914,4.78-1.286c2.15,2.218,0.143,3.545-0.672,5.43c-0.854,1.98,0.754,4.116,2.153,5.356&#xD;&#xA;&#x9;&#x9;c-0.269-2.967,2.605-7.204,5.908-5.333c-0.858-0.745,0.022-2.593,0.856-2.977c1.083-0.499,4.584,1.81,5.542,2.405&#xD;&#xA;&#x9;&#x9;c0.745,0.462,3.71,2.861,3.999,0.63c0.313-2.42,2.758-1.097,2.528,0.932c-0.485,4.28,3.241,4.562,5.348,7.469&#xD;&#xA;&#x9;&#x9;c0.76,1.048,4.272,6.251,3.829,1.95c-0.355-3.449-2.398-5.165-4.4-7.557c-2.335-2.79-4.206-5.749-4.11-9.65&#xD;&#xA;&#x9;&#x9;c0.089-3.628,5.575-0.471,7.384-0.607c1.895-0.143,3.365-1.172,4.241,1.238c0.328,0.904,1.041,3.515,2.191,3.693&#xD;&#xA;&#x9;&#x9;c-1.741-0.271-0.662-7.394,3.989-6.084c2.618,0.737,2.312,2.971,2.677,5.205c0.49,2.994,3.604,4.331,5.643,6.186&#xD;&#xA;&#x9;&#x9;c-0.078-1.371-0.908-2.281-2.052-2.948C85.624,76.667,86.925,77.428,85.851,76.801C83.753,75.575,87.476,77.75,85.851,76.801z&#xD;&#xA;&#x9;&#x9; M15.351,75.5c-2.855,0.13,1.173-5.121,1.145-5.151c0.723,0.754-0.846,1.923,0.646,2.845c0.187,0.115,2.386,0.727,1.646,1.365&#xD;&#xA;&#x9;&#x9;c-1.019,0.881-2.947,0.918-4.229,0.977c0.528-0.024,1.056-0.048,1.584-0.072C15.879,75.476,15.615,75.488,15.351,75.5&#xD;&#xA;&#x9;&#x9;C12.496,75.63,18.101,75.375,15.351,75.5z M48.976,50.875c-2.134-3.023,0.205-6.256,1.249-9.186&#xD;&#xA;&#x9;&#x9;c1.155-3.24,1.747-6.655,2.126-10.064c1.855,4.555,0.609,10.413-0.173,15.108c-0.349,2.09-1.271,6.878-3.634,3.53&#xD;&#xA;&#x9;&#x9;c0.288,0.408,0.575,0.816,0.863,1.224C49.264,51.283,49.12,51.079,48.976,50.875C47.045,48.14,50.476,53,48.976,50.875z&#xD;&#xA;&#x9;&#x9; M54.226,59.375c-1.375,1.25-3.646,5.5-3.646,5.5c-1.146-4.125,2.51-11.25,2.51-11.25c-0.086,0.629,0.313,4.838,1.349,4.521&#xD;&#xA;&#x9;&#x9;c2.954-0.907,1.895-7.6,2.038-9.646c0,0,0.032,0.406,0.067,0.996c0.352,2.148,2.479,4.379,1.24,6.598&#xD;&#xA;&#x9;&#x9;c-0.866,1.55-2.639,2.446-3.918,3.609C54.033,59.55,55.135,58.549,54.226,59.375C52.851,60.625,55.601,58.125,54.226,59.375z"/>
</svg>