<svg version="1.2" baseProfile="tiny" id="EdgeSVG_XF9iZ" x="0px" y="0px" width="101.44px" height="58.583px" viewBox="0 0 101.44 58.583" xmlns:xlink="http://www.w3.org/1999/xlink" xmlns="http://www.w3.org/2000/svg">
  <linearGradient id="SVGID_1_" gradientUnits="userSpaceOnUse" x1="0" y1="29.2915" x2="101.4399" y2="29.2915">
    <stop offset="0" style="stop-color:#000000;stop-opacity:0.5"/>
    <stop offset="1" style="stop-color:#000000;stop-opacity:0.5"/>
  </linearGradient>
  <path fill="url(#SVGID_1_)" d="M2.72,58.583c-1.5,0-2.72-1.22-2.72-2.72V2.72C0,1.22,1.22,0,2.72,0h96c1.5,0,2.72,1.22,2.72,2.72&#xD;&#xA;&#x9;v53.143c0,1.5-1.22,2.72-2.72,2.72H2.72z"/>
  <g>
    <path fill="#B2D6F1" d="M2.72,57.363c-0.827,0-1.5-0.673-1.5-1.5V2.72c0-0.827,0.673-1.5,1.5-1.5h96c0.827,0,1.5,0.673,1.5,1.5&#xD;&#xA;&#x9;&#x9;v53.143c0,0.827-0.673,1.5-1.5,1.5H2.72z"/>
    <path fill="#B2D6F1" d="M98.72,1.72c0.552,0,1,0.449,1,1v53.143c0,0.551-0.448,1-1,1h-96c-0.551,0-1-0.449-1-1V2.72&#xD;&#xA;&#x9;&#x9;c0-0.551,0.449-1,1-1H98.72 M98.72,0.72h-96c-1.1,0-2,0.9-2,2v53.143c0,1.1,0.9,2,2,2h96c1.1,0,2-0.9,2-2V2.72&#xD;&#xA;&#x9;&#x9;C100.72,1.62,99.82,0.72,98.72,0.72L98.72,0.72z"/>
  </g>
  <rect x="0.72" y="19.711" fill="#FFFFFF" width="100" height="19.076"/>
  <path fill="#FFCE46" d="M47.597,25.486c0.364,0.374,0.55,0.6,0.638,0.871c0.124,0.382,0.417,0.291,0.538,0.21&#xD;&#xA;&#x9;c0.177-0.119,0.196-0.269,0.121-0.439c0.182,0.309,0.383,0.165,0.443,0.14c0.07-0.028,0.39-0.074,0.141-0.601&#xD;&#xA;&#x9;c-0.482-1.021-0.79-1.59-1.155-2.406c-0.197-0.441-0.372-0.771-0.534-0.705s-0.051,0.423,0.124,0.874&#xD;&#xA;&#x9;c0.322,0.832,0.51,1.451,0.896,2.512c0.014,0.038,0.028,0.063,0.042,0.095c-0.124-0.202-0.365-0.429-0.651-0.67&#xD;&#xA;&#x9;c-0.38-0.32-0.515-0.722-0.674-1.194c-0.158-0.473-0.792-1.131-1-0.941c-0.11,0.101,0.097,0.339,0.418,0.766&#xD;&#xA;&#x9;C47.34,24.523,47.032,24.908,47.597,25.486z"/>
  <path fill="#FFCE46" d="M44.265,28.095c0.654,0.093,0.71,0.582,1.521,0.594c0.523,0.008,0.816,0.037,1.072,0.167&#xD;&#xA;&#x9;c0.36,0.183,0.503-0.087,0.53-0.229c0.093-0.482-0.498-0.507-1.259-0.445c-0.497,0.041-0.879-0.148-1.328-0.372&#xD;&#xA;&#x9;c-0.449-0.223-1.365-0.243-1.377,0.037C43.417,27.996,43.734,28.02,44.265,28.095z"/>
  <path fill="#FFCE46" d="M47.666,26.87c0.395,0.43,0.56,0.154,0.614,0.1c0.053-0.053,0.332-0.217-0.101-0.609&#xD;&#xA;&#x9;c-0.84-0.76-1.343-1.169-1.995-1.783c-0.352-0.333-0.642-0.571-0.766-0.448c-0.123,0.124,0.116,0.411,0.451,0.761&#xD;&#xA;&#x9;C46.488,25.536,46.901,26.037,47.666,26.87z"/>
  <path fill="#FFCE46" d="M50.584,26.022c0.076,0,0.39,0.08,0.363-0.502c-0.053-1.126-0.118-1.77-0.141-2.661&#xD;&#xA;&#x9;c-0.012-0.483-0.046-0.854-0.222-0.854c-0.176,0-0.21,0.372-0.223,0.854c-0.022,0.892-0.088,1.535-0.14,2.661&#xD;&#xA;&#x9;C50.194,26.102,50.508,26.022,50.584,26.022z"/>
  <path fill="#FFCE46" d="M44.545,27.013c0.82,0.362,1.395,0.668,2.422,1.147c0.53,0.248,0.576-0.071,0.605-0.141&#xD;&#xA;&#x9;c0.026-0.061,0.171-0.261-0.144-0.441c0.172,0.076,0.325,0.058,0.445-0.119c0.081-0.12,0.173-0.411-0.212-0.534&#xD;&#xA;&#x9;c-0.272-0.087-0.5-0.272-0.876-0.635c-0.582-0.56-0.97-0.253-1.499-0.647c-0.429-0.319-0.669-0.525-0.771-0.416&#xD;&#xA;&#x9;c-0.191,0.207,0.472,0.836,0.947,0.994c0.476,0.158,0.881,0.292,1.204,0.67c0.243,0.285,0.473,0.525,0.677,0.648&#xD;&#xA;&#x9;c-0.032-0.015-0.06-0.029-0.099-0.043c-1.067-0.383-1.691-0.57-2.529-0.89c-0.453-0.173-0.813-0.284-0.88-0.123&#xD;&#xA;&#x9;C43.768,26.644,44.101,26.817,44.545,27.013z"/>
  <path fill="#FFCE46" d="M49.499,24.833c-0.062,0.755-0.037,1.343,0.449,1.25c0.143-0.027,0.415-0.169,0.231-0.527&#xD;&#xA;&#x9;c-0.131-0.254-0.16-0.544-0.168-1.064c-0.012-0.805-0.505-0.86-0.598-1.51c-0.076-0.528-0.1-0.842-0.249-0.835&#xD;&#xA;&#x9;c-0.283,0.011-0.263,0.921-0.038,1.368C49.35,23.96,49.54,24.34,49.499,24.833z"/>
  <path fill="#FFCE46" d="M53.506,26.926c-0.385,0.124-0.294,0.415-0.212,0.534c0.12,0.176,0.271,0.195,0.442,0.12&#xD;&#xA;&#x9;c-0.313,0.18-0.167,0.379-0.142,0.44c0.029,0.069,0.075,0.388,0.605,0.141c1.027-0.479,1.602-0.785,2.422-1.147&#xD;&#xA;&#x9;c0.445-0.196,0.776-0.37,0.71-0.531c-0.067-0.161-0.427-0.05-0.88,0.123c-0.839,0.32-1.461,0.507-2.53,0.891&#xD;&#xA;&#x9;c-0.038,0.014-0.064,0.028-0.096,0.042c0.203-0.123,0.432-0.362,0.675-0.646c0.322-0.378,0.728-0.512,1.203-0.67&#xD;&#xA;&#x9;c0.477-0.158,1.139-0.787,0.948-0.994c-0.102-0.109-0.343,0.096-0.771,0.416c-0.53,0.394-0.917,0.087-1.498,0.647&#xD;&#xA;&#x9;C54.007,26.653,53.779,26.838,53.506,26.926z"/>
  <ellipse fill="#FFCE46" cx="50.584" cy="29.249" rx="2.951" ry="2.931"/>
  <path fill="#FFCE46" d="M56.368,27.81c-0.449,0.223-0.831,0.412-1.327,0.372c-0.761-0.062-1.353-0.037-1.261,0.445&#xD;&#xA;&#x9;c0.028,0.143,0.171,0.412,0.531,0.229c0.255-0.13,0.548-0.16,1.072-0.167c0.81-0.012,0.866-0.501,1.521-0.594&#xD;&#xA;&#x9;c0.531-0.075,0.848-0.099,0.841-0.248C57.733,27.567,56.816,27.587,56.368,27.81z"/>
  <path fill="#FFCE46" d="M51.831,26.268c0.061,0.025,0.262,0.169,0.443-0.141c-0.075,0.17-0.056,0.32,0.121,0.44&#xD;&#xA;&#x9;c0.12,0.081,0.414,0.172,0.538-0.21c0.088-0.271,0.274-0.498,0.639-0.871c0.564-0.578,0.256-0.962,0.652-1.488&#xD;&#xA;&#x9;c0.322-0.427,0.529-0.666,0.418-0.766c-0.208-0.19-0.842,0.468-1,0.941c-0.158,0.472-0.294,0.874-0.675,1.194&#xD;&#xA;&#x9;c-0.286,0.241-0.526,0.468-0.65,0.67c0.015-0.031,0.029-0.058,0.043-0.096c0.384-1.06,0.573-1.679,0.895-2.511&#xD;&#xA;&#x9;c0.176-0.451,0.287-0.808,0.125-0.874c-0.163-0.067-0.338,0.263-0.534,0.705c-0.365,0.815-0.674,1.385-1.156,2.406&#xD;&#xA;&#x9;C51.44,26.194,51.761,26.239,51.831,26.268z"/>
  <path fill="#FFCE46" d="M52.889,26.97c0.054,0.054,0.219,0.33,0.612-0.1c0.766-0.833,1.178-1.334,1.796-1.98&#xD;&#xA;&#x9;c0.336-0.35,0.576-0.637,0.451-0.761c-0.123-0.123-0.413,0.116-0.766,0.448c-0.65,0.614-1.153,1.023-1.993,1.783&#xD;&#xA;&#x9;C52.555,26.753,52.835,26.917,52.889,26.97z"/>
  <path fill="#FFCE46" d="M51.22,26.084c0.486,0.092,0.511-0.496,0.449-1.25c-0.042-0.494,0.149-0.873,0.374-1.319&#xD;&#xA;&#x9;s0.245-1.356-0.038-1.367c-0.149-0.007-0.174,0.308-0.249,0.835c-0.093,0.65-0.586,0.706-0.598,1.51&#xD;&#xA;&#x9;c-0.008,0.52-0.037,0.811-0.168,1.064C50.805,25.915,51.077,26.057,51.22,26.084z"/>
  <path fill="#FFCE46" d="M44.8,30.707c0.449-0.223,0.831-0.412,1.328-0.372c0.761,0.063,1.352,0.038,1.259-0.445&#xD;&#xA;&#x9;c-0.027-0.142-0.17-0.412-0.53-0.229c-0.255,0.129-0.548,0.159-1.072,0.167c-0.81,0.013-0.867,0.501-1.521,0.594&#xD;&#xA;&#x9;c-0.531,0.075-0.848,0.099-0.842,0.248C43.436,30.951,44.352,30.93,44.8,30.707z"/>
  <path fill="#FFCE46" d="M46.819,29.619c0.586,0.027,0.505-0.285,0.505-0.36c0-0.076,0.081-0.387-0.505-0.36&#xD;&#xA;&#x9;c-1.134,0.052-1.782,0.116-2.679,0.139c-0.486,0.012-0.861,0.046-0.861,0.221c0,0.174,0.375,0.208,0.861,0.221&#xD;&#xA;&#x9;C45.038,29.502,45.685,29.566,46.819,29.619z"/>
  <path fill="#FFCE46" d="M53.501,31.647c-0.394-0.43-0.559-0.153-0.612-0.099c-0.054,0.053-0.334,0.217,0.101,0.609&#xD;&#xA;&#x9;c0.84,0.759,1.343,1.169,1.993,1.783c0.353,0.333,0.643,0.571,0.766,0.448c0.125-0.123-0.115-0.411-0.451-0.76&#xD;&#xA;&#x9;C54.679,32.98,54.267,32.481,53.501,31.647z"/>
  <path fill="#FFCE46" d="M51.669,33.684c0.062-0.755,0.037-1.343-0.449-1.25c-0.143,0.027-0.415,0.169-0.231,0.526&#xD;&#xA;&#x9;c0.131,0.253,0.16,0.544,0.168,1.064c0.012,0.804,0.505,0.86,0.598,1.51c0.075,0.528,0.1,0.842,0.249,0.836&#xD;&#xA;&#x9;c0.283-0.012,0.263-0.922,0.038-1.368C51.818,34.557,51.627,34.177,51.669,33.684z"/>
  <path fill="#FFCE46" d="M53.572,33.031c-0.364-0.373-0.551-0.6-0.639-0.871c-0.124-0.382-0.418-0.292-0.538-0.21&#xD;&#xA;&#x9;c-0.177,0.119-0.196,0.27-0.121,0.439c-0.182-0.309-0.383-0.165-0.443-0.14c-0.069,0.029-0.39,0.074-0.141,0.601&#xD;&#xA;&#x9;c0.482,1.021,0.791,1.59,1.156,2.405c0.196,0.441,0.371,0.772,0.534,0.705c0.162-0.066,0.051-0.423-0.123-0.874&#xD;&#xA;&#x9;c-0.323-0.833-0.513-1.452-0.896-2.512c-0.014-0.038-0.028-0.064-0.042-0.095c0.123,0.201,0.364,0.428,0.649,0.669&#xD;&#xA;&#x9;c0.381,0.32,0.517,0.722,0.675,1.195c0.158,0.473,0.792,1.131,1,0.941c0.111-0.101-0.097-0.34-0.418-0.767&#xD;&#xA;&#x9;C53.828,33.994,54.136,33.609,53.572,33.031z"/>
  <path fill="#FFCE46" d="M57.029,29.038c-0.898-0.023-1.546-0.087-2.681-0.139c-0.586-0.027-0.504,0.285-0.504,0.36&#xD;&#xA;&#x9;c0,0.075-0.082,0.387,0.504,0.36c1.135-0.052,1.782-0.117,2.681-0.139c0.485-0.012,0.859-0.047,0.859-0.221&#xD;&#xA;&#x9;C57.888,29.084,57.514,29.05,57.029,29.038z"/>
  <path fill="#FFCE46" d="M56.904,30.422c-0.654-0.093-0.711-0.582-1.521-0.594c-0.524-0.008-0.817-0.038-1.072-0.167&#xD;&#xA;&#x9;c-0.36-0.183-0.503,0.087-0.531,0.229c-0.092,0.483,0.5,0.508,1.261,0.445c0.496-0.04,0.878,0.149,1.327,0.372&#xD;&#xA;&#x9;c0.448,0.223,1.365,0.244,1.377-0.037C57.751,30.521,57.435,30.497,56.904,30.422z"/>
  <path fill="#FFCE46" d="M56.623,31.503c-0.82-0.362-1.395-0.667-2.422-1.147c-0.53-0.248-0.576,0.071-0.605,0.141&#xD;&#xA;&#x9;c-0.025,0.06-0.17,0.258,0.141,0.439c-0.171-0.074-0.322-0.055-0.441,0.121c-0.082,0.121-0.173,0.411,0.212,0.534&#xD;&#xA;&#x9;c0.272,0.088,0.501,0.272,0.877,0.635c0.581,0.56,0.968,0.254,1.498,0.647c0.429,0.32,0.67,0.525,0.771,0.416&#xD;&#xA;&#x9;c0.19-0.207-0.472-0.836-0.948-0.993c-0.476-0.157-0.881-0.292-1.203-0.669c-0.242-0.284-0.471-0.523-0.673-0.646&#xD;&#xA;&#x9;c0.03,0.014,0.057,0.028,0.094,0.042c1.069,0.382,1.691,0.569,2.53,0.89c0.453,0.174,0.813,0.284,0.88,0.123&#xD;&#xA;&#x9;C57.399,31.874,57.068,31.7,56.623,31.503z"/>
  <path fill="#FFCE46" d="M47.662,31.591c0.385-0.123,0.293-0.414,0.212-0.534c-0.12-0.176-0.271-0.195-0.443-0.12&#xD;&#xA;&#x9;c0.313-0.181,0.167-0.38,0.142-0.44c-0.029-0.07-0.075-0.388-0.605-0.141c-1.028,0.479-1.602,0.785-2.422,1.147&#xD;&#xA;&#x9;c-0.444,0.196-0.777,0.371-0.71,0.531c0.067,0.162,0.427,0.051,0.88-0.123c0.838-0.32,1.462-0.507,2.529-0.89&#xD;&#xA;&#x9;c0.039-0.014,0.065-0.028,0.097-0.042c-0.203,0.123-0.432,0.362-0.674,0.647c-0.323,0.377-0.728,0.512-1.204,0.669&#xD;&#xA;&#x9;c-0.476,0.157-1.139,0.787-0.947,0.993c0.102,0.109,0.342-0.096,0.771-0.416c0.529-0.394,0.917-0.087,1.499-0.647&#xD;&#xA;&#x9;C47.161,31.863,47.389,31.679,47.662,31.591z"/>
  <path fill="#FFCE46" d="M48.28,31.548c-0.054-0.054-0.22-0.331-0.614,0.099c-0.765,0.834-1.177,1.333-1.796,1.981&#xD;&#xA;&#x9;c-0.335,0.35-0.574,0.637-0.451,0.76c0.124,0.123,0.414-0.115,0.766-0.448c0.651-0.614,1.155-1.024,1.995-1.783&#xD;&#xA;&#x9;C48.612,31.765,48.333,31.601,48.28,31.548z"/>
  <path fill="#FFCE46" d="M50.584,32.496c-0.076,0-0.39-0.081-0.362,0.501c0.052,1.126,0.117,1.77,0.14,2.662&#xD;&#xA;&#x9;c0.012,0.483,0.046,0.854,0.223,0.854c0.176,0,0.21-0.372,0.222-0.854c0.023-0.892,0.088-1.535,0.141-2.662&#xD;&#xA;&#x9;C50.974,32.415,50.66,32.496,50.584,32.496z"/>
  <path fill="#FFCE46" d="M49.948,32.434c-0.485-0.093-0.51,0.495-0.449,1.25c0.041,0.493-0.149,0.873-0.374,1.318&#xD;&#xA;&#x9;c-0.225,0.445-0.245,1.356,0.038,1.368c0.149,0.006,0.173-0.308,0.249-0.836c0.093-0.649,0.585-0.706,0.598-1.51&#xD;&#xA;&#x9;c0.008-0.52,0.038-0.811,0.168-1.064C50.363,32.603,50.091,32.46,49.948,32.434z"/>
  <path fill="#FFCE46" d="M49.337,32.249c-0.06-0.025-0.261-0.169-0.443,0.141c0.076-0.17,0.057-0.321-0.121-0.44&#xD;&#xA;&#x9;c-0.121-0.081-0.414-0.171-0.538,0.21c-0.088,0.271-0.274,0.498-0.638,0.871c-0.564,0.577-0.256,0.963-0.653,1.487&#xD;&#xA;&#x9;c-0.321,0.427-0.529,0.666-0.418,0.767c0.208,0.19,0.842-0.468,1-0.941c0.159-0.473,0.294-0.875,0.674-1.195&#xD;&#xA;&#x9;c0.287-0.241,0.528-0.468,0.652-0.67c-0.015,0.031-0.029,0.058-0.043,0.096c-0.385,1.061-0.573,1.679-0.896,2.512&#xD;&#xA;&#x9;c-0.175,0.451-0.286,0.807-0.124,0.874c0.162,0.067,0.337-0.264,0.534-0.705c0.366-0.815,0.673-1.384,1.155-2.405&#xD;&#xA;&#x9;C49.728,32.323,49.407,32.278,49.337,32.249z"/>
  <path d="M50.584,30.598c-0.113-0.142-0.375-0.093-0.536-0.006c-0.162,0.086-0.386,0.025-0.505,0.099&#xD;&#xA;&#x9;c0.069-0.019,0.343,0.13,0.537,0.062c0.193-0.068,0.174,0.05,0.504,0.05s0.312-0.118,0.504-0.05&#xD;&#xA;&#x9;c0.193,0.068,0.468-0.081,0.536-0.062c-0.119-0.074-0.343-0.012-0.504-0.099C50.958,30.505,50.696,30.456,50.584,30.598z"/>
  <path d="M51.007,30.991c-0.121,0.046-0.265-0.056-0.424-0.056c-0.159,0-0.302,0.102-0.423,0.056c-0.058-0.022-0.097-0.099-0.1-0.022&#xD;&#xA;&#x9;c-0.003,0.078,0.131,0.26,0.523,0.26c0.392,0,0.527-0.183,0.523-0.26C51.105,30.892,51.066,30.969,51.007,30.991z"/>
  <path d="M50.92,29.928c-0.065-0.006-0.165,0.025-0.206,0.068c-0.034,0.035-0.074,0.053-0.13,0.053s-0.097-0.018-0.13-0.053&#xD;&#xA;&#x9;c-0.042-0.043-0.141-0.075-0.207-0.068c-0.064,0.006-0.147,0-0.175-0.059c-0.04-0.083-0.018-0.218,0.061-0.257&#xD;&#xA;&#x9;c-0.133,0.065-0.129,0.189-0.104,0.27c0.018,0.056,0.059,0.104,0.16,0.099c0.09-0.004,0.166-0.009,0.207,0.037&#xD;&#xA;&#x9;c0.034,0.037,0.108,0.089,0.188,0.089c0.081,0,0.154-0.052,0.188-0.089c0.042-0.046,0.118-0.042,0.208-0.037&#xD;&#xA;&#x9;c0.1,0.004,0.142-0.043,0.159-0.099c0.025-0.08,0.028-0.204-0.104-0.27c0.079,0.039,0.101,0.174,0.061,0.257&#xD;&#xA;&#x9;C51.068,29.929,50.986,29.935,50.92,29.928z"/>
  <path d="M49.461,28.439c0.055,0.116-0.049,0.187-0.202,0.124c0.021,0.121,0.128,0.223,0.286,0.223c0.11,0,0.286-0.032,0.354-0.26&#xD;&#xA;&#x9;c0.165,0.037,0.323,0.064,0.387,0.064c0.094,0,0.125-0.019,0.032-0.074c-0.093-0.056-0.294-0.155-0.717-0.179&#xD;&#xA;&#x9;c-0.424-0.025-0.681,0.063-0.947,0.204c-0.047,0.025,0.007,0.028,0.028,0.019C48.948,28.448,49.236,28.422,49.461,28.439z"/>
  <path d="M51.681,28.439c0.055,0.116-0.049,0.187-0.201,0.124c0.021,0.121,0.128,0.223,0.286,0.223c0.11,0,0.286-0.032,0.354-0.26&#xD;&#xA;&#x9;c0.165,0.037,0.322,0.064,0.387,0.064c0.094,0,0.126-0.019,0.032-0.074s-0.294-0.155-0.717-0.179&#xD;&#xA;&#x9;c-0.424-0.025-0.682,0.063-0.947,0.204c-0.047,0.025,0.007,0.028,0.028,0.019C51.167,28.448,51.457,28.422,51.681,28.439z"/>
  <path d="M49.991,28.561c-0.074,0.188-0.264,0.337-0.47,0.337c-0.314,0-0.542-0.167-0.58-0.408c0.007,0.257,0.268,0.464,0.582,0.464&#xD;&#xA;&#x9;C49.73,28.953,49.945,28.746,49.991,28.561z"/>
  <path d="M49.061,27.96c0.374-0.056,0.911-0.009,1.14,0.136c0.069,0.044,0.115,0.062,0.181,0.062c0.066,0,0.131-0.031,0-0.105&#xD;&#xA;&#x9;c-0.436-0.247-1.052-0.333-1.483-0.247c-0.125,0.025-0.246,0.066-0.13,0.154C48.852,28.025,48.904,27.983,49.061,27.96z"/>
  <path d="M49.876,27.53c0.083,0.062,0.31,0.127,0.421,0.067c0.11-0.061,0.206-0.099,0.287-0.105c0.081-0.005,0.176,0.044,0.287,0.105&#xD;&#xA;&#x9;c0.11,0.061,0.338-0.005,0.421-0.067s0.269-0.142,0.613,0.028c-0.329-0.236-0.548-0.136-0.636-0.081&#xD;&#xA;&#x9;c-0.087,0.056-0.293,0.118-0.398,0.05s-0.206-0.124-0.287-0.124c-0.082,0-0.181,0.056-0.287,0.124&#xD;&#xA;&#x9;c-0.106,0.068-0.312,0.006-0.399-0.05c-0.087-0.055-0.306-0.155-0.636,0.081C49.608,27.388,49.793,27.468,49.876,27.53z"/>
  <path d="M50.191,27.097c0.103,0.037,0.292,0.074,0.393,0.074c0.1,0,0.291-0.037,0.392-0.074c0.104-0.038,0.355-0.068,0.543,0.086&#xD;&#xA;&#x9;c-0.328-0.291-0.523-0.068-0.935-0.068c-0.411,0-0.608-0.223-0.935,0.068C49.836,27.029,50.088,27.059,50.191,27.097z"/>
  <path d="M51.671,28.897c-0.206,0-0.396-0.148-0.471-0.337c0.047,0.186,0.262,0.393,0.468,0.393c0.314,0,0.576-0.207,0.583-0.464&#xD;&#xA;&#x9;C52.213,28.73,51.986,28.897,51.671,28.897z"/>
  <path d="M50.812,28.158c0.064,0,0.111-0.018,0.18-0.062c0.229-0.145,0.767-0.192,1.141-0.136c0.156,0.023,0.209,0.065,0.293,0&#xD;&#xA;&#x9;c0.114-0.088-0.007-0.129-0.131-0.154c-0.431-0.085-1.047,0-1.482,0.247C50.681,28.127,50.746,28.158,50.812,28.158z"/>
</svg>