<svg version="1.2" baseProfile="tiny" viewBox="0 0 32 32" xmlns:xlink="http://www.w3.org/1999/xlink" xmlns="http://www.w3.org/2000/svg">
<path style="fill:#ffffff;" d="M24.838,13.38C23.391,13.38,22.218,14.553,22.218,16C22.218,17.447,23.391,18.62,24.838,18.62C26.285,18.62,27.458,17.447,27.458,16C27.458,14.553,26.285,13.38,24.838,13.38Z M16,13.38C14.553,13.38,13.38,14.553,13.38,16C13.38,17.447,14.553,18.62,16,18.62C17.447,18.62,18.62,17.447,18.62,16C18.62,14.553,17.447,13.38,16,13.38Z M7.16199,13.38C5.71499,13.38,4.54199,14.553,4.54199,16C4.54199,17.447,5.71499,18.62,7.16199,18.62C8.60899,18.62,9.78199,17.447,9.78199,16C9.78199,14.553,8.60799,13.38,7.16199,13.38Z"/>
</svg>