<svg version="1.2" baseProfile="tiny" viewBox="0 0 15.750 18.000" xmlns:xlink="http://www.w3.org/1999/xlink" xmlns="http://www.w3.org/2000/svg">
<path style="fill:#ffffff;" d="M6.857,6.025V0.518C6.857,0.233,7.093,0,7.382,0h1.05   c0.288,0,0.525,0.233,0.525,0.518v5.507c0,0.285-0.237,0.518-0.525,0.518h-1.05C7.093,6.542,6.857,6.31,6.857,6.025L6.857,6.025z    M7.875,18c4.338,0,7.875-3.484,7.875-7.759c0-3.034-1.809-5.78-4.586-7.045c-0.121-0.055-0.248-0.046-0.36,0.024   c-0.109,0.07-0.172,0.182-0.172,0.312v1.542c0,0.134,0.065,0.25,0.182,0.317c1.727,1.022,2.799,2.856,2.799,4.849   c0,3.114-2.577,5.653-5.737,5.653c-3.16,0-5.738-2.539-5.738-5.653c0-1.963,1.04-3.776,2.728-4.808   C4.978,5.366,5.042,5.251,5.042,5.12V3.567c0-0.13-0.063-0.243-0.174-0.313C4.755,3.185,4.625,3.176,4.505,3.233   C1.77,4.518,0,7.239,0,10.241C0,14.516,3.538,18,7.875,18z"/>
</svg>