<svg version="1.2" baseProfile="tiny" id="EdgeSVG_pYNdv" x="0px" y="0px" width="48.128px" height="140.381px" viewBox="0 0 48.128 140.381" xmlns:xlink="http://www.w3.org/1999/xlink" xmlns="http://www.w3.org/2000/svg">
  <linearGradient id="SVGID_1_" gradientUnits="userSpaceOnUse" x1="0" y1="70.1904" x2="48.1279" y2="70.1904">
    <stop offset="0" style="stop-color:#000000;stop-opacity:0.5"/>
    <stop offset="1" style="stop-color:#000000;stop-opacity:0.5"/>
  </linearGradient>
  <path fill="url(#SVGID_1_)" d="M48.128,47.67c0-0.192-0.04-0.375-0.104-0.545c0.064-0.169,0.104-0.35,0.104-0.542V1.543&#xD;&#xA;&#x9;&#x9;C48.127,0.692,47.435,0,46.584,0H1.543C0.692,0,0,0.692,0,1.543v45.041c0,0.192,0.039,0.374,0.104,0.543&#xD;&#xA;&#x9;&#x9;C0.039,47.296,0,47.478,0,47.67v45.04c0,0.192,0.039,0.374,0.104,0.543C0.039,93.423,0,93.605,0,93.797v45.04&#xD;&#xA;&#x9;&#x9;c0,0.852,0.692,1.544,1.543,1.544h45.041c0.851,0,1.543-0.692,1.543-1.544v-45.04c0-0.191-0.039-0.373-0.104-0.542&#xD;&#xA;&#x9;&#x9;c0.064-0.17,0.104-0.353,0.104-0.545V47.67z"/>
</svg>