<svg version="1.2" baseProfile="tiny" viewBox="0 0 48.128 140.381" xmlns:xlink="http://www.w3.org/1999/xlink" xmlns="http://www.w3.org/2000/svg">
<path style="fill:#ffffff;" d="M47.1279,92.7104L47.1279,47.6706C47.1279,47.3716,46.8839,47.1273,46.585,47.1273C46.8839,47.1259,47.1269,46.8816,47.1269,46.584L47.1269,1.5428C47.1269,1.2438,46.8829,0.9995,46.5841,0.9995L1.543,0.9995L1.543,0.9995C1.2441,0.9995,1.0001,1.2438,1.0001,1.5428L1.0001,46.584C1.0001,46.8816,1.2441,47.1273,1.542,47.1273C1.2441,47.1273,1.0001,47.3716,1.0001,47.6706L1.0001,92.7104C1.0001,93.008,1.2441,93.2523,1.542,93.2537C1.2441,93.2537,1.0001,93.498,1.0001,93.797L1.0001,138.8368C1.0001,139.1358,1.2441,139.3815,1.543,139.3815L46.5841,139.3815C46.8829,139.3815,47.1269,139.1358,47.1269,138.8368L47.1269,93.797C47.1269,93.4994,46.8839,93.2551,46.585,93.2537C46.8839,93.2537,47.1279,93.008,47.1279,92.7104Z"/>
</svg>