<?xml version="1.0" encoding="UTF-8" standalone="no"?>
<!-- Created with Inkscape (http://www.inkscape.org/) -->

<svg
   xmlns:dc="http://purl.org/dc/elements/1.1/"
   xmlns:cc="http://creativecommons.org/ns#"
   xmlns:rdf="http://www.w3.org/1999/02/22-rdf-syntax-ns#"
   xmlns:svg="http://www.w3.org/2000/svg"
   xmlns="http://www.w3.org/2000/svg"
   xmlns:xlink="http://www.w3.org/1999/xlink"
   xmlns:sodipodi="http://sodipodi.sourceforge.net/DTD/sodipodi-0.dtd"
   xmlns:inkscape="http://www.inkscape.org/namespaces/inkscape"
   width="12.837139mm"
   height="12.468956mm"
   viewBox="0 0 12.837139 12.468955"
   version="1.1"
   id="svg8"
   inkscape:version="0.92.4 (5da689c313, 2019-01-14)"
   sodipodi:docname="Simb_Temp.svg">
  <defs
     id="defs2">
    <radialGradient
       inkscape:collect="always"
       xlink:href="#linearGradient4607"
       id="radialGradient11347"
       gradientUnits="userSpaceOnUse"
       gradientTransform="matrix(1,0,0,0.97131877,-706.5261,271.47246)"
       cx="73.499123"
       cy="56.567749"
       fx="73.499123"
       fy="56.567749"
       r="6.4185705" />
    <linearGradient
       inkscape:collect="always"
       id="linearGradient4607">
      <stop
         style="stop-color:#d7eef4;stop-opacity:1"
         offset="0"
         id="stop4603" />
      <stop
         style="stop-color:#afc6e9;stop-opacity:1"
         offset="1"
         id="stop4605" />
    </linearGradient>
  </defs>
  <sodipodi:namedview
     id="base"
     pagecolor="#ffffff"
     bordercolor="#666666"
     borderopacity="1.0"
     inkscape:pageopacity="0.0"
     inkscape:pageshadow="2"
     inkscape:zoom="3.959798"
     inkscape:cx="66.626874"
     inkscape:cy="19.303457"
     inkscape:document-units="mm"
     inkscape:current-layer="layer1"
     showgrid="false"
     inkscape:window-width="960"
     inkscape:window-height="1017"
     inkscape:window-x="952"
     inkscape:window-y="-8"
     inkscape:window-maximized="0" />
  <metadata
     id="metadata5">
    <rdf:RDF>
      <cc:Work
         rdf:about="">
        <dc:format>image/svg+xml</dc:format>
        <dc:type
           rdf:resource="http://purl.org/dc/dcmitype/StillImage" />
        <dc:title></dc:title>
      </cc:Work>
    </rdf:RDF>
  </metadata>
  <g
     inkscape:label="Livello 1"
     inkscape:groupmode="layer"
     id="layer1"
     transform="translate(-42.728232,-159.11788)">
    <g
       transform="translate(682.17377,-161.06542)"
       id="g12220"
       inkscape:export-filename="X:\Librerie\Libreria Immagini\Immagini\Grafica 2019\Simboli per selettori\Simb_Temp.png"
       inkscape:export-xdpi="275"
       inkscape:export-ydpi="275">
      <path
         style="fill:none;stroke:url(#radialGradient11347);stroke-width:0.72100002;stroke-linecap:round;stroke-linejoin:miter;stroke-miterlimit:4;stroke-dasharray:none;stroke-opacity:1"
         d="m -635.3833,320.54628 c -2.83146,1.54712 -3.57427,3.48407 -3.70126,5.87268 0.1766,3.539 2.9208,5.81712 5.84801,5.87268 3.72514,-0.12529 6.04532,-2.49124 6.26747,-5.89735 -0.0403,-2.60518 -1.18199,-4.67911 -3.77529,-5.77398"
         id="path11237"
         inkscape:connector-curvature="0"
         sodipodi:nodetypes="ccccc" />
      <g
         transform="matrix(0.98381718,0,0,0.98381718,-1130.6052,266.51305)"
         id="g12140">
        <path
           inkscape:connector-curvature="0"
           id="path12134"
           d="m 505.7628,56.776094 c -0.59705,0 -1.07772,0.480661 -1.07772,1.077718 v 3.511287 a 1.7804316,1.7804316 0 0 0 -0.70276,1.415348 1.7804316,1.7804316 0 0 0 1.78048,1.78048 1.7804316,1.7804316 0 0 0 1.78048,-1.78048 1.7804316,1.7804316 0 0 0 -0.70276,-1.414226 v -3.512409 c 0,-0.597057 -0.48066,-1.077718 -1.07772,-1.077718 z"
           style="opacity:1;fill:none;fill-opacity:1;stroke:#000000;stroke-width:0.27155119;stroke-linecap:round;stroke-linejoin:round;stroke-miterlimit:4;stroke-dasharray:none;stroke-dashoffset:0;stroke-opacity:1" />
        <path
           inkscape:connector-curvature="0"
           id="path12136"
           d="m 505.76328,58.64489 c -0.36763,0 -0.66375,0.296125 -0.66375,0.663761 v 2.297381 c 0,0.0067 0.002,0.01287 0.002,0.01952 -0.41852,0.237704 -0.67737,0.68165 -0.67807,1.162963 -10e-5,0.740036 0.59984,1.339979 1.33988,1.33988 0.7399,-8.1e-5 1.33965,-0.599971 1.33955,-1.33988 -3.5e-4,-0.481662 -0.25925,-0.926062 -0.67807,-1.163939 1.8e-4,-0.0063 0.002,-0.01218 0.002,-0.01854 v -2.297381 c 0,-0.367636 -0.29581,-0.663761 -0.66345,-0.663761 z"
           style="opacity:1;fill:#ff6600;fill-opacity:1;stroke:#d45500;stroke-width:0.14827922;stroke-linecap:round;stroke-linejoin:round;stroke-miterlimit:4;stroke-dasharray:none;stroke-dashoffset:0;stroke-opacity:1"
           sodipodi:nodetypes="csscccccsscc" />
        <path
           style="opacity:1;fill:none;fill-opacity:1;stroke:#afc6e9;stroke-width:0.10862047;stroke-linecap:round;stroke-linejoin:round;stroke-miterlimit:4;stroke-dasharray:none;stroke-dashoffset:0;stroke-opacity:1"
           d="m 505.7628,56.776094 c -0.59705,0 -1.07772,0.480661 -1.07772,1.077718 v 3.511287 a 1.7804316,1.7804316 0 0 0 -0.70276,1.415348 1.7804316,1.7804316 0 0 0 1.78048,1.78048 1.7804316,1.7804316 0 0 0 1.78048,-1.78048 1.7804316,1.7804316 0 0 0 -0.70276,-1.414226 v -3.512409 c 0,-0.597057 -0.48066,-1.077718 -1.07772,-1.077718 z"
           id="path12138"
           inkscape:connector-curvature="0" />
      </g>
    </g>
  </g>
</svg>
