<?xml version="1.0" encoding="UTF-8" standalone="no"?>
<!-- Created with Inkscape (http://www.inkscape.org/) -->

<svg
   xmlns:dc="http://purl.org/dc/elements/1.1/"
   xmlns:cc="http://creativecommons.org/ns#"
   xmlns:rdf="http://www.w3.org/1999/02/22-rdf-syntax-ns#"
   xmlns:svg="http://www.w3.org/2000/svg"
   xmlns="http://www.w3.org/2000/svg"
   xmlns:xlink="http://www.w3.org/1999/xlink"
   xmlns:sodipodi="http://sodipodi.sourceforge.net/DTD/sodipodi-0.dtd"
   xmlns:inkscape="http://www.inkscape.org/namespaces/inkscape"
   width="12.837139mm"
   height="12.468956mm"
   viewBox="0 0 12.837139 12.468955"
   version="1.1"
   id="svg8"
   inkscape:version="0.92.4 (5da689c313, 2019-01-14)"
   sodipodi:docname="Simb_AsseEletr.svg">
  <defs
     id="defs2">
    <radialGradient
       inkscape:collect="always"
       xlink:href="#linearGradient4607"
       id="radialGradient10631"
       gradientUnits="userSpaceOnUse"
       gradientTransform="matrix(1,0,0,0.97131877,-550.81882,323.59537)"
       cx="73.499123"
       cy="56.567749"
       fx="73.499123"
       fy="56.567749"
       r="6.4185705" />
    <linearGradient
       inkscape:collect="always"
       id="linearGradient4607">
      <stop
         style="stop-color:#d7eef4;stop-opacity:1"
         offset="0"
         id="stop4603" />
      <stop
         style="stop-color:#afc6e9;stop-opacity:1"
         offset="1"
         id="stop4605" />
    </linearGradient>
  </defs>
  <sodipodi:namedview
     id="base"
     pagecolor="#ffffff"
     bordercolor="#666666"
     borderopacity="1.0"
     inkscape:pageopacity="0.0"
     inkscape:pageshadow="2"
     inkscape:zoom="5.6"
     inkscape:cx="21.627149"
     inkscape:cy="6.1715392"
     inkscape:document-units="mm"
     inkscape:current-layer="layer1"
     showgrid="false"
     inkscape:window-width="958"
     inkscape:window-height="1008"
     inkscape:window-x="953"
     inkscape:window-y="0"
     inkscape:window-maximized="0" />
  <metadata
     id="metadata5">
    <rdf:RDF>
      <cc:Work
         rdf:about="">
        <dc:format>image/svg+xml</dc:format>
        <dc:type
           rdf:resource="http://purl.org/dc/dcmitype/StillImage" />
        <dc:title></dc:title>
      </cc:Work>
    </rdf:RDF>
  </metadata>
  <g
     inkscape:label="Livello 1"
     inkscape:groupmode="layer"
     id="layer1"
     transform="translate(-11.076882,-35.590909)">
    <g
       transform="translate(494.81514,-336.7153)"
       id="g12272"
       inkscape:export-filename="X:\Librerie\Libreria Immagini\Immagini\Grafica 2019\Simboli per selettori\Simb_AsseEletr.png"
       inkscape:export-xdpi="275"
       inkscape:export-ydpi="275">
      <path
         sodipodi:nodetypes="ccccc"
         inkscape:connector-curvature="0"
         id="path10535"
         d="m -479.67602,372.66919 c -2.83146,1.54712 -3.57427,3.48407 -3.70126,5.87268 0.1766,3.539 2.9208,5.81712 5.84801,5.87268 3.72514,-0.12529 6.04532,-2.49124 6.26747,-5.89735 -0.0403,-2.60518 -1.18199,-4.67911 -3.77529,-5.77398"
         style="fill:none;stroke:url(#radialGradient10631);stroke-width:0.72100002;stroke-linecap:round;stroke-linejoin:miter;stroke-miterlimit:4;stroke-dasharray:none;stroke-opacity:1" />
      <g
         id="g11849">
        <g
           transform="matrix(0.52123534,0,0,0.52123534,-708.6414,209.06488)"
           id="g9488">
          <g
             id="g9476">
            <path
               transform="matrix(1.1345752,-1.1345752,1.1345752,1.1345752,-425.40992,462.63539)"
               inkscape:transform-center-y="-0.29374252"
               inkscape:transform-center-x="0.29374355"
               d="m 446.52848,321.91883 -0.87608,0 -0.87607,0 0.43804,-0.75871 0.43803,-0.7587 0.43804,0.7587 z"
               inkscape:randomized="0"
               inkscape:rounded="0"
               inkscape:flatsided="false"
               sodipodi:arg2="1.5707963"
               sodipodi:arg1="0.52359878"
               sodipodi:r2="0.50580382"
               sodipodi:r1="1.0116076"
               sodipodi:cy="321.41302"
               sodipodi:cx="445.6524"
               sodipodi:sides="3"
               id="path9468"
               style="opacity:1;fill:#000000;fill-opacity:1;stroke:none;stroke-width:0.06299785;stroke-linecap:round;stroke-linejoin:round;stroke-miterlimit:4;stroke-dasharray:none;stroke-dashoffset:0;stroke-opacity:1"
               sodipodi:type="star" />
            <path
               sodipodi:nodetypes="cccc"
               inkscape:connector-curvature="0"
               id="path9470"
               d="m 440.28404,319.6294 v 4.52755 h 7.02782 l -2.71991,-2.82127"
               style="fill:none;stroke:#000000;stroke-width:0.96100003;stroke-linecap:round;stroke-linejoin:round;stroke-miterlimit:4;stroke-dasharray:none;stroke-opacity:1" />
            <path
               style="fill:none;stroke:#ff6600;stroke-width:0.69;stroke-linecap:round;stroke-linejoin:round;stroke-miterlimit:4;stroke-dasharray:none;stroke-opacity:1"
               d="m 440.28404,319.6294 v 4.52755 h 7.02782 l -2.71991,-2.82127"
               id="path9472"
               inkscape:connector-curvature="0"
               sodipodi:nodetypes="cccc" />
            <path
               transform="matrix(1.1345752,-1.1345752,1.1345752,1.1345752,-425.40992,462.63539)"
               sodipodi:type="star"
               style="opacity:1;fill:#ff6600;fill-opacity:1;stroke:none;stroke-width:0.05675804;stroke-linecap:round;stroke-linejoin:round;stroke-miterlimit:4;stroke-dasharray:none;stroke-dashoffset:0;stroke-opacity:1"
               id="path9474"
               sodipodi:sides="3"
               sodipodi:cx="445.6524"
               sodipodi:cy="321.41751"
               sodipodi:r1="0.91140991"
               sodipodi:r2="0.45570496"
               sodipodi:arg1="0.52359878"
               sodipodi:arg2="1.5707963"
               inkscape:flatsided="false"
               inkscape:rounded="0"
               inkscape:randomized="0"
               d="m 446.44171,321.87322 -0.78931,0 -0.7893,0 0.39465,-0.68356 0.39465,-0.68356 0.39466,0.68356 z"
               inkscape:transform-center-x="0.26466824"
               inkscape:transform-center-y="-0.26463887" />
          </g>
          <g
             id="g9486"
             transform="rotate(-180,443.79513,320.58811)">
            <path
               sodipodi:type="star"
               style="opacity:1;fill:#000000;fill-opacity:1;stroke:none;stroke-width:0.06299785;stroke-linecap:round;stroke-linejoin:round;stroke-miterlimit:4;stroke-dasharray:none;stroke-dashoffset:0;stroke-opacity:1"
               id="path9478"
               sodipodi:sides="3"
               sodipodi:cx="445.6524"
               sodipodi:cy="321.41302"
               sodipodi:r1="1.0116076"
               sodipodi:r2="0.50580382"
               sodipodi:arg1="0.52359878"
               sodipodi:arg2="1.5707963"
               inkscape:flatsided="false"
               inkscape:rounded="0"
               inkscape:randomized="0"
               d="m 446.52848,321.91883 -0.87608,0 -0.87607,0 0.43804,-0.75871 0.43803,-0.7587 0.43804,0.7587 z"
               inkscape:transform-center-x="0.29374355"
               inkscape:transform-center-y="-0.29374252"
               transform="matrix(1.1345752,-1.1345752,1.1345752,1.1345752,-425.40992,462.63539)" />
            <path
               style="fill:none;stroke:#000000;stroke-width:0.96100003;stroke-linecap:round;stroke-linejoin:round;stroke-miterlimit:4;stroke-dasharray:none;stroke-opacity:1"
               d="m 440.28404,319.6294 v 4.52755 h 7.02782 l -2.71991,-2.82127"
               id="path9480"
               inkscape:connector-curvature="0"
               sodipodi:nodetypes="cccc" />
            <path
               sodipodi:nodetypes="cccc"
               inkscape:connector-curvature="0"
               id="path9482"
               d="m 440.28404,319.6294 v 4.52755 h 7.02782 l -2.71991,-2.82127"
               style="fill:none;stroke:#ff6600;stroke-width:0.69;stroke-linecap:round;stroke-linejoin:round;stroke-miterlimit:4;stroke-dasharray:none;stroke-opacity:1" />
            <path
               inkscape:transform-center-y="-0.26463887"
               inkscape:transform-center-x="0.26466824"
               d="m 446.44171,321.87322 -0.78931,0 -0.7893,0 0.39465,-0.68356 0.39465,-0.68356 0.39466,0.68356 z"
               inkscape:randomized="0"
               inkscape:rounded="0"
               inkscape:flatsided="false"
               sodipodi:arg2="1.5707963"
               sodipodi:arg1="0.52359878"
               sodipodi:r2="0.45570496"
               sodipodi:r1="0.91140991"
               sodipodi:cy="321.41751"
               sodipodi:cx="445.6524"
               sodipodi:sides="3"
               id="path9484"
               style="opacity:1;fill:#ff6600;fill-opacity:1;stroke:none;stroke-width:0.05675804;stroke-linecap:round;stroke-linejoin:round;stroke-miterlimit:4;stroke-dasharray:none;stroke-dashoffset:0;stroke-opacity:1"
               sodipodi:type="star"
               transform="matrix(1.1345752,-1.1345752,1.1345752,1.1345752,-425.40992,462.63539)" />
          </g>
        </g>
        <g
           id="g11829"
           transform="translate(-0.40967309)">
          <g
             transform="matrix(1.1360665,0,0,1.1360665,66.403116,-12.610262)"
             id="g9944">
            <path
               style="opacity:1;fill:#afc6e9;fill-opacity:1;stroke:#000000;stroke-width:0.06551012;stroke-linecap:round;stroke-linejoin:round;stroke-miterlimit:4;stroke-dasharray:none;stroke-dashoffset:26.45669365;stroke-opacity:1"
               d="m -478.59634,344.67095 c -0.24158,0.004 -0.20858,0.32153 0,0.33145 0.80577,0.022 1.44774,0.68122 1.44847,1.48729 -10e-4,0.80617 -0.64261,1.46547 -1.44847,1.48752 -0.19921,0.0113 -0.24721,0.30946 0,0.32561 0.75295,-0.006 1.5966,-0.61986 1.72096,-1.34598 h 0.98478 v -0.93474 h -0.99424 c -0.24917,-0.97072 -1.18126,-1.35573 -1.7115,-1.35115 z"
               id="path9940"
               inkscape:connector-curvature="0"
               sodipodi:nodetypes="cccccccccc" />
            <path
               style="opacity:1;fill:#ff6600;fill-opacity:1;stroke:#000000;stroke-width:0.05865227;stroke-linecap:round;stroke-linejoin:round;stroke-miterlimit:4;stroke-dasharray:none;stroke-dashoffset:26.45669365;stroke-opacity:1"
               d="m -478.70731,345.42159 c -0.40896,0 -0.78173,0.23448 -0.96,0.60254 h -0.92673 v 0.93112 h 0.92633 c 0.17832,0.36819 0.55129,0.60219 0.9604,0.60254 0.58989,-1e-5 1.06809,-0.47821 1.0681,-1.0681 -1e-5,-0.58989 -0.47821,-1.06809 -1.0681,-1.0681 z"
               id="path9942"
               inkscape:connector-curvature="0"
               sodipodi:nodetypes="cccccccc" />
          </g>
          <g
             id="g11821">
            <path
               style="opacity:1;fill:#ff6600;fill-opacity:1;stroke:#000000;stroke-width:0.03942943;stroke-linecap:round;stroke-linejoin:round;stroke-miterlimit:4;stroke-dasharray:none;stroke-dashoffset:26.45669365;stroke-opacity:1"
               d="m -480.06721,379.24958 c -0.48861,0 -0.88471,0.64093 -0.88468,1.43152 4.4e-4,0.65329 0.27401,1.22331 0.66512,1.38544 l 0.12443,-0.28586 c -0.27496,-0.13434 -0.50935,-0.50684 -0.52104,-1.09134 -0.0138,-0.67489 0.28098,-1.08062 0.57497,-1.15915 0.13587,4.4e-4 0.26834,0.0663 0.38299,0.18889 l -0.16824,0.15728 0.51331,0.13572 9e-4,-0.66015 -0.17274,0.16707 c -0.14997,-0.17457 -0.32995,-0.26878 -0.5147,-0.26942 z"
               id="path9946"
               inkscape:connector-curvature="0"
               sodipodi:nodetypes="scccscccccccs" />
            <path
               sodipodi:nodetypes="scccscccccccs"
               inkscape:connector-curvature="0"
               id="path11817"
               d="m -473.75282,379.24958 c 0.48861,0 0.88471,0.64093 0.88468,1.43152 -4.4e-4,0.65329 -0.27401,1.22331 -0.66512,1.38544 l -0.12443,-0.28586 c 0.27496,-0.13434 0.50935,-0.50684 0.52104,-1.09134 0.0138,-0.67489 -0.28098,-1.08062 -0.57497,-1.15915 -0.13587,4.4e-4 -0.26834,0.0663 -0.38299,0.18889 l 0.16824,0.15728 -0.51331,0.13572 -9e-4,-0.66015 0.17274,0.16707 c 0.14997,-0.17457 0.32995,-0.26878 0.5147,-0.26942 z"
               style="opacity:1;fill:#afc6e9;fill-opacity:1;stroke:#000000;stroke-width:0.03942943;stroke-linecap:round;stroke-linejoin:round;stroke-miterlimit:4;stroke-dasharray:none;stroke-dashoffset:26.45669365;stroke-opacity:1" />
          </g>
        </g>
      </g>
    </g>
  </g>
</svg>
