<?xml version="1.0" encoding="UTF-8" standalone="no"?>
<!-- Created with Inkscape (http://www.inkscape.org/) -->

<svg
   xmlns:dc="http://purl.org/dc/elements/1.1/"
   xmlns:cc="http://creativecommons.org/ns#"
   xmlns:rdf="http://www.w3.org/1999/02/22-rdf-syntax-ns#"
   xmlns:svg="http://www.w3.org/2000/svg"
   xmlns="http://www.w3.org/2000/svg"
   xmlns:xlink="http://www.w3.org/1999/xlink"
   xmlns:sodipodi="http://sodipodi.sourceforge.net/DTD/sodipodi-0.dtd"
   xmlns:inkscape="http://www.inkscape.org/namespaces/inkscape"
   width="12.837139mm"
   height="12.468956mm"
   viewBox="0 0 12.837139 12.468955"
   version="1.1"
   id="svg8"
   inkscape:version="0.92.4 (5da689c313, 2019-01-14)"
   sodipodi:docname="Simb_FrenoEmerg.svg">
  <defs
     id="defs2">
    <radialGradient
       inkscape:collect="always"
       xlink:href="#linearGradient4607"
       id="radialGradient13048"
       gradientUnits="userSpaceOnUse"
       gradientTransform="matrix(1,0,0,0.97131877,-512.83982,323.59537)"
       cx="73.499123"
       cy="56.567749"
       fx="73.499123"
       fy="56.567749"
       r="6.4185705" />
    <linearGradient
       inkscape:collect="always"
       id="linearGradient4607">
      <stop
         style="stop-color:#d7eef4;stop-opacity:1"
         offset="0"
         id="stop4603" />
      <stop
         style="stop-color:#afc6e9;stop-opacity:1"
         offset="1"
         id="stop4605" />
    </linearGradient>
  </defs>
  <sodipodi:namedview
     id="base"
     pagecolor="#ffffff"
     bordercolor="#666666"
     borderopacity="1.0"
     inkscape:pageopacity="0.0"
     inkscape:pageshadow="2"
     inkscape:zoom="7.9195959"
     inkscape:cx="52.039401"
     inkscape:cy="17.133473"
     inkscape:document-units="mm"
     inkscape:current-layer="layer1"
     showgrid="false"
     inkscape:window-width="958"
     inkscape:window-height="1008"
     inkscape:window-x="953"
     inkscape:window-y="0"
     inkscape:window-maximized="0" />
  <metadata
     id="metadata5">
    <rdf:RDF>
      <cc:Work
         rdf:about="">
        <dc:format>image/svg+xml</dc:format>
        <dc:type
           rdf:resource="http://purl.org/dc/dcmitype/StillImage" />
        <dc:title></dc:title>
      </cc:Work>
    </rdf:RDF>
  </metadata>
  <g
     inkscape:label="Livello 1"
     inkscape:groupmode="layer"
     id="layer1"
     transform="translate(-8.1460721,-35.817599)">
    <g
       transform="translate(453.90533,-336.48861)"
       id="g10480">
      <path
         style="fill:none;stroke:url(#radialGradient13048);stroke-width:0.72100002;stroke-linecap:round;stroke-linejoin:miter;stroke-miterlimit:4;stroke-dasharray:none;stroke-opacity:1"
         d="m -441.69702,372.66919 c -2.83146,1.54712 -3.57427,3.48407 -3.70126,5.87268 0.1766,3.539 2.9208,5.81712 5.84801,5.87268 3.72514,-0.12529 6.04532,-2.49124 6.26747,-5.89735 -0.0403,-2.60518 -1.18199,-4.67911 -3.77529,-5.77398"
         id="path12710"
         inkscape:connector-curvature="0"
         sodipodi:nodetypes="ccccc" />
      <g
         transform="translate(0.08557335,32.13249)"
         id="g10322">
        <g
           id="g10314"
           transform="translate(-0.01123,0.01653646)">
          <path
             inkscape:connector-curvature="0"
             id="path10306"
             d="m -439.41502,343.10309 a 3.0844683,3.0844683 0 0 0 -3.08459,3.08457 3.0844683,3.0844683 0 0 0 3.08459,3.08456 3.0844683,3.0844683 0 0 0 3.08456,-3.08456 3.0844683,3.0844683 0 0 0 -3.08456,-3.08457 z m 0,0.51416 a 2.5701697,2.5701697 0 0 1 2.57037,2.57041 2.5701697,2.5701697 0 0 1 -2.57037,2.57037 2.5701697,2.5701697 0 0 1 -2.56987,-2.57037 2.5701697,2.5701697 0 0 1 2.56987,-2.57041 z"
             style="opacity:1;fill:#b1c8ea;fill-opacity:1;stroke:#000000;stroke-width:0.07916195;stroke-linecap:round;stroke-linejoin:round;stroke-miterlimit:4;stroke-dasharray:none;stroke-dashoffset:26.45669365;stroke-opacity:1" />
          <g
             transform="translate(-0.00829204,0.00777128)"
             id="g10312">
            <circle
               style="opacity:1;fill:#ff6600;fill-opacity:1;stroke:#000000;stroke-width:0.09070525;stroke-linecap:round;stroke-linejoin:round;stroke-miterlimit:4;stroke-dasharray:none;stroke-dashoffset:26.45669365;stroke-opacity:1"
               id="circle10308"
               cx="-439.40674"
               cy="347.8165"
               r="0.37498587" />
            <rect
               style="opacity:1;fill:#ff6600;fill-opacity:1;stroke:#000000;stroke-width:0.08409377;stroke-linecap:round;stroke-linejoin:round;stroke-miterlimit:4;stroke-dasharray:none;stroke-dashoffset:26.45669365;stroke-opacity:1"
               id="rect10310"
               width="0.75853556"
               height="2.8401828"
               x="-439.78601"
               y="344.16498"
               ry="0.42144656" />
          </g>
        </g>
        <g
           id="g10320">
          <path
             sodipodi:nodetypes="ccccccc"
             inkscape:connector-curvature="0"
             id="path10316"
             d="m -442.20138,348.52761 c -0.48252,-0.61868 -0.93616,-1.26362 -0.94258,-2.31511 0,-1.36486 0.56435,-1.93685 0.96295,-2.3374 0.22474,-0.31487 -0.10646,-0.59559 -0.40565,-0.37833 -0.59661,0.52947 -1.10346,1.28987 -1.13609,2.66612 0.0259,0.81372 0.18345,1.77341 1.12448,2.74505 0.2689,0.23557 0.6238,-0.0919 0.39689,-0.38033 z"
             style="fill:#ff6600;fill-opacity:1;stroke:#000000;stroke-width:0.065;stroke-linecap:butt;stroke-linejoin:round;stroke-miterlimit:4;stroke-dasharray:none;stroke-opacity:1" />
          <path
             style="fill:#ff6600;fill-opacity:1;stroke:#000000;stroke-width:0.065;stroke-linecap:butt;stroke-linejoin:round;stroke-miterlimit:4;stroke-dasharray:none;stroke-opacity:1"
             d="m -436.65115,348.52761 c 0.48252,-0.61868 0.93616,-1.26362 0.94258,-2.31511 0,-1.36486 -0.56435,-1.93685 -0.96295,-2.3374 -0.22474,-0.31487 0.10646,-0.59559 0.40565,-0.37833 0.59661,0.52947 1.10346,1.28987 1.13609,2.66612 -0.0259,0.81372 -0.18345,1.77341 -1.12448,2.74505 -0.2689,0.23557 -0.6238,-0.0919 -0.39689,-0.38033 z"
             id="path10318"
             inkscape:connector-curvature="0"
             sodipodi:nodetypes="ccccccc" />
        </g>
      </g>
    </g>
  </g>
</svg>
