<?xml version="1.0" encoding="UTF-8" standalone="no"?>
<!-- Created with Inkscape (http://www.inkscape.org/) -->

<svg
   xmlns:dc="http://purl.org/dc/elements/1.1/"
   xmlns:cc="http://creativecommons.org/ns#"
   xmlns:rdf="http://www.w3.org/1999/02/22-rdf-syntax-ns#"
   xmlns:svg="http://www.w3.org/2000/svg"
   xmlns="http://www.w3.org/2000/svg"
   xmlns:xlink="http://www.w3.org/1999/xlink"
   xmlns:sodipodi="http://sodipodi.sourceforge.net/DTD/sodipodi-0.dtd"
   xmlns:inkscape="http://www.inkscape.org/namespaces/inkscape"
   width="12.837139mm"
   height="12.468956mm"
   viewBox="0 0 12.837139 12.468955"
   version="1.1"
   id="svg8"
   inkscape:version="0.92.4 (5da689c313, 2019-01-14)"
   sodipodi:docname="Simb_ByPass.svg">
  <defs
     id="defs2">
    <radialGradient
       inkscape:collect="always"
       xlink:href="#linearGradient4607"
       id="radialGradient12802"
       gradientUnits="userSpaceOnUse"
       gradientTransform="matrix(1,0,0,0.97131877,-452.59132,270.68165)"
       cx="73.499123"
       cy="56.567749"
       fx="73.499123"
       fy="56.567749"
       r="6.4185705" />
    <linearGradient
       inkscape:collect="always"
       id="linearGradient4607">
      <stop
         style="stop-color:#d7eef4;stop-opacity:1"
         offset="0"
         id="stop4603" />
      <stop
         style="stop-color:#afc6e9;stop-opacity:1"
         offset="1"
         id="stop4605" />
    </linearGradient>
  </defs>
  <sodipodi:namedview
     id="base"
     pagecolor="#ffffff"
     bordercolor="#666666"
     borderopacity="1.0"
     inkscape:pageopacity="0.0"
     inkscape:pageshadow="2"
     inkscape:zoom="3.959798"
     inkscape:cx="86.603938"
     inkscape:cy="-0.37818015"
     inkscape:document-units="mm"
     inkscape:current-layer="layer1"
     showgrid="false"
     inkscape:window-width="958"
     inkscape:window-height="1008"
     inkscape:window-x="953"
     inkscape:window-y="0"
     inkscape:window-maximized="0" />
  <metadata
     id="metadata5">
    <rdf:RDF>
      <cc:Work
         rdf:about="">
        <dc:format>image/svg+xml</dc:format>
        <dc:type
           rdf:resource="http://purl.org/dc/dcmitype/StillImage" />
        <dc:title></dc:title>
      </cc:Work>
    </rdf:RDF>
  </metadata>
  <g
     inkscape:label="Livello 1"
     inkscape:groupmode="layer"
     id="layer1"
     transform="translate(-37.442632,-153.91045)">
    <g
       transform="translate(422.95339,-165.48204)"
       id="g12934"
       inkscape:export-filename="X:\Librerie\Libreria Immagini\Immagini\Grafica 2019\Simboli per selettori\Simb_ByPass.png"
       inkscape:export-xdpi="275"
       inkscape:export-ydpi="275">
      <path
         sodipodi:nodetypes="ccccc"
         inkscape:connector-curvature="0"
         id="path12728"
         d="m -381.44852,319.75547 c -2.83146,1.54712 -3.57427,3.48407 -3.70126,5.87268 0.1766,3.539 2.9208,5.81712 5.84801,5.87268 3.72514,-0.12529 6.04532,-2.49124 6.26747,-5.89735 -0.0403,-2.60518 -1.18199,-4.67911 -3.77529,-5.77398"
         style="fill:none;stroke:url(#radialGradient12802);stroke-width:0.72100002;stroke-linecap:round;stroke-linejoin:miter;stroke-miterlimit:4;stroke-dasharray:none;stroke-opacity:1" />
      <g
         transform="matrix(0.42601464,0,0,0.42601464,-631.40829,227.72956)"
         id="g11779">
        <path
           id="path11773-0"
           d="m 598.72469,229.78749 v 1.40774 h -1.60618 c -0.67025,0.007 -0.74511,-0.33403 -0.74251,-0.99024 l 0.0183,-4.63058 c 0,-1.26417 -0.62004,-2.0164 -1.91107,-2.08839 l -6.31932,-0.005 c -1.7713,-0.0359 -2.5071,0.82001 -2.52267,2.50923 l -0.0405,3.31491 c -0.0217,1.31474 -0.56139,1.89771 -2.03162,1.88988 h -1.95301 v 1.82728 h 1.76402 c 2.83909,0.0774 3.84012,-1.75561 3.9215,-3.04743 l 0.0556,-3.93649 c -0.0133,-0.74888 0.41332,-1.10025 0.80708,-1.09765 0,0 3.89756,0.0254 5.84633,0.0386 0.78923,0 0.85851,0.60179 0.85851,0.97573 l -0.0256,4.01751 c -0.0695,1.84695 0.68694,3.0465 2.57912,3.0465 l 1.30186,0.004 v 1.40774 l 4.20129,-2.32138 z"
           style="opacity:1;fill:#ff7f2a;fill-opacity:1;stroke:#000000;stroke-width:0.23325285;stroke-linecap:round;stroke-linejoin:round;stroke-miterlimit:4;stroke-dasharray:none;stroke-dashoffset:0;stroke-opacity:1"
           inkscape:connector-curvature="0"
           sodipodi:nodetypes="cccscccccccccccccccccccc" />
        <circle
           style="opacity:1;fill:#b2c9ea;fill-opacity:1;stroke:#000000;stroke-width:0.2;stroke-linecap:round;stroke-linejoin:round;stroke-miterlimit:4;stroke-dasharray:none;stroke-dashoffset:0;stroke-opacity:1"
           id="path11775-9"
           cx="590.97797"
           cy="230.71243"
           r="2.126116" />
      </g>
    </g>
  </g>
</svg>
