<?xml version="1.0" encoding="UTF-8" standalone="no"?>
<!-- Created with Inkscape (http://www.inkscape.org/) -->

<svg
   xmlns:dc="http://purl.org/dc/elements/1.1/"
   xmlns:cc="http://creativecommons.org/ns#"
   xmlns:rdf="http://www.w3.org/1999/02/22-rdf-syntax-ns#"
   xmlns:svg="http://www.w3.org/2000/svg"
   xmlns="http://www.w3.org/2000/svg"
   xmlns:xlink="http://www.w3.org/1999/xlink"
   xmlns:sodipodi="http://sodipodi.sourceforge.net/DTD/sodipodi-0.dtd"
   xmlns:inkscape="http://www.inkscape.org/namespaces/inkscape"
   width="15.19252mm"
   height="14.756772mm"
   viewBox="0 0 15.192519 14.756771"
   version="1.1"
   id="svg8"
   inkscape:version="0.92.4 (5da689c313, 2019-01-14)"
   sodipodi:docname="Simb_Pulizia.svg">
  <defs
     id="defs2">
    <radialGradient
       inkscape:collect="always"
       xlink:href="#linearGradient4607"
       id="radialGradient5818"
       gradientUnits="userSpaceOnUse"
       gradientTransform="matrix(1.1834811,0,0,1.1495374,-511.08798,107.6052)"
       cx="73.499123"
       cy="56.567749"
       fx="73.499123"
       fy="56.567749"
       r="6.4185705" />
    <linearGradient
       inkscape:collect="always"
       id="linearGradient4607">
      <stop
         style="stop-color:#d7eef4;stop-opacity:1"
         offset="0"
         id="stop4603" />
      <stop
         style="stop-color:#afc6e9;stop-opacity:1"
         offset="1"
         id="stop4605" />
    </linearGradient>
    <linearGradient
       inkscape:collect="always"
       xlink:href="#linearGradient4607"
       id="linearGradient6118"
       gradientUnits="userSpaceOnUse"
       x1="123.23513"
       y1="186.17995"
       x2="133.85327"
       y2="186.17995" />
  </defs>
  <sodipodi:namedview
     id="base"
     pagecolor="#ffffff"
     bordercolor="#666666"
     borderopacity="1.0"
     inkscape:pageopacity="0.0"
     inkscape:pageshadow="2"
     inkscape:zoom="3.959798"
     inkscape:cx="-87.916539"
     inkscape:cy="7.9066469"
     inkscape:document-units="mm"
     inkscape:current-layer="layer1"
     showgrid="false"
     inkscape:window-width="2266"
     inkscape:window-height="1008"
     inkscape:window-x="953"
     inkscape:window-y="0"
     inkscape:window-maximized="0" />
  <metadata
     id="metadata5">
    <rdf:RDF>
      <cc:Work
         rdf:about="">
        <dc:format>image/svg+xml</dc:format>
        <dc:type
           rdf:resource="http://purl.org/dc/dcmitype/StillImage" />
        <dc:title></dc:title>
      </cc:Work>
    </rdf:RDF>
  </metadata>
  <g
     inkscape:label="Livello 1"
     inkscape:groupmode="layer"
     id="layer1"
     transform="translate(-42.675229,-99.671321)">
    <g
       transform="translate(474.37464,-65.582248)"
       id="g6149"
       inkscape:export-filename="X:\Librerie\Libreria Immagini\Immagini\Grafica 2019\Simboli per selettori\PNG\Simb_Pulizia.png"
       inkscape:export-xdpi="275"
       inkscape:export-ydpi="275">
      <path
         inkscape:export-ydpi="275"
         inkscape:export-xdpi="275"
         inkscape:export-filename="X:\Librerie\Libreria Immagini\Immagini\Grafica 2019\Simboli per selettori\PNG\Simboli_duplicati\Simb_2D.png"
         style="fill:none;stroke:url(#radialGradient5818);stroke-width:0.8532899;stroke-linecap:round;stroke-linejoin:miter;stroke-miterlimit:4;stroke-dasharray:none;stroke-opacity:1"
         d="m -426.89182,165.68315 c -3.35098,1.83099 -4.23009,4.12333 -4.38038,6.95021 0.20901,4.18834 3.45672,6.88445 6.92101,6.9502 4.40864,-0.14828 7.15453,-2.94833 7.41744,-6.9794 -0.0477,-3.08318 -1.39887,-5.53764 -4.46799,-6.8334"
         id="path5648"
         inkscape:connector-curvature="0"
         sodipodi:nodetypes="ccccc" />
      <g
         inkscape:transform-center-y="2.3420906"
         inkscape:transform-center-x="-0.61532282"
         transform="matrix(0.14408199,0.08144631,-0.08144631,0.14408199,-424.76181,133.17267)"
         id="g6114">
        <path
           style="fill:#ff6600;stroke:#000000;stroke-width:0.26458332px;stroke-linecap:butt;stroke-linejoin:miter;stroke-opacity:1"
           d="m 104.90729,228.07604 8.06979,-15.74271 -6.15156,16.70182 c 1.6245,1.12134 3.82008,1.78582 5.85391,2.57969 l 6.81302,-17.23099 -4.89479,17.66094 c 1.63764,0.52811 3.33457,0.93763 5.06015,1.28985 l 5.15938,-17.16485 -3.04271,17.42943 2.77812,0.33073 c 1.65864,0.31367 2.08612,-0.60382 2.4474,-1.5875 l 2.3151,-20.86901 -16.43724,-5.42396 -10.38489,17.56172 c -0.57791,1.06486 -1.00491,2.1059 0.0661,2.91041 z"
           id="path6106"
           inkscape:connector-curvature="0"
           sodipodi:nodetypes="cccccccccccccccc" />
        <path
           style="fill:#ff6600;stroke:#000000;stroke-width:0.26458332px;stroke-linecap:butt;stroke-linejoin:miter;stroke-opacity:1"
           d="m 113.65637,204.85883 1.14566,-1.98435 14.82703,4.90761 -0.18709,2.33861 z"
           id="path6108"
           inkscape:connector-curvature="0" />
        <path
           style="fill:url(#linearGradient6118);fill-opacity:1;stroke:#000000;stroke-width:0.26499999;stroke-linecap:butt;stroke-linejoin:miter;stroke-miterlimit:4;stroke-dasharray:none;stroke-opacity:1"
           d="m 123.39505,196.60716 7.2099,-21.51393 c 0.24904,-0.65646 0.61596,-1.15574 1.45521,-1.02526 l 1.15755,0.42995 c 0.65,0.35241 0.72827,0.90033 0.49609,1.55442 l -7.50755,22.19193 z"
           id="path6110"
           inkscape:connector-curvature="0"
           sodipodi:nodetypes="ccccccc" />
        <path
           style="fill:#ff6600;stroke:#000000;stroke-width:0.26458332px;stroke-linecap:butt;stroke-linejoin:miter;stroke-opacity:1"
           d="m 115.6208,201.65493 c 1.29669,-1.10671 2.14797,-2.35596 4.91107,-2.99342 0.0814,-1.29525 0.58368,-2.45371 3.13374,-2.94664 0.90885,1.689 1.99495,1.3691 3.08696,0.98222 1.53935,1.36244 1.7265,2.7925 0.77174,4.27965 1.89419,1.79293 1.97343,3.58587 2.24507,5.3788 z"
           id="path6112"
           inkscape:connector-curvature="0"
           sodipodi:nodetypes="ccccccc" />
      </g>
    </g>
  </g>
</svg>
