<?xml version="1.0" encoding="UTF-8" standalone="no"?>
<!-- Created with Inkscape (http://www.inkscape.org/) -->

<svg
   xmlns:dc="http://purl.org/dc/elements/1.1/"
   xmlns:cc="http://creativecommons.org/ns#"
   xmlns:rdf="http://www.w3.org/1999/02/22-rdf-syntax-ns#"
   xmlns:svg="http://www.w3.org/2000/svg"
   xmlns="http://www.w3.org/2000/svg"
   xmlns:xlink="http://www.w3.org/1999/xlink"
   xmlns:sodipodi="http://sodipodi.sourceforge.net/DTD/sodipodi-0.dtd"
   xmlns:inkscape="http://www.inkscape.org/namespaces/inkscape"
   width="15.19252mm"
   height="14.756772mm"
   viewBox="0 0 15.192519 14.756771"
   version="1.1"
   id="svg8"
   inkscape:version="0.92.4 (5da689c313, 2019-01-14)"
   sodipodi:docname="Simb_AspTapp.svg">
  <defs
     id="defs2">
    <radialGradient
       inkscape:collect="always"
       xlink:href="#linearGradient4607"
       id="radialGradient12012"
       gradientUnits="userSpaceOnUse"
       gradientTransform="matrix(1.1834811,0,0,1.1495374,-648.13122,358.3018)"
       cx="73.499123"
       cy="56.567749"
       fx="73.499123"
       fy="56.567749"
       r="6.4185705" />
    <linearGradient
       inkscape:collect="always"
       id="linearGradient4607">
      <stop
         style="stop-color:#d7eef4;stop-opacity:1"
         offset="0"
         id="stop4603" />
      <stop
         style="stop-color:#afc6e9;stop-opacity:1"
         offset="1"
         id="stop4605" />
    </linearGradient>
    <radialGradient
       inkscape:collect="always"
       xlink:href="#linearGradient4607"
       id="radialGradient12014"
       gradientUnits="userSpaceOnUse"
       gradientTransform="matrix(1.1834811,0,0,1.1495374,-648.13122,358.3018)"
       cx="73.499123"
       cy="56.567749"
       fx="73.499123"
       fy="56.567749"
       r="6.4185705" />
    <radialGradient
       inkscape:collect="always"
       xlink:href="#linearGradient4607"
       id="radialGradient12016"
       gradientUnits="userSpaceOnUse"
       gradientTransform="matrix(1,0,0,0.3165635,0,38.977039)"
       cx="39.577087"
       cy="57.03096"
       fx="39.577087"
       fy="57.03096"
       r="4.9451509" />
  </defs>
  <sodipodi:namedview
     id="base"
     pagecolor="#ffffff"
     bordercolor="#666666"
     borderopacity="1.0"
     inkscape:pageopacity="0.0"
     inkscape:pageshadow="2"
     inkscape:zoom="3.959798"
     inkscape:cx="72.192639"
     inkscape:cy="1.593203"
     inkscape:document-units="mm"
     inkscape:current-layer="layer1"
     showgrid="false"
     inkscape:window-width="2266"
     inkscape:window-height="1008"
     inkscape:window-x="953"
     inkscape:window-y="0"
     inkscape:window-maximized="0" />
  <metadata
     id="metadata5">
    <rdf:RDF>
      <cc:Work
         rdf:about="">
        <dc:format>image/svg+xml</dc:format>
        <dc:type
           rdf:resource="http://purl.org/dc/dcmitype/StillImage" />
        <dc:title></dc:title>
      </cc:Work>
    </rdf:RDF>
  </metadata>
  <g
     inkscape:label="Livello 1"
     inkscape:groupmode="layer"
     id="layer1"
     transform="translate(-0.31300947,-98.000889)">
    <g
       transform="translate(569.05566,-317.94928)"
       id="g12821"
       inkscape:export-filename="X:\Librerie\Libreria Immagini\Grafica UNIQO\Simboli per selettori\PNG\Simb_AspTapp.png"
       inkscape:export-xdpi="275"
       inkscape:export-ydpi="275">
      <path
         sodipodi:nodetypes="ccccc"
         inkscape:connector-curvature="0"
         id="path11778"
         d="m -563.93506,416.37975 c -3.35098,1.83099 -4.23009,4.12333 -4.38038,6.95022 0.20901,4.18833 3.45672,6.88445 6.92101,6.95019 4.40864,-0.14828 7.15453,-2.94833 7.41744,-6.9794 -0.0477,-3.08318 -1.39887,-5.53764 -4.46799,-6.83339"
         style="fill:none;stroke:url(#radialGradient12012);stroke-width:0.8532899;stroke-linecap:round;stroke-linejoin:miter;stroke-miterlimit:4;stroke-dasharray:none;stroke-opacity:1" />
      <path
         sodipodi:nodetypes="ccccc"
         inkscape:connector-curvature="0"
         id="path11782"
         d="m -563.93506,416.37975 c -3.35098,1.83099 -4.23009,4.12333 -4.38038,6.95022 0.20901,4.18833 3.45672,6.88445 6.92101,6.95019 4.40864,-0.14828 7.15453,-2.94833 7.41744,-6.9794 -0.0477,-3.08318 -1.39887,-5.53764 -4.46799,-6.83339"
         style="fill:none;stroke:url(#radialGradient12014);stroke-width:0.8532899;stroke-linecap:round;stroke-linejoin:miter;stroke-miterlimit:4;stroke-dasharray:none;stroke-opacity:1" />
      <g
         id="g12383">
        <g
           transform="matrix(1.0581122,0,0,-1.0581122,-603.02339,486.06355)"
           id="g11791">
          <path
             sodipodi:nodetypes="ccscccc"
             inkscape:connector-curvature="0"
             id="path11785"
             d="m 36.144963,55.672044 h 6.812183 c 0.913435,-0.0087 1.340315,0.762115 1.357993,1.30698 0.02173,0.669574 -0.545704,1.461645 -1.357993,1.408422 h -6.812183 c -0.612466,-0.02025 -1.249417,-0.513764 -1.306195,-1.311982 0.04715,-0.955811 0.721534,-1.374009 1.306195,-1.40342 z"
             style="fill:#808080;stroke:url(#radialGradient12016);stroke-width:0.4129388;stroke-linecap:butt;stroke-linejoin:miter;stroke-miterlimit:4;stroke-dasharray:none;stroke-opacity:1" />
          <circle
             r="0.8533569"
             cy="57.030975"
             cx="36.238415"
             id="circle11787"
             style="opacity:1;fill:#cccccc;fill-opacity:0.7372549;stroke:#ff7f2a;stroke-width:0.61610466;stroke-miterlimit:4;stroke-dasharray:none;stroke-dashoffset:0;paint-order:stroke fill markers" />
          <circle
             style="opacity:1;fill:#cccccc;fill-opacity:0.7372549;stroke:#ff7f2a;stroke-width:0.61610466;stroke-miterlimit:4;stroke-dasharray:none;stroke-dashoffset:0;paint-order:stroke fill markers"
             id="circle11789"
             cx="42.927799"
             cy="57.030975"
             r="0.8533569" />
        </g>
        <g
           inkscape:label="Livello 1"
           id="g12280"
           transform="matrix(0.30282047,0,0,0.30282047,-545.75238,383.66332)">
          <g
             id="g12278"
             transform="matrix(1.8446344,0,0,1.8446344,-1350.9359,-556.96997)"
             inkscape:export-filename="X:\Librerie\Libreria Immagini\Grafica UNIQO\Simboli vari\PNG\SimbVent.png"
             inkscape:export-xdpi="275"
             inkscape:export-ydpi="275">
            <path
               inkscape:connector-curvature="0"
               style="fill:#000000;fill-opacity:1;fill-rule:nonzero;stroke:#000000;stroke-width:0.38099718px;stroke-linecap:round;stroke-linejoin:round;stroke-miterlimit:4;stroke-dasharray:none;stroke-opacity:1"
               d="m 706.6425,369.51349 c 0,1.016 -0.8255,1.84149 -1.84149,1.84149 -1.01599,0 -1.84149,-0.82549 -1.84149,-1.84149 0,-1.01599 0.8255,-1.84148 1.84149,-1.84148 1.01599,0 1.84149,0.82549 1.84149,1.84148 z"
               id="path12236" />
            <path
               inkscape:connector-curvature="0"
               style="fill:#000000;fill-opacity:1;fill-rule:nonzero;stroke:#000000;stroke-width:0.76199436px;stroke-linecap:round;stroke-linejoin:round;stroke-miterlimit:4;stroke-dasharray:none;stroke-opacity:1"
               d="m 706.11333,369.51349 c 0,0.74083 -0.59266,1.33349 -1.31232,1.33349 -0.74083,0 -1.31232,-0.59266 -1.31232,-1.33349 0,-0.71966 0.57149,-1.31232 1.31232,-1.31232 0.71966,0 1.31232,0.59266 1.31232,1.31232 z"
               id="path12238" />
            <g
               id="g12276">
              <g
                 id="g12244">
                <path
                   inkscape:connector-curvature="0"
                   style="fill:#000000;fill-opacity:1;fill-rule:nonzero;stroke:#000000;stroke-width:0.23283161px;stroke-linecap:round;stroke-linejoin:round;stroke-miterlimit:4;stroke-dasharray:none;stroke-opacity:1"
                   d="m 700.22904,365.51302 c 1.46049,-1.29115 3.02681,-2.39181 5.5668,-2.01082 2.58231,2.32832 1.46049,5.27046 0.76199,5.27046 l -0.78316,-0.80432 c -1.01599,-2.47648 -3.09031,-2.85748 -5.54563,-2.45532 z"
                   id="path12240" />
                <path
                   inkscape:connector-curvature="0"
                   style="fill:#c3daee;fill-opacity:1;fill-rule:evenodd;stroke:#ff7f2a;stroke-width:0.21166509px;stroke-linecap:round;stroke-linejoin:round;stroke-miterlimit:4;stroke-dasharray:none;stroke-opacity:1"
                   d="m 700.41954,365.66119 c 1.39699,-1.22766 2.89981,-2.30715 5.35513,-1.92615 2.45531,2.22248 1.37582,5.05879 0.71966,5.07996 l -0.76199,-0.78316 c -0.97366,-2.39182 -2.96332,-2.75165 -5.3128,-2.37065 z"
                   id="path12242" />
              </g>
              <g
                 id="g12250">
                <path
                   inkscape:connector-curvature="0"
                   style="fill:#000000;fill-opacity:1;fill-rule:nonzero;stroke:#000000;stroke-width:0.23283161px;stroke-linecap:round;stroke-linejoin:round;stroke-miterlimit:4;stroke-dasharray:none;stroke-opacity:1"
                   d="m 707.31982,363.98903 c 1.65099,0.99483 3.19615,2.13782 3.59831,4.69897 -1.41815,3.15381 -4.57197,2.98448 -4.8048,2.32831 l 0.55033,-0.99482 c 2.03199,-1.73565 1.77799,-3.80997 0.65616,-6.03246 z"
                   id="path12246" />
                <path
                   inkscape:connector-curvature="0"
                   style="fill:#c3daee;fill-opacity:1;fill-rule:evenodd;stroke:#ff7f2a;stroke-width:0.21166509px;stroke-linecap:round;stroke-linejoin:round;stroke-miterlimit:4;stroke-dasharray:none;stroke-opacity:1"
                   d="m 707.21399,364.2007 c 1.58749,0.95249 3.06915,2.07432 3.45014,4.50847 -1.35465,3.04797 -4.38146,2.87864 -4.59313,2.24365 l 0.508,-0.9525 c 1.96848,-1.65099 1.71448,-3.6618 0.63499,-5.79962 z"
                   id="path12248" />
              </g>
              <g
                 id="g12256">
                <path
                   inkscape:connector-curvature="0"
                   style="fill:#000000;fill-opacity:1;fill-rule:nonzero;stroke:#000000;stroke-width:0.23283161px;stroke-linecap:round;stroke-linejoin:round;stroke-miterlimit:4;stroke-dasharray:none;stroke-opacity:1"
                   d="m 710.91813,370.27549 c -0.46566,1.88382 -1.12182,3.68297 -3.42897,4.8048 -3.42898,-0.42334 -4.21214,-3.47131 -3.64064,-3.87348 l 1.10065,0.21167 c 2.26482,1.43932 4.16981,0.59266 5.96896,-1.14299 z"
                   id="path12252" />
                <path
                   inkscape:connector-curvature="0"
                   style="fill:#c3daee;fill-opacity:1;fill-rule:evenodd;stroke:#ff7f2a;stroke-width:0.21166509px;stroke-linecap:round;stroke-linejoin:round;stroke-miterlimit:4;stroke-dasharray:none;stroke-opacity:1"
                   d="m 710.66413,370.25432 c -0.42333,1.79915 -1.05832,3.53481 -3.28081,4.6143 -3.30197,-0.40216 -4.0428,-3.34431 -3.49247,-3.74647 l 1.05832,0.21166 c 2.15899,1.39699 4.00048,0.5715 5.71496,-1.07949 z"
                   id="path12254" />
              </g>
              <g
                 id="g12262">
                <path
                   inkscape:connector-curvature="0"
                   style="fill:#000000;fill-opacity:1;fill-rule:nonzero;stroke:#000000;stroke-width:0.23283161px;stroke-linecap:round;stroke-linejoin:round;stroke-miterlimit:4;stroke-dasharray:none;stroke-opacity:1"
                   d="m 706.09217,375.56711 c -1.92616,0.14817 -3.85231,0.10584 -5.65146,-1.75682 -0.65616,-3.38664 2.01082,-5.07996 2.56115,-4.65663 l 0.14816,1.12183 c -0.67733,2.58231 0.74083,4.12747 2.94215,5.29162 z"
                   id="path12258" />
                <path
                   inkscape:connector-curvature="0"
                   style="fill:#c3daee;fill-opacity:1;fill-rule:evenodd;stroke:#ff7f2a;stroke-width:0.21166509px;stroke-linecap:round;stroke-linejoin:round;stroke-miterlimit:4;stroke-dasharray:none;stroke-opacity:1"
                   d="m 706.04983,375.33428 c -1.86265,0.14817 -3.70414,0.0847 -5.43979,-1.69332 -0.63499,-3.25964 1.92615,-4.8683 2.45532,-4.4873 l 0.14816,1.07949 c -0.65616,2.49765 0.71966,3.97931 2.83631,5.10113 z"
                   id="path12260" />
              </g>
              <g
                 id="g12268">
                <path
                   inkscape:connector-curvature="0"
                   style="fill:#000000;fill-opacity:1;fill-rule:nonzero;stroke:#000000;stroke-width:0.23283161px;stroke-linecap:round;stroke-linejoin:round;stroke-miterlimit:4;stroke-dasharray:none;stroke-opacity:1"
                   d="m 699.55171,372.64614 c -0.78316,-1.77799 -1.37582,-3.59831 -0.23283,-5.90546 2.96331,-1.77799 5.4398,0.16933 5.2493,0.84666 l -1.01599,0.508 c -2.66698,0.23283 -3.64064,2.07431 -4.00048,4.5508 z"
                   id="path12264" />
                <path
                   inkscape:connector-curvature="0"
                   style="fill:#c3daee;fill-opacity:1;fill-rule:evenodd;stroke:#ff7f2a;stroke-width:0.21166509px;stroke-linecap:round;stroke-linejoin:round;stroke-miterlimit:4;stroke-dasharray:none;stroke-opacity:1"
                   d="m 699.76338,372.51914 c -0.76199,-1.69332 -1.33349,-3.45014 -0.23283,-5.67263 2.85748,-1.69332 5.22813,0.16933 5.03763,0.80433 l -0.97366,0.48683 c -2.56115,0.23283 -3.49248,2.01082 -3.83114,4.38147 z"
                   id="path12266" />
              </g>
              <g
                 id="g12274">
                <path
                   inkscape:connector-curvature="0"
                   style="fill:#c3daee;fill-opacity:1;fill-rule:evenodd;stroke:#000000;stroke-width:0.38099718px;stroke-linecap:round;stroke-linejoin:round;stroke-miterlimit:4;stroke-dasharray:none;stroke-opacity:1"
                   d="m 706.55783,369.51349 c 0,0.99483 -0.78316,1.77799 -1.75682,1.77799 -0.99483,0 -1.77799,-0.78316 -1.77799,-1.77799 0,-0.97366 0.78316,-1.75682 1.77799,-1.75682 0.97366,0 1.75682,0.78316 1.75682,1.75682 z"
                   id="path12270" />
                <path
                   inkscape:connector-curvature="0"
                   style="fill:#c3daee;fill-opacity:1;fill-rule:evenodd;stroke:#ff7f2a;stroke-width:0.7196613px;stroke-linecap:round;stroke-linejoin:round;stroke-miterlimit:4;stroke-dasharray:none;stroke-opacity:1"
                   d="m 706.04983,369.51349 c 0,0.6985 -0.55033,1.26999 -1.24882,1.26999 -0.6985,0 -1.26999,-0.57149 -1.26999,-1.26999 0,-0.69849 0.57149,-1.24882 1.26999,-1.24882 0.69849,0 1.24882,0.55033 1.24882,1.24882 z"
                   id="path12272" />
              </g>
            </g>
          </g>
        </g>
      </g>
    </g>
  </g>
</svg>
