<?xml version="1.0" encoding="UTF-8" standalone="no"?>
<!-- Created with Inkscape (http://www.inkscape.org/) -->

<svg
   xmlns:dc="http://purl.org/dc/elements/1.1/"
   xmlns:cc="http://creativecommons.org/ns#"
   xmlns:rdf="http://www.w3.org/1999/02/22-rdf-syntax-ns#"
   xmlns:svg="http://www.w3.org/2000/svg"
   xmlns="http://www.w3.org/2000/svg"
   xmlns:xlink="http://www.w3.org/1999/xlink"
   xmlns:sodipodi="http://sodipodi.sourceforge.net/DTD/sodipodi-0.dtd"
   xmlns:inkscape="http://www.inkscape.org/namespaces/inkscape"
   width="22.127361mm"
   height="23.142653mm"
   viewBox="0 0 22.127362 23.142652"
   version="1.1"
   id="svg8"
   inkscape:version="0.92.4 (5da689c313, 2019-01-14)"
   sodipodi:docname="SimbTempoLavDriver.svg">
  <defs
     id="defs2">
    <radialGradient
       inkscape:collect="always"
       xlink:href="#linearGradient4607"
       id="radialGradient6094"
       gradientUnits="userSpaceOnUse"
       cx="79.536125"
       cy="49.857117"
       fx="79.536125"
       fy="49.857117"
       r="7.376636" />
    <linearGradient
       inkscape:collect="always"
       id="linearGradient4607">
      <stop
         style="stop-color:#d7eef4;stop-opacity:1"
         offset="0"
         id="stop4603" />
      <stop
         style="stop-color:#afc6e9;stop-opacity:1"
         offset="1"
         id="stop4605" />
    </linearGradient>
  </defs>
  <sodipodi:namedview
     id="base"
     pagecolor="#ffffff"
     bordercolor="#666666"
     borderopacity="1.0"
     inkscape:pageopacity="0.0"
     inkscape:pageshadow="2"
     inkscape:zoom="2.8"
     inkscape:cx="-21.848289"
     inkscape:cy="37.22679"
     inkscape:document-units="mm"
     inkscape:current-layer="layer1"
     showgrid="false"
     inkscape:window-width="1920"
     inkscape:window-height="1017"
     inkscape:window-x="-8"
     inkscape:window-y="-8"
     inkscape:window-maximized="1" />
  <metadata
     id="metadata5">
    <rdf:RDF>
      <cc:Work
         rdf:about="">
        <dc:format>image/svg+xml</dc:format>
        <dc:type
           rdf:resource="http://purl.org/dc/dcmitype/StillImage" />
        <dc:title></dc:title>
      </cc:Work>
    </rdf:RDF>
  </metadata>
  <g
     inkscape:label="Livello 1"
     inkscape:groupmode="layer"
     id="layer1"
     transform="translate(75.498967,-120.23939)">
    <g
       transform="translate(-654.25863,-16.687443)"
       id="g6376">
      <g
         transform="matrix(0.75428972,0,0,0.75428972,169.20421,6.1705206)"
         id="g6330">
        <g
           id="g6294">
          <rect
             ry="0"
             y="175.57947"
             x="557.7113"
             height="22.824818"
             width="14.218738"
             id="rect6131"
             style="opacity:1;fill:#87aade;fill-opacity:1;stroke:#ff6600;stroke-width:0.289;stroke-linecap:square;stroke-linejoin:miter;stroke-miterlimit:4;stroke-dasharray:none;stroke-dashoffset:0;stroke-opacity:1" />
          <rect
             style="opacity:1;fill:#aaccff;fill-opacity:1;stroke:#ff6600;stroke-width:0.289;stroke-linecap:square;stroke-linejoin:miter;stroke-miterlimit:4;stroke-dasharray:none;stroke-dashoffset:0;stroke-opacity:1"
             id="rect6133"
             width="14.218738"
             height="22.824818"
             x="553.78247"
             y="178.75996"
             ry="0" />
          <path
             inkscape:connector-curvature="0"
             id="path6135"
             d="m 568.00122,178.75996 3.92883,-3.18049 v 22.82481 l -3.92883,3.1805 z"
             style="fill:#87aade;fill-opacity:1;stroke:#ff6600;stroke-width:0.26458332px;stroke-linecap:butt;stroke-linejoin:miter;stroke-opacity:1" />
          <path
             inkscape:connector-curvature="0"
             id="path6138"
             d="m 553.78246,178.75996 3.92883,-3.18049 h 14.21876 l -3.92883,3.18049 z"
             style="fill:#d5e5ff;fill-opacity:1;stroke:#ff7f2a;stroke-width:0.26458332px;stroke-linecap:butt;stroke-linejoin:miter;stroke-opacity:1" />
          <rect
             y="181.37709"
             x="556.81561"
             height="5.8208332"
             width="8.598958"
             id="rect6140"
             style="opacity:1;fill:#ff9955;fill-opacity:1;stroke:#ff7f2a;stroke-width:0.289;stroke-linecap:square;stroke-linejoin:miter;stroke-miterlimit:4;stroke-dasharray:none;stroke-dashoffset:0;stroke-opacity:1" />
          <rect
             style="opacity:1;fill:#d5e5ff;fill-opacity:1;stroke:#ff7f2a;stroke-width:0.19470796;stroke-linecap:square;stroke-linejoin:miter;stroke-miterlimit:4;stroke-dasharray:none;stroke-dashoffset:0;stroke-opacity:1"
             id="rect6142"
             width="5.793376"
             height="3.9216697"
             x="558.21838"
             y="182.32668" />
        </g>
        <g
           transform="matrix(0.36630714,0,0,0.36630714,357.12551,123.70959)"
           id="g6195">
          <path
             style="fill:#afc6e9;fill-opacity:1;stroke:#ff7f2a;stroke-width:0.26458332px;stroke-linecap:butt;stroke-linejoin:miter;stroke-opacity:1"
             d="m 525.92549,192.82031 24.14323,-8.13593 c 8.28063,2.25483 15.14133,15.105 9.7896,25.59843 l -25.99531,8.33438 z"
             id="path6144"
             inkscape:connector-curvature="0"
             sodipodi:nodetypes="ccccc" />
          <path
             style="fill:#d5e5ff;fill-opacity:1;stroke:#ff6600;stroke-width:0.26458332px;stroke-linecap:butt;stroke-linejoin:miter;stroke-opacity:1"
             d="m 527.72474,193.33225 -0.1637,-2.92327 18.00729,-5.96344 1.09914,2.31522 z"
             id="path6146"
             inkscape:connector-curvature="0"
             sodipodi:nodetypes="ccccc" />
          <path
             sodipodi:nodetypes="ccccc"
             inkscape:connector-curvature="0"
             id="path6148"
             d="m 529.74219,193.56377 -0.1637,-2.92327 18.00729,-5.96344 1.09914,2.31522 z"
             style="fill:#d5e5ff;fill-opacity:1;stroke:#ff6600;stroke-width:0.26458332px;stroke-linecap:butt;stroke-linejoin:miter;stroke-opacity:1" />
          <path
             style="fill:#d5e5ff;fill-opacity:1;stroke:#ff6600;stroke-width:0.26458332px;stroke-linecap:butt;stroke-linejoin:miter;stroke-opacity:1"
             d="m 532.22513,193.57109 -0.1637,-2.92327 18.00729,-5.96344 1.09914,2.31522 z"
             id="path6150"
             inkscape:connector-curvature="0"
             sodipodi:nodetypes="ccccc" />
          <path
             transform="rotate(-14.263485)"
             style="opacity:1;fill:#87aade;fill-opacity:1;stroke:#ff7f2a;stroke-width:0.58899999;stroke-linecap:square;stroke-linejoin:miter;stroke-miterlimit:4;stroke-dasharray:none;stroke-dashoffset:0;stroke-opacity:1"
             d="m 471.92156,331.45859 c -0.44371,12.04545 -9.5408,13.5638 -14.44391,10.25674 -3.30563,-1.13645 -5.30222,-5.70296 -5.30222,-11.19375 0,-4.6314 1.75941,-8.62271 4.29392,-10.44064 0.74277,-0.90023 1.6196,-2.08682 2.78251,-2.55685 8.86073,-3.82449 12.63464,6.63805 12.6697,13.9345 z"
             id="path6152"
             inkscape:connector-curvature="0"
             sodipodi:nodetypes="ccsccc" />
          <g
             id="g6159"
             style="fill:#87aade">
            <path
               sodipodi:nodetypes="ccccc"
               inkscape:connector-curvature="0"
               id="path6154"
               d="m 551.0609,182.7 3.175,0.13229 c 12.20213,5.12107 14.7251,25.42395 5.887,28.83959 8.63608,-15.22399 -4.12151,-27.76695 -10.78177,-28.24427 z"
               style="fill:#87aade;fill-opacity:1;stroke:#ff7f2a;stroke-width:0.26458332px;stroke-linecap:butt;stroke-linejoin:miter;stroke-opacity:1" />
            <path
               sodipodi:nodetypes="ccccc"
               inkscape:connector-curvature="0"
               id="path6157"
               d="m 556.81559,184.15521 3.90261,1.65365 c 3.46281,1.82417 7.73596,9.65081 6.21772,16.6026 l -2.91041,5.6224 c 3.53423,-10.39818 -1.29425,-19.3496 -7.20992,-23.87865 z"
               style="fill:#87aade;fill-opacity:1;stroke:#ff7f2a;stroke-width:0.26458332px;stroke-linecap:butt;stroke-linejoin:miter;stroke-opacity:1" />
          </g>
          <ellipse
             style="opacity:1;fill:#d5e5ff;fill-opacity:1;stroke:#ff7f2a;stroke-width:0.58899999;stroke-linecap:square;stroke-linejoin:miter;stroke-miterlimit:4;stroke-dasharray:none;stroke-dashoffset:0;stroke-opacity:1"
             id="ellipse6161"
             cx="459.55069"
             cy="330.52158"
             rx="7.3752604"
             ry="11.488276"
             transform="rotate(-14.263485)" />
          <ellipse
             transform="rotate(-14.263485)"
             ry="7.8958464"
             rx="5.0689869"
             cy="330.39209"
             cx="459.25943"
             id="ellipse6163"
             style="opacity:1;fill:#aaccff;fill-opacity:1;stroke:#ff7f2a;stroke-width:0.40481737;stroke-linecap:square;stroke-linejoin:miter;stroke-miterlimit:4;stroke-dasharray:none;stroke-dashoffset:0;stroke-opacity:1" />
          <ellipse
             style="opacity:1;fill:#80b3ff;fill-opacity:1;stroke:#ff7f2a;stroke-width:0.19745943;stroke-linecap:square;stroke-linejoin:miter;stroke-miterlimit:4;stroke-dasharray:none;stroke-dashoffset:0;stroke-opacity:1"
             id="ellipse6165"
             cx="460.01349"
             cy="330.37903"
             rx="2.4725206"
             ry="3.8513894"
             transform="rotate(-14.263485)" />
          <path
             inkscape:connector-curvature="0"
             style="opacity:1;fill:#d5e5ff;fill-opacity:1;stroke:#ff7f2a;stroke-width:0.11451625;stroke-linecap:square;stroke-linejoin:miter;stroke-miterlimit:4;stroke-dasharray:none;stroke-dashoffset:0;stroke-opacity:1"
             d="m 526.96887,204.66399 a 2.2336065,1.433934 75.736515 0 0 -0.28734,0.0269 2.2336065,1.433934 75.736515 0 0 -0.26095,0.11317 l -6.41512,2.13837 0.003,0.006 a 2.2336065,1.433934 75.736515 0 0 -0.81238,2.50992 2.2336065,1.433934 75.736515 0 0 1.93995,1.81127 2.2336065,1.433934 75.736515 0 0 0.24183,-0.10077 l 6.1831,-2.12236 a 2.2336065,1.433934 75.736515 0 0 0.22273,-0.0258 2.2336065,1.433934 75.736515 0 0 0.83923,-2.51819 2.2336065,1.433934 75.736515 0 0 -1.65261,-1.83813 z"
             id="path6167" />
          <ellipse
             transform="rotate(-14.263485)"
             ry="2.2336066"
             rx="1.433934"
             cy="330.92316"
             cx="453.034"
             id="ellipse6169"
             style="opacity:1;fill:#aaccff;fill-opacity:1;stroke:#ff7f2a;stroke-width:0.11451625;stroke-linecap:square;stroke-linejoin:miter;stroke-miterlimit:4;stroke-dasharray:none;stroke-dashoffset:0;stroke-opacity:1" />
          <path
             sodipodi:nodetypes="ccccc"
             inkscape:connector-curvature="0"
             id="path6171"
             d="m 534.17396,194.22523 -0.1637,-2.92327 18.00729,-5.96344 1.09914,2.31522 z"
             style="fill:#d5e5ff;fill-opacity:1;stroke:#ff6600;stroke-width:0.26458332px;stroke-linecap:butt;stroke-linejoin:miter;stroke-opacity:1" />
          <path
             style="fill:#d5e5ff;fill-opacity:1;stroke:#ff6600;stroke-width:0.26458332px;stroke-linecap:butt;stroke-linejoin:miter;stroke-opacity:1"
             d="m 535.47153,195.1183 -0.1637,-2.92327 18.00729,-5.96344 1.09914,2.31522 z"
             id="path6173"
             inkscape:connector-curvature="0"
             sodipodi:nodetypes="ccccc" />
          <path
             style="fill:#d5e5ff;fill-opacity:1;stroke:#ff6600;stroke-width:0.26458332px;stroke-linecap:butt;stroke-linejoin:miter;stroke-opacity:1"
             d="m 536.49155,196.24999 -0.1637,-2.92327 18.00729,-5.96344 1.09914,2.31522 z"
             id="path6175"
             inkscape:connector-curvature="0"
             sodipodi:nodetypes="ccccc" />
          <path
             sodipodi:nodetypes="ccccc"
             inkscape:connector-curvature="0"
             id="path6177"
             d="m 537.74831,197.77135 -0.1637,-2.92327 18.00729,-5.96344 1.09914,2.31522 z"
             style="fill:#d5e5ff;fill-opacity:1;stroke:#ff6600;stroke-width:0.26458332px;stroke-linecap:butt;stroke-linejoin:miter;stroke-opacity:1" />
          <path
             style="fill:#87aade;fill-opacity:1;stroke:#ff7f2a;stroke-width:0.26458332px;stroke-linecap:butt;stroke-linejoin:miter;stroke-opacity:1"
             d="m 545.56831,184.44554 3.7728,-1.01793 c 11.37709,2.38125 18.31201,17.71785 10.78179,28.24427 l -1.3826,0.48341 c 7.80671,-10.98502 -0.98927,-28.93552 -13.17199,-27.70975 z"
             id="path6179"
             inkscape:connector-curvature="0"
             sodipodi:nodetypes="ccccc" />
          <g
             id="g6193"
             transform="translate(1.3890625)"
             style="fill:#87aade">
            <g
               id="g6185"
               style="fill:#87aade">
              <path
                 style="fill:#87aade;fill-opacity:1;stroke:#ff7f2a;stroke-width:0.26458332px;stroke-linecap:butt;stroke-linejoin:round;stroke-opacity:1"
                 d="m 538.58149,199.43326 8.88672,-3.46114 c 0.57299,-0.17375 0.90721,-0.23018 1.96443,0.0468 l 4.72399,1.16928 -9.40121,3.83531 c 0.0447,5.40375 0.0437,9.05872 0.37418,14.17197 l -4.86431,-1.91766 c 1.656,-5.35636 0.34387,-10.85585 -1.6838,-13.84456 z"
                 id="path6181"
                 inkscape:connector-curvature="0"
                 sodipodi:nodetypes="cccccccc" />
              <path
                 style="fill:#87aade;stroke:#ff6600;stroke-width:0.26458332px;stroke-linecap:butt;stroke-linejoin:miter;stroke-opacity:1"
                 d="m 544.75541,201.02351 -6.17392,-1.59025"
                 id="path6183"
                 inkscape:connector-curvature="0" />
            </g>
            <g
               id="g6191"
               style="fill:#87aade">
              <path
                 style="opacity:1;fill:#87aade;fill-opacity:1;stroke:#ff7f2a;stroke-width:1.09228349;stroke-linecap:square;stroke-linejoin:miter;stroke-miterlimit:4;stroke-dasharray:none;stroke-dashoffset:0;stroke-opacity:1"
                 d="m 2099.9707,739.87305 c -0.4681,0.0179 -0.9501,0.11582 -1.4414,0.30273 l -37.832,14.39063 c -3.9306,1.49525 -7.5357,3.85536 -7.4239,7.95898 l 1.4141,51.87109 c 0.079,2.88104 1.792,5.89903 4.1504,6.88868 l -0.096,0.18359 7.9531,1.5918 2.3242,-4.63672 31.2774,-12.96875 c 3.8912,-1.61333 7.5674,-3.85854 7.4238,-7.95899 l -1.7676,-50.43164 c -0.021,-0.60498 -0.1191,-1.21083 -0.2715,-1.80468 l 2.0274,-4.04688 -6.2735,-1.12695 c -0.4681,-0.15112 -0.9566,-0.23236 -1.4648,-0.21289 z"
                 transform="scale(0.26458333)"
                 id="path6187"
                 inkscape:connector-curvature="0" />
              <path
                 style="opacity:1;fill:#87aade;fill-opacity:1;stroke:#ff7f2a;stroke-width:0.289;stroke-linecap:square;stroke-linejoin:miter;stroke-miterlimit:4;stroke-dasharray:none;stroke-dashoffset:0;stroke-opacity:1"
                 d="m 546.97926,200.00958 10.00924,-3.80776 c 1.03997,-0.39562 1.9264,0.73808 1.96443,1.82297 l 0.46772,13.34315 c 0.038,1.08491 -0.93487,1.67904 -1.96443,2.1059 l -10.10278,4.18866 c -1.02955,0.42687 -1.93483,-0.73719 -1.96443,-1.82296 l -0.37418,-13.72407 c -0.0296,-1.08575 0.92448,-1.71027 1.96443,-2.10589 z"
                 id="path6189"
                 inkscape:connector-curvature="0"
                 sodipodi:nodetypes="sssssssss" />
            </g>
          </g>
        </g>
      </g>
      <g
         id="g6090"
         transform="matrix(0.81884051,0,0,0.81884051,519.67255,102.14209)">
        <circle
           style="opacity:1;fill:url(#radialGradient6094);fill-opacity:1;stroke:#d45500;stroke-width:0.53814727;stroke-linecap:round;stroke-linejoin:round;stroke-miterlimit:4;stroke-dasharray:none;stroke-dashoffset:0;stroke-opacity:1"
           id="circle6073"
           cx="79.536125"
           cy="49.857117"
           r="7.1075625" />
        <path
           style="fill:#80b3ff;fill-opacity:1;stroke:#000000;stroke-width:0.06546794px;stroke-linecap:butt;stroke-linejoin:miter;stroke-opacity:1"
           d="m 76.031097,46.64142 3.438892,4.629283 7.671388,-7.803646 -7.60525,5.935401 z"
           id="path6076"
           inkscape:connector-curvature="0" />
        <g
           id="g6082"
           transform="matrix(0.24743788,0,0,0.24743788,-100.76616,-13.290448)">
          <path
             inkscape:connector-curvature="0"
             id="path6078"
             d="m 746.38356,255.20573 h 10.89122"
             style="fill:none;stroke:#ff6600;stroke-width:1.76499999;stroke-linecap:butt;stroke-linejoin:miter;stroke-miterlimit:4;stroke-dasharray:none;stroke-opacity:1" />
          <path
             style="fill:none;stroke:#ff6600;stroke-width:1.76499999;stroke-linecap:butt;stroke-linejoin:miter;stroke-miterlimit:4;stroke-dasharray:none;stroke-opacity:1"
             d="m 700.07911,255.20573 h 10.89122"
             id="path6080"
             inkscape:connector-curvature="0" />
        </g>
        <g
           transform="matrix(0.24743788,0,0,0.24743788,-100.80749,-13.505377)"
           id="g6088">
          <path
             inkscape:connector-curvature="0"
             id="path6084"
             d="m 728.84399,227.0422 v 10.89123"
             style="fill:none;stroke:#ff6600;stroke-width:1.76499999;stroke-linecap:butt;stroke-linejoin:miter;stroke-miterlimit:4;stroke-dasharray:none;stroke-opacity:1" />
          <path
             style="fill:none;stroke:#ff6600;stroke-width:1.76499999;stroke-linecap:butt;stroke-linejoin:miter;stroke-miterlimit:4;stroke-dasharray:none;stroke-opacity:1"
             d="M 728.84399,274.21527 V 285.1065"
             id="path6086"
             inkscape:connector-curvature="0" />
        </g>
      </g>
    </g>
  </g>
</svg>
