<?xml version="1.0" encoding="UTF-8" standalone="no"?>
<!-- Created with Inkscape (http://www.inkscape.org/) -->

<svg
   xmlns:dc="http://purl.org/dc/elements/1.1/"
   xmlns:cc="http://creativecommons.org/ns#"
   xmlns:rdf="http://www.w3.org/1999/02/22-rdf-syntax-ns#"
   xmlns:svg="http://www.w3.org/2000/svg"
   xmlns="http://www.w3.org/2000/svg"
   xmlns:sodipodi="http://sodipodi.sourceforge.net/DTD/sodipodi-0.dtd"
   xmlns:inkscape="http://www.inkscape.org/namespaces/inkscape"
   width="18.633263mm"
   height="10.440526mm"
   viewBox="0 0 18.633265 10.440524"
   version="1.1"
   id="svg8"
   inkscape:version="0.92.4 (5da689c313, 2019-01-14)"
   sodipodi:docname="SimbPasswordOn.svg">
  <defs
     id="defs2" />
  <sodipodi:namedview
     id="base"
     pagecolor="#ffffff"
     bordercolor="#666666"
     borderopacity="1.0"
     inkscape:pageopacity="0.0"
     inkscape:pageshadow="2"
     inkscape:zoom="1.4"
     inkscape:cx="41.790758"
     inkscape:cy="-65.504585"
     inkscape:document-units="mm"
     inkscape:current-layer="layer1"
     showgrid="false"
     inkscape:window-width="1445"
     inkscape:window-height="1008"
     inkscape:window-x="953"
     inkscape:window-y="0"
     inkscape:window-maximized="0" />
  <metadata
     id="metadata5">
    <rdf:RDF>
      <cc:Work
         rdf:about="">
        <dc:format>image/svg+xml</dc:format>
        <dc:type
           rdf:resource="http://purl.org/dc/dcmitype/StillImage" />
        <dc:title />
      </cc:Work>
    </rdf:RDF>
  </metadata>
  <g
     inkscape:label="Livello 1"
     inkscape:groupmode="layer"
     id="layer1"
     transform="translate(19.65843,-94.724153)">
    <g
       transform="translate(-628.59687,23.424133)"
       id="g5356"
       inkscape:export-filename="X:\Librerie\Libreria Immagini\Grafica UNIQO\Simboli vari\PNG\SimbPasswordOn.png"
       inkscape:export-xdpi="96"
       inkscape:export-ydpi="96">
      <path
         id="path5327"
         d="m 618.28222,71.383031 c -3.18302,0.02178 -6.27372,1.849837 -9.23018,5.066547 6.91585,7.207693 12.77199,6.675623 18.41013,0 -3.11822,-3.513493 -6.18983,-5.087004 -9.17995,-5.066547 z m -0.0265,1.33819 a 4.2305238,3.79911 0 0 1 4.23068,3.799022 4.2305238,3.79911 0 0 1 -4.23068,3.799023 4.2305238,3.79911 0 0 1 -4.23042,-3.799023 4.2305238,3.79911 0 0 1 4.23042,-3.799022 z"
         style="fill:#0fafff;fill-opacity:1;stroke:#000000;stroke-width:0.16562815;stroke-linecap:butt;stroke-linejoin:miter;stroke-miterlimit:4;stroke-dasharray:none;stroke-opacity:1"
         inkscape:connector-curvature="0" />
      <path
         id="path5329"
         d="m 618.30202,73.801198 a 3.0161462,2.7085703 0 0 0 -3.01619,2.708601 3.0161462,2.7085703 0 0 0 3.01619,2.708612 3.0161462,2.7085703 0 0 0 3.01594,-2.708612 3.0161462,2.7085703 0 0 0 -0.17643,-0.904422 1.5150884,1.3605851 0 0 1 -1.40627,0.857091 1.5150884,1.3605851 0 0 1 -1.51514,-1.36041 1.5150884,1.3605851 0 0 1 0.82871,-1.212866 3.0161462,2.7085703 0 0 0 -0.74681,-0.08799 z"
         style="opacity:1;fill:#b8cfeb;fill-opacity:1;stroke:#000000;stroke-width:0.1742499;stroke-linecap:round;stroke-linejoin:round;stroke-miterlimit:4;stroke-dasharray:none;stroke-dashoffset:0;stroke-opacity:1"
         inkscape:connector-curvature="0" />
    </g>
  </g>
</svg>
