<?xml version="1.0" encoding="UTF-8" standalone="no"?>
<!-- Created with Inkscape (http://www.inkscape.org/) -->

<svg
   xmlns:dc="http://purl.org/dc/elements/1.1/"
   xmlns:cc="http://creativecommons.org/ns#"
   xmlns:rdf="http://www.w3.org/1999/02/22-rdf-syntax-ns#"
   xmlns:svg="http://www.w3.org/2000/svg"
   xmlns="http://www.w3.org/2000/svg"
   xmlns:sodipodi="http://sodipodi.sourceforge.net/DTD/sodipodi-0.dtd"
   xmlns:inkscape="http://www.inkscape.org/namespaces/inkscape"
   width="55.974895mm"
   height="55.834156mm"
   viewBox="0 0 55.974898 55.834149"
   version="1.1"
   id="svg8"
   inkscape:version="0.92.4 (5da689c313, 2019-01-14)"
   sodipodi:docname="SimbLenteIngr.svg">
  <defs
     id="defs2" />
  <sodipodi:namedview
     id="base"
     pagecolor="#ffffff"
     bordercolor="#666666"
     borderopacity="1.0"
     inkscape:pageopacity="0.0"
     inkscape:pageshadow="2"
     inkscape:zoom="1.4"
     inkscape:cx="266.40873"
     inkscape:cy="-46.343731"
     inkscape:document-units="mm"
     inkscape:current-layer="layer1"
     showgrid="false"
     inkscape:window-width="958"
     inkscape:window-height="1008"
     inkscape:window-x="953"
     inkscape:window-y="0"
     inkscape:window-maximized="0" />
  <metadata
     id="metadata5">
    <rdf:RDF>
      <cc:Work
         rdf:about="">
        <dc:format>image/svg+xml</dc:format>
        <dc:type
           rdf:resource="http://purl.org/dc/dcmitype/StillImage" />
        <dc:title></dc:title>
      </cc:Work>
    </rdf:RDF>
  </metadata>
  <g
     inkscape:label="Livello 1"
     inkscape:groupmode="layer"
     id="layer1"
     transform="translate(-3.2530147,-54.40017)">
    <g
       transform="translate(-413.15887,-238.80445)"
       id="g2392"
       inkscape:export-filename="X:\Librerie\Libreria Immagini\Immagini\Grafica 2019\Simboli vari\SimbLenteIngr.png"
       inkscape:export-xdpi="275"
       inkscape:export-ydpi="275">
      <g
         id="g2386">
        <path
           style="opacity:1;fill:#afc6e9;fill-opacity:1;stroke:#000000;stroke-width:0.454;stroke-linecap:round;stroke-linejoin:round;stroke-miterlimit:4;stroke-dasharray:none;stroke-dashoffset:0;stroke-opacity:1"
           d="m 454.97737,293.43162 a 17.182382,17.182382 0 0 1 17.18241,17.18191 17.182382,17.182382 0 0 1 -17.18241,17.18241 17.182382,17.182382 0 0 1 -17.18241,-17.18241 17.182382,17.182382 0 0 1 17.18241,-17.18191 z m 0,2.67271 a 14.509687,14.509687 0 0 0 -14.50973,14.5092 14.509687,14.509687 0 0 0 14.50973,14.50969 14.509687,14.509687 0 0 0 14.50969,-14.50969 14.509687,14.509687 0 0 0 -14.50969,-14.5092 z"
           id="circle2361"
           inkscape:connector-curvature="0" />
        <path
           style="fill:none;stroke:#afc6e9;stroke-width:1.36500001;stroke-linecap:round;stroke-linejoin:miter;stroke-miterlimit:4;stroke-dasharray:none;stroke-opacity:1"
           d="m 465.40071,307.27291 c -1.20872,-3.1936 -2.61695,-6.30406 -8.01809,-7.75081"
           id="path2364"
           inkscape:connector-curvature="0"
           sodipodi:nodetypes="cc" />
      </g>
      <path
         sodipodi:nodetypes="ccccc"
         inkscape:connector-curvature="0"
         id="path2370"
         d="m 444.55369,326.91722 -20.04521,20.84702 c -3.87448,3.46269 -10.51839,-1.55071 -6.94901,-6.81537 l 21.5152,-20.04522 c 1.0301,2.43441 2.9177,4.23351 5.47902,6.01357 z"
         style="fill:#333333;stroke:#000000;stroke-width:0.26458332px;stroke-linecap:butt;stroke-linejoin:miter;stroke-opacity:1" />
    </g>
  </g>
</svg>
