<?xml version="1.0" encoding="UTF-8" standalone="no"?>
<!-- Created with Inkscape (http://www.inkscape.org/) -->

<svg
   xmlns:dc="http://purl.org/dc/elements/1.1/"
   xmlns:cc="http://creativecommons.org/ns#"
   xmlns:rdf="http://www.w3.org/1999/02/22-rdf-syntax-ns#"
   xmlns:svg="http://www.w3.org/2000/svg"
   xmlns="http://www.w3.org/2000/svg"
   xmlns:sodipodi="http://sodipodi.sourceforge.net/DTD/sodipodi-0.dtd"
   xmlns:inkscape="http://www.inkscape.org/namespaces/inkscape"
   width="21.311735mm"
   height="19.921825mm"
   viewBox="0 0 21.311736 19.921825"
   version="1.1"
   id="svg8"
   inkscape:version="0.92.4 (5da689c313, 2019-01-14)"
   sodipodi:docname="SimbCntConsElettr.svg">
  <defs
     id="defs2" />
  <sodipodi:namedview
     id="base"
     pagecolor="#ffffff"
     bordercolor="#666666"
     borderopacity="1.0"
     inkscape:pageopacity="0.0"
     inkscape:pageshadow="2"
     inkscape:zoom="0.7"
     inkscape:cx="-14.564207"
     inkscape:cy="110.77405"
     inkscape:document-units="mm"
     inkscape:current-layer="layer1"
     showgrid="false"
     inkscape:window-width="3840"
     inkscape:window-height="2066"
     inkscape:window-x="-11"
     inkscape:window-y="-11"
     inkscape:window-maximized="1" />
  <metadata
     id="metadata5">
    <rdf:RDF>
      <cc:Work
         rdf:about="">
        <dc:format>image/svg+xml</dc:format>
        <dc:type
           rdf:resource="http://purl.org/dc/dcmitype/StillImage" />
        <dc:title></dc:title>
      </cc:Work>
    </rdf:RDF>
  </metadata>
  <g
     inkscape:label="Livello 1"
     inkscape:groupmode="layer"
     id="layer1"
     transform="translate(95.407365,-160.97033)">
    <g
       transform="translate(-615.93149,-7.8399564)"
       id="g5942"
       inkscape:export-filename="X:\Librerie\Libreria Immagini\Grafica UNIQO\Simboli vari\PNG\SimbCntConsElettr.png"
       inkscape:export-xdpi="200"
       inkscape:export-ydpi="200">
      <g
         id="g5933">
        <rect
           style="opacity:1;fill:#ffccaa;fill-opacity:1;stroke:#aa4400;stroke-width:0.30000001;stroke-linecap:square;stroke-linejoin:miter;stroke-miterlimit:4;stroke-dasharray:none;stroke-dashoffset:0;stroke-opacity:1"
           id="rect5895"
           width="2.2450638"
           height="5.6826506"
           x="532.67078"
           y="182.89946"
           ry="0.58239949" />
        <rect
           ry="0.67085671"
           y="174.73755"
           x="536.05579"
           height="13.844562"
           width="2.2450638"
           id="rect5897"
           style="opacity:1;fill:#aaccff;fill-opacity:1;stroke:#aa4400;stroke-width:0.30000001;stroke-linecap:square;stroke-linejoin:miter;stroke-miterlimit:4;stroke-dasharray:none;stroke-dashoffset:0;stroke-opacity:1" />
        <rect
           style="opacity:1;fill:#ff7f2a;fill-opacity:1;stroke:#aa4400;stroke-width:0.30000001;stroke-linecap:square;stroke-linejoin:miter;stroke-miterlimit:4;stroke-dasharray:none;stroke-dashoffset:0;stroke-opacity:1"
           id="rect5899"
           width="2.2450638"
           height="11.724862"
           x="539.4408"
           y="176.85725"
           ry="0.59378356" />
      </g>
      <g
         transform="matrix(0.76750814,0,0,0.76750814,70.520539,35.697833)"
         id="g5924">
        <path
           style="opacity:1;fill:#aaccff;fill-opacity:1;stroke:#aa4400;stroke-width:0.30293462;stroke-linecap:square;stroke-linejoin:miter;stroke-miterlimit:4;stroke-dasharray:none;stroke-dashoffset:0;stroke-opacity:1"
           d="m 592.61843,191.7142 c 1.02706,0.45063 2.16208,0.70073 3.35552,0.70074 4.61681,-3e-5 8.35947,-3.7427 8.3595,-8.35951 -2e-5,-3.01738 -1.59868,-5.66137 -3.9952,-7.13119 l 0.77699,-0.8647 m 0,0 c 2.62539,1.69145 4.36396,4.64063 4.36402,7.99589 1.9e-4,5.24972 -4.25559,9.5055 -9.50531,9.50532 -1.54117,-3e-5 -2.99666,-0.36686 -4.28396,-1.01794 l 0.92844,-0.82861 m 1.6785,-17.01607 c -4.44949,0.79216 -7.8277,4.68021 -7.82779,9.3573 -1.1e-4,2.94487 1.33904,5.57697 3.44161,7.32052 l 0.5002,-1.08069 m 0,0 c -1.71602,-1.53094 -2.79648,-3.75921 -2.7965,-6.23983 2e-5,-4.05091 2.88141,-7.42884 6.70648,-8.19609 l -0.024,-1.16121"
           id="path5912"
           inkscape:connector-curvature="0"
           sodipodi:nodetypes="ccccccccccccccccc" />
        <path
           style="fill:#ff7f2a;fill-opacity:1;stroke:#aa4400;stroke-width:0.26458332px;stroke-linecap:round;stroke-linejoin:round;stroke-opacity:1"
           d="m 589.11039,194.28694 5.47235,-10.50035 h -3.71839 l 5.44896,-10.21971 h 5.49573 l -4.74738,6.99244 h 4.79415 z"
           id="path5918"
           inkscape:connector-curvature="0" />
      </g>
    </g>
  </g>
</svg>
