<?xml version="1.0" encoding="UTF-8" standalone="no"?>
<!-- Created with Inkscape (http://www.inkscape.org/) -->

<svg
   xmlns:dc="http://purl.org/dc/elements/1.1/"
   xmlns:cc="http://creativecommons.org/ns#"
   xmlns:rdf="http://www.w3.org/1999/02/22-rdf-syntax-ns#"
   xmlns:svg="http://www.w3.org/2000/svg"
   xmlns="http://www.w3.org/2000/svg"
   xmlns:sodipodi="http://sodipodi.sourceforge.net/DTD/sodipodi-0.dtd"
   xmlns:inkscape="http://www.inkscape.org/namespaces/inkscape"
   width="22.996613mm"
   height="22.920778mm"
   viewBox="0 0 22.996616 22.920773"
   version="1.1"
   id="svg8"
   inkscape:version="0.92.4 (5da689c313, 2019-01-14)"
   sodipodi:docname="SimbVent.svg">
  <defs
     id="defs2" />
  <sodipodi:namedview
     id="base"
     pagecolor="#ffffff"
     bordercolor="#666666"
     borderopacity="1.0"
     inkscape:pageopacity="0.0"
     inkscape:pageshadow="2"
     inkscape:zoom="1.4"
     inkscape:cx="45.373783"
     inkscape:cy="51.510058"
     inkscape:document-units="mm"
     inkscape:current-layer="layer1"
     showgrid="false"
     inkscape:window-width="1498"
     inkscape:window-height="1008"
     inkscape:window-x="953"
     inkscape:window-y="0"
     inkscape:window-maximized="0" />
  <metadata
     id="metadata5">
    <rdf:RDF>
      <cc:Work
         rdf:about="">
        <dc:format>image/svg+xml</dc:format>
        <dc:type
           rdf:resource="http://purl.org/dc/dcmitype/StillImage" />
        <dc:title></dc:title>
      </cc:Work>
    </rdf:RDF>
  </metadata>
  <g
     inkscape:label="Livello 1"
     inkscape:groupmode="layer"
     id="layer1"
     transform="translate(62.333731,-113.20403)">
    <g
       id="g5477"
       transform="matrix(1.8446344,0,0,1.8446344,-1350.9359,-556.96997)"
       inkscape:export-filename="X:\Librerie\Libreria Immagini\Grafica UNIQO\Simboli vari\PNG\SimbVent.png"
       inkscape:export-xdpi="275"
       inkscape:export-ydpi="275">
      <path
         inkscape:connector-curvature="0"
         style="fill:#000000;fill-opacity:1;fill-rule:nonzero;stroke:#000000;stroke-width:0.38099718px;stroke-linecap:round;stroke-linejoin:round;stroke-miterlimit:4;stroke-dasharray:none;stroke-opacity:1"
         d="m 706.6425,369.51349 c 0,1.016 -0.8255,1.84149 -1.84149,1.84149 -1.01599,0 -1.84149,-0.82549 -1.84149,-1.84149 0,-1.01599 0.8255,-1.84148 1.84149,-1.84148 1.01599,0 1.84149,0.82549 1.84149,1.84148 z"
         id="path5343" />
      <path
         inkscape:connector-curvature="0"
         style="fill:#000000;fill-opacity:1;fill-rule:nonzero;stroke:#000000;stroke-width:0.76199436px;stroke-linecap:round;stroke-linejoin:round;stroke-miterlimit:4;stroke-dasharray:none;stroke-opacity:1"
         d="m 706.11333,369.51349 c 0,0.74083 -0.59266,1.33349 -1.31232,1.33349 -0.74083,0 -1.31232,-0.59266 -1.31232,-1.33349 0,-0.71966 0.57149,-1.31232 1.31232,-1.31232 0.71966,0 1.31232,0.59266 1.31232,1.31232 z"
         id="path5345" />
      <g
         id="g5454">
        <g
           id="g5415">
          <path
             inkscape:connector-curvature="0"
             style="fill:#000000;fill-opacity:1;fill-rule:nonzero;stroke:#000000;stroke-width:0.23283161px;stroke-linecap:round;stroke-linejoin:round;stroke-miterlimit:4;stroke-dasharray:none;stroke-opacity:1"
             d="m 700.22904,365.51302 c 1.46049,-1.29115 3.02681,-2.39181 5.5668,-2.01082 2.58231,2.32832 1.46049,5.27046 0.76199,5.27046 l -0.78316,-0.80432 c -1.01599,-2.47648 -3.09031,-2.85748 -5.54563,-2.45532 z"
             id="path5333" />
          <path
             inkscape:connector-curvature="0"
             style="fill:#c3daee;fill-opacity:1;fill-rule:evenodd;stroke:#ff7f2a;stroke-width:0.21166509px;stroke-linecap:round;stroke-linejoin:round;stroke-miterlimit:4;stroke-dasharray:none;stroke-opacity:1"
             d="m 700.41954,365.66119 c 1.39699,-1.22766 2.89981,-2.30715 5.35513,-1.92615 2.45531,2.22248 1.37582,5.05879 0.71966,5.07996 l -0.76199,-0.78316 c -0.97366,-2.39182 -2.96332,-2.75165 -5.3128,-2.37065 z"
             id="path5347-5" />
        </g>
        <g
           id="g5430">
          <path
             inkscape:connector-curvature="0"
             style="fill:#000000;fill-opacity:1;fill-rule:nonzero;stroke:#000000;stroke-width:0.23283161px;stroke-linecap:round;stroke-linejoin:round;stroke-miterlimit:4;stroke-dasharray:none;stroke-opacity:1"
             d="m 707.31982,363.98903 c 1.65099,0.99483 3.19615,2.13782 3.59831,4.69897 -1.41815,3.15381 -4.57197,2.98448 -4.8048,2.32831 l 0.55033,-0.99482 c 2.03199,-1.73565 1.77799,-3.80997 0.65616,-6.03246 z"
             id="path5335" />
          <path
             inkscape:connector-curvature="0"
             style="fill:#c3daee;fill-opacity:1;fill-rule:evenodd;stroke:#ff7f2a;stroke-width:0.21166509px;stroke-linecap:round;stroke-linejoin:round;stroke-miterlimit:4;stroke-dasharray:none;stroke-opacity:1"
             d="m 707.21399,364.2007 c 1.58749,0.95249 3.06915,2.07432 3.45014,4.50847 -1.35465,3.04797 -4.38146,2.87864 -4.59313,2.24365 l 0.508,-0.9525 c 1.96848,-1.65099 1.71448,-3.6618 0.63499,-5.79962 z"
             id="path5349-8" />
        </g>
        <g
           id="g5426">
          <path
             inkscape:connector-curvature="0"
             style="fill:#000000;fill-opacity:1;fill-rule:nonzero;stroke:#000000;stroke-width:0.23283161px;stroke-linecap:round;stroke-linejoin:round;stroke-miterlimit:4;stroke-dasharray:none;stroke-opacity:1"
             d="m 710.91813,370.27549 c -0.46566,1.88382 -1.12182,3.68297 -3.42897,4.8048 -3.42898,-0.42334 -4.21214,-3.47131 -3.64064,-3.87348 l 1.10065,0.21167 c 2.26482,1.43932 4.16981,0.59266 5.96896,-1.14299 z"
             id="path5337-1" />
          <path
             inkscape:connector-curvature="0"
             style="fill:#c3daee;fill-opacity:1;fill-rule:evenodd;stroke:#ff7f2a;stroke-width:0.21166509px;stroke-linecap:round;stroke-linejoin:round;stroke-miterlimit:4;stroke-dasharray:none;stroke-opacity:1"
             d="m 710.66413,370.25432 c -0.42333,1.79915 -1.05832,3.53481 -3.28081,4.6143 -3.30197,-0.40216 -4.0428,-3.34431 -3.49247,-3.74647 l 1.05832,0.21166 c 2.15899,1.39699 4.00048,0.5715 5.71496,-1.07949 z"
             id="path5351" />
        </g>
        <g
           id="g5421">
          <path
             inkscape:connector-curvature="0"
             style="fill:#000000;fill-opacity:1;fill-rule:nonzero;stroke:#000000;stroke-width:0.23283161px;stroke-linecap:round;stroke-linejoin:round;stroke-miterlimit:4;stroke-dasharray:none;stroke-opacity:1"
             d="m 706.09217,375.56711 c -1.92616,0.14817 -3.85231,0.10584 -5.65146,-1.75682 -0.65616,-3.38664 2.01082,-5.07996 2.56115,-4.65663 l 0.14816,1.12183 c -0.67733,2.58231 0.74083,4.12747 2.94215,5.29162 z"
             id="path5339-0" />
          <path
             inkscape:connector-curvature="0"
             style="fill:#c3daee;fill-opacity:1;fill-rule:evenodd;stroke:#ff7f2a;stroke-width:0.21166509px;stroke-linecap:round;stroke-linejoin:round;stroke-miterlimit:4;stroke-dasharray:none;stroke-opacity:1"
             d="m 706.04983,375.33428 c -1.86265,0.14817 -3.70414,0.0847 -5.43979,-1.69332 -0.63499,-3.25964 1.92615,-4.8683 2.45532,-4.4873 l 0.14816,1.07949 c -0.65616,2.49765 0.71966,3.97931 2.83631,5.10113 z"
             id="path5353" />
        </g>
        <g
           id="g5411">
          <path
             inkscape:connector-curvature="0"
             style="fill:#000000;fill-opacity:1;fill-rule:nonzero;stroke:#000000;stroke-width:0.23283161px;stroke-linecap:round;stroke-linejoin:round;stroke-miterlimit:4;stroke-dasharray:none;stroke-opacity:1"
             d="m 699.55171,372.64614 c -0.78316,-1.77799 -1.37582,-3.59831 -0.23283,-5.90546 2.96331,-1.77799 5.4398,0.16933 5.2493,0.84666 l -1.01599,0.508 c -2.66698,0.23283 -3.64064,2.07431 -4.00048,4.5508 z"
             id="path5341" />
          <path
             inkscape:connector-curvature="0"
             style="fill:#c3daee;fill-opacity:1;fill-rule:evenodd;stroke:#ff7f2a;stroke-width:0.21166509px;stroke-linecap:round;stroke-linejoin:round;stroke-miterlimit:4;stroke-dasharray:none;stroke-opacity:1"
             d="m 699.76338,372.51914 c -0.76199,-1.69332 -1.33349,-3.45014 -0.23283,-5.67263 2.85748,-1.69332 5.22813,0.16933 5.03763,0.80433 l -0.97366,0.48683 c -2.56115,0.23283 -3.49248,2.01082 -3.83114,4.38147 z"
             id="path5355" />
        </g>
        <g
           id="g5434">
          <path
             inkscape:connector-curvature="0"
             style="fill:#c3daee;fill-opacity:1;fill-rule:evenodd;stroke:#000000;stroke-width:0.38099718px;stroke-linecap:round;stroke-linejoin:round;stroke-miterlimit:4;stroke-dasharray:none;stroke-opacity:1"
             d="m 706.55783,369.51349 c 0,0.99483 -0.78316,1.77799 -1.75682,1.77799 -0.99483,0 -1.77799,-0.78316 -1.77799,-1.77799 0,-0.97366 0.78316,-1.75682 1.77799,-1.75682 0.97366,0 1.75682,0.78316 1.75682,1.75682 z"
             id="path5357-3" />
          <path
             inkscape:connector-curvature="0"
             style="fill:#c3daee;fill-opacity:1;fill-rule:evenodd;stroke:#ff7f2a;stroke-width:0.7196613px;stroke-linecap:round;stroke-linejoin:round;stroke-miterlimit:4;stroke-dasharray:none;stroke-opacity:1"
             d="m 706.04983,369.51349 c 0,0.6985 -0.55033,1.26999 -1.24882,1.26999 -0.6985,0 -1.26999,-0.57149 -1.26999,-1.26999 0,-0.69849 0.57149,-1.24882 1.26999,-1.24882 0.69849,0 1.24882,0.55033 1.24882,1.24882 z"
             id="path5359-3" />
        </g>
      </g>
    </g>
  </g>
</svg>
