<?xml version="1.0" encoding="UTF-8" standalone="no"?>
<!-- Created with Inkscape (http://www.inkscape.org/) -->

<svg
   xmlns:dc="http://purl.org/dc/elements/1.1/"
   xmlns:cc="http://creativecommons.org/ns#"
   xmlns:rdf="http://www.w3.org/1999/02/22-rdf-syntax-ns#"
   xmlns:svg="http://www.w3.org/2000/svg"
   xmlns="http://www.w3.org/2000/svg"
   xmlns:xlink="http://www.w3.org/1999/xlink"
   xmlns:sodipodi="http://sodipodi.sourceforge.net/DTD/sodipodi-0.dtd"
   xmlns:inkscape="http://www.inkscape.org/namespaces/inkscape"
   width="25.000002mm"
   height="24.81389mm"
   viewBox="0 0 25.000003 24.813891"
   version="1.1"
   id="svg11690"
   inkscape:version="0.92.4 (5da689c313, 2019-01-14)"
   sodipodi:docname="SimbStatoBaratt.svg">
  <defs
     id="defs11684">
    <radialGradient
       inkscape:collect="always"
       xlink:href="#linearGradient7310"
       id="radialGradient1466"
       gradientUnits="userSpaceOnUse"
       gradientTransform="matrix(0.90937017,0,0,0.3220206,74.719307,142.40438)"
       cx="-27.570272"
       cy="111.44713"
       fx="-27.570272"
       fy="111.44713"
       r="26.226007" />
    <linearGradient
       inkscape:collect="always"
       id="linearGradient7310">
      <stop
         style="stop-color:#2a7fff;stop-opacity:1;"
         offset="0"
         id="stop7306" />
      <stop
         style="stop-color:#d5e5ff;stop-opacity:1"
         offset="1"
         id="stop7308" />
    </linearGradient>
    <linearGradient
       inkscape:collect="always"
       xlink:href="#linearGradient5543"
       id="linearGradient1468"
       gradientUnits="userSpaceOnUse"
       gradientTransform="matrix(1.2143002,0,0,0.96070727,-344.75616,-84.477289)"
       x1="314.97711"
       y1="295.93094"
       x2="334.62143"
       y2="276.28662" />
    <linearGradient
       inkscape:collect="always"
       id="linearGradient5543">
      <stop
         style="stop-color:#aaccff;stop-opacity:1"
         offset="0"
         id="stop5539" />
      <stop
         style="stop-color:#ffffff;stop-opacity:1"
         offset="1"
         id="stop5541" />
    </linearGradient>
  </defs>
  <sodipodi:namedview
     id="base"
     pagecolor="#ffffff"
     bordercolor="#666666"
     borderopacity="1.0"
     inkscape:pageopacity="0.0"
     inkscape:pageshadow="2"
     inkscape:zoom="3.959798"
     inkscape:cx="22.804413"
     inkscape:cy="55.415626"
     inkscape:document-units="mm"
     inkscape:current-layer="layer1"
     showgrid="false"
     inkscape:window-width="1970"
     inkscape:window-height="1008"
     inkscape:window-x="953"
     inkscape:window-y="0"
     inkscape:window-maximized="0" />
  <metadata
     id="metadata11687">
    <rdf:RDF>
      <cc:Work
         rdf:about="">
        <dc:format>image/svg+xml</dc:format>
        <dc:type
           rdf:resource="http://purl.org/dc/dcmitype/StillImage" />
        <dc:title />
      </cc:Work>
    </rdf:RDF>
  </metadata>
  <g
     inkscape:label="Livello 1"
     inkscape:groupmode="layer"
     id="layer1"
     transform="translate(27.001958,-112.99675)">
    <g
       transform="translate(-64.149661,-62.588006)"
       id="g1676"
       inkscape:export-filename="X:\Librerie\Libreria Immagini\Immagini\Grafica 2019\Simboli di stato\PNG\SimbStatoBaratt.png"
       inkscape:export-xdpi="275"
       inkscape:export-ydpi="275">
      <rect
         inkscape:export-ydpi="275"
         inkscape:export-xdpi="275"
         inkscape:export-filename="X:\Librerie\Libreria Immagini\Immagini\Grafica 2019\Simboli per variabili\SimbVuoto.png"
         y="176.17448"
         x="37.737438"
         height="4.2363067"
         width="23.820532"
         id="rect1434"
         style="display:inline;opacity:1;fill:url(#radialGradient1466);fill-opacity:1;stroke:#80b3ff;stroke-width:1.17946792;stroke-linecap:round;stroke-linejoin:miter;stroke-miterlimit:4;stroke-dasharray:none;stroke-dashoffset:0;stroke-opacity:1;paint-order:stroke fill markers"
         ry="0" />
      <text
         id="text1438"
         y="179.62244"
         x="49.544956"
         style="font-style:normal;font-weight:normal;font-size:3.71796179px;line-height:1.25;font-family:sans-serif;text-align:center;letter-spacing:0px;word-spacing:0px;text-anchor:middle;fill:#ffffff;fill-opacity:1;stroke:none;stroke-width:0.09294904"
         xml:space="preserve"><tspan
           style="font-style:normal;font-variant:normal;font-weight:bold;font-stretch:normal;font-family:Arial;-inkscape-font-specification:'Arial Bold';text-align:center;text-anchor:middle;fill:#ffffff;stroke:none;stroke-width:0.09294904"
           y="179.62244"
           x="49.544956"
           id="tspan1436"
           sodipodi:role="line">PRESS. POT</tspan></text>
      <g
         id="g1625">
        <rect
           inkscape:export-ydpi="275"
           inkscape:export-xdpi="275"
           inkscape:export-filename="X:\Librerie\Libreria Immagini\Immagini\Grafica 2019\Simboli per variabili\SimbAllarmi.png"
           y="180.95326"
           x="37.720657"
           height="18.872437"
           width="23.854094"
           id="rect1442"
           style="display:inline;opacity:1;fill:url(#linearGradient1468);fill-opacity:1;stroke:#80b3ff;stroke-width:1.14590728;stroke-linecap:round;stroke-linejoin:miter;stroke-miterlimit:4;stroke-dasharray:none;stroke-dashoffset:0;stroke-opacity:1;paint-order:stroke fill markers" />
        <g
           transform="matrix(2.242124,0,0,2.242124,610.45832,-586.85524)"
           id="g10196"
           inkscape:export-filename="X:\Librerie\Libreria Immagini\Immagini\Grafica 2019\Simboli vari\PNG\SimbBarattoloVern.png"
           inkscape:export-xdpi="275"
           inkscape:export-ydpi="275">
          <g
             id="g10116">
            <ellipse
               ry="0.94286841"
               rx="3.2259147"
               cy="349.15778"
               cx="-250.12471"
               id="ellipse10110"
               style="opacity:1;fill:#999999;fill-opacity:1;stroke:#aa4400;stroke-width:0.4890413;stroke-linecap:round;stroke-linejoin:bevel;stroke-miterlimit:4;stroke-dasharray:none;stroke-dashoffset:26.45669365;stroke-opacity:1" />
            <path
               style="opacity:1;fill:#b2c9ea;fill-opacity:1;stroke:#aa4400;stroke-width:0.27392051;stroke-linecap:round;stroke-linejoin:bevel;stroke-miterlimit:4;stroke-dasharray:none;stroke-dashoffset:26.45669365;stroke-opacity:1"
               d="m -253.02442,344.18961 h 5.79941 c 0.17213,0 0.3107,0.162 0.3107,0.36324 v 4.25983 c 0.10964,1.84755 -7.14497,1.38909 -6.42081,0 v -4.25983 c 0,-0.20124 0.13857,-0.36324 0.3107,-0.36324 z"
               id="path10112"
               inkscape:connector-curvature="0"
               sodipodi:nodetypes="sssccss" />
            <ellipse
               style="opacity:1;fill:#999999;fill-opacity:1;stroke:#aa4400;stroke-width:0.4890413;stroke-linecap:round;stroke-linejoin:bevel;stroke-miterlimit:4;stroke-dasharray:none;stroke-dashoffset:26.45669365;stroke-opacity:1"
               id="ellipse10114"
               cx="-250.12471"
               cy="344.15332"
               rx="3.2259147"
               ry="0.94286841" />
          </g>
          <g
             transform="matrix(0.7753366,0,0,0.7753366,-39.560183,71.470157)"
             id="g10194">
            <circle
               r="2.3996081"
               cy="356.21707"
               cx="-271.57822"
               id="circle10118"
               style="opacity:1;fill:#ffffff;fill-opacity:1;stroke:#000000;stroke-width:0.31799999;stroke-linecap:round;stroke-linejoin:round;stroke-miterlimit:4;stroke-dasharray:none;stroke-dashoffset:0;stroke-opacity:1;paint-order:stroke fill markers" />
            <path
               style="fill:#ff9955;fill-opacity:1;stroke:none;stroke-width:0.02843534px;stroke-linecap:butt;stroke-linejoin:miter;stroke-opacity:1"
               d="m -273.73931,355.34267 0.49762,-0.90282 0.90282,-0.4834 1.0521,-0.14929 1.07344,0.41231 0.74643,0.8033 0.35544,1.35068 -0.35544,0.89571 -0.0995,-0.19194 c -0.0983,-0.0155 -0.19668,-0.0356 -0.29503,-0.032 -0.0577,0.008 -0.12043,-0.005 -0.14928,0.13152 -0.0136,0.10833 0.0409,0.12462 0.0498,0.18838 0.0532,0.13768 -0.009,0.20415 -0.0889,0.21682 -0.0807,-0.004 -0.14781,-0.0265 -0.14573,-0.17772 -0.002,-0.094 0.0816,-0.12423 0.0604,-0.19905 -0.0389,-0.12675 -0.0911,-0.0813 -0.13862,-0.096 l -0.91348,-0.98102 c 0.0372,-0.0598 0.0484,-0.13981 0.0497,-0.22748 -0.0615,-0.0884 -0.0864,-0.18324 -0.45851,-0.21682 -0.19161,-0.0262 -0.26391,0.0274 -0.36611,0.0889 -0.20955,0.24681 -0.39231,0.23642 -0.55449,0.0284 -0.15119,-0.14332 -0.15085,-0.49773 -0.54027,-0.30923 -0.10142,0.10055 -0.22043,0.17155 -0.0924,0.65757 0.11903,0.44453 0.01,0.5468 -0.15283,0.5687 -0.25947,0.0196 -0.30067,-0.21783 -0.24881,-0.51894 0.15937,-0.58176 -0.0147,-0.71886 -0.18839,-0.85662 z"
               id="path10120"
               inkscape:connector-curvature="0"
               sodipodi:nodetypes="cccccccccccccccccccccccccc" />
            <circle
               style="opacity:1;fill:none;fill-opacity:1;stroke:#b2c9ea;stroke-width:0.21780404;stroke-linecap:round;stroke-linejoin:round;stroke-miterlimit:4;stroke-dasharray:none;stroke-dashoffset:0;stroke-opacity:1;paint-order:stroke fill markers"
               id="circle10122"
               cx="-271.57822"
               cy="356.21707"
               r="2.3996081" />
            <g
               id="g10192"
               transform="matrix(0.10747216,0,0,0.10747216,-282.51162,339.31168)">
              <path
                 sodipodi:nodetypes="cccccccccc"
                 inkscape:connector-curvature="0"
                 id="path10124"
                 d="m 97.847374,163.09128 c -0.945463,0.60799 -1.41003,1.44499 -0.664493,2.85822 0.589503,0.74207 0.607771,1.43062 0.393549,2.29482 -0.569756,2.25269 -2.39948,3.24542 -3.938551,4.5288 -3.471198,2.98102 -7.138776,2.46073 -5.3788,6.54811 3.332966,1.72346 3.62889,-1.04876 7.015826,-4.77076 1.05996,-1.20962 2.273136,-2.03187 3.610646,-2.56155 2.000319,-0.88689 2.595979,-0.51307 4.123519,0.65273 0.68638,0.51446 1.45526,0.76551 2.7428,-0.2427 z"
                 style="fill:#ff6600;stroke:none;stroke-width:0.26458332px;stroke-linecap:butt;stroke-linejoin:miter;stroke-opacity:1" />
              <g
                 id="g10188">
                <path
                   sodipodi:nodetypes="ccc"
                   inkscape:connector-curvature="0"
                   id="path10126"
                   d="m 106.08422,156.44334 c -0.80731,1.11616 -2.68246,1.67215 -3.98528,3.42305 -1.36229,1.26872 -1.78769,2.53665 -2.182825,2.66237"
                   style="fill:none;stroke:#b2c9ea;stroke-width:0.76499999;stroke-linecap:round;stroke-linejoin:miter;stroke-miterlimit:4;stroke-dasharray:none;stroke-opacity:1" />
                <g
                   id="g10132">
                  <path
                     sodipodi:nodetypes="ccc"
                     inkscape:connector-curvature="0"
                     id="path10128"
                     d="m 99.780989,161.96328 c 0.681681,-1.4372 1.793291,-2.70242 3.356901,-3.78685 1.36229,-1.26872 2.41607,-2.17285 2.8112,-2.29857"
                     style="fill:none;stroke:#ff7f2a;stroke-width:0.76499999;stroke-linecap:round;stroke-linejoin:miter;stroke-miterlimit:4;stroke-dasharray:none;stroke-opacity:1" />
                  <path
                     sodipodi:nodetypes="ccc"
                     inkscape:connector-curvature="0"
                     id="path10130"
                     d="m 106.08422,156.44334 c -0.80731,1.11616 -2.68246,1.67215 -3.98528,3.42305 -1.36229,1.26872 -1.78769,2.53665 -2.182825,2.66237"
                     style="fill:none;stroke:#b2c9ea;stroke-width:0.76499999;stroke-linecap:round;stroke-linejoin:miter;stroke-miterlimit:4;stroke-dasharray:none;stroke-opacity:1" />
                </g>
                <g
                   id="g10138"
                   transform="translate(0.74414062,0.97565104)">
                  <path
                     style="fill:none;stroke:#ff7f2a;stroke-width:0.76499999;stroke-linecap:round;stroke-linejoin:miter;stroke-miterlimit:4;stroke-dasharray:none;stroke-opacity:1"
                     d="m 99.780989,161.96328 c 0.681681,-1.4372 1.793291,-2.70242 3.356901,-3.78685 1.36229,-1.26872 2.41607,-2.17285 2.8112,-2.29857"
                     id="path10134"
                     inkscape:connector-curvature="0"
                     sodipodi:nodetypes="ccc" />
                  <path
                     style="fill:none;stroke:#b2c9ea;stroke-width:0.76499999;stroke-linecap:round;stroke-linejoin:miter;stroke-miterlimit:4;stroke-dasharray:none;stroke-opacity:1"
                     d="m 106.08422,156.44334 c -0.80731,1.11616 -2.68246,1.67215 -3.98528,3.42305 -1.36229,1.26872 -1.78769,2.53665 -2.182825,2.66237"
                     id="path10136"
                     inkscape:connector-curvature="0"
                     sodipodi:nodetypes="ccc" />
                </g>
                <g
                   transform="translate(1.5048177,1.9182292)"
                   id="g10144">
                  <path
                     sodipodi:nodetypes="ccc"
                     inkscape:connector-curvature="0"
                     id="path10140"
                     d="m 99.780989,161.96328 c 0.681681,-1.4372 1.793291,-2.70242 3.356901,-3.78685 1.36229,-1.26872 2.41607,-2.17285 2.8112,-2.29857"
                     style="fill:none;stroke:#ff7f2a;stroke-width:0.76499999;stroke-linecap:round;stroke-linejoin:miter;stroke-miterlimit:4;stroke-dasharray:none;stroke-opacity:1" />
                  <path
                     sodipodi:nodetypes="ccc"
                     inkscape:connector-curvature="0"
                     id="path10142"
                     d="m 106.08422,156.44334 c -0.80731,1.11616 -2.68246,1.67215 -3.98528,3.42305 -1.36229,1.26872 -1.78769,2.53665 -2.182825,2.66237"
                     style="fill:none;stroke:#b2c9ea;stroke-width:0.76499999;stroke-linecap:round;stroke-linejoin:miter;stroke-miterlimit:4;stroke-dasharray:none;stroke-opacity:1" />
                </g>
                <g
                   id="g10150"
                   transform="translate(2.2489583,2.9104167)">
                  <path
                     style="fill:none;stroke:#ff7f2a;stroke-width:0.76499999;stroke-linecap:round;stroke-linejoin:miter;stroke-miterlimit:4;stroke-dasharray:none;stroke-opacity:1"
                     d="m 99.780989,161.96328 c 0.681681,-1.4372 1.793291,-2.70242 3.356901,-3.78685 1.36229,-1.26872 2.41607,-2.17285 2.8112,-2.29857"
                     id="path10146"
                     inkscape:connector-curvature="0"
                     sodipodi:nodetypes="ccc" />
                  <path
                     style="fill:none;stroke:#b2c9ea;stroke-width:0.76499999;stroke-linecap:round;stroke-linejoin:miter;stroke-miterlimit:4;stroke-dasharray:none;stroke-opacity:1"
                     d="m 106.08422,156.44334 c -0.80731,1.11616 -2.68246,1.67215 -3.98528,3.42305 -1.36229,1.26872 -1.78769,2.53665 -2.182825,2.66237"
                     id="path10148"
                     inkscape:connector-curvature="0"
                     sodipodi:nodetypes="ccc" />
                </g>
                <g
                   transform="translate(3.0261718,3.786849)"
                   id="g10156">
                  <path
                     sodipodi:nodetypes="ccc"
                     inkscape:connector-curvature="0"
                     id="path10152"
                     d="m 99.780989,161.96328 c 0.681681,-1.4372 1.793291,-2.70242 3.356901,-3.78685 1.36229,-1.26872 2.41607,-2.17285 2.8112,-2.29857"
                     style="fill:none;stroke:#ff7f2a;stroke-width:0.76499999;stroke-linecap:round;stroke-linejoin:miter;stroke-miterlimit:4;stroke-dasharray:none;stroke-opacity:1" />
                  <path
                     sodipodi:nodetypes="ccc"
                     inkscape:connector-curvature="0"
                     id="path10154"
                     d="m 106.08422,156.44334 c -0.80731,1.11616 -2.68246,1.67215 -3.98528,3.42305 -1.36229,1.26872 -1.78769,2.53665 -2.182825,2.66237"
                     style="fill:none;stroke:#b2c9ea;stroke-width:0.76499999;stroke-linecap:round;stroke-linejoin:miter;stroke-miterlimit:4;stroke-dasharray:none;stroke-opacity:1" />
                </g>
                <g
                   id="g10162"
                   transform="translate(3.8860676,4.6136719)">
                  <path
                     style="fill:none;stroke:#ff7f2a;stroke-width:0.76499999;stroke-linecap:round;stroke-linejoin:miter;stroke-miterlimit:4;stroke-dasharray:none;stroke-opacity:1"
                     d="m 99.780989,161.96328 c 0.681681,-1.4372 1.793291,-2.70242 3.356901,-3.78685 1.36229,-1.26872 2.41607,-2.17285 2.8112,-2.29857"
                     id="path10158"
                     inkscape:connector-curvature="0"
                     sodipodi:nodetypes="ccc" />
                  <path
                     style="fill:none;stroke:#b2c9ea;stroke-width:0.76499999;stroke-linecap:round;stroke-linejoin:miter;stroke-miterlimit:4;stroke-dasharray:none;stroke-opacity:1"
                     d="m 106.08422,156.44334 c -0.80731,1.11616 -2.68246,1.67215 -3.98528,3.42305 -1.36229,1.26872 -1.78769,2.53665 -2.182825,2.66237"
                     id="path10160"
                     inkscape:connector-curvature="0"
                     sodipodi:nodetypes="ccc" />
                </g>
                <g
                   transform="translate(4.5971353,5.7546875)"
                   id="g10168">
                  <path
                     sodipodi:nodetypes="ccc"
                     inkscape:connector-curvature="0"
                     id="path10164"
                     d="m 99.780989,161.96328 c 0.681681,-1.4372 1.652971,-2.81935 3.216581,-3.90378 1.5419,-1.04421 2.61176,-1.9867 2.95152,-2.18164"
                     style="fill:none;stroke:#ff7f2a;stroke-width:0.76499999;stroke-linecap:round;stroke-linejoin:miter;stroke-miterlimit:4;stroke-dasharray:none;stroke-opacity:1" />
                  <path
                     sodipodi:nodetypes="ccc"
                     inkscape:connector-curvature="0"
                     id="path10166"
                     d="m 106.08422,156.44334 c -0.8572,1.11616 -2.68823,1.67215 -3.98528,3.42305 -1.36229,1.26872 -1.78769,2.53665 -2.182825,2.66237"
                     style="fill:none;stroke:#b2c9ea;stroke-width:0.76499999;stroke-linecap:round;stroke-linejoin:miter;stroke-miterlimit:4;stroke-dasharray:none;stroke-opacity:1" />
                </g>
                <g
                   id="g10174"
                   transform="translate(5.3908853,6.6807292)">
                  <path
                     style="fill:none;stroke:#ff7f2a;stroke-width:0.76499999;stroke-linecap:round;stroke-linejoin:miter;stroke-miterlimit:4;stroke-dasharray:none;stroke-opacity:1"
                     d="m 99.780989,161.96328 c 0.681681,-1.4372 1.793291,-2.70242 3.356901,-3.78685 1.78149,-1.23326 2.41612,-2.17285 2.8112,-2.29857"
                     id="path10170"
                     inkscape:connector-curvature="0"
                     sodipodi:nodetypes="ccc" />
                  <path
                     style="fill:none;stroke:#b2c9ea;stroke-width:0.76499999;stroke-linecap:round;stroke-linejoin:miter;stroke-miterlimit:4;stroke-dasharray:none;stroke-opacity:1"
                     d="m 106.08422,156.44334 c -0.63499,1.33298 -2.4843,2.00607 -3.98528,3.42305 -1.36229,1.26872 -1.78769,2.53665 -2.182825,2.66237"
                     id="path10172"
                     inkscape:connector-curvature="0"
                     sodipodi:nodetypes="ccc" />
                </g>
                <g
                   transform="translate(6.101953,7.6729167)"
                   id="g10180">
                  <path
                     sodipodi:nodetypes="ccc"
                     inkscape:connector-curvature="0"
                     id="path10176"
                     d="m 99.780989,161.96328 c 0.835341,-1.39878 1.312761,-2.04492 3.473831,-3.66992 1.82085,-0.94117 2.29916,-2.28977 2.69427,-2.4155"
                     style="fill:none;stroke:#ff7f2a;stroke-width:0.76499999;stroke-linecap:round;stroke-linejoin:miter;stroke-miterlimit:4;stroke-dasharray:none;stroke-opacity:1" />
                  <path
                     sodipodi:nodetypes="ccc"
                     inkscape:connector-curvature="0"
                     id="path10178"
                     d="m 106.08422,156.44334 c -0.63018,1.3692 -2.21568,2.06168 -3.77481,3.44644 -1.36229,1.26872 -1.99816,2.51326 -2.393295,2.63898"
                     style="fill:none;stroke:#b2c9ea;stroke-width:0.76499999;stroke-linecap:round;stroke-linejoin:miter;stroke-miterlimit:4;stroke-dasharray:none;stroke-opacity:1" />
                </g>
                <path
                   style="fill:none;stroke:#ff7f2a;stroke-width:0.76499999;stroke-linecap:round;stroke-linejoin:miter;stroke-miterlimit:4;stroke-dasharray:none;stroke-opacity:1"
                   d="m 113.67162,165.22097 c -0.68168,1.4372 -2.48782,2.73549 -4.05143,3.81992 -1.36229,1.26872 -2.41607,2.17285 -2.8112,2.29857"
                   id="path10182"
                   inkscape:connector-curvature="0"
                   sodipodi:nodetypes="ccc" />
                <path
                   style="fill:none;stroke:#b2c9ea;stroke-width:0.76499999;stroke-linecap:round;stroke-linejoin:miter;stroke-miterlimit:4;stroke-dasharray:none;stroke-opacity:1"
                   d="m 106.67386,170.77398 c 0.80731,-1.11616 2.96358,-2.23439 4.39869,-3.57188 1.36229,-1.26872 1.67194,-2.05709 2.06707,-2.18281"
                   id="path10184"
                   inkscape:connector-curvature="0"
                   sodipodi:nodetypes="ccc" />
                <path
                   sodipodi:nodetypes="ccc"
                   inkscape:connector-curvature="0"
                   id="path10186"
                   d="m 112.8807,164.08319 c -0.68168,1.4372 -2.39428,2.82903 -3.95789,3.91346 -1.36229,1.26872 -2.50961,2.07931 -2.90474,2.20503"
                   style="fill:none;stroke:#ff7f2a;stroke-width:0.76499999;stroke-linecap:round;stroke-linejoin:miter;stroke-miterlimit:4;stroke-dasharray:none;stroke-opacity:1" />
              </g>
              <path
                 inkscape:connector-curvature="0"
                 id="path10190"
                 d="m 97.54277,162.83804 2.10475,-1.75396 8.37856,9.91813 -2.0877,1.77492 z"
                 style="fill:#b2c9ea;fill-opacity:1;stroke:none;stroke-width:0.26458332px;stroke-linecap:butt;stroke-linejoin:miter;stroke-opacity:1" />
            </g>
          </g>
        </g>
      </g>
    </g>
  </g>
</svg>
