<?xml version="1.0" encoding="UTF-8" standalone="no"?>
<!-- Created with Inkscape (http://www.inkscape.org/) -->

<svg
   xmlns:dc="http://purl.org/dc/elements/1.1/"
   xmlns:cc="http://creativecommons.org/ns#"
   xmlns:rdf="http://www.w3.org/1999/02/22-rdf-syntax-ns#"
   xmlns:svg="http://www.w3.org/2000/svg"
   xmlns="http://www.w3.org/2000/svg"
   xmlns:xlink="http://www.w3.org/1999/xlink"
   xmlns:sodipodi="http://sodipodi.sourceforge.net/DTD/sodipodi-0.dtd"
   xmlns:inkscape="http://www.inkscape.org/namespaces/inkscape"
   width="47.80508mm"
   height="25.888981mm"
   viewBox="0 0 47.80508 25.888981"
   version="1.1"
   id="svg17545"
   inkscape:version="0.92.4 (5da689c313, 2019-01-14)"
   sodipodi:docname="PulsBaratOff.svg">
  <defs
     id="defs17539">
    <linearGradient
       inkscape:collect="always"
       xlink:href="#linearGradient5605"
       id="linearGradient26890"
       gradientUnits="userSpaceOnUse"
       gradientTransform="translate(9.4328371,-4.1845999)"
       x1="262.99231"
       y1="309.423"
       x2="263.00586"
       y2="283.72061" />
    <linearGradient
       inkscape:collect="always"
       id="linearGradient5605">
      <stop
         style="stop-color:#1a1a1a;stop-opacity:1"
         offset="0"
         id="stop5599" />
      <stop
         id="stop5601"
         offset="0.49169952"
         style="stop-color:#cccccc;stop-opacity:1" />
      <stop
         style="stop-color:#1a1a1a;stop-opacity:1"
         offset="1"
         id="stop5603" />
    </linearGradient>
    <linearGradient
       inkscape:collect="always"
       xlink:href="#linearGradient5597"
       id="linearGradient26892"
       gradientUnits="userSpaceOnUse"
       gradientTransform="matrix(1.6437582,0,0,1.5992882,-393.31964,-180.35537)"
       x1="405.14444"
       y1="288.18219"
       x2="405.10599"
       y2="303.11227" />
    <linearGradient
       id="linearGradient5597"
       inkscape:collect="always">
      <stop
         id="stop5591"
         offset="0"
         style="stop-color:#1a1a1a;stop-opacity:1" />
      <stop
         style="stop-color:#999999;stop-opacity:1"
         offset="0.49884805"
         id="stop5593" />
      <stop
         id="stop5595"
         offset="1"
         style="stop-color:#1a1a1a;stop-opacity:1" />
    </linearGradient>
  </defs>
  <sodipodi:namedview
     id="base"
     pagecolor="#ffffff"
     bordercolor="#666666"
     borderopacity="1.0"
     inkscape:pageopacity="0.0"
     inkscape:pageshadow="2"
     inkscape:zoom="1.4"
     inkscape:cx="108.16168"
     inkscape:cy="-84.909128"
     inkscape:document-units="mm"
     inkscape:current-layer="layer1"
     showgrid="false"
     inkscape:window-width="1369"
     inkscape:window-height="1139"
     inkscape:window-x="953"
     inkscape:window-y="0"
     inkscape:window-maximized="0" />
  <metadata
     id="metadata17542">
    <rdf:RDF>
      <cc:Work
         rdf:about="">
        <dc:format>image/svg+xml</dc:format>
        <dc:type
           rdf:resource="http://purl.org/dc/dcmitype/StillImage" />
        <dc:title></dc:title>
      </cc:Work>
    </rdf:RDF>
  </metadata>
  <g
     inkscape:label="Livello 1"
     inkscape:groupmode="layer"
     id="layer1"
     transform="translate(145.03618,-79.001345)">
    <g
       transform="translate(-1166.4608,-450.17808)"
       id="g27688"
       inkscape:export-filename="X:\Librerie\Libreria Immagini\Grafica UNIQO\Pulsanti con simbolo\PNG\PulsBaratOff.png"
       inkscape:export-xdpi="275"
       inkscape:export-ydpi="275">
      <g
         transform="translate(772.61176,249.35875)"
         id="g26834"
         inkscape:export-filename="X:\Librerie\Libreria Immagini\Immagini\Grafica 2019\Pulsanti con simbolo\ProgrammiLavoro\PulsFiltroPistOff.png"
         inkscape:export-xdpi="96"
         inkscape:export-ydpi="96">
        <rect
           inkscape:export-ydpi="96"
           inkscape:export-xdpi="96"
           inkscape:export-filename="X:\Librerie\Libreria GOT\Immagini\Menu\Sfumati\PulNotEnable.png"
           style="display:inline;opacity:1;fill:url(#linearGradient26890);fill-opacity:1;stroke:#e6e6e6;stroke-width:0.90399998;stroke-linecap:round;stroke-linejoin:bevel;stroke-miterlimit:4;stroke-dasharray:none;stroke-dashoffset:0;stroke-opacity:1;paint-order:stroke fill markers"
           id="rect26830"
           width="46.901081"
           height="24.984982"
           x="249.26486"
           y="280.27267"
           ry="5.2207417" />
        <rect
           ry="4.9362335"
           y="280.88474"
           x="249.93549"
           height="23.623405"
           width="45.578239"
           id="rect26832"
           style="display:inline;opacity:1;fill:none;fill-opacity:1;stroke:url(#linearGradient26892);stroke-width:1.06099999;stroke-linecap:round;stroke-linejoin:bevel;stroke-miterlimit:4;stroke-dasharray:none;stroke-dashoffset:0;stroke-opacity:1;paint-order:stroke fill markers"
           inkscape:export-filename="X:\Librerie\Libreria GOT\Immagini\Menu\Sfumati\PulNotEnable.png"
           inkscape:export-xdpi="96"
           inkscape:export-ydpi="96" />
      </g>
      <g
         id="g27498"
         transform="matrix(2.3900602,0,0,2.3900602,1643.1403,-286.40371)">
        <g
           id="g27392">
          <ellipse
             ry="0.94286841"
             rx="3.2259147"
             cy="349.15778"
             cx="-250.12471"
             id="ellipse27378"
             style="opacity:1;fill:#999999;fill-opacity:1;stroke:#aa4400;stroke-width:0.4890413;stroke-linecap:round;stroke-linejoin:bevel;stroke-miterlimit:4;stroke-dasharray:none;stroke-dashoffset:26.45669365;stroke-opacity:1" />
          <path
             style="opacity:1;fill:#b2c9ea;fill-opacity:1;stroke:#aa4400;stroke-width:0.27392051;stroke-linecap:round;stroke-linejoin:bevel;stroke-miterlimit:4;stroke-dasharray:none;stroke-dashoffset:26.45669365;stroke-opacity:1"
             d="m -253.02442,344.18961 h 5.79941 c 0.17213,0 0.3107,0.162 0.3107,0.36324 v 4.25983 c 0.10964,1.84755 -7.14497,1.38909 -6.42081,0 v -4.25983 c 0,-0.20124 0.13857,-0.36324 0.3107,-0.36324 z"
             id="path27382"
             inkscape:connector-curvature="0"
             sodipodi:nodetypes="sssccss" />
          <ellipse
             style="opacity:1;fill:#999999;fill-opacity:1;stroke:#aa4400;stroke-width:0.4890413;stroke-linecap:round;stroke-linejoin:bevel;stroke-miterlimit:4;stroke-dasharray:none;stroke-dashoffset:26.45669365;stroke-opacity:1"
             id="ellipse27384"
             cx="-250.12471"
             cy="344.15332"
             rx="3.2259147"
             ry="0.94286841" />
        </g>
        <g
           transform="matrix(0.7753366,0,0,0.7753366,-39.560183,71.470157)"
           id="g27496">
          <circle
             r="2.3996081"
             cy="356.21707"
             cx="-271.57822"
             id="circle27394"
             style="opacity:1;fill:#ffffff;fill-opacity:1;stroke:#000000;stroke-width:0.31799999;stroke-linecap:round;stroke-linejoin:round;stroke-miterlimit:4;stroke-dasharray:none;stroke-dashoffset:0;stroke-opacity:1;paint-order:stroke fill markers" />
          <path
             style="fill:#ff9955;fill-opacity:1;stroke:none;stroke-width:0.02843534px;stroke-linecap:butt;stroke-linejoin:miter;stroke-opacity:1"
             d="m -273.73931,355.34267 0.49762,-0.90282 0.90282,-0.4834 1.0521,-0.14929 1.07344,0.41231 0.74643,0.8033 0.35544,1.35068 -0.35544,0.89571 -0.0995,-0.19194 c -0.0983,-0.0155 -0.19668,-0.0356 -0.29503,-0.032 -0.0577,0.008 -0.12043,-0.005 -0.14928,0.13152 -0.0136,0.10833 0.0409,0.12462 0.0498,0.18838 0.0532,0.13768 -0.009,0.20415 -0.0889,0.21682 -0.0807,-0.004 -0.14781,-0.0265 -0.14573,-0.17772 -0.002,-0.094 0.0816,-0.12423 0.0604,-0.19905 -0.0389,-0.12675 -0.0911,-0.0813 -0.13862,-0.096 l -0.91348,-0.98102 c 0.0372,-0.0598 0.0484,-0.13981 0.0497,-0.22748 -0.0615,-0.0884 -0.0864,-0.18324 -0.45851,-0.21682 -0.19161,-0.0262 -0.26391,0.0274 -0.36611,0.0889 -0.20955,0.24681 -0.39231,0.23642 -0.55449,0.0284 -0.15119,-0.14332 -0.15085,-0.49773 -0.54027,-0.30923 -0.10142,0.10055 -0.22043,0.17155 -0.0924,0.65757 0.11903,0.44453 0.01,0.5468 -0.15283,0.5687 -0.25947,0.0196 -0.30067,-0.21783 -0.24881,-0.51894 0.15937,-0.58176 -0.0147,-0.71886 -0.18839,-0.85662 z"
             id="path27396"
             inkscape:connector-curvature="0"
             sodipodi:nodetypes="cccccccccccccccccccccccccc" />
          <circle
             style="opacity:1;fill:none;fill-opacity:1;stroke:#b2c9ea;stroke-width:0.21780404;stroke-linecap:round;stroke-linejoin:round;stroke-miterlimit:4;stroke-dasharray:none;stroke-dashoffset:0;stroke-opacity:1;paint-order:stroke fill markers"
             id="circle27398"
             cx="-271.57822"
             cy="356.21707"
             r="2.3996081" />
          <g
             id="g27494"
             transform="matrix(0.10747216,0,0,0.10747216,-282.51162,339.31168)">
            <path
               sodipodi:nodetypes="cccccccccc"
               inkscape:connector-curvature="0"
               id="path27401"
               d="m 97.847374,163.09128 c -0.945463,0.60799 -1.41003,1.44499 -0.664493,2.85822 0.589503,0.74207 0.607771,1.43062 0.393549,2.29482 -0.569756,2.25269 -2.39948,3.24542 -3.938551,4.5288 -3.471198,2.98102 -7.138776,2.46073 -5.3788,6.54811 3.332966,1.72346 3.62889,-1.04876 7.015826,-4.77076 1.05996,-1.20962 2.273136,-2.03187 3.610646,-2.56155 2.000319,-0.88689 2.595979,-0.51307 4.123519,0.65273 0.68638,0.51446 1.45526,0.76551 2.7428,-0.2427 z"
               style="fill:#ff6600;stroke:none;stroke-width:0.26458332px;stroke-linecap:butt;stroke-linejoin:miter;stroke-opacity:1" />
            <g
               id="g27490">
              <path
                 sodipodi:nodetypes="ccc"
                 inkscape:connector-curvature="0"
                 id="path27410"
                 d="m 106.08422,156.44334 c -0.80731,1.11616 -2.68246,1.67215 -3.98528,3.42305 -1.36229,1.26872 -1.78769,2.53665 -2.182825,2.66237"
                 style="fill:none;stroke:#b2c9ea;stroke-width:0.76499999;stroke-linecap:round;stroke-linejoin:miter;stroke-miterlimit:4;stroke-dasharray:none;stroke-opacity:1" />
              <g
                 id="g27420">
                <path
                   sodipodi:nodetypes="ccc"
                   inkscape:connector-curvature="0"
                   id="path27412"
                   d="m 99.780989,161.96328 c 0.681681,-1.4372 1.793291,-2.70242 3.356901,-3.78685 1.36229,-1.26872 2.41607,-2.17285 2.8112,-2.29857"
                   style="fill:none;stroke:#ff7f2a;stroke-width:0.76499999;stroke-linecap:round;stroke-linejoin:miter;stroke-miterlimit:4;stroke-dasharray:none;stroke-opacity:1" />
                <path
                   sodipodi:nodetypes="ccc"
                   inkscape:connector-curvature="0"
                   id="path27414"
                   d="m 106.08422,156.44334 c -0.80731,1.11616 -2.68246,1.67215 -3.98528,3.42305 -1.36229,1.26872 -1.78769,2.53665 -2.182825,2.66237"
                   style="fill:none;stroke:#b2c9ea;stroke-width:0.76499999;stroke-linecap:round;stroke-linejoin:miter;stroke-miterlimit:4;stroke-dasharray:none;stroke-opacity:1" />
              </g>
              <g
                 id="g27428"
                 transform="translate(0.74414062,0.97565104)">
                <path
                   style="fill:none;stroke:#ff7f2a;stroke-width:0.76499999;stroke-linecap:round;stroke-linejoin:miter;stroke-miterlimit:4;stroke-dasharray:none;stroke-opacity:1"
                   d="m 99.780989,161.96328 c 0.681681,-1.4372 1.793291,-2.70242 3.356901,-3.78685 1.36229,-1.26872 2.41607,-2.17285 2.8112,-2.29857"
                   id="path27422"
                   inkscape:connector-curvature="0"
                   sodipodi:nodetypes="ccc" />
                <path
                   style="fill:none;stroke:#b2c9ea;stroke-width:0.76499999;stroke-linecap:round;stroke-linejoin:miter;stroke-miterlimit:4;stroke-dasharray:none;stroke-opacity:1"
                   d="m 106.08422,156.44334 c -0.80731,1.11616 -2.68246,1.67215 -3.98528,3.42305 -1.36229,1.26872 -1.78769,2.53665 -2.182825,2.66237"
                   id="path27424"
                   inkscape:connector-curvature="0"
                   sodipodi:nodetypes="ccc" />
              </g>
              <g
                 transform="translate(1.5048177,1.9182292)"
                 id="g27440">
                <path
                   sodipodi:nodetypes="ccc"
                   inkscape:connector-curvature="0"
                   id="path27432"
                   d="m 99.780989,161.96328 c 0.681681,-1.4372 1.793291,-2.70242 3.356901,-3.78685 1.36229,-1.26872 2.41607,-2.17285 2.8112,-2.29857"
                   style="fill:none;stroke:#ff7f2a;stroke-width:0.76499999;stroke-linecap:round;stroke-linejoin:miter;stroke-miterlimit:4;stroke-dasharray:none;stroke-opacity:1" />
                <path
                   sodipodi:nodetypes="ccc"
                   inkscape:connector-curvature="0"
                   id="path27434"
                   d="m 106.08422,156.44334 c -0.80731,1.11616 -2.68246,1.67215 -3.98528,3.42305 -1.36229,1.26872 -1.78769,2.53665 -2.182825,2.66237"
                   style="fill:none;stroke:#b2c9ea;stroke-width:0.76499999;stroke-linecap:round;stroke-linejoin:miter;stroke-miterlimit:4;stroke-dasharray:none;stroke-opacity:1" />
              </g>
              <g
                 id="g27446"
                 transform="translate(2.2489583,2.9104167)">
                <path
                   style="fill:none;stroke:#ff7f2a;stroke-width:0.76499999;stroke-linecap:round;stroke-linejoin:miter;stroke-miterlimit:4;stroke-dasharray:none;stroke-opacity:1"
                   d="m 99.780989,161.96328 c 0.681681,-1.4372 1.793291,-2.70242 3.356901,-3.78685 1.36229,-1.26872 2.41607,-2.17285 2.8112,-2.29857"
                   id="path27442"
                   inkscape:connector-curvature="0"
                   sodipodi:nodetypes="ccc" />
                <path
                   style="fill:none;stroke:#b2c9ea;stroke-width:0.76499999;stroke-linecap:round;stroke-linejoin:miter;stroke-miterlimit:4;stroke-dasharray:none;stroke-opacity:1"
                   d="m 106.08422,156.44334 c -0.80731,1.11616 -2.68246,1.67215 -3.98528,3.42305 -1.36229,1.26872 -1.78769,2.53665 -2.182825,2.66237"
                   id="path27444"
                   inkscape:connector-curvature="0"
                   sodipodi:nodetypes="ccc" />
              </g>
              <g
                 transform="translate(3.0261718,3.786849)"
                 id="g27454">
                <path
                   sodipodi:nodetypes="ccc"
                   inkscape:connector-curvature="0"
                   id="path27448"
                   d="m 99.780989,161.96328 c 0.681681,-1.4372 1.793291,-2.70242 3.356901,-3.78685 1.36229,-1.26872 2.41607,-2.17285 2.8112,-2.29857"
                   style="fill:none;stroke:#ff7f2a;stroke-width:0.76499999;stroke-linecap:round;stroke-linejoin:miter;stroke-miterlimit:4;stroke-dasharray:none;stroke-opacity:1" />
                <path
                   sodipodi:nodetypes="ccc"
                   inkscape:connector-curvature="0"
                   id="path27452"
                   d="m 106.08422,156.44334 c -0.80731,1.11616 -2.68246,1.67215 -3.98528,3.42305 -1.36229,1.26872 -1.78769,2.53665 -2.182825,2.66237"
                   style="fill:none;stroke:#b2c9ea;stroke-width:0.76499999;stroke-linecap:round;stroke-linejoin:miter;stroke-miterlimit:4;stroke-dasharray:none;stroke-opacity:1" />
              </g>
              <g
                 id="g27462"
                 transform="translate(3.8860676,4.6136719)">
                <path
                   style="fill:none;stroke:#ff7f2a;stroke-width:0.76499999;stroke-linecap:round;stroke-linejoin:miter;stroke-miterlimit:4;stroke-dasharray:none;stroke-opacity:1"
                   d="m 99.780989,161.96328 c 0.681681,-1.4372 1.793291,-2.70242 3.356901,-3.78685 1.36229,-1.26872 2.41607,-2.17285 2.8112,-2.29857"
                   id="path27457"
                   inkscape:connector-curvature="0"
                   sodipodi:nodetypes="ccc" />
                <path
                   style="fill:none;stroke:#b2c9ea;stroke-width:0.76499999;stroke-linecap:round;stroke-linejoin:miter;stroke-miterlimit:4;stroke-dasharray:none;stroke-opacity:1"
                   d="m 106.08422,156.44334 c -0.80731,1.11616 -2.68246,1.67215 -3.98528,3.42305 -1.36229,1.26872 -1.78769,2.53665 -2.182825,2.66237"
                   id="path27459"
                   inkscape:connector-curvature="0"
                   sodipodi:nodetypes="ccc" />
              </g>
              <g
                 transform="translate(4.5971353,5.7546875)"
                 id="g27469">
                <path
                   sodipodi:nodetypes="ccc"
                   inkscape:connector-curvature="0"
                   id="path27464"
                   d="m 99.780989,161.96328 c 0.681681,-1.4372 1.652971,-2.81935 3.216581,-3.90378 1.5419,-1.04421 2.61176,-1.9867 2.95152,-2.18164"
                   style="fill:none;stroke:#ff7f2a;stroke-width:0.76499999;stroke-linecap:round;stroke-linejoin:miter;stroke-miterlimit:4;stroke-dasharray:none;stroke-opacity:1" />
                <path
                   sodipodi:nodetypes="ccc"
                   inkscape:connector-curvature="0"
                   id="path27467"
                   d="m 106.08422,156.44334 c -0.8572,1.11616 -2.68823,1.67215 -3.98528,3.42305 -1.36229,1.26872 -1.78769,2.53665 -2.182825,2.66237"
                   style="fill:none;stroke:#b2c9ea;stroke-width:0.76499999;stroke-linecap:round;stroke-linejoin:miter;stroke-miterlimit:4;stroke-dasharray:none;stroke-opacity:1" />
              </g>
              <g
                 id="g27475"
                 transform="translate(5.3908853,6.6807292)">
                <path
                   style="fill:none;stroke:#ff7f2a;stroke-width:0.76499999;stroke-linecap:round;stroke-linejoin:miter;stroke-miterlimit:4;stroke-dasharray:none;stroke-opacity:1"
                   d="m 99.780989,161.96328 c 0.681681,-1.4372 1.793291,-2.70242 3.356901,-3.78685 1.78149,-1.23326 2.41612,-2.17285 2.8112,-2.29857"
                   id="path27471"
                   inkscape:connector-curvature="0"
                   sodipodi:nodetypes="ccc" />
                <path
                   style="fill:none;stroke:#b2c9ea;stroke-width:0.76499999;stroke-linecap:round;stroke-linejoin:miter;stroke-miterlimit:4;stroke-dasharray:none;stroke-opacity:1"
                   d="m 106.08422,156.44334 c -0.63499,1.33298 -2.4843,2.00607 -3.98528,3.42305 -1.36229,1.26872 -1.78769,2.53665 -2.182825,2.66237"
                   id="path27473"
                   inkscape:connector-curvature="0"
                   sodipodi:nodetypes="ccc" />
              </g>
              <g
                 transform="translate(6.101953,7.6729167)"
                 id="g27481">
                <path
                   sodipodi:nodetypes="ccc"
                   inkscape:connector-curvature="0"
                   id="path27477"
                   d="m 99.780989,161.96328 c 0.835341,-1.39878 1.312761,-2.04492 3.473831,-3.66992 1.82085,-0.94117 2.29916,-2.28977 2.69427,-2.4155"
                   style="fill:none;stroke:#ff7f2a;stroke-width:0.76499999;stroke-linecap:round;stroke-linejoin:miter;stroke-miterlimit:4;stroke-dasharray:none;stroke-opacity:1" />
                <path
                   sodipodi:nodetypes="ccc"
                   inkscape:connector-curvature="0"
                   id="path27479"
                   d="m 106.08422,156.44334 c -0.63018,1.3692 -2.21568,2.06168 -3.77481,3.44644 -1.36229,1.26872 -1.99816,2.51326 -2.393295,2.63898"
                   style="fill:none;stroke:#b2c9ea;stroke-width:0.76499999;stroke-linecap:round;stroke-linejoin:miter;stroke-miterlimit:4;stroke-dasharray:none;stroke-opacity:1" />
              </g>
              <path
                 style="fill:none;stroke:#ff7f2a;stroke-width:0.76499999;stroke-linecap:round;stroke-linejoin:miter;stroke-miterlimit:4;stroke-dasharray:none;stroke-opacity:1"
                 d="m 113.67162,165.22097 c -0.68168,1.4372 -2.48782,2.73549 -4.05143,3.81992 -1.36229,1.26872 -2.41607,2.17285 -2.8112,2.29857"
                 id="path27483"
                 inkscape:connector-curvature="0"
                 sodipodi:nodetypes="ccc" />
              <path
                 style="fill:none;stroke:#b2c9ea;stroke-width:0.76499999;stroke-linecap:round;stroke-linejoin:miter;stroke-miterlimit:4;stroke-dasharray:none;stroke-opacity:1"
                 d="m 106.67386,170.77398 c 0.80731,-1.11616 2.96358,-2.23439 4.39869,-3.57188 1.36229,-1.26872 1.67194,-2.05709 2.06707,-2.18281"
                 id="path27485"
                 inkscape:connector-curvature="0"
                 sodipodi:nodetypes="ccc" />
              <path
                 sodipodi:nodetypes="ccc"
                 inkscape:connector-curvature="0"
                 id="path27488"
                 d="m 112.8807,164.08319 c -0.68168,1.4372 -2.39428,2.82903 -3.95789,3.91346 -1.36229,1.26872 -2.50961,2.07931 -2.90474,2.20503"
                 style="fill:none;stroke:#ff7f2a;stroke-width:0.76499999;stroke-linecap:round;stroke-linejoin:miter;stroke-miterlimit:4;stroke-dasharray:none;stroke-opacity:1" />
            </g>
            <path
               inkscape:connector-curvature="0"
               id="path27492"
               d="m 97.54277,162.83804 2.10475,-1.75396 8.37856,9.91813 -2.0877,1.77492 z"
               style="fill:#b2c9ea;fill-opacity:1;stroke:none;stroke-width:0.26458332px;stroke-linecap:butt;stroke-linejoin:miter;stroke-opacity:1" />
          </g>
        </g>
      </g>
    </g>
  </g>
</svg>
