<?xml version="1.0" encoding="UTF-8" standalone="no"?>
<!-- Created with Inkscape (http://www.inkscape.org/) -->

<svg
   xmlns:dc="http://purl.org/dc/elements/1.1/"
   xmlns:cc="http://creativecommons.org/ns#"
   xmlns:rdf="http://www.w3.org/1999/02/22-rdf-syntax-ns#"
   xmlns:svg="http://www.w3.org/2000/svg"
   xmlns="http://www.w3.org/2000/svg"
   xmlns:xlink="http://www.w3.org/1999/xlink"
   xmlns:sodipodi="http://sodipodi.sourceforge.net/DTD/sodipodi-0.dtd"
   xmlns:inkscape="http://www.inkscape.org/namespaces/inkscape"
   width="47.80508mm"
   height="25.888981mm"
   viewBox="0 0 47.80508 25.888981"
   version="1.1"
   id="svg8"
   inkscape:version="0.92.4 (5da689c313, 2019-01-14)"
   sodipodi:docname="PulsParamOff.svg">
  <defs
     id="defs2">
    <linearGradient
       inkscape:collect="always"
       xlink:href="#linearGradient4607"
       id="linearGradient13831"
       gradientUnits="userSpaceOnUse"
       gradientTransform="matrix(1.141794,0,0,1.141794,-336.71761,100.70349)"
       x1="257.24002"
       y1="84.514999"
       x2="272.16882"
       y2="84.514999" />
    <linearGradient
       inkscape:collect="always"
       id="linearGradient4607">
      <stop
         style="stop-color:#d7eef4;stop-opacity:1"
         offset="0"
         id="stop4603" />
      <stop
         style="stop-color:#afc6e9;stop-opacity:1"
         offset="1"
         id="stop4605" />
    </linearGradient>
    <linearGradient
       inkscape:collect="always"
       xlink:href="#linearGradient5605"
       id="linearGradient13602"
       gradientUnits="userSpaceOnUse"
       gradientTransform="translate(9.4328371,-4.1845999)"
       x1="262.99231"
       y1="309.423"
       x2="263.00586"
       y2="283.72061" />
    <linearGradient
       inkscape:collect="always"
       id="linearGradient5605">
      <stop
         style="stop-color:#1a1a1a;stop-opacity:1"
         offset="0"
         id="stop5599" />
      <stop
         id="stop5601"
         offset="0.49169952"
         style="stop-color:#cccccc;stop-opacity:1" />
      <stop
         style="stop-color:#1a1a1a;stop-opacity:1"
         offset="1"
         id="stop5603" />
    </linearGradient>
    <linearGradient
       inkscape:collect="always"
       xlink:href="#linearGradient5597"
       id="linearGradient13604"
       gradientUnits="userSpaceOnUse"
       gradientTransform="matrix(1.6437582,0,0,1.5992882,-393.31964,-180.35537)"
       x1="405.14444"
       y1="288.18219"
       x2="405.10599"
       y2="303.11227" />
    <linearGradient
       id="linearGradient5597"
       inkscape:collect="always">
      <stop
         id="stop5591"
         offset="0"
         style="stop-color:#1a1a1a;stop-opacity:1" />
      <stop
         style="stop-color:#999999;stop-opacity:1"
         offset="0.49884805"
         id="stop5593" />
      <stop
         id="stop5595"
         offset="1"
         style="stop-color:#1a1a1a;stop-opacity:1" />
    </linearGradient>
  </defs>
  <sodipodi:namedview
     id="base"
     pagecolor="#ffffff"
     bordercolor="#666666"
     borderopacity="1.0"
     inkscape:pageopacity="0.0"
     inkscape:pageshadow="2"
     inkscape:zoom="1.979899"
     inkscape:cx="137.34833"
     inkscape:cy="50.524764"
     inkscape:document-units="mm"
     inkscape:current-layer="layer1"
     showgrid="false"
     inkscape:window-width="958"
     inkscape:window-height="1008"
     inkscape:window-x="953"
     inkscape:window-y="0"
     inkscape:window-maximized="0" />
  <metadata
     id="metadata5">
    <rdf:RDF>
      <cc:Work
         rdf:about="">
        <dc:format>image/svg+xml</dc:format>
        <dc:type
           rdf:resource="http://purl.org/dc/dcmitype/StillImage" />
        <dc:title></dc:title>
      </cc:Work>
    </rdf:RDF>
  </metadata>
  <g
     inkscape:label="Livello 1"
     inkscape:groupmode="layer"
     id="layer1"
     transform="translate(58.380548,-184.25958)">
    <g
       transform="translate(-307.19341,-95.561095)"
       id="g13512"
       inkscape:export-filename="X:\Librerie\Libreria Immagini\Immagini\Grafica 2019\Pulsanti con simbolo\PulsParamOff.png"
       inkscape:export-xdpi="96"
       inkscape:export-ydpi="96">
      <rect
         inkscape:export-ydpi="96"
         inkscape:export-xdpi="96"
         inkscape:export-filename="X:\Librerie\Libreria GOT\Immagini\Menu\Sfumati\PulNotEnable.png"
         style="display:inline;opacity:1;fill:url(#linearGradient13602);fill-opacity:1;stroke:#e6e6e6;stroke-width:0.90399998;stroke-linecap:round;stroke-linejoin:bevel;stroke-miterlimit:4;stroke-dasharray:none;stroke-dashoffset:0;stroke-opacity:1;paint-order:stroke fill markers"
         id="rect13508"
         width="46.901081"
         height="24.984982"
         x="249.26486"
         y="280.27267"
         ry="5.2207417" />
      <rect
         ry="4.9362335"
         y="280.88474"
         x="249.93549"
         height="23.623405"
         width="45.578239"
         id="rect13510"
         style="display:inline;opacity:1;fill:none;fill-opacity:1;stroke:url(#linearGradient13604);stroke-width:1.06099999;stroke-linecap:round;stroke-linejoin:bevel;stroke-miterlimit:4;stroke-dasharray:none;stroke-dashoffset:0;stroke-opacity:1;paint-order:stroke fill markers"
         inkscape:export-filename="X:\Librerie\Libreria GOT\Immagini\Menu\Sfumati\PulNotEnable.png"
         inkscape:export-xdpi="96"
         inkscape:export-ydpi="96" />
    </g>
    <path
       style="opacity:1;fill:url(#linearGradient13831);fill-opacity:1;stroke:#ff6600;stroke-width:1.08000004;stroke-linecap:round;stroke-linejoin:miter;stroke-miterlimit:4;stroke-dasharray:none;stroke-dashoffset:0;stroke-opacity:1;paint-order:stroke fill markers"
       d="m -34.480335,188.97073 a 8.2321466,8.2321466 0 0 0 -4.2042,1.1654 2.2374365,2.2374365 0 0 1 0.8215,1.7305 2.2374365,2.2374365 0 0 1 -2.23729,2.23758 2.2374365,2.2374365 0 0 1 -1.65728,-0.73812 8.2321466,8.2321466 0 0 0 -0.95488,3.83679 8.2321466,8.2321466 0 0 0 0.0124,0.25844 2.2374365,2.2374365 0 0 1 0.55085,-0.0705 2.2374365,2.2374365 0 0 1 2.23727,2.23728 2.2374365,2.2374365 0 0 1 -1.43933,2.0896 8.2321466,8.2321466 0 0 0 2.60085,2.51478 2.2374365,2.2374365 0 0 1 2.20661,-1.88325 2.2374365,2.2374365 0 0 1 2.23729,2.23757 2.2374365,2.2374365 0 0 1 -0.16795,0.84799 8.2321466,8.2321466 0 0 0 4.37812,-1.27793 2.2374365,2.2374365 0 0 1 -0.81584,-1.72605 2.2374365,2.2374365 0 0 1 2.237589,-2.23728 2.2374365,2.2374365 0 0 1 1.570612,0.64671 8.2321466,8.2321466 0 0 0 0.851559,-3.53368 2.2374365,2.2374365 0 0 1 -0.374291,0.0316 2.2374365,2.2374365 0 0 1 -2.237269,-2.23758 2.2374365,2.2374365 0 0 1 1.453619,-2.09406 8.2321466,8.2321466 0 0 0 -2.636568,-2.73869 2.2374365,2.2374365 0 0 1 -2.0771,1.41103 2.2374365,2.2374365 0 0 1 -2.237581,-2.23758 2.2374365,2.2374365 0 0 1 0.0496,-0.46449 8.2321466,8.2321466 0 0 0 -0.169139,-0.006 z m 0,5.99487 a 2.2374365,2.2374365 0 0 1 2.23759,2.23727 2.2374365,2.2374365 0 0 1 -2.23759,2.23759 2.2374365,2.2374365 0 0 1 -2.23757,-2.23759 2.2374365,2.2374365 0 0 1 2.23757,-2.23727 z"
       id="path13829"
       inkscape:connector-curvature="0"
       inkscape:export-filename="X:\Librerie\Libreria Immagini\Immagini\Grafica 2019\Pulsanti con simbolo\PulsParamOff.png"
       inkscape:export-xdpi="96"
       inkscape:export-ydpi="96" />
  </g>
</svg>
