<?xml version="1.0" encoding="UTF-8" standalone="no"?>
<!-- Created with Inkscape (http://www.inkscape.org/) -->

<svg
   xmlns:dc="http://purl.org/dc/elements/1.1/"
   xmlns:cc="http://creativecommons.org/ns#"
   xmlns:rdf="http://www.w3.org/1999/02/22-rdf-syntax-ns#"
   xmlns:svg="http://www.w3.org/2000/svg"
   xmlns="http://www.w3.org/2000/svg"
   xmlns:xlink="http://www.w3.org/1999/xlink"
   xmlns:sodipodi="http://sodipodi.sourceforge.net/DTD/sodipodi-0.dtd"
   xmlns:inkscape="http://www.inkscape.org/namespaces/inkscape"
   width="47.80508mm"
   height="25.888981mm"
   viewBox="0 0 47.80508 25.888981"
   version="1.1"
   id="svg8"
   inkscape:version="0.92.4 (5da689c313, 2019-01-14)"
   sodipodi:docname="PulsRicetteSel.svg">
  <defs
     id="defs2">
    <linearGradient
       inkscape:collect="always"
       xlink:href="#linearGradient4607"
       id="linearGradient13506"
       gradientUnits="userSpaceOnUse"
       gradientTransform="translate(-1.0753973,5.8522149)"
       x1="176.37569"
       y1="89.390717"
       x2="191.24393"
       y2="89.390717" />
    <linearGradient
       inkscape:collect="always"
       id="linearGradient4607">
      <stop
         style="stop-color:#d7eef4;stop-opacity:1"
         offset="0"
         id="stop4603" />
      <stop
         style="stop-color:#afc6e9;stop-opacity:1"
         offset="1"
         id="stop4605" />
    </linearGradient>
    <linearGradient
       inkscape:collect="always"
       xlink:href="#linearGradient7843"
       id="linearGradient13442"
       gradientUnits="userSpaceOnUse"
       gradientTransform="matrix(1.6132823,0,0,1.5448987,-654.48122,-422.63105)"
       x1="405.14444"
       y1="288.18219"
       x2="405.10599"
       y2="303.11227" />
    <linearGradient
       id="linearGradient7843"
       inkscape:collect="always">
      <stop
         id="stop7837"
         offset="0"
         style="stop-color:#d45500;stop-opacity:1" />
      <stop
         style="stop-color:#ffccaa;stop-opacity:1"
         offset="0.49884805"
         id="stop7839" />
      <stop
         id="stop7841"
         offset="1"
         style="stop-color:#d45500;stop-opacity:1" />
    </linearGradient>
    <linearGradient
       inkscape:collect="always"
       xlink:href="#linearGradient5341"
       id="linearGradient13440"
       gradientUnits="userSpaceOnUse"
       gradientTransform="translate(-264.06821,-262.61677)"
       x1="262.99231"
       y1="309.423"
       x2="263.00586"
       y2="283.72061" />
    <linearGradient
       id="linearGradient5341"
       inkscape:collect="always">
      <stop
         id="stop5335"
         offset="0"
         style="stop-color:#000000;stop-opacity:1" />
      <stop
         style="stop-color:#cccccc;stop-opacity:1"
         offset="0.49169952"
         id="stop5337" />
      <stop
         id="stop5339"
         offset="1"
         style="stop-color:#000000;stop-opacity:1" />
    </linearGradient>
  </defs>
  <sodipodi:namedview
     id="base"
     pagecolor="#ffffff"
     bordercolor="#666666"
     borderopacity="1.0"
     inkscape:pageopacity="0.0"
     inkscape:pageshadow="2"
     inkscape:zoom="1.4"
     inkscape:cx="205.48409"
     inkscape:cy="-44.255679"
     inkscape:document-units="mm"
     inkscape:current-layer="layer1"
     showgrid="false"
     inkscape:window-width="958"
     inkscape:window-height="1008"
     inkscape:window-x="953"
     inkscape:window-y="0"
     inkscape:window-maximized="0" />
  <metadata
     id="metadata5">
    <rdf:RDF>
      <cc:Work
         rdf:about="">
        <dc:format>image/svg+xml</dc:format>
        <dc:type
           rdf:resource="http://purl.org/dc/dcmitype/StillImage" />
        <dc:title></dc:title>
      </cc:Work>
    </rdf:RDF>
  </metadata>
  <g
     inkscape:label="Livello 1"
     inkscape:groupmode="layer"
     id="layer1"
     transform="translate(24.688176,-21.38846)">
    <rect
       inkscape:export-ydpi="96"
       inkscape:export-xdpi="96"
       inkscape:export-filename="X:\Librerie\Libreria Immagini\Immagini\Grafica 2019\Pulsanti con simbolo\PulsRicetteSel.png"
       style="display:inline;opacity:1;fill:url(#linearGradient13440);fill-opacity:1;stroke:#e6e6e6;stroke-width:0.90400004;stroke-linecap:round;stroke-linejoin:bevel;stroke-miterlimit:4;stroke-dasharray:none;stroke-dashoffset:0;stroke-opacity:1;paint-order:stroke fill markers"
       id="rect13368"
       width="46.901081"
       height="24.984982"
       x="-24.236176"
       y="21.84046"
       ry="5.2207417" />
    <rect
       rx="4.1010418"
       inkscape:export-ydpi="96"
       inkscape:export-xdpi="96"
       inkscape:export-filename="X:\Librerie\Libreria Immagini\Immagini\Grafica 2019\Pulsanti con simbolo\PulsRicetteSel.png"
       style="display:inline;opacity:1;fill:none;fill-opacity:1;stroke:url(#linearGradient13442);stroke-width:1.61730719;stroke-linecap:round;stroke-linejoin:bevel;stroke-miterlimit:4;stroke-dasharray:none;stroke-dashoffset:0;stroke-opacity:1;paint-order:stroke fill markers"
       id="rect13370"
       width="44.7332"
       height="22.820005"
       x="-23.152237"
       y="22.922949"
       ry="4.7683592" />
    <g
       transform="matrix(1.5587417,0,0,1.5587417,-286.57608,-114.24384)"
       inkscape:export-ydpi="96"
       inkscape:export-xdpi="96"
       inkscape:export-filename="X:\Librerie\Libreria Immagini\Immagini\Grafica 2019\Pulsanti con simbolo\PulsRicetteSel.png"
       id="g13504">
      <path
         style="fill:url(#linearGradient13506);fill-opacity:1;stroke:none;stroke-width:0.26458332px;stroke-linecap:butt;stroke-linejoin:miter;stroke-opacity:1"
         d="m 176.14434,91.874665 c 1.69581,-0.552293 3.39072,-1.108749 5.13951,-1.415832 1.00022,-0.03986 1.51767,0.518003 2.06957,1.033204 0.62067,-0.530835 1.22499,-1.159772 1.95144,-1.055977 1.85628,0.274899 3.45388,0.937817 5.15177,1.4503 l -0.14034,8.068198 -14.19947,-0.01035 z"
         id="path13480"
         inkscape:connector-curvature="0"
         sodipodi:nodetypes="cccccccc" />
      <g
         id="g13502"
         transform="matrix(0.09275857,0,0,0.09275857,185.94784,77.03897)"
         inkscape:export-xdpi="96"
         inkscape:export-ydpi="96"
         style="fill:#ff6600;stroke:#ff6600">
        <path
           inkscape:connector-curvature="0"
           id="path13482"
           d="m -9.6549105,141.9718 c -13.2502295,0.067 -15.4792325,6.44064 -18.6918835,11.24273 -7.645699,-8.28241 -14.151723,-19.17631 -65.480757,0 l -8.285279,0.26717 c -5.81682,0.6178 -7.96533,3.85602 -8.82013,8.01811 v 82.05184 c 0.60693,7.78755 4.44266,8.47116 8.55244,8.55245 H 47.023282 c 4.17872,0.42845 7.127909,-1.60237 7.75095,-8.28528 v -82.05184 c 0.516286,-4.44537 -1.423146,-7.66271 -8.018116,-8.55245 H 36.867314 C 13.636744,144.83271 -0.58896537,141.92596 -9.6549105,141.9718 Z m -40.9670085,4.79093 c 11.649731,-0.0941 17.490583,4.78918 19.869589,11.79721 v 77.50793 c -14.781244,-14.44836 -44.9118,-3.52758 -70.02415,6.68176 V 162.569 c 23.14154,-11.23694 39.210874,-15.71784 50.154561,-15.80627 z m 44.4923749,0.16278 c 11.5032126,-0.0374 27.8125711,4.82567 49.6946391,15.37063 v 80.71549 C 15.072887,230.93231 -11.35444,222.87394 -26.459571,236.8642 v -77.50793 c 2.959116,-8.03593 9.523975,-12.39563 20.3300269,-12.43076 z"
           style="fill:#ff6600;stroke:#ff6600;stroke-width:0.26458332px;stroke-linecap:butt;stroke-linejoin:miter;stroke-opacity:1" />
        <g
           id="g13492"
           style="fill:#ff6600;stroke:#ff6600">
          <path
             sodipodi:nodetypes="ccccc"
             inkscape:connector-curvature="0"
             id="path13484"
             d="m -94.88068,169.7797 c 23.699506,-11.30524 45.0142,-17.32984 58.799295,-6.68174 l -1e-6,3.74178 c -17.763129,-12.3048 -38.549647,-1.93417 -59.066566,6.41446 z"
             style="fill:#ff6600;stroke:#ff6600;stroke-width:0.26458332px;stroke-linecap:butt;stroke-linejoin:miter;stroke-opacity:1" />
          <path
             style="fill:#ff6600;stroke:#ff6600;stroke-width:0.26458332px;stroke-linecap:butt;stroke-linejoin:miter;stroke-opacity:1"
             d="m -94.88068,187.24131 c 23.699506,-11.30524 45.0142,-17.32984 58.799295,-6.68174 l -1e-6,3.74178 c -17.763129,-12.3048 -38.549647,-1.93417 -59.066566,6.41446 z"
             id="path13486"
             inkscape:connector-curvature="0"
             sodipodi:nodetypes="ccccc" />
          <path
             sodipodi:nodetypes="ccccc"
             inkscape:connector-curvature="0"
             id="path13488"
             d="m -94.88068,204.70292 c 23.699506,-11.30524 45.0142,-17.32984 58.799295,-6.68174 l -1e-6,3.74178 c -17.763129,-12.3048 -38.549647,-1.93417 -59.066566,6.41446 z"
             style="fill:#ff6600;stroke:#ff6600;stroke-width:0.26458332px;stroke-linecap:butt;stroke-linejoin:miter;stroke-opacity:1" />
          <path
             style="fill:#ff6600;stroke:#ff6600;stroke-width:0.26458332px;stroke-linecap:butt;stroke-linejoin:miter;stroke-opacity:1"
             d="m -94.88068,222.16453 c 23.699506,-11.30524 45.0142,-17.32984 58.799295,-6.68174 l -1e-6,3.74178 c -17.763129,-12.3048 -38.549647,-1.93417 -59.066566,6.41446 z"
             id="path13490"
             inkscape:connector-curvature="0"
             sodipodi:nodetypes="ccccc" />
        </g>
        <path
           sodipodi:nodetypes="ccccc"
           inkscape:connector-curvature="0"
           id="path13494"
           d="m -20.595633,181.01056 c 9.266951,-12.10705 43.945122,-8.24268 57.730217,2.40542 l -10e-7,3.74178 c -17.763129,-12.3048 -47.904081,-14.22857 -57.997488,-2.6727 z"
           style="fill:#ff6600;stroke:#ff6600;stroke-width:0.26458332px;stroke-linecap:butt;stroke-linejoin:miter;stroke-opacity:1" />
        <path
           style="fill:#ff6600;stroke:#ff6600;stroke-width:0.26458332px;stroke-linecap:butt;stroke-linejoin:miter;stroke-opacity:1"
           d="m -20.595633,197.58127 c 9.266951,-12.10705 43.945122,-8.24268 57.730217,2.40542 l -10e-7,3.74178 c -17.763129,-12.3048 -47.904081,-14.22857 -57.997488,-2.6727 z"
           id="path13496"
           inkscape:connector-curvature="0"
           sodipodi:nodetypes="ccccc" />
        <path
           sodipodi:nodetypes="ccccc"
           inkscape:connector-curvature="0"
           id="path13498"
           d="m -20.595633,214.41925 c 9.266951,-12.10705 43.945122,-8.24268 57.730217,2.40542 l -10e-7,3.74178 c -17.763129,-12.3048 -47.904081,-14.22857 -57.997488,-2.6727 z"
           style="fill:#ff6600;stroke:#ff6600;stroke-width:0.26458332px;stroke-linecap:butt;stroke-linejoin:miter;stroke-opacity:1" />
        <path
           style="fill:#ff6600;stroke:#ff6600;stroke-width:0.26458332px;stroke-linecap:butt;stroke-linejoin:miter;stroke-opacity:1"
           d="m -20.595633,164.70712 c 9.266951,-12.10705 43.945122,-8.24268 57.730217,2.40542 l -10e-7,3.74178 c -17.763129,-12.3048 -47.904081,-14.22857 -57.997488,-2.6727 z"
           id="path13500"
           inkscape:connector-curvature="0"
           sodipodi:nodetypes="ccccc" />
      </g>
    </g>
  </g>
</svg>
