<?xml version="1.0" encoding="UTF-8" standalone="no"?>
<!-- Created with Inkscape (http://www.inkscape.org/) -->

<svg
   xmlns:dc="http://purl.org/dc/elements/1.1/"
   xmlns:cc="http://creativecommons.org/ns#"
   xmlns:rdf="http://www.w3.org/1999/02/22-rdf-syntax-ns#"
   xmlns:svg="http://www.w3.org/2000/svg"
   xmlns="http://www.w3.org/2000/svg"
   xmlns:xlink="http://www.w3.org/1999/xlink"
   xmlns:sodipodi="http://sodipodi.sourceforge.net/DTD/sodipodi-0.dtd"
   xmlns:inkscape="http://www.inkscape.org/namespaces/inkscape"
   width="47.80508mm"
   height="25.888981mm"
   viewBox="0 0 47.80508 25.888981"
   version="1.1"
   id="svg17545"
   inkscape:version="0.92.4 (5da689c313, 2019-01-14)"
   sodipodi:docname="PulsExportDatiOff.svg">
  <defs
     id="defs17539">
    <linearGradient
       inkscape:collect="always"
       xlink:href="#linearGradient5605"
       id="linearGradient25773"
       gradientUnits="userSpaceOnUse"
       gradientTransform="translate(9.4328371,-4.1845999)"
       x1="262.99231"
       y1="309.423"
       x2="263.00586"
       y2="283.72061" />
    <linearGradient
       inkscape:collect="always"
       id="linearGradient5605">
      <stop
         style="stop-color:#1a1a1a;stop-opacity:1"
         offset="0"
         id="stop5599" />
      <stop
         id="stop5601"
         offset="0.49169952"
         style="stop-color:#cccccc;stop-opacity:1" />
      <stop
         style="stop-color:#1a1a1a;stop-opacity:1"
         offset="1"
         id="stop5603" />
    </linearGradient>
    <linearGradient
       inkscape:collect="always"
       xlink:href="#linearGradient5597"
       id="linearGradient25775"
       gradientUnits="userSpaceOnUse"
       gradientTransform="matrix(1.6437582,0,0,1.5992882,-393.31964,-180.35537)"
       x1="405.14444"
       y1="288.18219"
       x2="405.10599"
       y2="303.11227" />
    <linearGradient
       id="linearGradient5597"
       inkscape:collect="always">
      <stop
         id="stop5591"
         offset="0"
         style="stop-color:#1a1a1a;stop-opacity:1" />
      <stop
         style="stop-color:#999999;stop-opacity:1"
         offset="0.49884805"
         id="stop5593" />
      <stop
         id="stop5595"
         offset="1"
         style="stop-color:#1a1a1a;stop-opacity:1" />
    </linearGradient>
  </defs>
  <sodipodi:namedview
     id="base"
     pagecolor="#ffffff"
     bordercolor="#666666"
     borderopacity="1.0"
     inkscape:pageopacity="0.0"
     inkscape:pageshadow="2"
     inkscape:zoom="1.4"
     inkscape:cx="69.182149"
     inkscape:cy="93.552714"
     inkscape:document-units="mm"
     inkscape:current-layer="layer1"
     showgrid="false"
     inkscape:window-width="1369"
     inkscape:window-height="1139"
     inkscape:window-x="953"
     inkscape:window-y="0"
     inkscape:window-maximized="0" />
  <metadata
     id="metadata17542">
    <rdf:RDF>
      <cc:Work
         rdf:about="">
        <dc:format>image/svg+xml</dc:format>
        <dc:type
           rdf:resource="http://purl.org/dc/dcmitype/StillImage" />
        <dc:title></dc:title>
      </cc:Work>
    </rdf:RDF>
  </metadata>
  <g
     inkscape:label="Livello 1"
     inkscape:groupmode="layer"
     id="layer1"
     transform="translate(134.72284,-141.33842)">
    <g
       transform="translate(-1638.529,176.12099)"
       id="g25994"
       inkscape:export-filename="X:\Librerie\Libreria Immagini\Grafica UNIQO\Pulsanti con simbolo\PNG\PulsExportDatiOff.png"
       inkscape:export-xdpi="96"
       inkscape:export-ydpi="96">
      <g
         transform="translate(1254.9933,-314.60324)"
         id="g25614">
        <rect
           inkscape:export-ydpi="96"
           inkscape:export-xdpi="96"
           inkscape:export-filename="X:\Librerie\Libreria GOT\Immagini\Menu\Sfumati\PulNotEnable.png"
           style="display:inline;opacity:1;fill:url(#linearGradient25773);fill-opacity:1;stroke:#e6e6e6;stroke-width:0.90399998;stroke-linecap:round;stroke-linejoin:bevel;stroke-miterlimit:4;stroke-dasharray:none;stroke-dashoffset:0;stroke-opacity:1;paint-order:stroke fill markers"
           id="rect25610"
           width="46.901081"
           height="24.984982"
           x="249.26486"
           y="280.27267"
           ry="5.2207417" />
        <rect
           ry="4.9362335"
           y="280.88474"
           x="249.93549"
           height="23.623405"
           width="45.578239"
           id="rect25612"
           style="display:inline;opacity:1;fill:none;fill-opacity:1;stroke:url(#linearGradient25775);stroke-width:1.06099999;stroke-linecap:round;stroke-linejoin:bevel;stroke-miterlimit:4;stroke-dasharray:none;stroke-dashoffset:0;stroke-opacity:1;paint-order:stroke fill markers"
           inkscape:export-filename="X:\Librerie\Libreria GOT\Immagini\Menu\Sfumati\PulNotEnable.png"
           inkscape:export-xdpi="96"
           inkscape:export-ydpi="96" />
      </g>
      <g
         id="g25933"
         transform="matrix(1.0800264,0,0,1.0800264,-113.26114,37.474693)">
        <g
           id="g25927"
           transform="matrix(0.93395602,0,0,0.93395602,922.30675,-330.60964)">
          <g
             id="g25906"
             transform="translate(0,7.4083337)">
            <path
               style="opacity:1;fill:#ff7f2a;fill-opacity:1;stroke:#000000;stroke-width:0.22671074;stroke-linecap:round;stroke-linejoin:round;stroke-miterlimit:4;stroke-dasharray:none;stroke-dashoffset:0;stroke-opacity:1"
               d="m 635.87132,289.49591 a 7.3129939,3.3339448 0 0 0 -4.03767,0.55684 h -3.27476 v 2.77248 a 7.3129939,3.3339448 0 0 0 -4.9e-4,0.005 7.3129939,3.3339448 0 0 0 4.9e-4,0.006 v 0.22774 h 0.0176 a 7.3129939,3.3339448 0 0 0 7.29481,3.09979 7.3129939,3.3339448 0 0 0 7.28716,-3.09979 h 0.0253 v -0.22951 a 7.3129939,3.3339448 0 0 0 4.9e-4,-0.005 7.3129939,3.3339448 0 0 0 -4.9e-4,-0.007 v -2.77033 h -3.27502 a 7.3129939,3.3339448 0 0 0 -4.03741,-0.55684 z"
               id="path25902"
               inkscape:connector-curvature="0" />
            <ellipse
               style="opacity:1;fill:#b8cfeb;fill-opacity:1;stroke:#000000;stroke-width:0.22671074;stroke-linecap:round;stroke-linejoin:round;stroke-miterlimit:4;stroke-dasharray:none;stroke-dashoffset:0;stroke-opacity:1"
               id="ellipse25904"
               cx="635.87134"
               cy="290.13602"
               rx="7.312994"
               ry="3.333945" />
          </g>
          <g
             transform="translate(0,3.7041668)"
             id="g25919">
            <path
               inkscape:connector-curvature="0"
               id="path25912"
               d="m 635.87132,289.49591 a 7.3129939,3.3339448 0 0 0 -4.03767,0.55684 h -3.27476 v 2.77248 a 7.3129939,3.3339448 0 0 0 -4.9e-4,0.005 7.3129939,3.3339448 0 0 0 4.9e-4,0.006 v 0.22774 h 0.0176 a 7.3129939,3.3339448 0 0 0 7.29481,3.09979 7.3129939,3.3339448 0 0 0 7.28716,-3.09979 h 0.0253 v -0.22951 a 7.3129939,3.3339448 0 0 0 4.9e-4,-0.005 7.3129939,3.3339448 0 0 0 -4.9e-4,-0.007 v -2.77033 h -3.27502 a 7.3129939,3.3339448 0 0 0 -4.03741,-0.55684 z"
               style="opacity:1;fill:#ff7f2a;fill-opacity:1;stroke:#000000;stroke-width:0.22671074;stroke-linecap:round;stroke-linejoin:round;stroke-miterlimit:4;stroke-dasharray:none;stroke-dashoffset:0;stroke-opacity:1" />
            <ellipse
               ry="3.333945"
               rx="7.312994"
               cy="290.13602"
               cx="635.87134"
               id="ellipse25914"
               style="opacity:1;fill:#b8cfeb;fill-opacity:1;stroke:#000000;stroke-width:0.22671074;stroke-linecap:round;stroke-linejoin:round;stroke-miterlimit:4;stroke-dasharray:none;stroke-dashoffset:0;stroke-opacity:1" />
          </g>
          <g
             id="g25925">
            <path
               style="opacity:1;fill:#ff7f2a;fill-opacity:1;stroke:#000000;stroke-width:0.22671074;stroke-linecap:round;stroke-linejoin:round;stroke-miterlimit:4;stroke-dasharray:none;stroke-dashoffset:0;stroke-opacity:1"
               d="m 635.87132,289.49591 a 7.3129939,3.3339448 0 0 0 -4.03767,0.55684 h -3.27476 v 2.77248 a 7.3129939,3.3339448 0 0 0 -4.9e-4,0.005 7.3129939,3.3339448 0 0 0 4.9e-4,0.006 v 0.22774 h 0.0176 a 7.3129939,3.3339448 0 0 0 7.29481,3.09979 7.3129939,3.3339448 0 0 0 7.28716,-3.09979 h 0.0253 v -0.22951 a 7.3129939,3.3339448 0 0 0 4.9e-4,-0.005 7.3129939,3.3339448 0 0 0 -4.9e-4,-0.007 v -2.77033 h -3.27502 a 7.3129939,3.3339448 0 0 0 -4.03741,-0.55684 z"
               id="path25921"
               inkscape:connector-curvature="0" />
            <ellipse
               style="opacity:1;fill:#b8cfeb;fill-opacity:1;stroke:#000000;stroke-width:0.22671074;stroke-linecap:round;stroke-linejoin:round;stroke-miterlimit:4;stroke-dasharray:none;stroke-dashoffset:0;stroke-opacity:1"
               id="ellipse25923"
               cx="635.87134"
               cy="290.13602"
               rx="7.312994"
               ry="3.333945" />
          </g>
        </g>
        <path
           inkscape:connector-curvature="0"
           id="path25930"
           d="m 1520.9616,-54.147114 h 4.3835 v -1.820348 l 3.7937,4.253905 -3.7937,4.253891 v -1.819473 h -4.3835 z"
           style="opacity:1;fill:#ff6600;fill-opacity:1;stroke:#000000;stroke-width:0.74650317;stroke-linecap:round;stroke-linejoin:round;stroke-miterlimit:4;stroke-dasharray:none;stroke-dashoffset:5.37312746;stroke-opacity:1;paint-order:stroke fill markers" />
      </g>
    </g>
  </g>
</svg>
