<?xml version="1.0" encoding="UTF-8" standalone="no"?>
<!-- Created with Inkscape (http://www.inkscape.org/) -->

<svg
   xmlns:dc="http://purl.org/dc/elements/1.1/"
   xmlns:cc="http://creativecommons.org/ns#"
   xmlns:rdf="http://www.w3.org/1999/02/22-rdf-syntax-ns#"
   xmlns:svg="http://www.w3.org/2000/svg"
   xmlns="http://www.w3.org/2000/svg"
   xmlns:xlink="http://www.w3.org/1999/xlink"
   xmlns:sodipodi="http://sodipodi.sourceforge.net/DTD/sodipodi-0.dtd"
   xmlns:inkscape="http://www.inkscape.org/namespaces/inkscape"
   width="47.80508mm"
   height="25.888981mm"
   viewBox="0 0 47.80508 25.888982"
   version="1.1"
   id="svg17545"
   inkscape:version="0.92.4 (5da689c313, 2019-01-14)"
   sodipodi:docname="PulsLubrSel.svg">
  <defs
     id="defs17539">
    <linearGradient
       inkscape:collect="always"
       xlink:href="#linearGradient5341"
       id="linearGradient18833"
       gradientUnits="userSpaceOnUse"
       gradientTransform="translate(210.44923,104.85002)"
       x1="262.99231"
       y1="309.423"
       x2="263.00586"
       y2="283.72061" />
    <linearGradient
       id="linearGradient5341"
       inkscape:collect="always">
      <stop
         id="stop5335"
         offset="0"
         style="stop-color:#000000;stop-opacity:1" />
      <stop
         style="stop-color:#cccccc;stop-opacity:1"
         offset="0.49169952"
         id="stop5337" />
      <stop
         id="stop5339"
         offset="1"
         style="stop-color:#000000;stop-opacity:1" />
    </linearGradient>
    <linearGradient
       inkscape:collect="always"
       xlink:href="#linearGradient7843"
       id="linearGradient18835"
       gradientUnits="userSpaceOnUse"
       gradientTransform="matrix(1.6132823,0,0,1.5448987,-179.96418,-55.164294)"
       x1="405.14444"
       y1="288.18219"
       x2="405.10599"
       y2="303.11227" />
    <linearGradient
       id="linearGradient7843"
       inkscape:collect="always">
      <stop
         id="stop7837"
         offset="0"
         style="stop-color:#d45500;stop-opacity:1" />
      <stop
         style="stop-color:#ffccaa;stop-opacity:1"
         offset="0.49884805"
         id="stop7839" />
      <stop
         id="stop7841"
         offset="1"
         style="stop-color:#d45500;stop-opacity:1" />
    </linearGradient>
    <linearGradient
       inkscape:collect="always"
       xlink:href="#linearGradient7843"
       id="linearGradient18919"
       x1="444.43527"
       y1="394.49573"
       x2="481.2897"
       y2="394.49573"
       gradientUnits="userSpaceOnUse"
       gradientTransform="matrix(0.71715376,0,0,0.71715376,140.16833,118.04128)" />
    <linearGradient
       inkscape:collect="always"
       xlink:href="#linearGradient8077"
       id="linearGradient18927"
       x1="482.64185"
       y1="408.3638"
       x2="487.50558"
       y2="408.3638"
       gradientUnits="userSpaceOnUse"
       gradientTransform="translate(1.0605673,-0.53899325)" />
    <linearGradient
       inkscape:collect="always"
       id="linearGradient8077">
      <stop
         style="stop-color:#ff7f2a;stop-opacity:1"
         offset="0"
         id="stop8071" />
      <stop
         id="stop8073"
         offset="0.49884805"
         style="stop-color:#ffe6d5;stop-opacity:1" />
      <stop
         style="stop-color:#ff7f2a;stop-opacity:1"
         offset="1"
         id="stop8075" />
    </linearGradient>
  </defs>
  <sodipodi:namedview
     id="base"
     pagecolor="#ffffff"
     bordercolor="#666666"
     borderopacity="1.0"
     inkscape:pageopacity="0.0"
     inkscape:pageshadow="2"
     inkscape:zoom="1.4"
     inkscape:cx="63.741951"
     inkscape:cy="40.489835"
     inkscape:document-units="mm"
     inkscape:current-layer="layer1"
     showgrid="false"
     inkscape:window-width="1351"
     inkscape:window-height="1008"
     inkscape:window-x="953"
     inkscape:window-y="0"
     inkscape:window-maximized="0" />
  <metadata
     id="metadata17542">
    <rdf:RDF>
      <cc:Work
         rdf:about="">
        <dc:format>image/svg+xml</dc:format>
        <dc:type
           rdf:resource="http://purl.org/dc/dcmitype/StillImage" />
        <dc:title></dc:title>
      </cc:Work>
    </rdf:RDF>
  </metadata>
  <g
     inkscape:label="Livello 1"
     inkscape:groupmode="layer"
     id="layer1"
     transform="translate(126.04787,53.566099)">
    <g
       transform="translate(-575.87678,-442.42135)"
       id="g19058"
       inkscape:export-filename="X:\Librerie\Libreria Immagini\Immagini\Grafica 2019\Pulsanti con simbolo\PulsLubrSel.png"
       inkscape:export-xdpi="275"
       inkscape:export-ydpi="275">
      <rect
         inkscape:export-ydpi="96"
         inkscape:export-xdpi="96"
         inkscape:export-filename="X:\Librerie\Libreria Immagini\Immagini\Grafica 2019\Pulsanti con simbolo\PulsSalvaPosRobotSel.png"
         style="display:inline;opacity:1;fill:url(#linearGradient18833);fill-opacity:1;stroke:#e6e6e6;stroke-width:0.9040001;stroke-linecap:round;stroke-linejoin:bevel;stroke-miterlimit:4;stroke-dasharray:none;stroke-dashoffset:0;stroke-opacity:1;paint-order:stroke fill markers"
         id="rect18714"
         width="46.901081"
         height="24.984982"
         x="450.28091"
         y="389.30725"
         ry="5.2207417" />
      <rect
         rx="4.1010418"
         inkscape:export-ydpi="96"
         inkscape:export-xdpi="96"
         inkscape:export-filename="X:\Librerie\Libreria Immagini\Immagini\Grafica 2019\Pulsanti con simbolo\PulsSalvaPosRobotSel.png"
         style="display:inline;opacity:1;fill:none;fill-opacity:1;stroke:url(#linearGradient18835);stroke-width:1.61730719;stroke-linecap:round;stroke-linejoin:bevel;stroke-miterlimit:4;stroke-dasharray:none;stroke-dashoffset:0;stroke-opacity:1;paint-order:stroke fill markers"
         id="rect18716"
         width="44.7332"
         height="22.820005"
         x="451.36487"
         y="390.38974"
         ry="4.7683592" />
      <g
         id="g19023">
        <path
           inkscape:connector-curvature="0"
           style="fill:url(#linearGradient18919);fill-opacity:1;stroke:#000000;stroke-width:0.18974692px;stroke-linecap:butt;stroke-linejoin:miter;stroke-opacity:1"
           d="m 460.28415,392.77395 c -0.11506,0.0229 -0.22628,0.0759 -0.32936,0.16737 l -0.73129,0.83605 c -0.43103,0.58213 -0.18258,0.94566 0.10151,1.30038 l 4.08933,3.36842 c 0.41869,0.47219 0.30383,0.72284 0.22853,0.99021 l -1.71738,4.4226 c -0.0602,0.28447 -0.18838,0.56776 0.4803,0.86438 l 10.64597,4.28857 c 0.65701,0.3307 1.20185,-0.0106 1.77341,-0.19142 l 10.11081,-5.57261 c 0.52675,-0.31234 0.29894,-0.60996 -0.24868,-0.60923 l -7.47176,-0.36826 c -0.68392,-0.0926 -0.0437,-0.6574 -0.83436,-1.09904 l -4.75585,-1.82967 0.61872,-1.57285 1.32418,0.51337 c 0.80878,0.25421 1.08877,-0.6857 0.5308,-1.09601 l -4.0801,-1.64874 c -0.72352,-0.14698 -1.19019,0.75236 -0.53249,1.18046 l 1.28367,0.5205 -0.55259,1.4987 -4.39305,-1.70017 c -0.58634,-0.32083 -0.8001,-0.53558 -1.07301,-0.76647 l -3.42896,-3.05904 c -0.31113,-0.29425 -0.69294,-0.50493 -1.03835,-0.4375 z m 0.1607,0.79564 c 0.0971,-0.008 0.19733,0.0222 0.27743,0.0908 l 3.26168,2.79542 c 0.16024,0.13729 0.17888,0.37652 0.0416,0.53675 l -0.31819,0.3714 c -0.1373,0.16022 -0.37695,0.17855 -0.5372,0.0412 l -3.26161,-2.79505 c -0.16023,-0.13731 -0.17892,-0.37689 -0.0417,-0.53712 l 0.31827,-0.37103 c 0.0686,-0.0801 0.16259,-0.12494 0.25967,-0.13243 z"
           id="path18895" />
        <path
           style="fill:url(#linearGradient18927);fill-opacity:1;stroke:#000000;stroke-width:0.18974692px;stroke-linecap:round;stroke-linejoin:round;stroke-opacity:1"
           d="m 486.16447,404.81098 c -0.69028,0.88242 -1.47528,1.71994 -2.03496,2.60604 -2.02386,4.30504 5.88663,4.77581 4.06992,0.10267 -0.45917,-1.00357 -1.36736,-1.77463 -2.03496,-2.70871 z m 0.10229,0.99543 c 1.22076,1.18985 2.37345,2.40532 1.31785,3.86536 -1.17151,1.15869 -2.1741,0.44182 -1.44942,-0.27832 1.18152,-0.85958 0.6192,-2.23432 0.13157,-3.58704 z"
           id="path18900"
           inkscape:connector-curvature="0"
           sodipodi:nodetypes="cccccccc" />
      </g>
    </g>
  </g>
</svg>
