<?xml version="1.0" encoding="UTF-8" standalone="no"?>
<!-- Created with Inkscape (http://www.inkscape.org/) -->

<svg
   xmlns:dc="http://purl.org/dc/elements/1.1/"
   xmlns:cc="http://creativecommons.org/ns#"
   xmlns:rdf="http://www.w3.org/1999/02/22-rdf-syntax-ns#"
   xmlns:svg="http://www.w3.org/2000/svg"
   xmlns="http://www.w3.org/2000/svg"
   xmlns:xlink="http://www.w3.org/1999/xlink"
   xmlns:sodipodi="http://sodipodi.sourceforge.net/DTD/sodipodi-0.dtd"
   xmlns:inkscape="http://www.inkscape.org/namespaces/inkscape"
   width="47.80508mm"
   height="25.888981mm"
   viewBox="0 0 47.80508 25.888981"
   version="1.1"
   id="svg17545"
   inkscape:version="0.92.4 (5da689c313, 2019-01-14)"
   sodipodi:docname="PulsListCommDbSel.svg">
  <defs
     id="defs17539">
    <linearGradient
       inkscape:collect="always"
       xlink:href="#linearGradient5341"
       id="linearGradient16142"
       gradientUnits="userSpaceOnUse"
       gradientTransform="translate(1353.0466,-116.75986)"
       x1="262.99231"
       y1="309.423"
       x2="263.00586"
       y2="283.72061" />
    <linearGradient
       id="linearGradient5341"
       inkscape:collect="always">
      <stop
         id="stop5335"
         offset="0"
         style="stop-color:#000000;stop-opacity:1" />
      <stop
         style="stop-color:#cccccc;stop-opacity:1"
         offset="0.49169952"
         id="stop5337" />
      <stop
         id="stop5339"
         offset="1"
         style="stop-color:#000000;stop-opacity:1" />
    </linearGradient>
    <linearGradient
       inkscape:collect="always"
       xlink:href="#linearGradient7843"
       id="linearGradient16144"
       gradientUnits="userSpaceOnUse"
       gradientTransform="matrix(1.6132823,0,0,1.5448987,962.63375,-276.77417)"
       x1="405.14444"
       y1="288.18219"
       x2="405.10599"
       y2="303.11227" />
    <linearGradient
       id="linearGradient7843"
       inkscape:collect="always">
      <stop
         id="stop7837"
         offset="0"
         style="stop-color:#d45500;stop-opacity:1" />
      <stop
         style="stop-color:#ffccaa;stop-opacity:1"
         offset="0.49884805"
         id="stop7839" />
      <stop
         id="stop7841"
         offset="1"
         style="stop-color:#d45500;stop-opacity:1" />
    </linearGradient>
  </defs>
  <sodipodi:namedview
     id="base"
     pagecolor="#ffffff"
     bordercolor="#666666"
     borderopacity="1.0"
     inkscape:pageopacity="0.0"
     inkscape:pageshadow="2"
     inkscape:zoom="1.4"
     inkscape:cx="266.35811"
     inkscape:cy="18.561713"
     inkscape:document-units="mm"
     inkscape:current-layer="layer1"
     showgrid="false"
     inkscape:window-width="958"
     inkscape:window-height="1008"
     inkscape:window-x="953"
     inkscape:window-y="0"
     inkscape:window-maximized="0" />
  <metadata
     id="metadata17542">
    <rdf:RDF>
      <cc:Work
         rdf:about="">
        <dc:format>image/svg+xml</dc:format>
        <dc:type
           rdf:resource="http://purl.org/dc/dcmitype/StillImage" />
        <dc:title></dc:title>
      </cc:Work>
    </rdf:RDF>
  </metadata>
  <g
     inkscape:label="Livello 1"
     inkscape:groupmode="layer"
     id="layer1"
     transform="translate(86.728616,-121.49709)">
    <g
       transform="translate(-1679.1554,-45.748282)"
       id="g16591"
       inkscape:export-filename="X:\Librerie\Libreria Immagini\Immagini\Grafica 2019\Pulsanti con simbolo\PulsListCommDbSel.png"
       inkscape:export-xdpi="275"
       inkscape:export-ydpi="275">
      <rect
         ry="5.2207417"
         y="167.69737"
         x="1592.8788"
         height="24.984982"
         width="46.901081"
         id="rect16007"
         style="display:inline;opacity:1;fill:url(#linearGradient16142);fill-opacity:1;stroke:#e6e6e6;stroke-width:0.9040001;stroke-linecap:round;stroke-linejoin:bevel;stroke-miterlimit:4;stroke-dasharray:none;stroke-dashoffset:0;stroke-opacity:1;paint-order:stroke fill markers"
         inkscape:export-filename="X:\Librerie\Libreria Immagini\Immagini\Grafica 2019\Pulsanti con simbolo\PulsConfSel.png"
         inkscape:export-xdpi="275"
         inkscape:export-ydpi="275" />
      <rect
         ry="4.7683592"
         y="168.77986"
         x="1593.9628"
         height="22.820005"
         width="44.7332"
         id="rect16009"
         style="display:inline;opacity:1;fill:none;fill-opacity:1;stroke:url(#linearGradient16144);stroke-width:1.61730719;stroke-linecap:round;stroke-linejoin:bevel;stroke-miterlimit:4;stroke-dasharray:none;stroke-dashoffset:0;stroke-opacity:1;paint-order:stroke fill markers"
         inkscape:export-filename="X:\Librerie\Libreria Immagini\Immagini\Grafica 2019\Pulsanti con simbolo\PulsConfSel.png"
         inkscape:export-xdpi="275"
         inkscape:export-ydpi="275"
         rx="4.1010418" />
      <g
         transform="matrix(0.93395602,0,0,0.93395602,-32.88818,6.5907761)"
         id="g16492">
        <g
           id="g16458"
           transform="translate(1117.3807,-109.31207)">
          <g
             id="g16440"
             transform="translate(0,7.4083337)">
            <path
               style="opacity:1;fill:#ff7f2a;fill-opacity:1;stroke:#000000;stroke-width:0.22671074;stroke-linecap:round;stroke-linejoin:round;stroke-miterlimit:4;stroke-dasharray:none;stroke-dashoffset:0;stroke-opacity:1"
               d="m 635.87132,289.49591 a 7.3129939,3.3339448 0 0 0 -4.03767,0.55684 h -3.27476 v 2.77248 a 7.3129939,3.3339448 0 0 0 -4.9e-4,0.005 7.3129939,3.3339448 0 0 0 4.9e-4,0.006 v 0.22774 h 0.0176 a 7.3129939,3.3339448 0 0 0 7.29481,3.09979 7.3129939,3.3339448 0 0 0 7.28716,-3.09979 h 0.0253 v -0.22951 a 7.3129939,3.3339448 0 0 0 4.9e-4,-0.005 7.3129939,3.3339448 0 0 0 -4.9e-4,-0.007 v -2.77033 h -3.27502 a 7.3129939,3.3339448 0 0 0 -4.03741,-0.55684 z"
               id="path16436"
               inkscape:connector-curvature="0" />
            <ellipse
               style="opacity:1;fill:#b8cfeb;fill-opacity:1;stroke:#000000;stroke-width:0.22671074;stroke-linecap:round;stroke-linejoin:round;stroke-miterlimit:4;stroke-dasharray:none;stroke-dashoffset:0;stroke-opacity:1"
               id="ellipse16438"
               cx="635.87134"
               cy="290.13602"
               rx="7.312994"
               ry="3.333945" />
          </g>
          <g
             transform="translate(0,3.7041668)"
             id="g16449">
            <path
               inkscape:connector-curvature="0"
               id="path16445"
               d="m 635.87132,289.49591 a 7.3129939,3.3339448 0 0 0 -4.03767,0.55684 h -3.27476 v 2.77248 a 7.3129939,3.3339448 0 0 0 -4.9e-4,0.005 7.3129939,3.3339448 0 0 0 4.9e-4,0.006 v 0.22774 h 0.0176 a 7.3129939,3.3339448 0 0 0 7.29481,3.09979 7.3129939,3.3339448 0 0 0 7.28716,-3.09979 h 0.0253 v -0.22951 a 7.3129939,3.3339448 0 0 0 4.9e-4,-0.005 7.3129939,3.3339448 0 0 0 -4.9e-4,-0.007 v -2.77033 h -3.27502 a 7.3129939,3.3339448 0 0 0 -4.03741,-0.55684 z"
               style="opacity:1;fill:#ff7f2a;fill-opacity:1;stroke:#000000;stroke-width:0.22671074;stroke-linecap:round;stroke-linejoin:round;stroke-miterlimit:4;stroke-dasharray:none;stroke-dashoffset:0;stroke-opacity:1" />
            <ellipse
               ry="3.333945"
               rx="7.312994"
               cy="290.13602"
               cx="635.87134"
               id="ellipse16447"
               style="opacity:1;fill:#b8cfeb;fill-opacity:1;stroke:#000000;stroke-width:0.22671074;stroke-linecap:round;stroke-linejoin:round;stroke-miterlimit:4;stroke-dasharray:none;stroke-dashoffset:0;stroke-opacity:1" />
          </g>
          <g
             id="g16456">
            <path
               style="opacity:1;fill:#ff7f2a;fill-opacity:1;stroke:#000000;stroke-width:0.22671074;stroke-linecap:round;stroke-linejoin:round;stroke-miterlimit:4;stroke-dasharray:none;stroke-dashoffset:0;stroke-opacity:1"
               d="m 635.87132,289.49591 a 7.3129939,3.3339448 0 0 0 -4.03767,0.55684 h -3.27476 v 2.77248 a 7.3129939,3.3339448 0 0 0 -4.9e-4,0.005 7.3129939,3.3339448 0 0 0 4.9e-4,0.006 v 0.22774 h 0.0176 a 7.3129939,3.3339448 0 0 0 7.29481,3.09979 7.3129939,3.3339448 0 0 0 7.28716,-3.09979 h 0.0253 v -0.22951 a 7.3129939,3.3339448 0 0 0 4.9e-4,-0.005 7.3129939,3.3339448 0 0 0 -4.9e-4,-0.007 v -2.77033 h -3.27502 a 7.3129939,3.3339448 0 0 0 -4.03741,-0.55684 z"
               id="path16451"
               inkscape:connector-curvature="0" />
            <ellipse
               style="opacity:1;fill:#b8cfeb;fill-opacity:1;stroke:#000000;stroke-width:0.22671074;stroke-linecap:round;stroke-linejoin:round;stroke-miterlimit:4;stroke-dasharray:none;stroke-dashoffset:0;stroke-opacity:1"
               id="ellipse16453"
               cx="635.87134"
               cy="290.13602"
               rx="7.312994"
               ry="3.333945" />
          </g>
        </g>
        <path
           inkscape:connector-curvature="0"
           id="path16460"
           d="m 1762.1346,184.17985 h 3.0534 v -1.26802 l 2.6426,2.96319 -2.6426,2.96318 v -1.26741 h -3.0534 z"
           style="opacity:1;fill:#ff6600;fill-opacity:1;stroke:#000000;stroke-width:0.51999998;stroke-linecap:round;stroke-linejoin:round;stroke-miterlimit:4;stroke-dasharray:none;stroke-dashoffset:5.37312746;stroke-opacity:1;paint-order:stroke fill markers" />
        <g
           transform="matrix(0.82762159,0,0,0.82762159,663.50583,34.363337)"
           id="g16490">
          <path
             style="opacity:1;fill:#ffe6d5;fill-opacity:1;stroke:#ff9955;stroke-width:0.42334121;stroke-linecap:round;stroke-linejoin:round;stroke-miterlimit:4;stroke-dasharray:none;stroke-dashoffset:26.45669365;stroke-opacity:1"
             d="m 1336.3066,174.97216 h 19.5964 v 15.76744 c -3.0369,0.52646 -4.4907,-0.73735 -6.2981,-0.29203 -4.2338,0.94487 -5.147,0.38687 -6.801,0.64645 -2.6413,0.41452 -4.2544,-1.14347 -6.4973,-0.35442 z"
             id="path16462"
             inkscape:connector-curvature="0"
             sodipodi:nodetypes="ccccscc" />
          <g
             id="g16468">
            <path
               sodipodi:nodetypes="cc"
               inkscape:connector-curvature="0"
               id="path16464"
               d="m 1342.5485,178.22973 h 11.3063"
               style="fill:none;stroke:#808080;stroke-width:0.64209867;stroke-linecap:round;stroke-linejoin:miter;stroke-miterlimit:4;stroke-dasharray:none;stroke-opacity:1" />
            <rect
               y="177.16977"
               x="1338.2809"
               height="2.1984465"
               width="2.1984465"
               id="rect16466"
               style="opacity:1;fill:none;fill-opacity:1;stroke:#ff6600;stroke-width:0.50360686;stroke-linecap:round;stroke-linejoin:round;stroke-miterlimit:4;stroke-dasharray:none;stroke-dashoffset:26.45669365;stroke-opacity:1" />
          </g>
          <g
             id="g16474">
            <path
               style="fill:none;stroke:#808080;stroke-width:0.64209867;stroke-linecap:round;stroke-linejoin:miter;stroke-miterlimit:4;stroke-dasharray:none;stroke-opacity:1"
               d="m 1342.5485,182.43033 h 11.3063"
               id="path16470"
               inkscape:connector-curvature="0"
               sodipodi:nodetypes="cc" />
            <rect
               style="opacity:1;fill:none;fill-opacity:1;stroke:#ff6600;stroke-width:0.50360686;stroke-linecap:round;stroke-linejoin:round;stroke-miterlimit:4;stroke-dasharray:none;stroke-dashoffset:26.45669365;stroke-opacity:1"
               id="rect16472"
               width="2.1984465"
               height="2.1984465"
               x="1338.2809"
               y="181.37038" />
          </g>
          <g
             id="g16488">
            <path
               sodipodi:nodetypes="cc"
               inkscape:connector-curvature="0"
               id="path16483"
               d="m 1342.5485,186.63094 h 11.3063"
               style="fill:none;stroke:#808080;stroke-width:0.64209867;stroke-linecap:round;stroke-linejoin:miter;stroke-miterlimit:4;stroke-dasharray:none;stroke-opacity:1" />
            <rect
               y="185.57098"
               x="1338.2809"
               height="2.1984465"
               width="2.1984465"
               id="rect16485"
               style="opacity:1;fill:none;fill-opacity:1;stroke:#ff6600;stroke-width:0.50360686;stroke-linecap:round;stroke-linejoin:round;stroke-miterlimit:4;stroke-dasharray:none;stroke-dashoffset:26.45669365;stroke-opacity:1" />
          </g>
        </g>
      </g>
    </g>
  </g>
</svg>
