<?xml version="1.0" encoding="UTF-8" standalone="no"?>
<!-- Created with Inkscape (http://www.inkscape.org/) -->

<svg
   xmlns:dc="http://purl.org/dc/elements/1.1/"
   xmlns:cc="http://creativecommons.org/ns#"
   xmlns:rdf="http://www.w3.org/1999/02/22-rdf-syntax-ns#"
   xmlns:svg="http://www.w3.org/2000/svg"
   xmlns="http://www.w3.org/2000/svg"
   xmlns:xlink="http://www.w3.org/1999/xlink"
   xmlns:sodipodi="http://sodipodi.sourceforge.net/DTD/sodipodi-0.dtd"
   xmlns:inkscape="http://www.inkscape.org/namespaces/inkscape"
   width="47.80508mm"
   height="25.888981mm"
   viewBox="0 0 47.80508 25.888982"
   version="1.1"
   id="svg17545"
   inkscape:version="0.92.4 (5da689c313, 2019-01-14)"
   sodipodi:docname="PulsManMeccSel.svg">
  <defs
     id="defs17539">
    <linearGradient
       inkscape:collect="always"
       xlink:href="#linearGradient5341"
       id="linearGradient16823"
       gradientUnits="userSpaceOnUse"
       gradientTransform="translate(778.28102,-247.17946)"
       x1="262.99231"
       y1="309.423"
       x2="263.00586"
       y2="283.72061" />
    <linearGradient
       id="linearGradient5341"
       inkscape:collect="always">
      <stop
         id="stop5335"
         offset="0"
         style="stop-color:#000000;stop-opacity:1" />
      <stop
         style="stop-color:#cccccc;stop-opacity:1"
         offset="0.49169952"
         id="stop5337" />
      <stop
         id="stop5339"
         offset="1"
         style="stop-color:#000000;stop-opacity:1" />
    </linearGradient>
    <linearGradient
       inkscape:collect="always"
       xlink:href="#linearGradient7843"
       id="linearGradient16825"
       gradientUnits="userSpaceOnUse"
       gradientTransform="matrix(1.6132823,0,0,1.5448987,387.86814,-407.19377)"
       x1="405.14444"
       y1="288.18219"
       x2="405.10599"
       y2="303.11227" />
    <linearGradient
       id="linearGradient7843"
       inkscape:collect="always">
      <stop
         id="stop7837"
         offset="0"
         style="stop-color:#d45500;stop-opacity:1" />
      <stop
         style="stop-color:#ffccaa;stop-opacity:1"
         offset="0.49884805"
         id="stop7839" />
      <stop
         id="stop7841"
         offset="1"
         style="stop-color:#d45500;stop-opacity:1" />
    </linearGradient>
    <linearGradient
       inkscape:collect="always"
       xlink:href="#linearGradient4607"
       id="linearGradient17031"
       gradientUnits="userSpaceOnUse"
       gradientTransform="matrix(0.82530653,0,0,0.82530653,831.06767,-22.985322)"
       x1="257.24002"
       y1="84.514999"
       x2="272.16882"
       y2="84.514999" />
    <linearGradient
       inkscape:collect="always"
       id="linearGradient4607">
      <stop
         style="stop-color:#d7eef4;stop-opacity:1"
         offset="0"
         id="stop4603" />
      <stop
         style="stop-color:#afc6e9;stop-opacity:1"
         offset="1"
         id="stop4605" />
    </linearGradient>
    <radialGradient
       inkscape:collect="always"
       xlink:href="#linearGradient4607"
       id="radialGradient16827"
       gradientUnits="userSpaceOnUse"
       gradientTransform="matrix(1.0692255,0,0,1.4177136,-5.5020842,223.4237)"
       cx="79.480568"
       cy="-534.87274"
       fx="79.480568"
       fy="-534.87274"
       r="6.1865301" />
    <radialGradient
       inkscape:collect="always"
       xlink:href="#linearGradient4607"
       id="radialGradient16829"
       gradientUnits="userSpaceOnUse"
       gradientTransform="matrix(1,0,0,1.3162024,0,154.80241)"
       cx="-35.125896"
       cy="-489.5675"
       fx="-35.125896"
       fy="-489.5675"
       r="19.525227" />
  </defs>
  <sodipodi:namedview
     id="base"
     pagecolor="#ffffff"
     bordercolor="#666666"
     borderopacity="1.0"
     inkscape:pageopacity="0.0"
     inkscape:pageshadow="2"
     inkscape:zoom="1.4"
     inkscape:cx="184.94433"
     inkscape:cy="32.76353"
     inkscape:document-units="mm"
     inkscape:current-layer="layer1"
     showgrid="false"
     inkscape:window-width="958"
     inkscape:window-height="1008"
     inkscape:window-x="953"
     inkscape:window-y="0"
     inkscape:window-maximized="0" />
  <metadata
     id="metadata17542">
    <rdf:RDF>
      <cc:Work
         rdf:about="">
        <dc:format>image/svg+xml</dc:format>
        <dc:type
           rdf:resource="http://purl.org/dc/dcmitype/StillImage" />
        <dc:title></dc:title>
      </cc:Work>
    </rdf:RDF>
  </metadata>
  <g
     inkscape:label="Livello 1"
     inkscape:groupmode="layer"
     id="layer1"
     transform="translate(109.64052,57.216736)">
    <g
       transform="translate(-1127.3015,-94.042537)"
       id="g17194"
       inkscape:export-xdpi="275"
       inkscape:export-ydpi="275">
      <rect
         inkscape:export-ydpi="275"
         inkscape:export-xdpi="275"
         inkscape:export-filename="X:\Librerie\Libreria Immagini\Immagini\Grafica 2019\Pulsanti con simbolo\PulsConfSel.png"
         style="display:inline;opacity:1;fill:url(#linearGradient16823);fill-opacity:1;stroke:#e6e6e6;stroke-width:0.9040001;stroke-linecap:round;stroke-linejoin:bevel;stroke-miterlimit:4;stroke-dasharray:none;stroke-dashoffset:0;stroke-opacity:1;paint-order:stroke fill markers"
         id="rect16686"
         width="46.901081"
         height="24.984982"
         x="1018.113"
         y="37.277802"
         ry="5.2207417" />
      <rect
         rx="4.1010418"
         inkscape:export-ydpi="275"
         inkscape:export-xdpi="275"
         inkscape:export-filename="X:\Librerie\Libreria Immagini\Immagini\Grafica 2019\Pulsanti con simbolo\PulsConfSel.png"
         style="display:inline;opacity:1;fill:none;fill-opacity:1;stroke:url(#linearGradient16825);stroke-width:1.61730719;stroke-linecap:round;stroke-linejoin:bevel;stroke-miterlimit:4;stroke-dasharray:none;stroke-dashoffset:0;stroke-opacity:1;paint-order:stroke fill markers"
         id="rect16688"
         width="44.7332"
         height="22.820005"
         x="1019.1969"
         y="38.360291"
         ry="4.7683592" />
      <g
         transform="translate(-3.9649114,0.84560021)"
         id="g17098">
        <path
           inkscape:export-ydpi="96"
           inkscape:export-xdpi="96"
           inkscape:export-filename="X:\Librerie\Libreria Immagini\Immagini\Grafica 2019\Pulsanti con simbolo\PulsParamSel.png"
           style="opacity:1;fill:url(#linearGradient17031);fill-opacity:1;stroke:#ff6600;stroke-width:0.7806409;stroke-linecap:round;stroke-linejoin:miter;stroke-miterlimit:4;stroke-dasharray:none;stroke-dashoffset:0;stroke-opacity:1;paint-order:stroke fill markers"
           d="m 1049.5294,40.815618 a 5.9503239,5.9503239 0 0 0 -3.0389,0.842364 1.617254,1.617254 0 0 1 0.5938,1.250834 1.617254,1.617254 0 0 1 -1.6171,1.61736 1.617254,1.617254 0 0 1 -1.1979,-0.533524 5.9503239,5.9503239 0 0 0 -0.6902,2.773291 5.9503239,5.9503239 0 0 0 0.01,0.186802 1.617254,1.617254 0 0 1 0.3981,-0.05099 1.617254,1.617254 0 0 1 1.6172,1.617143 1.617254,1.617254 0 0 1 -1.0404,1.510392 5.9503239,5.9503239 0 0 0 1.8799,1.817726 1.617254,1.617254 0 0 1 1.595,-1.361245 1.617254,1.617254 0 0 1 1.6171,1.617352 1.617254,1.617254 0 0 1 -0.1213,0.612939 5.9503239,5.9503239 0 0 0 3.1645,-0.923707 1.617254,1.617254 0 0 1 -0.5897,-1.247618 1.617254,1.617254 0 0 1 1.6174,-1.617143 1.617254,1.617254 0 0 1 1.1353,0.467454 5.9503239,5.9503239 0 0 0 0.6155,-2.554195 1.617254,1.617254 0 0 1 -0.2706,0.02283 1.617254,1.617254 0 0 1 -1.6171,-1.617361 1.617254,1.617254 0 0 1 1.0507,-1.513618 5.9503239,5.9503239 0 0 0 -1.9058,-1.97957 1.617254,1.617254 0 0 1 -1.5013,1.019917 1.617254,1.617254 0 0 1 -1.6174,-1.617361 1.617254,1.617254 0 0 1 0.036,-0.335742 5.9503239,5.9503239 0 0 0 -0.1222,-0.004 z m 0,4.333182 a 1.617254,1.617254 0 0 1 1.6174,1.617135 1.617254,1.617254 0 0 1 -1.6174,1.61736 1.617254,1.617254 0 0 1 -1.6174,-1.61736 1.617254,1.617254 0 0 1 1.6174,-1.617135 z"
           id="path16971"
           inkscape:connector-curvature="0" />
        <g
           id="g16963">
          <g
             id="g16698"
             transform="matrix(0.88686656,0,0,0.88686656,970.56016,524.11029)">
            <path
               sodipodi:nodetypes="ccccc"
               inkscape:connector-curvature="0"
               id="path16690"
               d="m 72.996432,-543.47977 h 8.88506 l 4.21387,3.90577 -0.06533,13.35506 H 72.86577"
               style="fill:url(#radialGradient16827);fill-opacity:1;stroke:none;stroke-width:0.28289923px;stroke-linecap:butt;stroke-linejoin:miter;stroke-opacity:1" />
            <g
               transform="matrix(0.32659132,0,0,0.32659132,90.952379,-374.98425)"
               id="g16696">
              <path
                 style="fill:url(#radialGradient16829);fill-opacity:1;stroke:#ff6600;stroke-width:1.16499996;stroke-linecap:butt;stroke-linejoin:round;stroke-miterlimit:4;stroke-dasharray:none;stroke-opacity:1"
                 d="m -53.694446,-514.68414 h 25.444058 l 12.067219,11.31886 -0.187089,38.91444 h -37.698365 z"
                 id="path16692"
                 inkscape:connector-curvature="0"
                 sodipodi:nodetypes="cccccc" />
              <path
                 style="fill:#ff6600;stroke:#ff6600;stroke-width:1.06500006;stroke-linecap:butt;stroke-linejoin:round;stroke-miterlimit:4;stroke-dasharray:none;stroke-opacity:1"
                 d="m -28.250388,-514.68414 v 10.85115 h 11.505953 z"
                 id="path16694"
                 inkscape:connector-curvature="0" />
            </g>
          </g>
          <text
             transform="scale(0.95840294,1.0434025)"
             id="text16954"
             y="50.898552"
             x="1081.3427"
             style="font-style:normal;font-weight:normal;font-size:4.8231411px;line-height:1.25;font-family:sans-serif;letter-spacing:0px;word-spacing:0px;fill:#ff6600;fill-opacity:1;stroke:none;stroke-width:0.12057853"
             xml:space="preserve"><tspan
               style="font-style:normal;font-variant:normal;font-weight:bold;font-stretch:normal;font-family:Arial;-inkscape-font-specification:'Arial Bold';fill:#ff6600;fill-opacity:1;stroke-width:0.12057853"
               y="50.898552"
               x="1081.3427"
               id="tspan16952"
               sodipodi:role="line">PDF</tspan></text>
        </g>
      </g>
    </g>
  </g>
</svg>
