<?xml version="1.0" encoding="UTF-8" standalone="no"?>
<!-- Created with Inkscape (http://www.inkscape.org/) -->

<svg
   xmlns:dc="http://purl.org/dc/elements/1.1/"
   xmlns:cc="http://creativecommons.org/ns#"
   xmlns:rdf="http://www.w3.org/1999/02/22-rdf-syntax-ns#"
   xmlns:svg="http://www.w3.org/2000/svg"
   xmlns="http://www.w3.org/2000/svg"
   xmlns:xlink="http://www.w3.org/1999/xlink"
   xmlns:sodipodi="http://sodipodi.sourceforge.net/DTD/sodipodi-0.dtd"
   xmlns:inkscape="http://www.inkscape.org/namespaces/inkscape"
   width="47.80508mm"
   height="25.888981mm"
   viewBox="0 0 47.80508 25.888981"
   version="1.1"
   id="svg8"
   inkscape:version="0.92.4 (5da689c313, 2019-01-14)"
   sodipodi:docname="PulsCambColoOff.svg">
  <defs
     id="defs2">
    <linearGradient
       inkscape:collect="always"
       xlink:href="#linearGradient5605"
       id="linearGradient7244"
       gradientUnits="userSpaceOnUse"
       gradientTransform="translate(9.4328371,-4.1845999)"
       x1="262.99231"
       y1="309.423"
       x2="263.00586"
       y2="283.72061" />
    <linearGradient
       inkscape:collect="always"
       id="linearGradient5605">
      <stop
         style="stop-color:#1a1a1a;stop-opacity:1"
         offset="0"
         id="stop5599" />
      <stop
         id="stop5601"
         offset="0.49169952"
         style="stop-color:#cccccc;stop-opacity:1" />
      <stop
         style="stop-color:#1a1a1a;stop-opacity:1"
         offset="1"
         id="stop5603" />
    </linearGradient>
    <linearGradient
       inkscape:collect="always"
       xlink:href="#linearGradient5597"
       id="linearGradient7246"
       gradientUnits="userSpaceOnUse"
       gradientTransform="matrix(1.6437582,0,0,1.5992882,-393.31964,-180.35537)"
       x1="405.14444"
       y1="288.18219"
       x2="405.10599"
       y2="303.11227" />
    <linearGradient
       id="linearGradient5597"
       inkscape:collect="always">
      <stop
         id="stop5591"
         offset="0"
         style="stop-color:#1a1a1a;stop-opacity:1" />
      <stop
         style="stop-color:#999999;stop-opacity:1"
         offset="0.49884805"
         id="stop5593" />
      <stop
         id="stop5595"
         offset="1"
         style="stop-color:#1a1a1a;stop-opacity:1" />
    </linearGradient>
    <radialGradient
       inkscape:collect="always"
       xlink:href="#linearGradient4607"
       id="radialGradient7415"
       gradientUnits="userSpaceOnUse"
       gradientTransform="matrix(0.26749637,-0.10792297,0.09210769,0.22829681,667.20011,262.29794)"
       cx="126.0754"
       cy="175.25296"
       fx="126.0754"
       fy="175.25296"
       r="39.996906" />
    <linearGradient
       inkscape:collect="always"
       id="linearGradient4607">
      <stop
         style="stop-color:#d7eef4;stop-opacity:1"
         offset="0"
         id="stop4603" />
      <stop
         style="stop-color:#afc6e9;stop-opacity:1"
         offset="1"
         id="stop4605" />
    </linearGradient>
  </defs>
  <sodipodi:namedview
     id="base"
     pagecolor="#ffffff"
     bordercolor="#666666"
     borderopacity="1.0"
     inkscape:pageopacity="0.0"
     inkscape:pageshadow="2"
     inkscape:zoom="1.979899"
     inkscape:cx="76.937409"
     inkscape:cy="19.153449"
     inkscape:document-units="mm"
     inkscape:current-layer="layer1"
     showgrid="false"
     inkscape:window-width="958"
     inkscape:window-height="1008"
     inkscape:window-x="953"
     inkscape:window-y="0"
     inkscape:window-maximized="0" />
  <metadata
     id="metadata5">
    <rdf:RDF>
      <cc:Work
         rdf:about="">
        <dc:format>image/svg+xml</dc:format>
        <dc:type
           rdf:resource="http://purl.org/dc/dcmitype/StillImage" />
        <dc:title></dc:title>
      </cc:Work>
    </rdf:RDF>
  </metadata>
  <g
     inkscape:label="Livello 1"
     inkscape:groupmode="layer"
     id="layer1"
     transform="translate(47.140238,-175.95922)">
    <g
       transform="translate(-497.56573,30.339406)"
       id="g7435"
       inkscape:export-filename="X:\Librerie\Libreria Immagini\Immagini\Grafica 2019\Pulsanti con simbolo\PulsCambColoNoPress.png"
       inkscape:export-xdpi="275"
       inkscape:export-ydpi="275">
      <g
         id="g7115"
         transform="translate(201.61263,-134.20086)">
        <rect
           ry="5.2207417"
           y="280.27267"
           x="249.26486"
           height="24.984982"
           width="46.901081"
           id="rect7111"
           style="display:inline;opacity:1;fill:url(#linearGradient7244);fill-opacity:1;stroke:#e6e6e6;stroke-width:0.90399998;stroke-linecap:round;stroke-linejoin:bevel;stroke-miterlimit:4;stroke-dasharray:none;stroke-dashoffset:0;stroke-opacity:1;paint-order:stroke fill markers"
           inkscape:export-filename="X:\Librerie\Libreria GOT\Immagini\Menu\Sfumati\PulNotEnable.png"
           inkscape:export-xdpi="96"
           inkscape:export-ydpi="96" />
        <rect
           inkscape:export-ydpi="96"
           inkscape:export-xdpi="96"
           inkscape:export-filename="X:\Librerie\Libreria GOT\Immagini\Menu\Sfumati\PulNotEnable.png"
           style="display:inline;opacity:1;fill:none;fill-opacity:1;stroke:url(#linearGradient7246);stroke-width:1.06099999;stroke-linecap:round;stroke-linejoin:bevel;stroke-miterlimit:4;stroke-dasharray:none;stroke-dashoffset:0;stroke-opacity:1;paint-order:stroke fill markers"
           id="rect7113"
           width="45.578239"
           height="23.623405"
           x="249.93549"
           y="280.88474"
           ry="4.9362335" />
      </g>
      <g
         id="g7413"
         transform="matrix(2.9542123,0,0,2.9542123,-86.58293,-67.017766)">
        <g
           id="g7396"
           transform="matrix(0.96559677,0.41304036,-0.42047099,0.94853259,39.152328,-74.422127)">
          <path
             inkscape:connector-curvature="0"
             id="path7384"
             transform="scale(0.26458333)"
             d="m 717.85352,278.11719 c -0.68716,0.026 -1.42382,0.21206 -2.14844,0.58203 -2.63615,1.60335 -7.9465,5.1302 -8.7461,14.42578 0.18312,2.30858 1.26471,9.73329 10.27344,6.08594 3.5825,-1.55205 8.59024,-4.91845 10.74219,-11.11328 0.78569,-3.7681 -0.96851,-5.261 -3.05273,-4.30078 -3.04404,1.40539 -4.06094,0.77344 -3.80469,-2.29102 0.42159,-2.10967 -1.20222,-3.46652 -3.26367,-3.38867 z m 7.82031,7.54492 a 1.3880328,2.0667434 41.718608 0 1 0.97656,0.65625 1.3880328,2.0667434 41.718608 0 1 -1.13281,2.53125 1.3880328,2.0667434 41.718608 0 1 -2.15625,-0.24805 1.3880328,2.0667434 41.718608 0 1 1.13281,-2.53125 1.3880328,2.0667434 41.718608 0 1 1.17969,-0.4082 z"
             style="fill:url(#radialGradient7415);fill-opacity:1;stroke:#ff6600;stroke-width:0.36683747;stroke-linecap:butt;stroke-linejoin:miter;stroke-miterlimit:4;stroke-dasharray:none;stroke-opacity:1" />
          <g
             id="g7394">
            <path
               style="fill:#ffb380;stroke:#ff7f2a;stroke-width:0.05102316;stroke-linecap:butt;stroke-linejoin:miter;stroke-miterlimit:4;stroke-dasharray:none;stroke-opacity:1"
               d="m 190.72202,77.050179 c 0.33609,-0.331937 -0.14842,-0.636792 0.22129,-1.030106 0.13952,-0.117794 -0.0374,-0.502825 -0.45716,-0.134669 -0.32276,0.309949 -0.38414,0.03885 -0.77603,0.478151 -0.18246,0.344091 -0.0279,0.476921 0.17845,0.577228 0.55729,-0.161567 0.2512,0.152594 0.44298,0.261433 0.12862,0.04072 0.22929,0.02084 0.39047,-0.152039 z"
               id="path7386"
               inkscape:connector-curvature="0"
               sodipodi:nodetypes="ccccccc" />
            <path
               style="fill:#ff6600;stroke:#ff7f2a;stroke-width:0.03567785;stroke-linecap:butt;stroke-linejoin:miter;stroke-miterlimit:4;stroke-dasharray:none;stroke-opacity:1"
               d="m 188.93224,75.542605 c 0.0545,0.272348 0.62051,0.323685 0.83267,-0.14888 0.12419,-0.240838 -0.0611,-0.341378 0.3726,-0.722527 0.0573,-0.07608 0.23858,-0.230242 0.0488,-0.209518 -0.21603,0.09447 -0.002,-0.150001 -0.0626,-0.236091 -0.0607,-0.07098 -0.29349,-0.200437 -0.8501,0.139409 -0.18534,0.230984 -0.44575,0.353296 -0.54321,0.549274 -0.16161,0.262789 0.31242,0.226011 0.20179,0.628333 z"
               id="path7388"
               inkscape:connector-curvature="0"
               sodipodi:nodetypes="cccccccc" />
            <path
               sodipodi:nodetypes="cccccccc"
               inkscape:connector-curvature="0"
               id="path7390"
               d="m 189.74266,77.67891 c -0.0545,-0.272348 -0.6205,-0.323685 -0.83266,0.148881 -0.1242,0.240837 0.0611,0.341377 -0.37261,0.722526 -0.0573,0.07608 -0.23857,0.230242 -0.0488,0.209519 0.21603,-0.09447 0.002,0.15 0.0626,0.23609 0.0607,0.07098 0.29349,0.200437 0.8501,-0.139409 0.18534,-0.230984 0.44575,-0.353296 0.54321,-0.549274 0.16161,-0.262789 -0.31242,-0.226011 -0.2018,-0.628333 z"
               style="fill:#ff6600;stroke:#ff7f2a;stroke-width:0.03567785;stroke-linecap:butt;stroke-linejoin:miter;stroke-miterlimit:4;stroke-dasharray:none;stroke-opacity:1" />
            <path
               sodipodi:nodetypes="ccccccc"
               inkscape:connector-curvature="0"
               id="path7392"
               d="m 187.78883,76.298557 c -0.33609,0.331938 0.14841,0.636793 -0.22129,1.030106 -0.13952,0.117794 0.0374,0.502825 0.45715,0.134669 0.32277,-0.309949 0.38414,-0.03885 0.77603,-0.478151 0.18246,-0.344091 0.0279,-0.476921 -0.17845,-0.577228 -0.55729,0.161567 -0.2512,-0.152593 -0.44297,-0.261433 -0.12863,-0.04071 -0.22929,-0.02084 -0.39047,0.15204 z"
               style="fill:#ffb380;stroke:#ff7f2a;stroke-width:0.05102316;stroke-linecap:butt;stroke-linejoin:miter;stroke-miterlimit:4;stroke-dasharray:none;stroke-opacity:1" />
          </g>
        </g>
        <g
           id="g7411"
           transform="translate(14.493849,-0.35115682)">
          <g
             id="g7403"
             transform="rotate(-90,141.24468,23.842934)">
            <path
               inkscape:connector-curvature="0"
               id="path7398"
               d="m 87.31595,54.516044 -0.433862,-0.84083 -0.673713,0.922851 z"
               style="fill:#ff6600;stroke:#ff6600;stroke-width:0.71795386;stroke-linecap:butt;stroke-linejoin:miter;stroke-miterlimit:4;stroke-dasharray:none;stroke-opacity:1"
               sodipodi:nodetypes="cccc"
               inkscape:transform-center-x="-0.85599635"
               inkscape:transform-center-y="-0.61601269" />
            <path
               inkscape:connector-curvature="0"
               id="path7400"
               d="m 86.652056,54.389652 c 1.331303,-0.931209 3.236681,-0.9773 4.296914,0.18563"
               style="fill:none;stroke:#ff6600;stroke-width:0.68199998;stroke-linecap:round;stroke-linejoin:miter;stroke-miterlimit:4;stroke-dasharray:none;stroke-opacity:1"
               sodipodi:nodetypes="cc" />
          </g>
          <g
             transform="rotate(90,122.50666,110.84029)"
             id="g7409">
            <path
               inkscape:transform-center-y="-0.61601269"
               inkscape:transform-center-x="-0.85599635"
               sodipodi:nodetypes="cccc"
               style="fill:#ff6600;stroke:#ff6600;stroke-width:0.71795386;stroke-linecap:butt;stroke-linejoin:miter;stroke-miterlimit:4;stroke-dasharray:none;stroke-opacity:1"
               d="m 87.31595,54.516044 -0.433862,-0.84083 -0.673713,0.922851 z"
               id="path7405"
               inkscape:connector-curvature="0" />
            <path
               sodipodi:nodetypes="cc"
               style="fill:none;stroke:#ff6600;stroke-width:0.68199998;stroke-linecap:round;stroke-linejoin:miter;stroke-miterlimit:4;stroke-dasharray:none;stroke-opacity:1"
               d="m 86.652056,54.389652 c 1.331303,-0.931209 3.236681,-0.9773 4.296914,0.18563"
               id="path7407"
               inkscape:connector-curvature="0" />
          </g>
        </g>
      </g>
    </g>
  </g>
</svg>
