<?xml version="1.0" encoding="UTF-8" standalone="no"?>
<!-- Created with Inkscape (http://www.inkscape.org/) -->

<svg
   xmlns:dc="http://purl.org/dc/elements/1.1/"
   xmlns:cc="http://creativecommons.org/ns#"
   xmlns:rdf="http://www.w3.org/1999/02/22-rdf-syntax-ns#"
   xmlns:svg="http://www.w3.org/2000/svg"
   xmlns="http://www.w3.org/2000/svg"
   xmlns:xlink="http://www.w3.org/1999/xlink"
   xmlns:sodipodi="http://sodipodi.sourceforge.net/DTD/sodipodi-0.dtd"
   xmlns:inkscape="http://www.inkscape.org/namespaces/inkscape"
   width="47.80508mm"
   height="25.888981mm"
   viewBox="0 0 47.80508 25.888982"
   version="1.1"
   id="svg17545"
   inkscape:version="0.92.4 (5da689c313, 2019-01-14)"
   sodipodi:docname="PulsRestoreDataSel.svg">
  <defs
     id="defs17539">
    <linearGradient
       inkscape:collect="always"
       xlink:href="#linearGradient5341"
       id="linearGradient14113"
       gradientUnits="userSpaceOnUse"
       gradientTransform="translate(435.62639,-1.213426)"
       x1="262.99231"
       y1="309.423"
       x2="263.00586"
       y2="283.72061" />
    <linearGradient
       id="linearGradient5341"
       inkscape:collect="always">
      <stop
         id="stop5335"
         offset="0"
         style="stop-color:#000000;stop-opacity:1" />
      <stop
         style="stop-color:#cccccc;stop-opacity:1"
         offset="0.49169952"
         id="stop5337" />
      <stop
         id="stop5339"
         offset="1"
         style="stop-color:#000000;stop-opacity:1" />
    </linearGradient>
    <linearGradient
       inkscape:collect="always"
       xlink:href="#linearGradient7843"
       id="linearGradient14115"
       gradientUnits="userSpaceOnUse"
       gradientTransform="matrix(1.6132823,0,0,1.5448987,45.213368,-161.22771)"
       x1="405.14444"
       y1="288.18219"
       x2="405.10599"
       y2="303.11227" />
    <linearGradient
       id="linearGradient7843"
       inkscape:collect="always">
      <stop
         id="stop7837"
         offset="0"
         style="stop-color:#d45500;stop-opacity:1" />
      <stop
         style="stop-color:#ffccaa;stop-opacity:1"
         offset="0.49884805"
         id="stop7839" />
      <stop
         id="stop7841"
         offset="1"
         style="stop-color:#d45500;stop-opacity:1" />
    </linearGradient>
    <radialGradient
       inkscape:collect="always"
       xlink:href="#linearGradient4607"
       id="radialGradient14283"
       gradientUnits="userSpaceOnUse"
       gradientTransform="matrix(1.0650677,0,0,1.0485258,-12.282418,-5.4876977)"
       cx="188.7636"
       cy="113.08827"
       fx="188.7636"
       fy="113.08827"
       r="2.323365" />
    <linearGradient
       inkscape:collect="always"
       id="linearGradient4607">
      <stop
         style="stop-color:#d7eef4;stop-opacity:1"
         offset="0"
         id="stop4603" />
      <stop
         style="stop-color:#afc6e9;stop-opacity:1"
         offset="1"
         id="stop4605" />
    </linearGradient>
  </defs>
  <sodipodi:namedview
     id="base"
     pagecolor="#ffffff"
     bordercolor="#666666"
     borderopacity="1.0"
     inkscape:pageopacity="0.0"
     inkscape:pageshadow="2"
     inkscape:zoom="1.979899"
     inkscape:cx="210.14121"
     inkscape:cy="16.13"
     inkscape:document-units="mm"
     inkscape:current-layer="layer1"
     showgrid="false"
     inkscape:window-width="958"
     inkscape:window-height="1008"
     inkscape:window-x="953"
     inkscape:window-y="0"
     inkscape:window-maximized="0" />
  <metadata
     id="metadata17542">
    <rdf:RDF>
      <cc:Work
         rdf:about="">
        <dc:format>image/svg+xml</dc:format>
        <dc:type
           rdf:resource="http://purl.org/dc/dcmitype/StillImage" />
        <dc:title></dc:title>
      </cc:Work>
    </rdf:RDF>
  </metadata>
  <g
     inkscape:label="Livello 1"
     inkscape:groupmode="layer"
     id="layer1"
     transform="translate(120.92603,93.462045)">
    <g
       transform="translate(-795.9324,-376.25385)"
       id="g14302"
       inkscape:export-xdpi="96"
       inkscape:export-ydpi="96">
      <rect
         ry="5.2207417"
         y="283.2438"
         x="675.45837"
         height="24.984982"
         width="46.901081"
         id="rect14007"
         style="display:inline;opacity:1;fill:url(#linearGradient14113);fill-opacity:1;stroke:#e6e6e6;stroke-width:0.90399998;stroke-linecap:round;stroke-linejoin:bevel;stroke-miterlimit:4;stroke-dasharray:none;stroke-dashoffset:0;stroke-opacity:1;paint-order:stroke fill markers"
         inkscape:export-filename="X:\Librerie\Libreria Immagini\Immagini\Grafica 2019\Pulsanti con simbolo\PulsParamSel.png"
         inkscape:export-xdpi="96"
         inkscape:export-ydpi="96" />
      <rect
         ry="4.7683592"
         y="284.32629"
         x="676.5423"
         height="22.820005"
         width="44.7332"
         id="rect14009"
         style="display:inline;opacity:1;fill:none;fill-opacity:1;stroke:url(#linearGradient14115);stroke-width:1.61730719;stroke-linecap:round;stroke-linejoin:bevel;stroke-miterlimit:4;stroke-dasharray:none;stroke-dashoffset:0;stroke-opacity:1;paint-order:stroke fill markers"
         inkscape:export-filename="X:\Librerie\Libreria Immagini\Immagini\Grafica 2019\Pulsanti con simbolo\PulsParamSel.png"
         inkscape:export-xdpi="96"
         inkscape:export-ydpi="96"
         rx="4.1010418" />
      <g
         id="g14281"
         transform="translate(0.28093525,-67.708349)">
        <g
           transform="translate(51.238063,68.257562)"
           id="g14270">
          <g
             transform="translate(0,7.4083337)"
             id="g14256">
            <path
               inkscape:connector-curvature="0"
               id="path14252"
               d="m 635.87132,289.49591 a 7.3129939,3.3339448 0 0 0 -4.03767,0.55684 h -3.27476 v 2.77248 a 7.3129939,3.3339448 0 0 0 -4.9e-4,0.005 7.3129939,3.3339448 0 0 0 4.9e-4,0.006 v 0.22774 h 0.0176 a 7.3129939,3.3339448 0 0 0 7.29481,3.09979 7.3129939,3.3339448 0 0 0 7.28716,-3.09979 h 0.0253 v -0.22951 a 7.3129939,3.3339448 0 0 0 4.9e-4,-0.005 7.3129939,3.3339448 0 0 0 -4.9e-4,-0.007 v -2.77033 h -3.27502 a 7.3129939,3.3339448 0 0 0 -4.03741,-0.55684 z"
               style="opacity:1;fill:#ff7f2a;fill-opacity:1;stroke:#000000;stroke-width:0.22671074;stroke-linecap:round;stroke-linejoin:round;stroke-miterlimit:4;stroke-dasharray:none;stroke-dashoffset:0;stroke-opacity:1" />
            <ellipse
               ry="3.333945"
               rx="7.312994"
               cy="290.13602"
               cx="635.87134"
               id="ellipse14254"
               style="opacity:1;fill:#b8cfeb;fill-opacity:1;stroke:#000000;stroke-width:0.22671074;stroke-linecap:round;stroke-linejoin:round;stroke-miterlimit:4;stroke-dasharray:none;stroke-dashoffset:0;stroke-opacity:1" />
          </g>
          <g
             id="g14262"
             transform="translate(0,3.7041668)">
            <path
               style="opacity:1;fill:#ff7f2a;fill-opacity:1;stroke:#000000;stroke-width:0.22671074;stroke-linecap:round;stroke-linejoin:round;stroke-miterlimit:4;stroke-dasharray:none;stroke-dashoffset:0;stroke-opacity:1"
               d="m 635.87132,289.49591 a 7.3129939,3.3339448 0 0 0 -4.03767,0.55684 h -3.27476 v 2.77248 a 7.3129939,3.3339448 0 0 0 -4.9e-4,0.005 7.3129939,3.3339448 0 0 0 4.9e-4,0.006 v 0.22774 h 0.0176 a 7.3129939,3.3339448 0 0 0 7.29481,3.09979 7.3129939,3.3339448 0 0 0 7.28716,-3.09979 h 0.0253 v -0.22951 a 7.3129939,3.3339448 0 0 0 4.9e-4,-0.005 7.3129939,3.3339448 0 0 0 -4.9e-4,-0.007 v -2.77033 h -3.27502 a 7.3129939,3.3339448 0 0 0 -4.03741,-0.55684 z"
               id="path14258"
               inkscape:connector-curvature="0" />
            <ellipse
               style="opacity:1;fill:#b8cfeb;fill-opacity:1;stroke:#000000;stroke-width:0.22671074;stroke-linecap:round;stroke-linejoin:round;stroke-miterlimit:4;stroke-dasharray:none;stroke-dashoffset:0;stroke-opacity:1"
               id="ellipse14260"
               cx="635.87134"
               cy="290.13602"
               rx="7.312994"
               ry="3.333945" />
          </g>
          <g
             id="g14268">
            <path
               inkscape:connector-curvature="0"
               id="path14264"
               d="m 635.87132,289.49591 a 7.3129939,3.3339448 0 0 0 -4.03767,0.55684 h -3.27476 v 2.77248 a 7.3129939,3.3339448 0 0 0 -4.9e-4,0.005 7.3129939,3.3339448 0 0 0 4.9e-4,0.006 v 0.22774 h 0.0176 a 7.3129939,3.3339448 0 0 0 7.29481,3.09979 7.3129939,3.3339448 0 0 0 7.28716,-3.09979 h 0.0253 v -0.22951 a 7.3129939,3.3339448 0 0 0 4.9e-4,-0.005 7.3129939,3.3339448 0 0 0 -4.9e-4,-0.007 v -2.77033 h -3.27502 a 7.3129939,3.3339448 0 0 0 -4.03741,-0.55684 z"
               style="opacity:1;fill:#ff7f2a;fill-opacity:1;stroke:#000000;stroke-width:0.22671074;stroke-linecap:round;stroke-linejoin:round;stroke-miterlimit:4;stroke-dasharray:none;stroke-dashoffset:0;stroke-opacity:1" />
            <ellipse
               ry="3.333945"
               rx="7.312994"
               cy="290.13602"
               cx="635.87134"
               id="ellipse14266"
               style="opacity:1;fill:#b8cfeb;fill-opacity:1;stroke:#000000;stroke-width:0.22671074;stroke-linecap:round;stroke-linejoin:round;stroke-miterlimit:4;stroke-dasharray:none;stroke-dashoffset:0;stroke-opacity:1" />
          </g>
        </g>
        <g
           id="g14276"
           transform="matrix(2.5744325,0,0,2.5744325,225.24325,72.306527)">
          <path
             inkscape:connector-curvature="0"
             id="path14272"
             d="m 186.28904,110.92023 0.26808,-0.26807 h 3.63201 l 1.049,1.04909 v 3.82313 h -4.69029 l -0.2588,-0.22387 z"
             style="fill:url(#radialGradient14283);fill-opacity:1;stroke:none;stroke-width:0.28179917px;stroke-linecap:butt;stroke-linejoin:miter;stroke-opacity:1" />
          <path
             sodipodi:nodetypes="ccccccccccccccccccccccccccccccccsssssscss"
             inkscape:connector-curvature="0"
             id="path14274"
             d="m 186.69192,110.80099 -0.2517,0.25169 v 4.11268 l 0.24299,0.21019 h 4.40374 v -3.58956 l -0.98491,-0.985 z m 1.62842,0.24076 h 0.88426 l -0.009,1.10311 c 0,0.12841 -0.0583,0.18685 -0.17508,0.17518 h -0.30644 c -0.0784,0.007 -0.14635,-0.001 -0.14007,-0.14007 h -0.26262 z m 1.20819,0 0.38527,0.009 0.86235,0.86235 v 3.17372 H 190.334 v -1.54962 h -2.86283 l -0.27577,0.27577 v 1.28255 h -0.42339 l -0.0232,-4.02301 0.44211,-0.007 v 1.29802 l 0.26707,0.26707 h 2.07051 z m -1.88682,2.78399 h 2.23272 c 0.0849,0 0.15332,0.0683 0.15332,0.15322 v 0.96324 c 0,0.0849 -0.0684,0.15322 -0.15332,0.15322 h -2.23272 c -0.0849,0 -0.15322,-0.0683 -0.15322,-0.15322 v -0.96324 c 0,-0.0849 0.0683,-0.15322 0.15322,-0.15322 z"
             style="fill:#ff6600;stroke:#ff6600;stroke-width:0.04952582px;stroke-linecap:butt;stroke-linejoin:miter;stroke-opacity:1" />
        </g>
        <path
           style="opacity:1;fill:#ff6600;fill-opacity:1;stroke:#000000;stroke-width:0.51999998;stroke-linecap:round;stroke-linejoin:round;stroke-miterlimit:4;stroke-dasharray:none;stroke-dashoffset:5.37312746;stroke-opacity:1;paint-order:stroke fill markers"
           d="m 702.0039,361.74948 h -3.05341 v -1.26802 l -2.64262,2.96319 2.64262,2.96318 v -1.26741 h 3.05341 z"
           id="path14278"
           inkscape:connector-curvature="0" />
      </g>
    </g>
  </g>
</svg>
